<svg xmlns="http://www.w3.org/2000/svg" xmlns:xlink="http://www.w3.org/1999/xlink" viewBox="0 0 98 98"><defs><style>.cls-1{fill:url(#radial-gradient);}.cls-2{fill:url(#linear-gradient);}.cls-3{fill:url(#linear-gradient-2);}.cls-4{fill:url(#linear-gradient-3);}.cls-5{fill:url(#linear-gradient-4);}.cls-6{fill:#ffc961;}.cls-7{fill:#b4794c;}.cls-8{fill:#ede1d2;}.cls-9{fill:url(#radial-gradient-2);}.cls-10{fill:url(#radial-gradient-3);}.cls-11{fill:url(#radial-gradient-4);}.cls-12{fill:url(#radial-gradient-5);}.cls-13{fill:#bf5249;}.cls-14{fill:#fd6f47;}.cls-15{fill:#eb2100;}.cls-16{fill:#e86900;}.cls-17{fill:#ffb500;}.cls-18{fill:#ffab82;}.cls-19{fill:#759e00;}.cls-20{fill:#d7948e;}</style><radialGradient id="radial-gradient" cx="95.12" cy="4.29" r="99.99" gradientUnits="userSpaceOnUse"><stop offset="0.69" stop-color="#cf7516"/><stop offset="0.91" stop-color="#ffb346"/><stop offset="0.93" stop-color="#f6a83d"/><stop offset="0.97" stop-color="#df8a26"/><stop offset="1" stop-color="#cf7516"/></radialGradient><linearGradient id="linear-gradient" x1="46.22" y1="10.39" x2="99.54" y2="73.94" gradientUnits="userSpaceOnUse"><stop offset="0" stop-color="#fbfccd"/><stop offset="1" stop-color="#f1d89a"/></linearGradient><linearGradient id="linear-gradient-2" x1="32.36" y1="26.54" x2="67.66" y2="42.19" xlink:href="#linear-gradient"/><linearGradient id="linear-gradient-3" x1="58.34" y1="7.99" x2="88.75" y2="30.5" xlink:href="#linear-gradient"/><linearGradient id="linear-gradient-4" x1="34.56" y1="39.81" x2="68.57" y2="61.84" xlink:href="#linear-gradient"/><radialGradient id="radial-gradient-2" cx="35.18" cy="43.51" r="7.88" gradientUnits="userSpaceOnUse"><stop offset="0" stop-color="#c1a486"/><stop offset="0.16" stop-color="#c3a789"/><stop offset="1" stop-color="#e3d1ba"/></radialGradient><radialGradient id="radial-gradient-3" cx="35.01" cy="51.22" r="9.12" gradientUnits="userSpaceOnUse"><stop offset="0" stop-color="#e3d1ba"/><stop offset="0.13" stop-color="#dfccb4"/><stop offset="0.3" stop-color="#d3bca2"/><stop offset="0.5" stop-color="#c0a384"/><stop offset="0.73" stop-color="#a6805b"/><stop offset="0.97" stop-color="#855528"/></radialGradient><radialGradient id="radial-gradient-4" cx="7063.03" cy="715.55" r="8" gradientTransform="matrix(-0.97, -0.25, 0.25, -0.97, 6728.48, 2473.77)" xlink:href="#radial-gradient-2"/><radialGradient id="radial-gradient-5" cx="7062.86" cy="723.38" r="9.26" gradientTransform="matrix(-0.97, -0.25, 0.25, -0.97, 6728.48, 2473.77)" xlink:href="#radial-gradient-3"/></defs><title>资源 12</title><g id="图层_2" data-name="图层 2"><g id="图层_5" data-name="图层 5"><path class="cls-1" d="M.65,32.54a89.59,89.59,0,0,0,23.51,41.1l.2.2a89.59,89.59,0,0,0,41.1,23.51c5.37,1.39,7.25.89,9.09-4.8,6.27-19.48,16.23-52.33,20.46-68,4-15,3.74-18.35.57-21.52L95,2.42C91.78-.75,88.43-1,73.43,3c-15.65,4.23-48.5,14.19-68,20.47C-.24,25.29-.73,27.17.65,32.54Z"/><path class="cls-2" d="M16.75,28.15A73.39,73.39,0,0,0,36,61.82l.17.17A73.39,73.39,0,0,0,69.85,81.25c4.4,1.13,5.94.73,7.44-3.94,5.14-16,13.31-42.87,16.77-55.69,3.31-12.29,3.06-15,.47-17.63L94,3.47C91.42.88,88.67.63,76.38,3.94,63.56,7.4,36.64,15.57,20.69,20.71,16,22.21,15.62,23.75,16.75,28.15Z"/><path class="cls-3" d="M53.85,16c-2.94,1.15-8.59,2.61-7.21,8.44s5.06,9.67-2.15,15.19-8.44,4.76-8,10.44,2-2.3,5.83-3.38,16-4,13-12.74-4.15-11.51,0-15.65S60.15,13.57,53.85,16Z"/><path class="cls-4" d="M79,7.59c-4.21.58-8.44,5.67-6.9,9.82s4,9.21-.92,12.43S64,36.29,71.81,34s12.58-4.29,11.36-11-5.68-9-.62-12.89S83.47,7,79,7.59Z"/><path class="cls-5" d="M64.6,46.42c0,5.06-.16,8.9-5.38,10.43S51.4,62.68,52.32,67s2.91-2.76,11-4.45S74.42,56.39,71,50.25,64.6,40.89,64.6,46.42Z"/><path class="cls-6" d="M22.39,53.15c-2.8-2.51-6.31-4.11-5.71-8s-1.8-8-3.71-10.33-3.1-5.41-1.2-6.71,3.71-4.71.9-4.11C8.33,24.91.24,27.49,1.85,28.89s5.21,3.31,4.91,6.62S8.36,43,11,44.73a10.88,10.88,0,0,1,4.51,7.61c.4,2.91,3.41,5.32,7.32,6.12S25.2,55.65,22.39,53.15Zm4,9.14c-4.1-.54-1.64,1.64-.55,3.82s3.55,5.46,8.46,4.64S30.52,62.84,26.38,62.29ZM63.77,84.4c-4.37-.82-9.83-.55-9-2.46s-3.27-4.36-7.91-4.64c-3-.17-9.56,1.64-4.37,3.28s12.28,1.91,9.83,3.55S55,88.77,60,88.49,68.13,85.22,63.77,84.4Z"/><path class="cls-7" d="M45.11,43.32c0,4.82-4.49,4.87-10,4.87s-10,0-10-4.87S29,34,35.07,34,45.11,38.51,45.11,43.32Z"/><path class="cls-8" d="M44.86,43.62c0,3.22-2.06,5.05-5.1,6.13-1.39.49-3-2.93-4.69-2.93s-3.37,3.41-4.79,2.89c-3-1.09-5-2.91-5-6.09,0-4.7,4.39-8.51,9.79-8.51S44.86,38.92,44.86,43.62Z"/><path class="cls-9" d="M35.07,37.91c-4.42,0-8,2.92-8,6.51,0,2.44,1.65,3.83,4.08,4.66a.56.56,0,0,0,.28,0,19.85,19.85,0,0,1-.08,3.14c-.1.59,1.81,1.17,3.72,1.17s3.82-.58,3.72-1.17a20.78,20.78,0,0,1-.08-3.11.71.71,0,0,0,.2,0c2.48-.82,4.17-2.22,4.17-4.69C43.08,40.83,39.49,37.91,35.07,37.91Z"/><path class="cls-10" d="M29.29,44.19a2.46,2.46,0,0,0-1,2c0,1.34,1.23,2.53,3.12,3.25a20,20,0,0,0-.56-4.71A.92.92,0,0,0,29.29,44.19Zm11.57,0a.93.93,0,0,0-1.58.54,21.1,21.1,0,0,0-.56,4.71c1.89-.72,3.13-1.91,3.13-3.25A2.46,2.46,0,0,0,40.86,44.19Z"/><path class="cls-7" d="M51.33,33.53c1.2-4.73,5.64-3.66,11.09-2.27s9.86,2.57,8.66,7.31-6.24,8.17-12.22,6.65S50.12,38.27,51.33,33.53Z"/><path class="cls-8" d="M51.65,33.3c.8-3.17,3.29-4.45,6.55-4.74,1.49-.14,2.21,3.63,3.88,4.05s4.17-2.5,5.44-1.64c2.66,1.82,4.18,4.11,3.39,7.24-1.18,4.62-6.45,7.27-11.77,5.91S50.47,37.92,51.65,33.3Z"/><path class="cls-11" d="M59.84,41.37c4.35,1.11,8.61-.86,9.51-4.4.61-2.39-.66-4.18-2.85-5.61a.82.82,0,0,0-.26-.1,20.37,20.37,0,0,1,.86-3.07c.25-.56-1.49-1.6-3.37-2.08s-3.9-.39-3.95.22a19.17,19.17,0,0,1-.7,3.08.65.65,0,0,0-.2,0c-2.65.19-4.66,1.14-5.28,3.57C52.7,36.5,55.5,40.26,59.84,41.37Z"/><path class="cls-12" d="M67.11,36.65a2.48,2.48,0,0,0,1.47-1.72c.34-1.32-.58-2.8-2.26-4a21,21,0,0,0-.63,4.76C65.77,36.82,66.54,36.88,67.11,36.65ZM55.73,33.74a.94.94,0,0,0,1.69-.14,21,21,0,0,0,1.73-4.48c-2,.23-3.56,1.09-3.89,2.42A2.44,2.44,0,0,0,55.73,33.74Z"/><path class="cls-13" d="M69.49,46.56A10.58,10.58,0,1,0,80.07,57.13,10.57,10.57,0,0,0,69.49,46.56ZM50.43,13.15,34.11,18a10.74,10.74,0,1,0,16.32-4.8Zm42.75-7.9-.78,0A11.56,11.56,0,0,0,89.78,28c1.59-6,4.36-16.61,4.59-18.56A6.33,6.33,0,0,0,93.18,5.25Z"/><path class="cls-14" d="M60.05,68.76a12.43,12.43,0,1,1-8.86-23.23C53.61,51.89,57.4,61.81,60.05,68.76Z"/><path class="cls-15" d="M59,66.44a9.91,9.91,0,0,1-7.07-18.52C53.83,53,56.85,60.9,59,66.44Z"/><path class="cls-16" d="M51.24,60.53a1.14,1.14,0,1,0,1.14,2c.57-.33,1.24-1.56,1-1.91A2.77,2.77,0,0,0,51.24,60.53Zm-1.18-4.11a1.16,1.16,0,0,0-.93,1.36,1.17,1.17,0,0,0,1.4.87c.64-.14,1.64-1.22,1.58-1.5S50.7,56.28,50.06,56.42Zm-.46-3.48a1.18,1.18,0,0,0,.74,1.48A2.79,2.79,0,0,0,52.47,54c.14-.39-.74-1.48-1.36-1.71A1.18,1.18,0,0,0,49.6,52.94Zm4.32,10.88a1.15,1.15,0,0,0,.43,1.59,1.17,1.17,0,0,0,1.57-.5c.31-.58.24-2-.12-2.18A2.77,2.77,0,0,0,53.92,63.82Z"/><path class="cls-17" d="M49.86,56.86a.78.78,0,0,0-.38.23.56.56,0,0,0,.13.83.64.64,0,0,0,.49.08,2.5,2.5,0,0,0,1-.76l.06-.08A2.45,2.45,0,0,0,49.86,56.86Zm1.35,4.06a.58.58,0,0,0-.19.15.6.6,0,0,0-.08.66.54.54,0,0,0,.36.26.63.63,0,0,0,.48-.07,1.09,1.09,0,0,0,.29-.27h0a2.78,2.78,0,0,0,.47-.8A2.65,2.65,0,0,0,51.21,60.92Zm-1.3-8.05a.51.51,0,0,0-.09.16.61.61,0,0,0,.39.76,2.77,2.77,0,0,0,1.33-.17,2.56,2.56,0,0,0-.93-.92A.62.62,0,0,0,49.91,52.87ZM54.09,64a.7.7,0,0,0-.06.49.56.56,0,0,0,.27.35.6.6,0,0,0,.74-.17h0l.07-.11a2.4,2.4,0,0,0,.08-1.31,3.11,3.11,0,0,0-1,.68Z"/><path class="cls-18" d="M53.75,53.94a1.89,1.89,0,0,1-1.19,1.38c-.77.22,0,.72.22,1.62a2.4,2.4,0,0,1-.42,2c-.29.44.7.26,1.42,1.11s.2,2.09.74,1.95a2.36,2.36,0,0,1,2.19.55c.65.67.49-.25.16-1.12l-2.63-6.9C54,54,53.9,53.48,53.75,53.94Z"/><path class="cls-14" d="M78.21,5.39A12.17,12.17,0,0,1,55.12,13.1Z"/><path class="cls-15" d="M75.89,6.36A9.7,9.7,0,1,1,57.48,12.5Z"/><path class="cls-16" d="M69.8,13.66a1.11,1.11,0,1,0,2-1c-.3-.57-1.47-1.28-1.83-1.1A2.7,2.7,0,0,0,69.8,13.66Zm-4.08,1a1.12,1.12,0,1,0,2.2-.37c-.1-.63-1.13-1.65-1.39-1.6S65.62,14,65.72,14.65ZM62.3,15a1.15,1.15,0,0,0,1.48-.66,2.74,2.74,0,0,0-.35-2.1c-.36-.15-1.47.66-1.72,1.26A1.14,1.14,0,0,0,62.3,15Zm10.82-3.76a1.12,1.12,0,1,0,1.15-1.92c-.55-.33-1.93-.31-2.13,0A2.74,2.74,0,0,0,73.12,11.19Z"/><path class="cls-17" d="M66.15,14.87a.71.71,0,0,0,.2.37.53.53,0,0,0,.46.14.49.49,0,0,0,.36-.23.65.65,0,0,0,.1-.47,2.28,2.28,0,0,0-.71-1,.46.46,0,0,0-.07-.07A2.47,2.47,0,0,0,66.15,14.87Zm4-1.15a.65.65,0,0,0,.15.18A.57.57,0,0,0,71,14a.58.58,0,0,0,.27-.34.63.63,0,0,0,0-.48,1.12,1.12,0,0,0-.26-.29h0a2.77,2.77,0,0,0-.75-.49A2.63,2.63,0,0,0,70.17,13.72Zm-7.93.93a.54.54,0,0,0,.16.1.59.59,0,0,0,.76-.36,2.71,2.71,0,0,0-.11-1.3,2.33,2.33,0,0,0-.94.87A.62.62,0,0,0,62.24,14.65ZM73.29,11a.63.63,0,0,0,.48.08.53.53,0,0,0,.35-.25.58.58,0,0,0-.14-.72h0a.39.39,0,0,0-.1-.08,2.38,2.38,0,0,0-1.28-.14A3.11,3.11,0,0,0,73.23,11Z"/><path class="cls-18" d="M63.45,10.94a1.86,1.86,0,0,1,1.3,1.22c.19.76.7,0,1.6-.15a2.41,2.41,0,0,1,1.94.49c.42.31.29-.66,1.15-1.33s2-.12,1.94-.65A2.28,2.28,0,0,1,72,8.4c.68-.61-.23-.49-1.09-.21l-6.86,2.29C63.49,10.67,63,10.77,63.45,10.94Z"/><path class="cls-19" d="M77.76,37.43a3,3,0,0,1,2.6.21,6.63,6.63,0,0,1,.85,6.71l3.36,1c1.32-3.36,1.3-6-1.62-9.63a2.93,2.93,0,0,1-.46-.86,2.71,2.71,0,0,1-.13-1c.33-5.86-2.25-7.79-7.07-10.31l-1.58-.81-.61,3.57.57.3c3.34,1.78,5.22,3.25,5.53,6.59a1.28,1.28,0,0,0,0,.19c.07.85-.83,1.73-2,2.12A37,37,0,0,1,73,36.92c.21.59.44,1.21.66,1.81A39.64,39.64,0,0,1,77.76,37.43Z"/><path class="cls-19" d="M27.91,23.21a3,3,0,0,1-.57-.79,2.82,2.82,0,0,1-.26-.94c0-.53-.12-1-.2-1.48l-3.09,1,.06.24a1.13,1.13,0,0,0,0,.18c.18.83-.59,1.83-1.74,2.39a37.81,37.81,0,0,1-3.92,1.93l.91,1.69A37.24,37.24,0,0,1,23,25.62a2.92,2.92,0,0,1,2.6-.16A6.6,6.6,0,0,1,27.38,32l3.47.52C31.69,29,31.3,26.36,27.91,23.21Z"/><path class="cls-19" d="M76.16,72.82a2,2,0,0,0,.13-.91,1.3,1.3,0,0,1-.47.38l-.16.08c-3.09,1.33-5.28.38-8.43-1.71-.09-.06-.3-.21-.54-.36l-2.84,2.24,1.46,1c3.64,2.46,6.25,3.8,9.75,2.61Z"/><path class="cls-20" d="M39.17,20.89a2,2,0,1,1-2-2A2,2,0,0,1,39.17,20.89Z"/><circle class="cls-20" cx="43.96" cy="19.25" r="1.49"/><path class="cls-20" d="M53,20.58a2.35,2.35,0,1,1-2.35-2.35A2.35,2.35,0,0,1,53,20.58Z"/><circle class="cls-20" cx="48.12" cy="26.7" r="1.88"/><circle class="cls-20" cx="42" cy="24.82" r="1.88"/><path class="cls-20" d="M67.57,53.14A2.12,2.12,0,1,1,65.46,51,2.11,2.11,0,0,1,67.57,53.14Z"/><path class="cls-20" d="M73.54,50.71A1.57,1.57,0,1,1,72,49.14,1.57,1.57,0,0,1,73.54,50.71Z"/><path class="cls-20" d="M77.3,56.43a1.81,1.81,0,1,1-1.8-1.8A1.8,1.8,0,0,1,77.3,56.43Z"/><circle class="cls-20" cx="69.61" cy="57.3" r="1.88"/><path class="cls-20" d="M63.81,58.39A1.42,1.42,0,1,1,62.4,57,1.42,1.42,0,0,1,63.81,58.39Z"/><path class="cls-20" d="M68.05,62.32a1.73,1.73,0,1,1-1.73-1.73A1.73,1.73,0,0,1,68.05,62.32Z"/><path class="cls-20" d="M75.11,62.55a2,2,0,1,1-2-2A2,2,0,0,1,75.11,62.55Z"/><path class="cls-20" d="M88.76,22.23A1.81,1.81,0,1,1,87,20.42,1.81,1.81,0,0,1,88.76,22.23Z"/><path class="cls-20" d="M87.34,16.66a2.2,2.2,0,1,1-2.19-2.2A2.19,2.19,0,0,1,87.34,16.66Z"/><path class="cls-20" d="M92.05,14.38a1.65,1.65,0,1,1-1.65-1.65A1.65,1.65,0,0,1,92.05,14.38Z"/><path class="cls-20" d="M90.33,9.36a1.81,1.81,0,1,1-1.81-1.8A1.81,1.81,0,0,1,90.33,9.36Z"/></g></g></svg>