<?xml version="1.0" standalone="no"?><!DOCTYPE svg PUBLIC "-//W3C//DTD SVG 1.1//EN" "http://www.w3.org/Graphics/SVG/1.1/DTD/svg11.dtd"><svg t="1605689380872" class="icon" viewBox="0 0 1024 1024" version="1.1" xmlns="http://www.w3.org/2000/svg" p-id="1745" width="48" height="48" xmlns:xlink="http://www.w3.org/1999/xlink"><defs><style type="text/css"></style></defs><path d="M637.5 705.9H375.9c-87.7 0-159.5-71.8-159.5-159.5s71.8-159.5 159.5-159.5h261.6c87.7 0 159.5 71.8 159.5 159.5s-71.8 159.5-159.5 159.5z" fill="#B2BBC5" p-id="1746"></path><path d="M847.2 560.6c1.8-46.1-11.7-89.3-35.9-124.9 0.1-2.6 0.2-5.1 0.2-7.7v-42c0-166.8-136.5-308.9-303.3-306.1C346 82.6 214.9 215.4 214.9 378.2v49.9c0 2.5 0.1 4.9 0.2 7.4-24.7 36.2-37.4 79-35.9 123.8 2.2 68.1 38.2 128.3 91.2 164.9v53c0 54.9 39.4 104 93.9 111 65.9 8.5 122.3-42.9 122.3-107.2v-45c9.2-5 18.1-10.6 26.6-17 8.4 6.4 17.3 12 26.6 17v41.2c0 54.9 39.4 104 93.9 111C699.6 896.7 756 845.3 756 781v-57c52.7-36.3 88.6-95.9 91.2-163.4z m-334-408.1c121.5 0 220.6 96.6 225.2 217-0.2-0.1-0.3-0.2-0.5-0.3-26.1-14.2-55.8-20.5-85.5-20.7l-273-2.2c-21.6-0.2-43.3 2.7-63.5 10.2-9.6 3.5-18.9 7.8-28 12.7 4.8-120.3 103.9-216.7 225.3-216.7zM414 780.9c0 21.6-19.3 38.7-41.5 35-17.5-2.9-29.5-19.3-29.5-37v-23c14.5 3.2 29.4 5.1 44.8 5.1h0.4c8.7 0 17.3-0.8 25.9-1.9v21.8z m269.4 0c0 21.6-19.3 38.7-41.5 35-17.5-2.9-29.5-19.3-29.5-37v-19.7c8.6 1.1 17.2 1.8 26 1.9h0.4c15.3 0 30.3-1.9 44.8-5.1v24.9z m-44.7-92.4h-13c-28 0-52.4-14.1-74.2-31.8-0.6-0.5-1.3-0.9-2-1.4V566h27.2c19.5 0 35.4-15.9 35.4-35.4v-1.7c0-19.5-15.9-35.4-35.4-35.4h-127c-19.5 0-35.4 15.9-35.4 35.4v1.7c0 19.5 15.9 35.4 35.4 35.4h27.2v89.3c-0.6 0.5-1.4 0.9-2 1.4-21.7 17.7-46.1 31.8-74.1 31.8h-7.4c-74.1 0-139-56.8-141.7-130.9-1.5-40.4 14.4-78.5 44.5-105.9 25.3-23.1 59.1-34.7 93.3-35.3h1.5l244.9 0.1c0.7 0 1.4 0 2.2-0.1l1.5 0.1C701.5 419 756.8 461 771 521.3c20.7 87.7-48.2 167.2-132.3 167.2z" fill="#242529" p-id="1747"></path></svg>