<?xml version="1.0" standalone="no"?><!DOCTYPE svg PUBLIC "-//W3C//DTD SVG 1.1//EN" "http://www.w3.org/Graphics/SVG/1.1/DTD/svg11.dtd"><svg t="1605689125329" class="icon" viewBox="0 0 1024 1024" version="1.1" xmlns="http://www.w3.org/2000/svg" p-id="1417" width="32" height="32" xmlns:xlink="http://www.w3.org/1999/xlink"><defs><style type="text/css"></style></defs><path d="M628.053333 448.234667l0.234667-0.234667S484.394667 155.050667 421.546667 130.496c-39.722667-15.530667-74.176 131.349333-17.962667 222.016C451.285333 429.44 597.333333 476.010667 597.333333 476.010667l0.32-0.298667c1.408 1.045333 2.709333 2.197333 4.416 2.858667 10.986667 4.266667 23.338667-1.152 27.626667-12.096a21.013333 21.013333 0 0 0-1.642667-18.24z" fill="#42A5F5" p-id="1418"></path><path d="M629.461333 680.554667l0.192-0.512a135.872 135.872 0 0 0 4.672-13.418667c3.626667-12.373333 5.674667-25.493333 5.674667-39.082667a138.688 138.688 0 0 0-85.632-128.128h-0.021333c-76.309333-47.722667-135.637333-5.269333-170.218667 54.208-4.16 6.634667-7.893333 13.546667-10.922667 20.842667l-0.021333 0.064C289.770667 755.584 408.874667 876.458667 426.666667 896c29.568-109.653333 147.584-91.882667 199.36-208.128 1.173333-2.410667 2.346667-4.8 3.392-7.253333l0.042666-0.064z" fill="#5D4037" p-id="1419"></path><path d="M571.754667 758.4c4.074667-3.328 8.064-6.890667 11.989333-10.602667a355.178667 355.178667 0 0 1-135.296 4.16 415.957333 415.957333 0 0 1-103.573333-30.954666c2.24 28.266667 8.810667 53.674667 17.536 75.754666 1.28 0.106667 2.538667 0.234667 3.84 0.32 27.456 1.514667 54.784 0.768 81.642666-2.432a383.786667 383.786667 0 0 0 123.861334-36.245333zM399.552 530.666667c9.237333 11.050667 18.752 21.76 28.906667 31.744a384.853333 384.853333 0 0 0 75.925333 58.496c27.498667 16 57.173333 27.925333 87.509333 34.453333 14.506667 3.157333 29.098667 4.992 43.648 5.738667 0.896-3.562667 1.770667-7.104 2.389334-10.773334a263.594667 263.594667 0 0 1-108.117334-63.658666 332.458667 332.458667 0 0 1-51.712-64.661334 373.205333 373.205333 0 0 1-19.584-36.010666l-0.533333-1.194667c-22.805333 8.341333-42.432 24.981333-58.432 45.866667zM486.762667 667.584a490.496 490.496 0 0 1-74.773334-46.976 551.082667 551.082667 0 0 1-42.816-36.053333 313.066667 313.066667 0 0 0-21.909333 75.690666 739.84 739.84 0 0 0 32.576 15.722667 542.826667 542.826667 0 0 0 92.458667 31.765333c45.397333 11.114667 93.312 14.72 138.474666 7.594667 2.368-3.648 4.736-7.381333 6.954667-11.328-46.357333-2.026667-90.858667-16.192-130.965333-36.416z" fill="#FFC107" p-id="1420"></path><path d="M699.050667 549.674667c-44.373333 44.394667-100.266667 28.330667-144.64-16.064-44.394667-44.394667-60.437333-100.266667-16.085334-144.597334 44.373333-44.394667 100.266667-28.330667 144.618667 16.064 44.394667 44.373333 60.458667 100.266667 16.106667 144.597334z" fill="#795548" p-id="1421"></path><path d="M806.976 402.986667c-18.752 43.712-102.976 23.68-158.741333-2.346667-42.026667-19.605333-60.970667-70.762667-42.24-114.517333 18.752-43.754667 65.28-55.573333 110.122666-43.946667 53.290667 13.866667 109.610667 117.056 90.858667 160.810667z" fill="#8D6E63" p-id="1422"></path><path d="M694.997333 418.368a347.733333 347.733333 0 0 1-46.762666-17.728 84.437333 84.437333 0 0 1-38.549334-37.013333c-14.933333-2.218667-47.68 0.384-62.357333 18.368 11.754667 29.824 17.109333 75.456 48.661333 87.338666 61.994667 23.338667 101.994667 13.994667 126.336-0.917333-4.522667-17.173333-14.122667-34.133333-27.328-50.048z" fill="#4E342E" p-id="1423"></path><path d="M755.690667 368.96c-9.749333 15.893333-43.029333 10.176-74.261334-12.8s-48.682667-54.464-38.933333-70.378667c9.728-15.872 43.029333-10.154667 74.261333 12.821334s48.682667 54.442667 38.933334 70.357333z" fill="#3E2723" p-id="1424"></path><path d="M610.517333 431.616l0.149334-0.298667C610.666667 431.338667 259.456 128 192 128c-42.666667 0-21.333333 149.333333 64 213.333333 72.426667 54.314667 336 127.338667 336 127.338667l0.192-0.384c1.685333 0.448 3.306667 1.045333 5.141333 1.045333a21.333333 21.333333 0 0 0 21.333334-21.333333 21.013333 21.013333 0 0 0-8.149334-16.384z" fill="#90CAF9" p-id="1425"></path></svg>