<svg xmlns="http://www.w3.org/2000/svg" xmlns:xlink="http://www.w3.org/1999/xlink" viewBox="0 0 360 360"><defs><style>.cls-1{isolation:isolate;}.cls-2{fill:#f1dbd9;}.cls-3{fill:#bc2d26;}.cls-4{fill:#69110d;}.cls-5{fill:#ce3b34;}.cls-6{fill:#db4337;}.cls-12,.cls-14,.cls-15,.cls-16,.cls-18,.cls-19,.cls-20,.cls-21,.cls-22,.cls-23,.cls-25,.cls-28,.cls-30,.cls-7,.cls-9{opacity:0.49;mix-blend-mode:color-burn;}.cls-7{fill:url(#linear-gradient);}.cls-8{fill:#f4b401;}.cls-9{fill:url(#linear-gradient-2);}.cls-10{fill:url(#linear-gradient-3);}.cls-11{fill:#e8d2d1;}.cls-12{fill:url(#linear-gradient-4);}.cls-13{fill:#ffb699;}.cls-14{fill:url(#linear-gradient-5);}.cls-15{fill:url(#linear-gradient-6);}.cls-16{fill:url(#linear-gradient-7);}.cls-17{fill:#f9ebea;}.cls-18{fill:url(#linear-gradient-8);}.cls-19{fill:url(#linear-gradient-9);}.cls-20{fill:url(#linear-gradient-10);}.cls-21{fill:url(#linear-gradient-11);}.cls-22{fill:url(#linear-gradient-12);}.cls-23{fill:url(#linear-gradient-13);}.cls-24{fill:#aac9e5;}.cls-25{fill:url(#linear-gradient-14);}.cls-26{fill:#8db4d3;}.cls-27{fill:#ccdef2;}.cls-28{fill:url(#linear-gradient-15);}.cls-29{fill:#dcebf9;}.cls-30{fill:url(#linear-gradient-16);}</style><linearGradient id="linear-gradient" x1="211" y1="244.19" x2="166.35" y2="157.96" gradientUnits="userSpaceOnUse"><stop offset="0.02" stop-color="#fff" stop-opacity="0"/><stop offset="0.71"/></linearGradient><linearGradient id="linear-gradient-2" x1="52.58" y1="171.44" x2="216.11" y2="75.59" gradientUnits="userSpaceOnUse"><stop offset="0.02" stop-color="#fff" stop-opacity="0"/><stop offset="0.54"/></linearGradient><linearGradient id="linear-gradient-3" x1="74.72" y1="100.51" x2="74.47" y2="99.8" xlink:href="#linear-gradient"/><linearGradient id="linear-gradient-4" x1="189.08" y1="221.59" x2="142.82" y2="88.33" xlink:href="#linear-gradient"/><linearGradient id="linear-gradient-5" x1="203.62" y1="127.87" x2="159.74" y2="142.7" xlink:href="#linear-gradient-2"/><linearGradient id="linear-gradient-6" x1="198.48" y1="114.87" x2="118.67" y2="90.79" xlink:href="#linear-gradient-2"/><linearGradient id="linear-gradient-7" x1="-872.29" y1="-1035.74" x2="-893.85" y2="-1095.37" gradientTransform="matrix(0.93, -0.36, 0.36, 0.93, 1361.67, 693.54)" xlink:href="#linear-gradient-2"/><linearGradient id="linear-gradient-8" x1="-901.57" y1="-1040.28" x2="-884.76" y2="-1047.53" gradientTransform="matrix(0.93, -0.36, 0.36, 0.93, 1361.67, 693.54)" gradientUnits="userSpaceOnUse"><stop offset="0.12" stop-color="#fff" stop-opacity="0"/><stop offset="0.85"/></linearGradient><linearGradient id="linear-gradient-9" x1="-907.35" y1="-1066.84" x2="-833.24" y2="-1070.15" gradientTransform="matrix(0.93, -0.36, 0.36, 0.93, 1361.67, 693.54)" xlink:href="#linear-gradient-2"/><linearGradient id="linear-gradient-10" x1="-880.92" y1="-1046.16" x2="-881.95" y2="-1058.6" gradientTransform="matrix(0.93, -0.36, 0.36, 0.93, 1361.67, 693.54)" gradientUnits="userSpaceOnUse"><stop offset="0.21" stop-color="#fff" stop-opacity="0"/><stop offset="0.9"/></linearGradient><linearGradient id="linear-gradient-11" x1="-856.95" y1="-1039.22" x2="-856.83" y2="-1051.32" gradientTransform="matrix(0.93, -0.36, 0.36, 0.93, 1361.67, 693.54)" xlink:href="#linear-gradient-2"/><linearGradient id="linear-gradient-12" x1="-895.03" y1="-1048.94" x2="-872.38" y2="-1054.79" gradientTransform="matrix(0.93, -0.36, 0.36, 0.93, 1361.67, 693.54)" xlink:href="#linear-gradient-2"/><linearGradient id="linear-gradient-13" x1="148.42" y1="89.88" x2="273.19" y2="124.74" xlink:href="#linear-gradient-2"/><linearGradient id="linear-gradient-14" x1="219.61" y1="289.54" x2="219.61" y2="163.27" gradientUnits="userSpaceOnUse"><stop offset="0" stop-color="#fff" stop-opacity="0"/><stop offset="0.83"/></linearGradient><linearGradient id="linear-gradient-15" x1="157.57" y1="253.06" x2="138.79" y2="92.49" xlink:href="#linear-gradient-14"/><linearGradient id="linear-gradient-16" x1="179.67" y1="275.21" x2="179.67" y2="153.18" xlink:href="#linear-gradient-14"/></defs><title>santa down the chimney</title><g class="cls-1"><g id="Layer_1" data-name="Layer 1"><path class="cls-2" d="M273.47,154.56s12.21-8.3,15.73-5.14.59,15.46,0,16.3-14.75,1.5-14.75,1.5"/><path class="cls-3" d="M222.65,68.18s60.16,10.07,63.73,80.6c0,0-8.52,2.05-19.25,9.59"/><polyline class="cls-4" points="233.61 302.81 235.75 324.37 252.88 324.37 245.08 319.47 247.83 302.81"/><path class="cls-5" d="M164.89,293.64c73-28.16,97.89-84.87,97.89-84.87s-106.07,4-91,32C180.65,257.19,166.33,277,156,286"/><path class="cls-6" d="M143.69,189s-7.44,50.3,51.5,61.78c44.31,8.63,36.17,48,36.17,48h16.91s12.56-61.55-8.5-93.75"/><path class="cls-7" d="M184.53,248.12h0a20.63,20.63,0,0,1,13.74-19.44l45.53-16.12-99.86-10.13C145.86,216.64,154,238.38,184.53,248.12Z"/><path class="cls-8" d="M103.73,68.18,95,74.72a64.59,64.59,0,0,0-25.89,51.71h0a37.68,37.68,0,0,0,31.42,37.16l46.66,7.87,9-37Z"/><path class="cls-9" d="M97.54,142.64c-26,0-27.63-28-24.39-38.73a64.55,64.55,0,0,0-4.06,22.52h0a37.68,37.68,0,0,0,31.42,37.16l46.66,7.87,9-37-23.79-30.08-10.15-.86S120.51,142.63,97.54,142.64Z"/><path class="cls-10" d="M74.74,100l-.21.47A4.21,4.21,0,0,0,74.74,100Z"/><path class="cls-6" d="M206.24,60.12S274.11,91,274.59,168.72v4.55c0,21.8-15.3,39.47-34.18,39.47h-67c-16.08,0-27.69-17.78-23.26-35.63l6.07-24.45-7.09-90.92"/><path class="cls-11" d="M266.76,195.93H223.57a.92.92,0,0,0-.92.92v15a.92.92,0,0,0,.92.92h43.19a8.43,8.43,0,0,0,8.41-8.41h0A8.43,8.43,0,0,0,266.76,195.93Z"/><path class="cls-6" d="M201,50.1S267.17,91,267.65,168.72v4.55c0,21.8-15.3,39.47-34.18,39.47h-67c-16.08,0-27.69-17.78-23.26-35.63h0a155.61,155.61,0,0,0,4.11-49.57l-5.13-65.81"/><path class="cls-11" d="M151.22,195.89c3.67,9.74,12,16.86,22.21,16.86h67c11.59,0,21.83-6.67,28-16.86Z"/><path class="cls-2" d="M267.65,168.72c-.29-46-26.76-76-48.35-92.89,17.76,19.86,37.05,51,37.31,92.89v4.55q0,.13,0,.25c-.07,12.42-9,22.36-19.75,22.36H144.28a30,30,0,0,0,1.58,3.5l0,.07q.41.78.87,1.52l.1.16a27.37,27.37,0,0,0,3.3,4.29l.19.2q.51.53,1.05,1l.24.22q.6.54,1.24,1l.07.06q.69.54,1.42,1l.19.12q.6.4,1.23.75l.4.22q.55.3,1.11.56l.42.2q.68.31,1.39.57l.16.06c.52.19,1.05.35,1.59.5l.44.11c.4.1.79.19,1.2.27l.56.1c.39.06.78.11,1.18.16l.53.05c.56,0,1.13.07,1.71.07h67c.67,0,1.33,0,2-.07l.61-.05c.46,0,.91-.09,1.36-.15l.68-.1q.67-.1,1.32-.24L240,212q.81-.18,1.61-.41l.27-.07q1-.28,1.88-.62l.3-.12q.77-.29,1.52-.62l.46-.21q.69-.32,1.37-.67l.41-.21q.78-.42,1.54-.88l.15-.09a33.76,33.76,0,0,0,3.38-2.38l.13-.11q.74-.6,1.45-1.24l.17-.15q.75-.68,1.46-1.41h0a37.94,37.94,0,0,0,4.13-5l0,0q.62-.9,1.19-1.84h0a43.58,43.58,0,0,0,6.17-22.61Z"/><path class="cls-12" d="M201.3,160.73v-7.34L149,148.78h0a24.09,24.09,0,0,1-.64,7.67l-5.13,20.67c-4.43,17.85,7.18,35.63,23.26,35.63h14.4l3-3.45C195,196.41,201.3,178.95,201.3,160.73Z"/><path class="cls-4" d="M273.56,162.81H147.05a2.52,2.52,0,0,1-2.51-2.51h0a6.4,6.4,0,0,1,6.38-6.38H273.56a4.31,4.31,0,0,1,4.3,4.3v.3A4.31,4.31,0,0,1,273.56,162.81Z"/><path class="cls-13" d="M210,128.59l-2.11-7.14a4.47,4.47,0,0,0-3.77-3.17l-4-.47a15.37,15.37,0,0,0-11.49,3.36l-5.57,4.55L190,141.31l3.21.93a10.29,10.29,0,0,0,9.15-1.73,11.24,11.24,0,0,0,1.2-1.07l5.11-5.26A5.69,5.69,0,0,0,210,128.59Z"/><path class="cls-14" d="M197.61,120.13h0a2.1,2.1,0,0,0-2.55-2,15.28,15.28,0,0,0-6.44,3.09l-4.1,3.34,2.84,7.28,8.38,10.82a10.29,10.29,0,0,0,6.58-2.13,11.28,11.28,0,0,0,1.2-1.07l5-5.16-8.69-8.69A7.69,7.69,0,0,1,197.61,120.13Z"/><path class="cls-15" d="M192.25,141.77a71.62,71.62,0,0,1,21-50.64l9.42-9.42h0L190.39,65.61l-43.53,7.46-3.17,5.3L149.87,147l42.38-5.25Z"/><path class="cls-2" d="M174.86,120h0a6.91,6.91,0,0,1,7.17-1.62l2.81,1a25.68,25.68,0,0,1,13.65,11.27h0a21.17,21.17,0,0,1,1.57,18h0a17.48,17.48,0,0,1-11.15,10.59l-3,.94a18.1,18.1,0,0,1-12.68-.68l-.83-.36a8.21,8.21,0,0,1-4.87-6.59h0"/><path class="cls-13" d="M185.3,33.52a6.73,6.73,0,0,0-1.12-9.34l-6.17-5a20.47,20.47,0,0,0-1.59-1.29l0,0h0a20.47,20.47,0,1,0,8.45,16.22Z"/><path class="cls-16" d="M176.25,17.81l-31.4,10.53a20.23,20.23,0,0,0-.29,11.34,20.48,20.48,0,0,0,22.53,15.08l8-6.53L173.88,45a29.92,29.92,0,0,1,.49-22.9l1.89-4.31Z"/><path class="cls-17" d="M149.64,36.41l-5.79,3.24.14,2.84a9.55,9.55,0,0,0,6.27,8.5l5.14,1.87-.32-6.5a13,13,0,0,0-5.43-10Z"/><path class="cls-18" d="M152.63,39.4l-4.77-.46L147,40a2.89,2.89,0,0,0-.49,2.92h0a5.18,5.18,0,0,0,4.3,3.27h0A4.89,4.89,0,0,1,154,47.72l1.26,1.39-.14-2.74A13,13,0,0,0,152.63,39.4Z"/><path class="cls-6" d="M149.9,68.17l-1-15.29a2.14,2.14,0,0,1,2.41-2.26l35.12,4.58L204.93,75Z"/><path class="cls-17" d="M190,40l-5.16-5.85-6,3.51a8.88,8.88,0,0,0-4.08,6,3.81,3.81,0,0,1-3.35,3,4,4,0,0,1-3.71-1.92l-3.15-5a7.12,7.12,0,0,1-1-5,7.11,7.11,0,0,0-.55-4.16l-1.8-3.92L153,32.84l10,15.31a5.62,5.62,0,0,1,.68,4.38,5.36,5.36,0,0,0,.23,3.15h0l0,.08c.06.14.12.28.2.42a146.57,146.57,0,0,0,10.72,19c15.67,21.31,46.84,12.86,55.78,4.4,14.71-13.94-14-23.14-25.11-28.12A45.46,45.46,0,0,1,190,40Z"/><path class="cls-6" d="M171.15,11.87l-8.91-4.35A24.9,24.9,0,0,0,141.62,7h0A24.9,24.9,0,0,0,129,18.88L119,39.08l1.65,1.31,10.48-7.34a5.34,5.34,0,0,1,8,2.27l1.33,3.09"/><path class="cls-19" d="M145.44,18.22h0a8.67,8.67,0,0,1-6.67-5.41h0a2.81,2.81,0,0,0-4.56-1A24.78,24.78,0,0,0,129,18.88L119,39.08l1.65,1.31,10.48-7.34a5.34,5.34,0,0,1,8,2.27l1.33,3.09,13-11.26-1.37-3.52A8.67,8.67,0,0,0,145.44,18.22Z"/><circle class="cls-2" cx="118.65" cy="41.86" r="3.93" transform="translate(-7.1 45.9) rotate(-21.27)"/><path class="cls-20" d="M161.19,26.66,153,32.84l2.27,3.47a89.42,89.42,0,0,1,7.6-6Z"/><path class="cls-21" d="M186.6,30.49l-3.78,2.06a.65.65,0,0,0,.19,1.21l1.83.36.46-.6A6.7,6.7,0,0,0,186.6,30.49Z"/><path class="cls-2" d="M144,43.18,149.17,38a89.43,89.43,0,0,1,13.68-11.24l13.41-9a.8.8,0,0,0,.24-1.07L174,12.51a3,3,0,0,0-4.22-1L157.86,19.2A67.76,67.76,0,0,0,143.15,32l-3.48,4.06a3,3,0,0,0-.07,3.81l2.52,3.17A1.26,1.26,0,0,0,144,43.18Z"/><path class="cls-13" d="M150.33,32.68h0a3.69,3.69,0,0,0-3.12,3.43l0,.45a3.69,3.69,0,0,0,1.32,3.06l2,1.66a3.69,3.69,0,0,0,3.7.6L158,40.42l-4-6.11A3.69,3.69,0,0,0,150.33,32.68Z"/><path class="cls-22" d="M151,34.69h0a2.1,2.1,0,0,0-1.78,2l0,.26a2.1,2.1,0,0,0,.75,1.74l1.14.95a2.1,2.1,0,0,0,2.11.34l.27-.11a1.64,1.64,0,0,0,.78-2.42l-1.17-1.79A2.1,2.1,0,0,0,151,34.69Z"/><path class="cls-17" d="M175.5,25.08a4.41,4.41,0,0,1-4.18,1.5,4.67,4.67,0,0,0-2.63.37,4.07,4.07,0,0,1-4.19-.58l-.43-.34a2.23,2.23,0,0,1,.07-3.55,10.91,10.91,0,0,1,10.79-1.25,2.23,2.23,0,0,1,.88,3.44Z"/><path class="cls-6" d="M147.72,56.42h0A18.43,18.43,0,0,1,166,64.56h0a27.27,27.27,0,0,1,2.24,25.57l-1.28,3a19.87,19.87,0,0,0,10.8,26.19h0a18,18,0,0,1,9.12,8.22l1,1.95a18,18,0,0,1,0,16.95h0a18,18,0,0,1-21.66,8.63l-11.94-4a47.17,47.17,0,0,1-29.15-61.29l8.11-21.62A18.43,18.43,0,0,1,147.72,56.42Z"/><path class="cls-8" d="M189.27,120.53l-13.69-15a80.45,80.45,0,0,0-24-18l-6.25-3.05a15.17,15.17,0,0,0-10.23-1.12h0a15.17,15.17,0,0,0-10.87,10.08l-1.66,5.15-18.85-30.5,9.1-6.13a50.89,50.89,0,0,1,42.28-6.77l.19.05a49.57,49.57,0,0,1,35.65,41.09l3,22-2.28.94Z"/><path class="cls-23" d="M191.62,119.32l2.28-.94-3-22A49.48,49.48,0,0,0,187.16,83a4.06,4.06,0,0,0-7.74,1.29h0A13.58,13.58,0,0,1,165.9,96.6h0v0a80.43,80.43,0,0,1,9.7,9l13.69,15Z"/><path class="cls-8" d="M268.65,165.07H256.9a5.34,5.34,0,0,1-5.34-5.34h0a8.09,8.09,0,0,1,8.09-8.09h9A5.34,5.34,0,0,1,274,157v2.76A5.34,5.34,0,0,1,268.65,165.07Z"/><path class="cls-2" d="M144.47,212.74h43.19a.92.92,0,0,0,.92-.92v-15a.92.92,0,0,0-.92-.92H144.47a8.43,8.43,0,0,0-8.41,8.41h0A8.43,8.43,0,0,0,144.47,212.74Z"/><rect class="cls-2" x="229.05" y="292.26" width="22.94" height="11.7" rx="4.75" ry="4.75"/><rect class="cls-2" x="148.05" y="285.32" width="20.42" height="10.41" rx="4.22" ry="4.22" transform="translate(306.85 -5.06) rotate(55.27)"/><rect class="cls-24" x="142.25" y="228.18" width="126.82" height="126.82"/><polyline class="cls-25" points="269.06 228.18 211.97 285.27 170.16 336.47 173.48 207.13"/><rect class="cls-26" x="142.25" y="228.18" width="70.31" height="126.82"/><path class="cls-27" d="M281,161.14H130.3a7.75,7.75,0,0,0-7.72,7.72v93.92a6.75,6.75,0,0,0,6.75,6.75h0a6.75,6.75,0,0,0,6.75-6.75V252.44a6.55,6.55,0,0,1,6.55-6.55h0a6.55,6.55,0,0,1,6.55,6.55V300a6.58,6.58,0,0,0,6.58,6.58h0a6.58,6.58,0,0,0,6.58-6.58V245.68a17.43,17.43,0,0,1,5.1-12.32h0a17.43,17.43,0,0,1,12.32-5.1H281a7.75,7.75,0,0,0,7.72-7.72V168.86A7.74,7.74,0,0,0,281,161.14Z"/><path class="cls-28" d="M183,161.14H130.3a7.75,7.75,0,0,0-7.72,7.72v93.92a6.75,6.75,0,1,0,13.49,0V255.2s-.24-10.87,0-31.87C136.29,202.76,181.17,162.75,183,161.14Z"/><path class="cls-29" d="M281,161.14H226.58a7.75,7.75,0,0,1,7.72,7.72v51.67a7.75,7.75,0,0,1-7.72,7.72H281a7.75,7.75,0,0,0,7.72-7.72V168.86A7.74,7.74,0,0,0,281,161.14Z"/><path class="cls-30" d="M171.88,208.34l-2.19,2.19a25.14,25.14,0,0,0-7.36,17.77v17.37a17.43,17.43,0,0,1,17.43-17.43H197l-9-9a7.65,7.65,0,0,1-2.24-5.41h0a7.72,7.72,0,0,0-7.72-7.72h-.66A7.72,7.72,0,0,0,171.88,208.34Z"/></g></g></svg>