
<svg xmlns="http://www.w3.org/2000/svg" version="1.1" xmlns:xlink="http://www.w3.org/1999/xlink" preserveAspectRatio="none" x="0px" y="0px" width="1024px" height="1024px" viewBox="0 0 1024 1024">
<defs>
<g id="Layer0_0_MEMBER_0_MEMBER_0_FILL">
<path fill="#F2B03D" stroke="none" d="
M 442.65 38.25
Q 425.15 38.25 412.75 44.85 400.4 51.4 400.4 60.75 400.4 70.05 412.75 76.65 425.15 83.25 442.65 83.25 460.2 83.25 472.6 76.65 484.95 70.05 484.95 60.75 484.95 51.4 472.6 44.85 460.2 38.25 442.65 38.25 Z"/>
</g>

<g id="Layer0_0_MEMBER_0_MEMBER_1_FILL">
<path fill="#F2B03D" stroke="none" d="
M 403.6 61.3
L 403.6 58.1 400.4 58.1 400.4 61.3 403.6 61.3 Z"/>
</g>

<g id="Layer0_0_MEMBER_0_MEMBER_2_FILL">
<path fill="#F2B03D" stroke="none" d="
M 484.95 61
L 484.95 57.8 481.75 57.8 481.75 61 484.95 61 Z"/>
</g>

<g id="Layer0_0_MEMBER_0_MEMBER_3_FILL">
<path fill="#FED683" stroke="none" d="
M 442.65 35.85
Q 425.15 35.85 412.75 42.45 400.4 49.05 400.4 58.35 400.4 67.7 412.75 74.25 425.15 80.85 442.65 80.85 460.2 80.85 472.6 74.25 484.95 67.7 484.95 58.35 484.95 49.05 472.6 42.45 460.2 35.85 442.65 35.85 Z"/>
</g>

<g id="Layer0_0_MEMBER_1_MEMBER_0_FILL">
<path fill="#FFFFFF" stroke="none" d="
M 442.7 38.5
Q 427.75 38.5 417.15 44.15 406.6 49.75 406.6 57.7 406.6 65.65 417.15 71.3 427.75 76.9 442.7 76.9 457.65 76.9 468.2 71.3 478.75 65.65 478.75 57.7 478.75 49.75 468.2 44.15 457.65 38.5 442.7 38.5 Z"/>
</g>

<g id="Layer0_0_MEMBER_1_MEMBER_1_FILL">
<path fill="#FFFFFF" stroke="none" d="
M 478.75 57.7
L 478.75 38.95 406.6 38.95 406.6 57.7 478.75 57.7 Z"/>
</g>

<g id="Layer0_0_MEMBER_1_MEMBER_2_MEMBER_0_FILL">
<path fill="#9C5631" stroke="none" d="
M 417.15 69.45
Q 427.75 75.05 442.65 75.05 457.6 75.05 468.2 69.45 478.75 63.8 478.75 55.85
L 478.75 50.95
Q 478.53359375 58.7158203125 468.2 64.25 457.6 69.85 442.65 69.85 427.75 69.85 417.15 64.25 406.81640625 58.7158203125 406.6 50.95
L 406.6 55.85
Q 406.6 63.8 417.15 69.45 Z"/>
</g>

<g id="Layer0_0_MEMBER_1_MEMBER_3_FILL">
<path fill="#8B4527" stroke="none" d="
M 479.1 36.85
Q 478.65 34.65 477.4 32.65 472.15 24.35 459.25 20.55 447.9 17.15 436.5 18.55 428.25 19.55 423 21.35 414.1 24.4 409.05 30.65 407.2 32.9 406 39.4 404.85 45.55 405.35 48.45 405.75 50.7 405.8 50.9 406.3 52.6 407.15 52.95 408.2 53.35 409.15 51.65
L 410.85 59.4
Q 411 60.05 411.45 61.9 411.95 63.5 412.9 63.95 413.95 64.35 414.9 63.5 415.3 63.1 415.6 62.15 415.95 61.15 416.05 60.75
L 416.5 59.05
Q 416.75 57.85 416.9 57.65 417.25 57.05 417.9 58.1 418.15 58.45 418.45 60 418.7 61.2 419.55 61.6 420.4 62 420.85 61.55 421.1 61.25 421.65 60.55 423.15 59.4 424.95 61.95 425.95 63.35 427.15 65.9 427.6 66.6 428.6 68.3 429.65 69.75 430.75 70.05 431.6 70.3 432.4 70.05 433.15 69.75 433.55 69 433.95 68.3 434.3 64.6 434.9 62.45 436.15 62.95 437.2 63.4 437.55 64.7 438 66.25 438.45 66.8 439.05 67.6 439.9 67.15 440.3 66.95 440.55 65.75 440.85 64.5 441.05 64.3 442.4 63 443 64.25 443.3 64.95 443.55 66.7 444.05 68.6 444.5 69.6 445.65 72.2 447.1 72.45 449.4 72.95 449.9 69.1 450.55 64.05 450.65 63.9 452.05 61.95 452.55 62.9 452.9 63.45 453.25 65 453.75 65.85 454.35 66.05 455.25 66.4 456.2 65.9 457.05 65.45 457.5 64.55
L 457.85 63.5
Q 458.05 62.7 459 62.8 459.95 62.9 460 63.75
L 460.25 65.15
Q 461 68.2 463.3 69.25 463.55 69.4 463.75 69.2 464.85 67.85 465.05 65.9 464.9 63.55 465.05 62.15 465.3 59.55 467 60.15 467.2 60.2 467.65 60.75 467.95 61.15 468.6 61.05 469.75 60.95 470.35 59.25 470.5 57.95 470.65 57.25 470.95 56 472.15 56.4 472.4 56.5 472.6 57.1 472.85 57.8 473.05 57.9 474 58.35 474.9 57.5 475.45 56.95 475.5 55.95 475.6 54.45 475.65 54.3 476.05 52.9 476.55 53.9 476.85 54.5 477.25 55.75
L 478.7 59
Q 478.8 59.25 479.15 59.2 479.45 59.1 479.45 58.8 479.05 52.55 479.4 42.8 479.5 39 479.1 36.85 Z"/>
</g>

<g id="Layer0_0_MEMBER_1_MEMBER_4_FILL">
<path fill="#AC6342" stroke="none" d="
M 474.7 37.25
Q 474.7 30.2 465.3 25.2 455.95 20.2 442.7 20.2 429.45 20.2 420.05 25.2 410.65 30.2 410.65 37.25 410.65 44.3 420.05 49.3 429.45 54.3 442.7 54.3 455.95 54.3 465.3 49.3 474.7 44.3 474.7 37.25 Z"/>
</g>

<g id="Layer0_0_MEMBER_2_FILL">
<path fill="#8B4527" stroke="none" d="
M 472.2 29.9
Q 473.15 25.5 470.1 24.3 467.25 23.25 464.25 25.45 461.3 27.55 461 30.45 461.65 30.8 465 32.55 466.45 33.5 469.15 35.85 471.4 33.7 472.2 29.9 Z"/>
</g>

<g id="Layer0_0_MEMBER_3_FILL">
<path fill="#D1A072" stroke="none" d="
M 462.3 21.8
Q 462.5 17.25 459.25 16.7 456.3 16.1 453.7 18.8 451.15 21.4 451.4 24.35 455.3 25.55 455.65 25.7 457.75 26.6 460.35 28.2 462.15 25.65 462.3 21.8 Z"/>
</g>

<g id="Layer0_0_MEMBER_4_FILL">
<path fill="#8B4527" stroke="none" d="
M 448.25 27.2
Q 449.5 24.35 448.75 20.5 447.85 16.05 444.6 16.2 441.55 16.35 439.65 19.6 437.8 22.7 438.65 25.5 442.7 25.75 443.15 25.85 445.25 26.2 448.25 27.2 Z"/>
</g>

<g id="Layer0_0_MEMBER_5_FILL">
<path fill="#FFFFFF" stroke="none" d="
M 453.7 26.55
Q 453.4 22 450.15 21.75 447.15 21.45 444.8 24.4 442.6 27.2 443.05 30.15 447.25 31 447.45 31.05 449.25 31.6 452.35 33.1 453.95 30.45 453.7 26.55 Z"/>
</g>

<g id="Layer0_0_MEMBER_6_FILL">
<path fill="#8B4527" stroke="none" d="
M 457.65 34.6
Q 457.95 30.1 454.75 29.4 451.8 28.8 449.1 31.4 446.55 33.9 446.65 36.85 447 37 448.55 37.45 450.1 38 450.9 38.35 452.85 39.25 455.5 41 457.4 38.5 457.65 34.6 Z"/>
</g>

<g id="Layer0_0_MEMBER_7_FILL">
<path fill="#D1A072" stroke="none" d="
M 471.2 38.2
Q 472.7 33.95 469.8 32.4 467.1 31 463.85 32.8 460.65 34.55 459.95 37.4 463.1 39.5 463.65 39.95 464.95 41 467.4 43.75 469.9 41.9 471.2 38.2 Z"/>
</g>

<g id="Layer0_0_MEMBER_8_FILL">
<path fill="#FFFFFF" stroke="none" d="
M 424.7 29.65
Q 423.75 25.25 420.5 25.45 417.45 25.65 415.6 28.85 413.8 32 414.7 34.8 415.1 34.85 416.7 34.9 418.35 35 419.2 35.1 420.95 35.3 424.35 36.35 425.55 33.5 424.7 29.65 Z"/>
</g>

<g id="Layer0_0_MEMBER_9_FILL">
<path fill="#FFFFFF" stroke="none" d="
M 461.3 45.45
Q 462.8 41.2 459.9 39.65 457.2 38.25 453.95 40.05 450.75 41.75 450.1 44.65 453.15 46.7 453.75 47.2 455.6 48.75 457.5 51 460 49.15 461.3 45.45 Z"/>
</g>

<g id="Layer0_0_MEMBER_10_FILL">
<path fill="#D1A072" stroke="none" d="
M 449.2 38.9
Q 450.15 34.5 447.1 33.35 444.25 32.25 441.2 34.45 438.3 36.55 437.95 39.5 438.3 39.7 439.75 40.4 441.2 41.1 441.95 41.6 443.4 42.5 446.1 44.85 448.35 42.7 449.2 38.9 Z"/>
</g>

<g id="Layer0_0_MEMBER_11_FILL">
<path fill="#D1A072" stroke="none" d="
M 436.25 23.2
Q 435.9 18.7 432.65 18.45 429.65 18.2 427.35 21.15 425.15 24 425.65 26.9 426.35 27.05 430.05 27.8 432.1 28.4 434.95 29.8 436.5 27.1 436.25 23.2 Z"/>
</g>

<g id="Layer0_0_MEMBER_12_FILL">
<path fill="#8B4527" stroke="none" d="
M 439.3 30.8
Q 439.45 26.3 436.2 25.7 433.25 25.15 430.65 27.85 428.15 30.4 428.35 33.35 429.05 33.6 432.65 34.75 434.3 35.4 437.3 37.2 439.15 34.75 439.3 30.8 Z"/>
</g>

<g id="Layer0_0_MEMBER_13_FILL">
<path fill="#D1A072" stroke="none" d="
M 430.65 35.55
Q 430.35 31 427.1 30.75 424.1 30.5 421.8 33.45 419.55 36.25 420.05 39.15 424.35 40.05 424.45 40.1 426.4 40.7 429.35 42.1 430.9 39.45 430.65 35.55 Z"/>
</g>

<g id="Layer0_0_MEMBER_14_FILL">
<path fill="#FFFFFF" stroke="none" d="
M 434.65 43.65
Q 434.95 39.15 431.75 38.45 428.8 37.8 426.1 40.4 423.5 42.9 423.6 45.85 424.3 46.1 427.85 47.35 429.85 48.25 432.45 50 434.4 47.55 434.65 43.65 Z"/>
</g>

<g id="Layer0_0_MEMBER_15_FILL">
<path fill="#8B4527" stroke="none" d="
M 447.1 47.65
Q 448.6 43.4 445.7 41.9 443 40.45 439.75 42.25 436.55 44 435.9 46.85 438.85 48.8 439.55 49.45 441.1 50.7 443.3 53.2 445.8 51.35 447.1 47.65 Z"/>
</g>
</defs>

<g transform="matrix( 8, 0, 0, 8, -3029.4,114.25) ">
<use xlink:href="#Layer0_0_MEMBER_0_MEMBER_0_FILL"/>
</g>

<g transform="matrix( 8, 0, 0, 8, -3029.4,114.25) ">
<use xlink:href="#Layer0_0_MEMBER_0_MEMBER_1_FILL"/>
</g>

<g transform="matrix( 8, 0, 0, 8, -3029.4,114.25) ">
<use xlink:href="#Layer0_0_MEMBER_0_MEMBER_2_FILL"/>
</g>

<g transform="matrix( 8, 0, 0, 8, -3029.4,114.25) ">
<use xlink:href="#Layer0_0_MEMBER_0_MEMBER_3_FILL"/>
</g>

<g transform="matrix( 8, 0, 0, 8, -3029.4,114.25) ">
<use xlink:href="#Layer0_0_MEMBER_1_MEMBER_0_FILL"/>
</g>

<g transform="matrix( 8, 0, 0, 8, -3029.4,114.25) ">
<use xlink:href="#Layer0_0_MEMBER_1_MEMBER_1_FILL"/>
</g>

<g transform="matrix( 8, 0, 0, 8, -3029.4,114.25) ">
<use xlink:href="#Layer0_0_MEMBER_1_MEMBER_2_MEMBER_0_FILL"/>
</g>

<g transform="matrix( 8, 0, 0, 8, -3029.4,114.25) ">
<use xlink:href="#Layer0_0_MEMBER_1_MEMBER_3_FILL"/>
</g>

<g transform="matrix( 8, 0, 0, 8, -3029.4,114.25) ">
<use xlink:href="#Layer0_0_MEMBER_1_MEMBER_4_FILL"/>
</g>

<g transform="matrix( 8, 0, 0, 8, -3029.4,114.25) ">
<use xlink:href="#Layer0_0_MEMBER_2_FILL"/>
</g>

<g transform="matrix( 8, 0, 0, 8, -3029.4,114.25) ">
<use xlink:href="#Layer0_0_MEMBER_3_FILL"/>
</g>

<g transform="matrix( 8, 0, 0, 8, -3029.4,114.25) ">
<use xlink:href="#Layer0_0_MEMBER_4_FILL"/>
</g>

<g transform="matrix( 8, 0, 0, 8, -3029.4,114.25) ">
<use xlink:href="#Layer0_0_MEMBER_5_FILL"/>
</g>

<g transform="matrix( 8, 0, 0, 8, -3029.4,114.25) ">
<use xlink:href="#Layer0_0_MEMBER_6_FILL"/>
</g>

<g transform="matrix( 8, 0, 0, 8, -3029.4,114.25) ">
<use xlink:href="#Layer0_0_MEMBER_7_FILL"/>
</g>

<g transform="matrix( 8, 0, 0, 8, -3029.4,114.25) ">
<use xlink:href="#Layer0_0_MEMBER_8_FILL"/>
</g>

<g transform="matrix( 8, 0, 0, 8, -3029.4,114.25) ">
<use xlink:href="#Layer0_0_MEMBER_9_FILL"/>
</g>

<g transform="matrix( 8, 0, 0, 8, -3029.4,114.25) ">
<use xlink:href="#Layer0_0_MEMBER_10_FILL"/>
</g>

<g transform="matrix( 8, 0, 0, 8, -3029.4,114.25) ">
<use xlink:href="#Layer0_0_MEMBER_11_FILL"/>
</g>

<g transform="matrix( 8, 0, 0, 8, -3029.4,114.25) ">
<use xlink:href="#Layer0_0_MEMBER_12_FILL"/>
</g>

<g transform="matrix( 8, 0, 0, 8, -3029.4,114.25) ">
<use xlink:href="#Layer0_0_MEMBER_13_FILL"/>
</g>

<g transform="matrix( 8, 0, 0, 8, -3029.4,114.25) ">
<use xlink:href="#Layer0_0_MEMBER_14_FILL"/>
</g>

<g transform="matrix( 8, 0, 0, 8, -3029.4,114.25) ">
<use xlink:href="#Layer0_0_MEMBER_15_FILL"/>
</g>
</svg>
