
<svg xmlns="http://www.w3.org/2000/svg" version="1.1" xmlns:xlink="http://www.w3.org/1999/xlink" preserveAspectRatio="none" x="0px" y="0px" width="1024px" height="1024px" viewBox="0 0 1024 1024">
<defs>
<g id="Layer0_0_MEMBER_0_MEMBER_0_FILL">
<path fill="#BD612B" stroke="none" d="
M 115 220.4
Q 115 210.4 101.7 203.3 88.35 196.2 69.5 196.2 50.65 196.2 37.3 203.3 24 210.4 24 220.4 24 230.45 37.3 237.55 50.65 244.65 69.5 244.65 88.35 244.65 101.7 237.55 115 230.45 115 220.4 Z"/>
</g>

<g id="Layer0_0_MEMBER_0_MEMBER_1_FILL">
<path fill="#BD612B" stroke="none" d="
M 115 221.45
L 115 215.5 24.05 215.5 24.05 221.45 115 221.45 Z"/>
</g>

<g id="Layer0_0_MEMBER_0_MEMBER_2_FILL">
<path fill="#EB9057" stroke="none" d="
M 115 216.35
Q 115 206.35 101.7 199.25 88.35 192.15 69.5 192.15 50.65 192.15 37.3 199.25 24 206.35 24 216.35 24 226.35 37.3 233.45 50.65 240.55 69.5 240.55 88.35 240.55 101.7 233.45 115 226.35 115 216.35 Z"/>
</g>

<g id="Layer0_0_MEMBER_0_MEMBER_3_MEMBER_0_FILL">
<path fill="#BD612B" stroke="none" d="
M 98.9 230.6
Q 111.1 224.4 111.1 215.7 111.1 207 98.9 200.85 86.65 194.65 69.45 194.65 52.25 194.65 40.05 200.85 27.85 207 27.85 215.7 27.85 224.4 40.05 230.6 52.25 236.75 69.45 236.75 86.65 236.75 98.9 230.6
M 98.15 201.55
Q 110.05 207.4 110.05 215.7 110.05 224 98.15 229.85 86.25 235.75 69.45 235.75 52.7 235.75 40.75 229.85 28.85 224 28.85 215.7 28.85 207.4 40.75 201.55 52.65 195.7 69.45 195.7 86.25 195.7 98.15 201.55 Z"/>
</g>

<g id="Layer0_0_MEMBER_1_MEMBER_0_FILL">
<path fill="#FED26D" stroke="none" d="
M 56.35 188.9
L 48.35 187.2 45.9 199.15 55.25 201 56.35 188.9 Z"/>
</g>

<g id="Layer0_0_MEMBER_1_MEMBER_1_FILL">
<path fill="#73A92E" stroke="none" d="
M 49.4 192.5
L 49.9 190.15 48 190.7 49.4 192.5 Z"/>
</g>

<g id="Layer0_0_MEMBER_1_MEMBER_2_FILL">
<path fill="#73A92E" stroke="none" d="
M 57.2 197.25
L 55.75 195.85 54.3 196.85 55.25 198.95 57.2 197.25 Z"/>
</g>

<g id="Layer0_0_MEMBER_2_MEMBER_0_FILL">
<path fill="#FED26D" stroke="none" d="
M 61.85 184.35
L 54.45 187.85 59.65 198.85 68.25 194.75 61.85 184.35 Z"/>
</g>

<g id="Layer0_0_MEMBER_2_MEMBER_1_FILL">
<path fill="#73A92E" stroke="none" d="
M 58.5 191.45
L 57.45 189.25 56.3 190.85 58.5 191.45 Z"/>
</g>

<g id="Layer0_0_MEMBER_2_MEMBER_2_FILL">
<path fill="#73A92E" stroke="none" d="
M 67.6 190.55
L 65.6 190.3 65 191.95 67 193.1 67.6 190.55 Z"/>
</g>

<g id="Layer0_0_MEMBER_3_MEMBER_0_FILL">
<path fill="#D17C1E" stroke="none" d="
M 48.45 204.2
L 50.75 201 31.6 204.3 34.05 206.55
Q 37.45 208.65 42.1 207.95 45.5 207.45 48.45 204.2 Z"/>
</g>

<g id="Layer0_0_MEMBER_3_MEMBER_1_FILL">
<path fill="#FED26D" stroke="none" d="
M 45 206
L 46.75 203.55 37.05 194.8 31.6 204.3 33.45 206.55
Q 36.05 208.75 39.75 208.6 42.65 208.5 45 206 Z"/>
</g>

<g id="Layer0_0_MEMBER_3_MEMBER_2_FILL">
<path fill="#F8BC48" stroke="none" d="
M 41.3 193.1
L 37.05 194.8 46.75 203.55 50.75 201 41.3 193.1 Z"/>
</g>

<g id="Layer0_0_MEMBER_3_MEMBER_3_FILL">
<path fill="#73A92E" stroke="none" d="
M 36 204.3
L 33.85 202 33.85 205.1 36 204.3 Z"/>
</g>

<g id="Layer0_0_MEMBER_3_MEMBER_4_FILL">
<path fill="#73A92E" stroke="none" d="
M 44.95 200.65
L 43.5 199.25 42.05 200.25 43 202.35 44.95 200.65 Z"/>
</g>

<g id="Layer0_0_MEMBER_4_MEMBER_0_FILL">
<path fill="#D17C1E" stroke="none" d="
M 66.25 203.45
Q 69.65 202.95 72.6 199.65
L 74.85 196.45 55.75 199.8 58.2 202
Q 61.6 204.1 66.25 203.45 Z"/>
</g>

<g id="Layer0_0_MEMBER_4_MEMBER_1_FILL">
<path fill="#FEE2A9" stroke="none" d="
M 69.1 201.45
L 70.85 199 61.15 190.3 55.75 199.8 57.6 202
Q 60.2 204.2 63.85 204.05 66.75 203.95 69.1 201.45 Z"/>
</g>

<g id="Layer0_0_MEMBER_4_MEMBER_2_FILL">
<path fill="#F8BC48" stroke="none" d="
M 74.85 196.45
L 65.4 188.55 61.15 190.3 70.85 199 74.85 196.45 Z"/>
</g>

<g id="Layer0_0_MEMBER_4_MEMBER_3_FILL">
<path fill="#73A92E" stroke="none" d="
M 58 200.55
L 60.1 199.75 58 197.45 58 200.55 Z"/>
</g>

<g id="Layer0_0_MEMBER_4_MEMBER_4_FILL">
<path fill="#73A92E" stroke="none" d="
M 69.05 196.15
L 67.6 194.75 66.2 195.7 67.1 197.8 69.05 196.15 Z"/>
</g>

<g id="Layer0_0_MEMBER_5_MEMBER_0_FILL">
<path fill="#D17C1E" stroke="none" d="
M 64.65 207.55
L 46.9 199.6 47.7 202.85
Q 49.35 206.45 53.6 208.5 56.7 210 61 208.95 63.15 208.4 64.65 207.55 Z"/>
</g>

<g id="Layer0_0_MEMBER_5_MEMBER_1_FILL">
<path fill="#FEE2A9" stroke="none" d="
M 57.05 208.45
Q 58.75 208.1 59.9 207.4
L 56.75 194.75 46.9 199.6 47.2 202.5
Q 48.15 205.75 51.25 207.65 53.7 209.2 57.05 208.45 Z"/>
</g>

<g id="Layer0_0_MEMBER_5_MEMBER_2_FILL">
<path fill="#F8BC48" stroke="none" d="
M 61.2 195.7
L 56.75 194.75 59.9 207.4 64.65 207.55 61.2 195.7 Z"/>
</g>

<g id="Layer0_0_MEMBER_5_MEMBER_3_FILL">
<path fill="#73A92E" stroke="none" d="
M 50.55 202.05
L 50.1 198.95 48.35 201.5 50.55 202.05 Z"/>
</g>

<g id="Layer0_0_MEMBER_5_MEMBER_4_FILL">
<path fill="#73A92E" stroke="none" d="
M 60 204.05
L 59.6 202.05 57.85 202.05 57.45 204.35 60 204.05 Z"/>
</g>

<g id="Layer0_0_MEMBER_6_MEMBER_0_FILL">
<path fill="#D17C1E" stroke="none" d="
M 71.2 192.5
Q 71.25 192.55 71.65 195.15 72.1 197.85 72.55 198.5 74.25 201.2 78.2 201.2 80.5 201.2 82.4 200.8
L 82.1 195.1 71.2 192.5 Z"/>
</g>

<g id="Layer0_0_MEMBER_6_MEMBER_1_FILL">
<path fill="#FED26D" stroke="none" d="
M 73.65 196.35
Q 76.05 198 79.45 197.95 81.15 197.9 82.35 197.55
L 81.3 187.8 71.6 190.55 71.2 192.45
Q 71.3 194.7 73.65 196.35 Z"/>
</g>

<g id="Layer0_0_MEMBER_6_MEMBER_2_FILL">
<path fill="#73A92E" stroke="none" d="
M 72.45 192.85
L 73.65 191.4 71.95 191.5 72.45 192.85 Z"/>
</g>

<g id="Layer0_0_MEMBER_6_MEMBER_3_FILL">
<path fill="#73A92E" stroke="none" d="
M 80.05 193.95
L 78.2 192.85 78.2 195.1 80.05 193.95 Z"/>
</g>

<g id="Layer0_0_MEMBER_7_MEMBER_0_FILL">
<path fill="#EA2E33" stroke="none" d="
M 91.35 213.75
Q 94.35 210.75 93.5 206.5 93.05 204.4 91.35 202.4 89.75 200.5 87.7 199.45 82.55 196.75 78.5 196.6 73.85 196.45 69.4 198.35 64.2 200.55 62.8 204.55 62.35 208.2 66.2 212.25 69.7 215.85 74.6 217.6 78.8 219.1 81.05 218.4 81.75 218.2 83.8 217.3 84.15 216.7 84.15 216.15 88.4 216.7 91.35 213.75 Z"/>
</g>

<g id="Layer0_0_MEMBER_7_MEMBER_1_FILL">
<path fill="#D12328" stroke="none" d="
M 83.8 217.3
Q 81.75 218.2 81.05 218.4 78.8 219.1 74.6 217.6 69.7 215.85 66.2 212.25 62.35 208.2 62.8 204.55
L 62.4 205.95
Q 61.65 210.6 66 214.3 69.35 217.15 74.6 218.7 81.4 220.75 83.65 217.65
L 83.8 217.3 Z"/>
</g>

<g id="Layer0_0_MEMBER_7_MEMBER_2_FILL">
<path fill="#D12328" stroke="none" d="
M 84.15 216.15
Q 84.75 214.6 83.8 213.55 82.85 212.45 80.5 211.4 77.65 210.25 76.15 209.55 73.05 208.1 72.35 207.65 70.85 206.7 70.4 205.3 70.05 204.1 72.3 202.85 74.55 201.55 77.05 201.55 80 201.55 81.75 202 83.75 202.5 85.7 203.9 87.75 205.3 86.85 206.9 85.9 208.5 83.3 208.3 79.3 208 80.1 206.15 80.7 204.9 80.4 204.55 79.75 203.75 78 203.6 76.15 203.45 75 204.25 74.3 204.75 74.5 205.3 74.65 205.75 75.4 206.45 76.45 207.4 79 208.25 81.2 209 83.1 209.2 85.5 209.5 86.8 208.55 87.9 207.7 87.9 206.4 87.95 203.6 83.8 201.75 81.75 200.8 78.9 200.75 75.85 200.65 73.05 201.55 70.25 202.5 69.5 204.15 68.8 205.8 70.35 207.4 71.4 208.45 74.05 209.6 75.7 210.3 80.05 212 82.7 213.1 83.7 214.75 84.2 215.55 84.15 216.15 Z"/>
</g>

<g id="Layer0_0_MEMBER_7_MEMBER_3_FILL">
<path fill="#FC4549" stroke="none" d="
M 82.15 215.3
Q 82.45 215 81.95 214.45 81.25 213.75 79.3 212.95
L 77.1 212.15
Q 75.55 211.7 75.4 212.3 75.25 212.8 77.25 213.8 77.85 214.1 79.8 215.1 81.6 215.9 82.15 215.3 Z"/>
</g>

<g id="Layer0_0_MEMBER_7_MEMBER_4_FILL">
<path fill="#FC4549" stroke="none" d="
M 82.35 199.1
Q 82.4 199.05 82.35 199 79.25 197.15 74.55 198.2 69.8 199.3 67.8 202.3 66 205.05 68.2 208.1 70.3 210.95 73.5 211.15
L 73.55 211.1
Q 71.5 210 71.25 209.85 70.05 209.1 69.25 208.2 67.65 206.4 68.1 204.35 68.55 202.4 70.6 201.05 73.15 199.4 76.25 198.95 78.75 198.65 82.25 199.1 82.3 199.15 82.35 199.1 Z"/>
</g>

<g id="Layer0_0_MEMBER_7_MEMBER_5_FILL">
<path fill="#FC4549" stroke="none" d="
M 91.35 208
Q 91.5 207.3 91.35 206.65 91.2 205.7 90.55 205.75 90 205.85 89.95 206.2 89.65 208.45 89.05 209.25 88.55 209.85 87.35 210.1 86.95 210.2 85.7 210.05 84.55 209.9 84.1 210.1 83.35 210.5 84.2 210.8 86.6 211.6 88.55 211 90.9 210.35 91.35 208 Z"/>
</g>

<g id="Layer0_0_MEMBER_8_MEMBER_0_FILL">
<path fill="#EA2E33" stroke="none" d="
M 96.95 190.75
Q 92.45 189.55 87.7 190.35 82.1 191.3 79.85 194.85 78.6 198.45 81.4 203.15 84 207.5 88.35 210.3 92.1 212.75 94.45 212.55 94.8 212.55 97.4 212.1 97.8 211.6 97.95 211.05 101.95 212.55 105.5 210.4 109.1 208.15 109.25 203.85 109.3 201.65 108.1 199.3 107 197.1 105.25 195.6 100.75 191.8 96.95 190.75 Z"/>
</g>

<g id="Layer0_0_MEMBER_8_MEMBER_1_FILL">
<path fill="#D12328" stroke="none" d="
M 79.85 194.85
Q 79.55 195.25 79.15 196.15 77.35 200.5 80.75 205.15 83.3 208.6 88.05 211.4 94.35 214.85 97.1 212.4
L 97.4 212.1
Q 94.8 212.55 94.45 212.55 92.1 212.75 88.35 210.3 84 207.5 81.4 203.15 78.6 198.45 79.85 194.85 Z"/>
</g>

<g id="Layer0_0_MEMBER_8_MEMBER_2_FILL">
<path fill="#D12328" stroke="none" d="
M 87.05 197.35
Q 87 196.1 89.45 195.4 91.95 194.7 94.4 195.25 97.25 195.9 98.9 196.7 100.7 197.65 102.3 199.45 103.95 201.35 102.65 202.7 101.4 204.05 98.95 203.25 95.1 202 96.3 200.4 97.15 199.3 96.95 198.9 96.45 198 94.8 197.45 93.05 196.85 91.8 197.4 91 197.7 91.05 198.3 91.1 198.75 91.65 199.6 92.45 200.8 94.75 202.2 96.7 203.4 98.55 204.05 100.8 204.9 102.3 204.25 103.55 203.75 103.85 202.45 104.55 199.75 100.95 196.95 99.1 195.6 96.35 194.85 93.45 194.1 90.5 194.3 87.55 194.55 86.45 196.05 85.35 197.45 86.55 199.4 87.35 200.65 89.65 202.4 91.1 203.45 94.9 206.1 97.25 207.75 97.85 209.55 98.15 210.5 97.95 211.05 98.9 209.65 98.25 208.45 97.55 207.15 95.5 205.6 93 203.85 91.65 202.8 89 200.75 88.4 200.1 87.15 198.8 87.05 197.35 Z"/>
</g>

<g id="Layer0_0_MEMBER_8_MEMBER_3_FILL">
<path fill="#FC4549" stroke="none" d="
M 96.2 209.8
Q 97.15 209.1 93.95 206.85 90.8 204.5 90.35 205.35 90 205.9 91.8 207.2 92.3 207.6 93.95 209.05 95.55 210.25 96.2 209.8 Z"/>
</g>

<g id="Layer0_0_MEMBER_8_MEMBER_4_FILL">
<path fill="#FC4549" stroke="none" d="
M 100.05 194.05
Q 100.2 194 100.1 193.95 97.55 191.45 92.7 191.4 87.8 191.35 85.2 193.85 82.85 196.1 84.3 199.55 85.7 202.85 88.75 203.8
L 88.8 203.7
Q 86.9 202 86.85 201.95 85.85 200.95 85.25 199.9 84.1 197.8 85.05 195.9 85.9 194.1 88.2 193.3 91.05 192.25 94.2 192.55 96.75 192.8 100.05 194.05 Z"/>
</g>

<g id="Layer0_0_MEMBER_8_MEMBER_5_FILL">
<path fill="#FC4549" stroke="none" d="
M 106.85 204.75
Q 107.7 202.65 106.6 202.4 106.05 202.3 105.9 202.7 105.05 204.85 104.3 205.45 103.7 205.95 102.45 205.9 102.05 205.9 100.85 205.45 99.8 205.05 99.3 205.15 98.85 205.25 98.9 205.5 98.95 205.65 99.25 205.85 101.4 207.15 103.45 207.05 105.85 206.95 106.85 204.75 Z"/>
</g>

<g id="Layer0_0_MEMBER_9_MEMBER_0_FILL">
<path fill="#D17C1E" stroke="none" d="
M 66.6 209.8
L 55.7 207.2
Q 55.8 207.25 56.2 209.85 56.65 212.6 57.05 213.2 57.9 214.5 59 215.1 60.4 215.9 62.7 215.9 65.05 215.9 66.9 215.5
L 66.6 209.8 Z"/>
</g>

<g id="Layer0_0_MEMBER_9_MEMBER_1_FILL">
<path fill="#FED26D" stroke="none" d="
M 66.9 212.25
L 65.85 202.5 56.15 205.25 55.75 207.15
Q 55.8 209.4 58.2 211.05 60.6 212.7 64 212.65 65.7 212.6 66.9 212.25 Z"/>
</g>

<g id="Layer0_0_MEMBER_9_MEMBER_2_FILL">
<path fill="#73A92E" stroke="none" d="
M 57 207.55
L 58.2 206.1 56.5 206.2 57 207.55 Z"/>
</g>

<g id="Layer0_0_MEMBER_9_MEMBER_3_FILL">
<path fill="#73A92E" stroke="none" d="
M 64.6 208.65
L 62.7 207.55 62.7 209.8 64.6 208.65 Z"/>
</g>

<g id="Layer0_0_MEMBER_10_MEMBER_0_FILL">
<path fill="#FD872E" stroke="none" d="
M 68.7 222.6
Q 69.45 222.4 71 221.45 72.4 220.6 73.3 220.45 74.15 220.35 74.7 220.65 74.7 219.2 74.25 217.7 73.45 215.1 66.85 212.9 58.05 209.9 56.6 209 51.95 206.2 50.15 205.2 48.9 204.55 46.15 203.35 45.1 202.9 43.85 203.35 42.6 203.8 41.7 204.95 42 207.7 42.35 208.95 42.9 211 44.2 212.45 45.45 213.85 48.8 216.6 51.65 218.95 54.9 220.35 57.9 221.6 61.8 222.3 64.3 222.75 65.25 222.85 67.2 223 68.7 222.6 Z"/>
</g>

<g id="Layer0_0_MEMBER_10_MEMBER_1_FILL">
<path fill="#E06621" stroke="none" d="
M 74.7 220.65
Q 74.15 220.35 73.3 220.45 72.4 220.6 71 221.45 69.45 222.4 68.7 222.6 67.2 223 65.25 222.85 64.3 222.75 61.8 222.3 57.9 221.6 54.9 220.35 51.65 218.95 48.8 216.6 45.45 213.85 44.2 212.45 42.9 211 42.35 208.95 42 207.7 41.7 204.95 39.95 207.15 40.6 210.05 41.35 213.55 44.2 216.35 47.1 219.25 52.75 222 58.25 224.65 62.4 225.25 66.5 225.8 71 224.65 74.6 223.8 74.7 220.65 Z"/>
</g>

<g id="Layer0_0_MEMBER_10_MEMBER_2_MEMBER_0_FILL">
<path fill="#FD994F" stroke="none" d="
M 54.6 207.8
L 53.35 207.05
Q 52.85 207.05 52.2 207.15 50.8 207.35 49.85 207.8 48.15 208.65 46.75 209.7 46.05 210.25 45.7 210.6
L 47.1 209.95
Q 48.7 209.25 49.95 208.85 51.75 208.3 54.6 207.8 Z"/>
</g>

<g id="Layer0_0_MEMBER_10_MEMBER_2_MEMBER_1_FILL">
<path fill="#FD994F" stroke="none" d="
M 57.85 209.7
L 56.9 209.2
Q 56.4 209.2 55.75 209.3 54.35 209.55 53.4 210 51.7 210.85 50.3 211.9 49.6 212.45 49.25 212.8
L 50.6 212.15
Q 52.25 211.45 53.45 211.05
L 57.85 209.7 Z"/>
</g>

<g id="Layer0_0_MEMBER_10_MEMBER_2_MEMBER_2_FILL">
<path fill="#FD994F" stroke="none" d="
M 51.35 205.9
L 50.5 205.4 50.3 206.65
Q 50.1 208.25 50.15 209.95 50.2 211.7 50.6 214.4
L 51.35 205.9 Z"/>
</g>

<g id="Layer0_0_MEMBER_10_MEMBER_2_MEMBER_3_FILL">
<path fill="#FD994F" stroke="none" d="
M 55.2 208.15
L 54.2 207.55 54.05 208.85
Q 53.95 210.45 54 212.15 54.05 213.9 54.45 216.6
L 55.2 208.15 Z"/>
</g>

<g id="Layer0_0_MEMBER_10_MEMBER_2_MEMBER_4_FILL">
<path fill="#FD994F" stroke="none" d="
M 61.9 211.3
L 60.7 210.85
Q 60.15 210.95 59.4 211.2 57.9 211.6 56.95 212.1 55.25 212.9 53.85 214 53.15 214.55 52.8 214.9
L 54.2 214.25
Q 55.8 213.5 57.05 213.15 58.85 212.6 61.9 211.3 Z"/>
</g>

<g id="Layer0_0_MEMBER_10_MEMBER_2_MEMBER_5_FILL">
<path fill="#FD994F" stroke="none" d="
M 58.75 210.1
L 57.75 209.65 57.6 210.95
Q 57.5 212.55 57.55 214.25 57.6 216 58 218.7
L 58.75 210.1 Z"/>
</g>

<g id="Layer0_0_MEMBER_10_MEMBER_2_MEMBER_6_FILL">
<path fill="#FD994F" stroke="none" d="
M 66 212.6
L 64.65 212.15
Q 64.1 212.35 63.3 212.6 61.75 213.2 60.8 213.65 59.1 214.5 57.7 215.55 57 216.1 56.65 216.45
L 58.05 215.8
Q 59.65 215.1 60.9 214.7 62.7 214.2 66 212.6 Z"/>
</g>

<g id="Layer0_0_MEMBER_10_MEMBER_2_MEMBER_7_FILL">
<path fill="#FD994F" stroke="none" d="
M 62.55 211.5
L 61.5 211.15 61.4 212.45
Q 61.35 214.15 61.4 215.85 61.45 217.55 61.85 220.3
L 62.55 211.5 Z"/>
</g>

<g id="Layer0_0_MEMBER_10_MEMBER_2_MEMBER_8_FILL">
<path fill="#FD994F" stroke="none" d="
M 69.75 214
L 68.45 213.45 64.45 215.1
Q 62.75 215.95 61.35 217 60.65 217.55 60.3 217.9
L 61.7 217.25
Q 63.3 216.55 64.55 216.15 66.35 215.65 69.75 214 Z"/>
</g>

<g id="Layer0_0_MEMBER_10_MEMBER_2_MEMBER_9_FILL">
<path fill="#FD994F" stroke="none" d="
M 66.5 212.75
L 65.45 212.4 65.35 213.75
Q 65.25 215.4 65.3 217.1 65.4 218.85 65.8 221.55
L 66.5 212.75 Z"/>
</g>

<g id="Layer0_0_MEMBER_11_MEMBER_0_FILL">
<path fill="#FD7E36" stroke="none" d="
M 55.65 216.4
Q 46.8 213.4 45.4 212.55 40.85 209.75 38.9 208.75 37.75 208.1 34.95 206.85 33.9 206.4 32.65 206.85 31.4 207.3 30.5 208.45 30.8 211.3 31.1 212.45 31.65 214.55 32.95 216 34.2 217.35 37.6 220.1 42.95 224.5 50.55 225.8 53.05 226.25 54.05 226.35 56 226.5 57.5 226.1 58.2 225.9 59.75 224.95 61.15 224.1 62.05 223.95 62.95 223.85 63.45 224.15 63.5 222.9 63 221.2 62.2 218.6 55.65 216.4 Z"/>
</g>

<g id="Layer0_0_MEMBER_11_MEMBER_1_FILL">
<path fill="#E06621" stroke="none" d="
M 41.5 225.5
Q 46.35 227.8 51.5 228.25 53.3 228.4 59.8 228.2 61.3 228.1 62.3 227.1 63.4 226 63.45 224.15 62.95 223.85 62.05 223.95 61.15 224.1 59.75 224.95 58.2 225.9 57.5 226.1 56 226.5 54.05 226.35 53.05 226.25 50.55 225.8 42.95 224.5 37.6 220.1 34.2 217.35 32.95 216 31.65 214.55 31.1 212.45 30.8 211.3 30.5 208.45 28.75 210.65 29.4 213.55 30.15 217.05 33 219.9 35.9 222.8 41.5 225.5 Z"/>
</g>

<g id="Layer0_0_MEMBER_11_MEMBER_2_MEMBER_0_FILL">
<path fill="#FD994F" stroke="none" d="
M 43.35 211.3
L 42.1 210.55
Q 41.65 210.55 40.95 210.65 39.6 210.85 38.65 211.3 36.95 212.15 35.55 213.2 34.85 213.75 34.5 214.1
L 35.85 213.45
Q 37.5 212.75 38.7 212.35 40.55 211.8 43.35 211.3 Z"/>
</g>

<g id="Layer0_0_MEMBER_11_MEMBER_2_MEMBER_1_FILL">
<path fill="#FD994F" stroke="none" d="
M 46.65 213.2
L 45.7 212.7
Q 45.2 212.7 44.5 212.8 43.1 213.05 42.15 213.5 40.45 214.35 39.05 215.4 38.35 215.95 38 216.3
L 39.4 215.65
Q 41.05 214.95 42.25 214.55
L 46.65 213.2 Z"/>
</g>

<g id="Layer0_0_MEMBER_11_MEMBER_2_MEMBER_2_FILL">
<path fill="#FD994F" stroke="none" d="
M 40.15 209.4
L 39.3 208.9 39.1 210.15
Q 38.9 211.75 38.95 213.45 39 215.2 39.4 217.9
L 40.15 209.4 Z"/>
</g>

<g id="Layer0_0_MEMBER_11_MEMBER_2_MEMBER_3_FILL">
<path fill="#FD994F" stroke="none" d="
M 44 211.7
L 43 211.05 42.85 212.35
Q 42.7 213.95 42.75 215.65 42.85 217.4 43.25 220.1
L 44 211.7 Z"/>
</g>

<g id="Layer0_0_MEMBER_11_MEMBER_2_MEMBER_4_FILL">
<path fill="#FD994F" stroke="none" d="
M 50.7 214.8
L 49.5 214.4
Q 48.95 214.5 48.2 214.7 46.7 215.1 45.75 215.6 44.05 216.45 42.65 217.5 41.95 218.05 41.6 218.4
L 42.95 217.75
Q 44.6 217 45.8 216.65 47.65 216.1 50.7 214.8 Z"/>
</g>

<g id="Layer0_0_MEMBER_11_MEMBER_2_MEMBER_5_FILL">
<path fill="#FD994F" stroke="none" d="
M 47.55 213.6
L 46.55 213.15 46.4 214.45
Q 46.3 216.05 46.35 217.75 46.4 219.5 46.8 222.2
L 47.55 213.6 Z"/>
</g>

<g id="Layer0_0_MEMBER_11_MEMBER_2_MEMBER_6_FILL">
<path fill="#FD994F" stroke="none" d="
M 54.8 216.1
L 53.45 215.65
Q 52.9 215.85 52.1 216.15 50.55 216.7 49.6 217.2 47.9 218 46.45 219.05 45.75 219.6 45.4 219.95
L 46.8 219.3
Q 48.45 218.6 49.65 218.25 51.5 217.7 54.8 216.1 Z"/>
</g>

<g id="Layer0_0_MEMBER_11_MEMBER_2_MEMBER_7_FILL">
<path fill="#FD994F" stroke="none" d="
M 51.35 215
L 50.3 214.65 50.2 216
Q 50.15 217.65 50.2 219.35 50.25 221.1 50.65 223.8
L 51.35 215 Z"/>
</g>

<g id="Layer0_0_MEMBER_11_MEMBER_2_MEMBER_8_FILL">
<path fill="#FD994F" stroke="none" d="
M 58.55 217.5
L 57.25 216.95 53.25 218.6
Q 51.55 219.45 50.15 220.5 49.45 221.05 49.1 221.4
L 50.45 220.75
Q 52.1 220.05 53.3 219.65 55.15 219.15 58.55 217.5 Z"/>
</g>

<g id="Layer0_0_MEMBER_11_MEMBER_2_MEMBER_9_FILL">
<path fill="#FD994F" stroke="none" d="
M 55.25 216.25
L 54.2 215.9 54.1 217.25
Q 54.05 218.9 54.1 220.6 54.15 222.35 54.6 225.05
L 55.25 216.25 Z"/>
</g>

<g id="Layer0_0_MEMBER_12_MEMBER_0_FILL">
<path fill="#F43439" stroke="none" d="
M 92.25 214.6
Q 87.75 216.7 84.95 217.95 76.05 221.9 64.25 220.9 58.25 220.4 57.05 223.85 55.95 227 58.75 228.8 60.6 229.95 66.95 229.9 72 229.8 78.15 229.05 83.75 228.35 90.7 225.7 98.2 222.85 99.6 220.35 101.25 217.5 100.65 215.65 100.05 213.85 97.35 213.45 95.65 213.15 92.25 214.6 Z"/>
</g>

<g id="Layer0_0_MEMBER_12_MEMBER_1_MEMBER_0_FILL">
<path fill="#D41C23" stroke="none" d="
M 67.1 221.05
L 65.3 220.95 66.15 221.65
Q 67.15 222.5 67.7 223.3 68.55 224.65 69.5 226.4 68.75 223.9 68.15 222.75 67.8 222.05 67.4 221.45
L 67.1 221.05 Z"/>
</g>

<g id="Layer0_0_MEMBER_12_MEMBER_1_MEMBER_1_FILL">
<path fill="#D41C23" stroke="none" d="
M 70.1 221.1
L 68.65 221.1 69.5 221.75
Q 70.45 222.6 71 223.45
L 72.85 226.05
Q 72.05 224 71.5 222.85 71.15 222.15 70.6 221.55
L 70.1 221.1 Z"/>
</g>

<g id="Layer0_0_MEMBER_12_MEMBER_1_MEMBER_2_FILL">
<path fill="#D41C23" stroke="none" d="
M 73.3 220.9
L 71.95 221 72.8 221.65
Q 73.8 222.5 74.35 223.3 75.2 224.65 76.15 225.95 75.4 223.9 74.85 222.75 74.5 222.05 73.85 221.4
L 73.3 220.9 Z"/>
</g>

<g id="Layer0_0_MEMBER_12_MEMBER_1_MEMBER_3_FILL">
<path fill="#D41C23" stroke="none" d="
M 76.3 220.5
L 75.2 220.65 76.05 221.3
Q 77 222.15 77.55 223 78.4 224.3 79.45 225.2
L 78.05 222.4
Q 77.7 221.7 76.95 221
L 76.3 220.5 Z"/>
</g>

<g id="Layer0_0_MEMBER_12_MEMBER_1_MEMBER_4_FILL">
<path fill="#D41C23" stroke="none" d="
M 82.85 224.3
Q 82.55 222.85 81.7 221.55 81.3 220.85 80.55 220.2
L 79.9 219.7 78.8 219.95 79.6 220.55
Q 80.5 221.3 81.05 222.1 81.95 223.45 82.85 224.3 Z"/>
</g>

<g id="Layer0_0_MEMBER_12_MEMBER_1_MEMBER_5_FILL">
<path fill="#D41C23" stroke="none" d="
M 83.6 218.5
L 82.7 218.85 83.45 219.4
Q 84.3 220.15 84.85 221 85.75 222.3 86.7 223.2 86.35 221.75 85.55 220.4 85.1 219.75 84.3 219.05
L 83.6 218.5 Z"/>
</g>

<g id="Layer0_0_MEMBER_12_MEMBER_1_MEMBER_6_FILL">
<path fill="#D41C23" stroke="none" d="
M 86.9 217.05
L 86.2 217.4 86.95 218
Q 87.75 218.75 88.3 219.6 89.2 220.9 90.15 221.8 89.8 220.35 88.95 219 88.55 218.35 87.7 217.65
L 86.9 217.05 Z"/>
</g>

<g id="Layer0_0_MEMBER_12_MEMBER_1_MEMBER_7_FILL">
<path fill="#D41C23" stroke="none" d="
M 89.8 215.7
L 89.1 216 89.85 216.6
Q 90.7 217.4 91.25 218.2 92.1 219.55 93.05 220.4 92.75 218.95 91.9 217.65 91.45 216.95 90.6 216.25
L 89.8 215.7 Z"/>
</g>

<g id="Layer0_0_MEMBER_13_MEMBER_0_FILL">
<path fill="#FC4549" stroke="none" d="
M 106.2 222
Q 106.85 220.85 107.1 219.45 106.75 218 105.8 217.35 104.7 216.55 103.1 217 101.75 217.4 99.35 219.45 96.65 221.75 95.75 222.2 93.65 223.25 90.6 224.1 87 224.95 85.25 225.35 75.3 227.65 65.6 228.4 61.1 228.8 56.65 228.85 53.15 228.85 51.55 229.75 50.45 230.4 50 231.4 51.8 235.25 57.5 236.05 58.65 236.2 67.05 236.2 77.6 236.2 85.25 234.4 94.2 232.3 100.7 227.7 104.55 225 106.2 222 Z"/>
</g>

<g id="Layer0_0_MEMBER_13_MEMBER_1_FILL">
<path fill="#EA2E33" stroke="none" d="
M 100.7 227.7
Q 94.2 232.3 85.25 234.4 77.6 236.2 67.05 236.2 58.65 236.2 57.5 236.05 51.8 235.25 50 231.4 49.45 232.6 50 234.05 50.55 235.4 51.85 236.35 54.3 238.2 58.5 238.6 60.35 238.8 65.7 238.75 74.45 238.6 83.1 236.7 92.8 234.45 98.85 231.35 105.55 227.9 107.05 223.05 107.6 221.35 107.1 219.45 106.85 220.85 106.2 222 104.55 225 100.7 227.7 Z"/>
</g>

<g id="Layer0_0_MEMBER_13_MEMBER_2_MEMBER_0_FILL">
<path fill="#D41C23" stroke="none" d="
M 57.6 228.8
L 55.45 228.85 56.8 229.25
Q 58.45 229.85 60.1 230.9 62.75 232.5 64.25 234.2 63.55 231.9 61.5 230.5 60.2 229.65 58.8 229.15
L 57.6 228.8 Z"/>
</g>

<g id="Layer0_0_MEMBER_13_MEMBER_2_MEMBER_1_FILL">
<path fill="#D41C23" stroke="none" d="
M 64.05 228.45
L 61.85 228.65 63.2 229.05
Q 64.85 229.6 66.5 230.6 69.1 232.25 70.65 233.95 69.9 231.85 67.85 230.45 66.55 229.6 65.2 228.95
L 64.05 228.45 Z"/>
</g>

<g id="Layer0_0_MEMBER_13_MEMBER_2_MEMBER_2_FILL">
<path fill="#D41C23" stroke="none" d="
M 69.9 228
L 67.7 228.2 69.05 228.55
Q 70.7 229.1 72.3 230.15 74.95 231.8 76.5 233.5 75.75 231.4 73.7 230 72.4 229.15 71.05 228.5
L 69.9 228 Z"/>
</g>

<g id="Layer0_0_MEMBER_13_MEMBER_2_MEMBER_3_FILL">
<path fill="#D41C23" stroke="none" d="
M 75.3 227.25
L 73.3 227.5 74.65 227.9
Q 76.3 228.45 77.95 229.5 80.55 231.1 82.1 232.8 81.35 230.7 79.3 229.3 78 228.45 76.55 227.75
L 75.3 227.25 Z"/>
</g>

<g id="Layer0_0_MEMBER_13_MEMBER_2_MEMBER_4_FILL">
<path fill="#D41C23" stroke="none" d="
M 82.45 226.8
L 81.25 226.2 79.2 226.6 80.55 226.95
Q 82.2 227.5 83.85 228.55 86.45 230.2 88 231.9 87.25 229.8 85.2 228.4 83.9 227.55 82.45 226.8 Z"/>
</g>

<g id="Layer0_0_MEMBER_13_MEMBER_2_MEMBER_5_FILL">
<path fill="#D41C23" stroke="none" d="
M 87.7 224.8
L 85.75 225.2 87.05 225.45
Q 88.65 225.9 90.25 226.95 92.9 228.55 94.3 230.1 93.7 228.1 91.65 226.7 90.35 225.85 88.9 225.25
L 87.7 224.8 Z"/>
</g>

<g id="Layer0_0_MEMBER_13_MEMBER_2_MEMBER_6_FILL">
<path fill="#D41C23" stroke="none" d="
M 93.05 223.3
L 91.4 223.85 92.7 224
Q 94.3 224.3 96 225.2 97.65 226.1 99.45 227.65 99.25 226.2 97.2 224.8 95.9 223.95 94.35 223.55
L 93.05 223.3 Z"/>
</g>

<g id="Layer0_0_MEMBER_13_MEMBER_2_MEMBER_7_FILL">
<path fill="#D41C23" stroke="none" d="
M 97.95 220.65
L 97.05 221.35 98.55 221.75
Q 100.2 222.25 100.9 222.7
L 102.9 223.9
Q 102.45 222.55 100.55 221.6 99.8 221.25 98.8 220.9
L 97.95 220.65 Z"/>
</g>
</defs>

<g transform="matrix( 8, 0, 0, 8, -44,-1204) ">
<use xlink:href="#Layer0_0_MEMBER_0_MEMBER_0_FILL"/>
</g>

<g transform="matrix( 8, 0, 0, 8, -44,-1204) ">
<use xlink:href="#Layer0_0_MEMBER_0_MEMBER_1_FILL"/>
</g>

<g transform="matrix( 8, 0, 0, 8, -44,-1204) ">
<use xlink:href="#Layer0_0_MEMBER_0_MEMBER_2_FILL"/>
</g>

<g transform="matrix( 8, 0, 0, 8, -44,-1204) ">
<use xlink:href="#Layer0_0_MEMBER_0_MEMBER_3_MEMBER_0_FILL"/>
</g>

<g transform="matrix( 8, 0, 0, 8, -44,-1204) ">
<use xlink:href="#Layer0_0_MEMBER_1_MEMBER_0_FILL"/>
</g>

<g transform="matrix( 8, 0, 0, 8, -44,-1204) ">
<use xlink:href="#Layer0_0_MEMBER_1_MEMBER_1_FILL"/>
</g>

<g transform="matrix( 8, 0, 0, 8, -44,-1204) ">
<use xlink:href="#Layer0_0_MEMBER_1_MEMBER_2_FILL"/>
</g>

<g transform="matrix( 8, 0, 0, 8, -44,-1204) ">
<use xlink:href="#Layer0_0_MEMBER_2_MEMBER_0_FILL"/>
</g>

<g transform="matrix( 8, 0, 0, 8, -44,-1204) ">
<use xlink:href="#Layer0_0_MEMBER_2_MEMBER_1_FILL"/>
</g>

<g transform="matrix( 8, 0, 0, 8, -44,-1204) ">
<use xlink:href="#Layer0_0_MEMBER_2_MEMBER_2_FILL"/>
</g>

<g transform="matrix( 8, 0, 0, 8, -44,-1204) ">
<use xlink:href="#Layer0_0_MEMBER_3_MEMBER_0_FILL"/>
</g>

<g transform="matrix( 8, 0, 0, 8, -44,-1204) ">
<use xlink:href="#Layer0_0_MEMBER_3_MEMBER_1_FILL"/>
</g>

<g transform="matrix( 8, 0, 0, 8, -44,-1204) ">
<use xlink:href="#Layer0_0_MEMBER_3_MEMBER_2_FILL"/>
</g>

<g transform="matrix( 8, 0, 0, 8, -44,-1204) ">
<use xlink:href="#Layer0_0_MEMBER_3_MEMBER_3_FILL"/>
</g>

<g transform="matrix( 8, 0, 0, 8, -44,-1204) ">
<use xlink:href="#Layer0_0_MEMBER_3_MEMBER_4_FILL"/>
</g>

<g transform="matrix( 8, 0, 0, 8, -44,-1204) ">
<use xlink:href="#Layer0_0_MEMBER_4_MEMBER_0_FILL"/>
</g>

<g transform="matrix( 8, 0, 0, 8, -44,-1204) ">
<use xlink:href="#Layer0_0_MEMBER_4_MEMBER_1_FILL"/>
</g>

<g transform="matrix( 8, 0, 0, 8, -44,-1204) ">
<use xlink:href="#Layer0_0_MEMBER_4_MEMBER_2_FILL"/>
</g>

<g transform="matrix( 8, 0, 0, 8, -44,-1204) ">
<use xlink:href="#Layer0_0_MEMBER_4_MEMBER_3_FILL"/>
</g>

<g transform="matrix( 8, 0, 0, 8, -44,-1204) ">
<use xlink:href="#Layer0_0_MEMBER_4_MEMBER_4_FILL"/>
</g>

<g transform="matrix( 8, 0, 0, 8, -44,-1204) ">
<use xlink:href="#Layer0_0_MEMBER_5_MEMBER_0_FILL"/>
</g>

<g transform="matrix( 8, 0, 0, 8, -44,-1204) ">
<use xlink:href="#Layer0_0_MEMBER_5_MEMBER_1_FILL"/>
</g>

<g transform="matrix( 8, 0, 0, 8, -44,-1204) ">
<use xlink:href="#Layer0_0_MEMBER_5_MEMBER_2_FILL"/>
</g>

<g transform="matrix( 8, 0, 0, 8, -44,-1204) ">
<use xlink:href="#Layer0_0_MEMBER_5_MEMBER_3_FILL"/>
</g>

<g transform="matrix( 8, 0, 0, 8, -44,-1204) ">
<use xlink:href="#Layer0_0_MEMBER_5_MEMBER_4_FILL"/>
</g>

<g transform="matrix( 8, 0, 0, 8, -44,-1204) ">
<use xlink:href="#Layer0_0_MEMBER_6_MEMBER_0_FILL"/>
</g>

<g transform="matrix( 8, 0, 0, 8, -44,-1204) ">
<use xlink:href="#Layer0_0_MEMBER_6_MEMBER_1_FILL"/>
</g>

<g transform="matrix( 8, 0, 0, 8, -44,-1204) ">
<use xlink:href="#Layer0_0_MEMBER_6_MEMBER_2_FILL"/>
</g>

<g transform="matrix( 8, 0, 0, 8, -44,-1204) ">
<use xlink:href="#Layer0_0_MEMBER_6_MEMBER_3_FILL"/>
</g>

<g transform="matrix( 8, 0, 0, 8, -44,-1204) ">
<use xlink:href="#Layer0_0_MEMBER_7_MEMBER_0_FILL"/>
</g>

<g transform="matrix( 8, 0, 0, 8, -44,-1204) ">
<use xlink:href="#Layer0_0_MEMBER_7_MEMBER_1_FILL"/>
</g>

<g transform="matrix( 8, 0, 0, 8, -44,-1204) ">
<use xlink:href="#Layer0_0_MEMBER_7_MEMBER_2_FILL"/>
</g>

<g transform="matrix( 8, 0, 0, 8, -44,-1204) ">
<use xlink:href="#Layer0_0_MEMBER_7_MEMBER_3_FILL"/>
</g>

<g transform="matrix( 8, 0, 0, 8, -44,-1204) ">
<use xlink:href="#Layer0_0_MEMBER_7_MEMBER_4_FILL"/>
</g>

<g transform="matrix( 8, 0, 0, 8, -44,-1204) ">
<use xlink:href="#Layer0_0_MEMBER_7_MEMBER_5_FILL"/>
</g>

<g transform="matrix( 8, 0, 0, 8, -44,-1204) ">
<use xlink:href="#Layer0_0_MEMBER_8_MEMBER_0_FILL"/>
</g>

<g transform="matrix( 8, 0, 0, 8, -44,-1204) ">
<use xlink:href="#Layer0_0_MEMBER_8_MEMBER_1_FILL"/>
</g>

<g transform="matrix( 8, 0, 0, 8, -44,-1204) ">
<use xlink:href="#Layer0_0_MEMBER_8_MEMBER_2_FILL"/>
</g>

<g transform="matrix( 8, 0, 0, 8, -44,-1204) ">
<use xlink:href="#Layer0_0_MEMBER_8_MEMBER_3_FILL"/>
</g>

<g transform="matrix( 8, 0, 0, 8, -44,-1204) ">
<use xlink:href="#Layer0_0_MEMBER_8_MEMBER_4_FILL"/>
</g>

<g transform="matrix( 8, 0, 0, 8, -44,-1204) ">
<use xlink:href="#Layer0_0_MEMBER_8_MEMBER_5_FILL"/>
</g>

<g transform="matrix( 8, 0, 0, 8, -44,-1204) ">
<use xlink:href="#Layer0_0_MEMBER_9_MEMBER_0_FILL"/>
</g>

<g transform="matrix( 8, 0, 0, 8, -44,-1204) ">
<use xlink:href="#Layer0_0_MEMBER_9_MEMBER_1_FILL"/>
</g>

<g transform="matrix( 8, 0, 0, 8, -44,-1204) ">
<use xlink:href="#Layer0_0_MEMBER_9_MEMBER_2_FILL"/>
</g>

<g transform="matrix( 8, 0, 0, 8, -44,-1204) ">
<use xlink:href="#Layer0_0_MEMBER_9_MEMBER_3_FILL"/>
</g>

<g transform="matrix( 8, 0, 0, 8, -44,-1204) ">
<use xlink:href="#Layer0_0_MEMBER_10_MEMBER_0_FILL"/>
</g>

<g transform="matrix( 8, 0, 0, 8, -44,-1204) ">
<use xlink:href="#Layer0_0_MEMBER_10_MEMBER_1_FILL"/>
</g>

<g transform="matrix( 8, 0, 0, 8, -44,-1204) ">
<use xlink:href="#Layer0_0_MEMBER_10_MEMBER_2_MEMBER_0_FILL"/>
</g>

<g transform="matrix( 8, 0, 0, 8, -44,-1204) ">
<use xlink:href="#Layer0_0_MEMBER_10_MEMBER_2_MEMBER_1_FILL"/>
</g>

<g transform="matrix( 8, 0, 0, 8, -44,-1204) ">
<use xlink:href="#Layer0_0_MEMBER_10_MEMBER_2_MEMBER_2_FILL"/>
</g>

<g transform="matrix( 8, 0, 0, 8, -44,-1204) ">
<use xlink:href="#Layer0_0_MEMBER_10_MEMBER_2_MEMBER_3_FILL"/>
</g>

<g transform="matrix( 8, 0, 0, 8, -44,-1204) ">
<use xlink:href="#Layer0_0_MEMBER_10_MEMBER_2_MEMBER_4_FILL"/>
</g>

<g transform="matrix( 8, 0, 0, 8, -44,-1204) ">
<use xlink:href="#Layer0_0_MEMBER_10_MEMBER_2_MEMBER_5_FILL"/>
</g>

<g transform="matrix( 8, 0, 0, 8, -44,-1204) ">
<use xlink:href="#Layer0_0_MEMBER_10_MEMBER_2_MEMBER_6_FILL"/>
</g>

<g transform="matrix( 8, 0, 0, 8, -44,-1204) ">
<use xlink:href="#Layer0_0_MEMBER_10_MEMBER_2_MEMBER_7_FILL"/>
</g>

<g transform="matrix( 8, 0, 0, 8, -44,-1204) ">
<use xlink:href="#Layer0_0_MEMBER_10_MEMBER_2_MEMBER_8_FILL"/>
</g>

<g transform="matrix( 8, 0, 0, 8, -44,-1204) ">
<use xlink:href="#Layer0_0_MEMBER_10_MEMBER_2_MEMBER_9_FILL"/>
</g>

<g transform="matrix( 8, 0, 0, 8, -44,-1204) ">
<use xlink:href="#Layer0_0_MEMBER_11_MEMBER_0_FILL"/>
</g>

<g transform="matrix( 8, 0, 0, 8, -44,-1204) ">
<use xlink:href="#Layer0_0_MEMBER_11_MEMBER_1_FILL"/>
</g>

<g transform="matrix( 8, 0, 0, 8, -44,-1204) ">
<use xlink:href="#Layer0_0_MEMBER_11_MEMBER_2_MEMBER_0_FILL"/>
</g>

<g transform="matrix( 8, 0, 0, 8, -44,-1204) ">
<use xlink:href="#Layer0_0_MEMBER_11_MEMBER_2_MEMBER_1_FILL"/>
</g>

<g transform="matrix( 8, 0, 0, 8, -44,-1204) ">
<use xlink:href="#Layer0_0_MEMBER_11_MEMBER_2_MEMBER_2_FILL"/>
</g>

<g transform="matrix( 8, 0, 0, 8, -44,-1204) ">
<use xlink:href="#Layer0_0_MEMBER_11_MEMBER_2_MEMBER_3_FILL"/>
</g>

<g transform="matrix( 8, 0, 0, 8, -44,-1204) ">
<use xlink:href="#Layer0_0_MEMBER_11_MEMBER_2_MEMBER_4_FILL"/>
</g>

<g transform="matrix( 8, 0, 0, 8, -44,-1204) ">
<use xlink:href="#Layer0_0_MEMBER_11_MEMBER_2_MEMBER_5_FILL"/>
</g>

<g transform="matrix( 8, 0, 0, 8, -44,-1204) ">
<use xlink:href="#Layer0_0_MEMBER_11_MEMBER_2_MEMBER_6_FILL"/>
</g>

<g transform="matrix( 8, 0, 0, 8, -44,-1204) ">
<use xlink:href="#Layer0_0_MEMBER_11_MEMBER_2_MEMBER_7_FILL"/>
</g>

<g transform="matrix( 8, 0, 0, 8, -44,-1204) ">
<use xlink:href="#Layer0_0_MEMBER_11_MEMBER_2_MEMBER_8_FILL"/>
</g>

<g transform="matrix( 8, 0, 0, 8, -44,-1204) ">
<use xlink:href="#Layer0_0_MEMBER_11_MEMBER_2_MEMBER_9_FILL"/>
</g>

<g transform="matrix( 8, 0, 0, 8, -44,-1204) ">
<use xlink:href="#Layer0_0_MEMBER_12_MEMBER_0_FILL"/>
</g>

<g transform="matrix( 8, 0, 0, 8, -44,-1204) ">
<use xlink:href="#Layer0_0_MEMBER_12_MEMBER_1_MEMBER_0_FILL"/>
</g>

<g transform="matrix( 8, 0, 0, 8, -44,-1204) ">
<use xlink:href="#Layer0_0_MEMBER_12_MEMBER_1_MEMBER_1_FILL"/>
</g>

<g transform="matrix( 8, 0, 0, 8, -44,-1204) ">
<use xlink:href="#Layer0_0_MEMBER_12_MEMBER_1_MEMBER_2_FILL"/>
</g>

<g transform="matrix( 8, 0, 0, 8, -44,-1204) ">
<use xlink:href="#Layer0_0_MEMBER_12_MEMBER_1_MEMBER_3_FILL"/>
</g>

<g transform="matrix( 8, 0, 0, 8, -44,-1204) ">
<use xlink:href="#Layer0_0_MEMBER_12_MEMBER_1_MEMBER_4_FILL"/>
</g>

<g transform="matrix( 8, 0, 0, 8, -44,-1204) ">
<use xlink:href="#Layer0_0_MEMBER_12_MEMBER_1_MEMBER_5_FILL"/>
</g>

<g transform="matrix( 8, 0, 0, 8, -44,-1204) ">
<use xlink:href="#Layer0_0_MEMBER_12_MEMBER_1_MEMBER_6_FILL"/>
</g>

<g transform="matrix( 8, 0, 0, 8, -44,-1204) ">
<use xlink:href="#Layer0_0_MEMBER_12_MEMBER_1_MEMBER_7_FILL"/>
</g>

<g transform="matrix( 8, 0, 0, 8, -44,-1204) ">
<use xlink:href="#Layer0_0_MEMBER_13_MEMBER_0_FILL"/>
</g>

<g transform="matrix( 8, 0, 0, 8, -44,-1204) ">
<use xlink:href="#Layer0_0_MEMBER_13_MEMBER_1_FILL"/>
</g>

<g transform="matrix( 8, 0, 0, 8, -44,-1204) ">
<use xlink:href="#Layer0_0_MEMBER_13_MEMBER_2_MEMBER_0_FILL"/>
</g>

<g transform="matrix( 8, 0, 0, 8, -44,-1204) ">
<use xlink:href="#Layer0_0_MEMBER_13_MEMBER_2_MEMBER_1_FILL"/>
</g>

<g transform="matrix( 8, 0, 0, 8, -44,-1204) ">
<use xlink:href="#Layer0_0_MEMBER_13_MEMBER_2_MEMBER_2_FILL"/>
</g>

<g transform="matrix( 8, 0, 0, 8, -44,-1204) ">
<use xlink:href="#Layer0_0_MEMBER_13_MEMBER_2_MEMBER_3_FILL"/>
</g>

<g transform="matrix( 8, 0, 0, 8, -44,-1204) ">
<use xlink:href="#Layer0_0_MEMBER_13_MEMBER_2_MEMBER_4_FILL"/>
</g>

<g transform="matrix( 8, 0, 0, 8, -44,-1204) ">
<use xlink:href="#Layer0_0_MEMBER_13_MEMBER_2_MEMBER_5_FILL"/>
</g>

<g transform="matrix( 8, 0, 0, 8, -44,-1204) ">
<use xlink:href="#Layer0_0_MEMBER_13_MEMBER_2_MEMBER_6_FILL"/>
</g>

<g transform="matrix( 8, 0, 0, 8, -44,-1204) ">
<use xlink:href="#Layer0_0_MEMBER_13_MEMBER_2_MEMBER_7_FILL"/>
</g>
</svg>
