<svg xmlns="http://www.w3.org/2000/svg" xmlns:xlink="http://www.w3.org/1999/xlink" viewBox="0 0 360 360"><defs><style>.cls-1{isolation:isolate;}.cls-2{fill:url(#linear-gradient);}.cls-3{fill:#9ff4d5;}.cls-4{fill:#94aded;}.cls-10,.cls-11,.cls-13,.cls-14,.cls-15,.cls-16,.cls-24,.cls-26,.cls-28,.cls-30,.cls-33,.cls-35,.cls-37,.cls-38,.cls-39,.cls-41,.cls-42,.cls-43,.cls-44,.cls-45,.cls-46,.cls-5,.cls-53,.cls-58,.cls-6,.cls-60,.cls-7,.cls-8{opacity:0.49;}.cls-10,.cls-11,.cls-13,.cls-14,.cls-15,.cls-16,.cls-26,.cls-28,.cls-30,.cls-33,.cls-35,.cls-37,.cls-38,.cls-39,.cls-41,.cls-42,.cls-43,.cls-44,.cls-45,.cls-46,.cls-48,.cls-5,.cls-6,.cls-60,.cls-7,.cls-8{mix-blend-mode:color-burn;}.cls-5{fill:url(#linear-gradient-2);}.cls-6{fill:url(#linear-gradient-3);}.cls-7{fill:url(#linear-gradient-4);}.cls-8{fill:url(#linear-gradient-5);}.cls-9{fill:#7c98d8;}.cls-10{fill:url(#linear-gradient-6);}.cls-11{fill:url(#linear-gradient-7);}.cls-12{fill:#f0f5fc;}.cls-13{fill:url(#linear-gradient-8);}.cls-14{fill:url(#linear-gradient-9);}.cls-15{fill:url(#linear-gradient-10);}.cls-16{fill:url(#linear-gradient-11);}.cls-17{fill:#490b0b;}.cls-18{fill:#bf352e;}.cls-19{fill:#db4337;}.cls-20{fill:#f4514a;}.cls-21{fill:#ff5a5a;}.cls-22{fill:#f4635b;}.cls-23{fill:#ff8d8a;}.cls-24,.cls-53,.cls-58{mix-blend-mode:multiply;}.cls-24{fill:url(#linear-gradient-12);}.cls-25{fill:#55a;}.cls-26{fill:url(#linear-gradient-13);}.cls-27{fill:#1b1c37;}.cls-28{fill:url(#linear-gradient-14);}.cls-29{fill:#f4b401;}.cls-30{fill:url(#linear-gradient-15);}.cls-31{fill:#ffb699;}.cls-32{fill:#f1dbd9;}.cls-33{fill:url(#linear-gradient-16);}.cls-34{fill:#e8d2d1;}.cls-35{fill:url(#linear-gradient-17);}.cls-36{fill:#69110d;}.cls-37{fill:url(#linear-gradient-18);}.cls-38{fill:url(#linear-gradient-19);}.cls-39{fill:url(#linear-gradient-20);}.cls-40{fill:#f9ebea;}.cls-41{fill:url(#linear-gradient-21);}.cls-42{fill:url(#linear-gradient-22);}.cls-43{fill:url(#linear-gradient-23);}.cls-44{fill:url(#linear-gradient-24);}.cls-45{fill:url(#linear-gradient-25);}.cls-46{fill:url(#linear-gradient-26);}.cls-47{fill:#ffce55;}.cls-48{opacity:0.27;fill:url(#linear-gradient-27);}.cls-49{fill:#457fdd;}.cls-50{fill:#4b8cea;}.cls-51{fill:#3d6fd3;}.cls-52{fill:#5996ef;}.cls-53{fill:url(#linear-gradient-28);}.cls-54{fill:#5de2ac;}.cls-55{fill:#64edb9;}.cls-56{fill:#39ce9c;}.cls-57{fill:#aeffda;}.cls-58{fill:url(#linear-gradient-29);}.cls-59{fill:#53e0ad;}.cls-60{fill:url(#linear-gradient-30);}.cls-61{fill:url(#linear-gradient-31);}</style><linearGradient id="linear-gradient" x1="225.8" y1="162.3" x2="261.12" y2="412.71" gradientUnits="userSpaceOnUse"><stop offset="0.07" stop-color="#fff"/><stop offset="0.79" stop-color="#d1d3d4"/></linearGradient><linearGradient id="linear-gradient-2" x1="-145.02" y1="1398.29" x2="-153.96" y2="1376.2" gradientTransform="translate(383.8 -1196.24)" gradientUnits="userSpaceOnUse"><stop offset="0" stop-color="#fff" stop-opacity="0"/><stop offset="0.93"/></linearGradient><linearGradient id="linear-gradient-3" x1="-147.95" y1="1408.66" x2="-153.8" y2="1388.02" gradientTransform="translate(626.77 -1147.67) rotate(10.21)" xlink:href="#linear-gradient-2"/><linearGradient id="linear-gradient-4" x1="-121.02" y1="1398.29" x2="-129.97" y2="1376.2" gradientTransform="translate(383.42 -1191.99)" xlink:href="#linear-gradient-2"/><linearGradient id="linear-gradient-5" x1="-123.95" y1="1408.66" x2="-129.8" y2="1388.02" gradientTransform="translate(626.77 -1147.67) rotate(10.21)" xlink:href="#linear-gradient-2"/><linearGradient id="linear-gradient-6" x1="-126.88" y1="1354.37" x2="-144.23" y2="1313.84" gradientTransform="translate(626.77 -1147.67) rotate(10.21)" xlink:href="#linear-gradient-2"/><linearGradient id="linear-gradient-7" x1="-100.99" y1="1325.85" x2="-159.98" y2="1311.79" gradientTransform="translate(626.77 -1147.67) rotate(10.21)" xlink:href="#linear-gradient-2"/><linearGradient id="linear-gradient-8" x1="-145.6" y1="1322.32" x2="-154.73" y2="1313.37" gradientTransform="translate(1564.39 273.02) rotate(90)" xlink:href="#linear-gradient-2"/><linearGradient id="linear-gradient-9" x1="-130.01" y1="1322.32" x2="-139.14" y2="1313.37" gradientTransform="matrix(0, 1, -1, 0, 1579.73, 260.22)" xlink:href="#linear-gradient-2"/><linearGradient id="linear-gradient-10" x1="-142.1" y1="1334.26" x2="-142.1" y2="1322.42" gradientTransform="translate(626.77 -1147.67) rotate(10.21)" xlink:href="#linear-gradient-2"/><linearGradient id="linear-gradient-11" x1="-131.59" y1="1303.13" x2="-146.23" y2="1288.49" gradientTransform="translate(626.77 -1147.67) rotate(10.21)" xlink:href="#linear-gradient-2"/><linearGradient id="linear-gradient-12" x1="1309.18" y1="-1552.7" x2="1309.18" y2="-1608.14" gradientTransform="translate(-577.97 2078.33) rotate(-16.89)" gradientUnits="userSpaceOnUse"><stop offset="0.02" stop-color="#fff" stop-opacity="0"/><stop offset="0.71"/></linearGradient><linearGradient id="linear-gradient-13" x1="2770.41" y1="-2936.48" x2="2832.2" y2="-2891.96" gradientTransform="translate(-497.17 4185.25) rotate(-33.54)" gradientUnits="userSpaceOnUse"><stop offset="0.02" stop-color="#fff" stop-opacity="0"/><stop offset="0.96"/></linearGradient><linearGradient id="linear-gradient-14" x1="89.22" y1="245.77" x2="224.05" y2="161.01" gradientTransform="matrix(1, 0, 0, 1, 0, 0)" xlink:href="#linear-gradient-12"/><linearGradient id="linear-gradient-15" x1="-5.14" y1="193.72" x2="101.05" y2="131.12" gradientUnits="userSpaceOnUse"><stop offset="0.02" stop-color="#fff" stop-opacity="0"/><stop offset="0.77"/></linearGradient><linearGradient id="linear-gradient-16" x1="703.28" y1="4337.19" x2="641.81" y2="4385.96" gradientTransform="matrix(0.76, 0.66, -0.66, 0.76, 2453.86, -3640.99)" gradientUnits="userSpaceOnUse"><stop offset="0.02" stop-color="#fff" stop-opacity="0"/><stop offset="0.4"/></linearGradient><linearGradient id="linear-gradient-17" x1="1185.72" y1="-1563.83" x2="1148.55" y2="-1670.9" gradientTransform="matrix(0.96, -0.29, 0.29, 0.96, -556.89, 2051.8)" xlink:href="#linear-gradient-12"/><linearGradient id="linear-gradient-18" x1="1197.33" y1="-1639.18" x2="1162.21" y2="-1627.31" gradientTransform="matrix(0.96, -0.29, 0.29, 0.96, -556.89, 2051.8)" gradientUnits="userSpaceOnUse"><stop offset="0.02" stop-color="#fff" stop-opacity="0"/><stop offset="0.54"/></linearGradient><linearGradient id="linear-gradient-19" x1="1193.21" y1="-1649.67" x2="1129.29" y2="-1668.96" xlink:href="#linear-gradient-18"/><linearGradient id="linear-gradient-20" x1="820.13" y1="-2097.19" x2="802.84" y2="-2145.01" gradientTransform="matrix(0.79, -0.62, 0.62, 0.79, 721.32, 2233.05)" xlink:href="#linear-gradient-18"/><linearGradient id="linear-gradient-21" x1="796.63" y1="-2100.81" x2="810.13" y2="-2106.63" gradientTransform="matrix(0.79, -0.62, 0.62, 0.79, 721.32, 2233.05)" gradientUnits="userSpaceOnUse"><stop offset="0.12" stop-color="#fff" stop-opacity="0"/><stop offset="0.85"/></linearGradient><linearGradient id="linear-gradient-22" x1="792.03" y1="-2122.14" x2="851.45" y2="-2124.79" gradientTransform="matrix(0.79, -0.62, 0.62, 0.79, 721.32, 2233.05)" xlink:href="#linear-gradient-18"/><linearGradient id="linear-gradient-23" x1="813.22" y1="-2105.52" x2="812.39" y2="-2115.55" gradientTransform="matrix(0.79, -0.62, 0.62, 0.79, 721.32, 2233.05)" gradientUnits="userSpaceOnUse"><stop offset="0.21" stop-color="#fff" stop-opacity="0"/><stop offset="0.9"/></linearGradient><linearGradient id="linear-gradient-24" x1="832.41" y1="-2100" x2="832.5" y2="-2109.74" gradientTransform="matrix(0.79, -0.62, 0.62, 0.79, 721.32, 2233.05)" xlink:href="#linear-gradient-18"/><linearGradient id="linear-gradient-25" x1="801.89" y1="-2107.77" x2="820.07" y2="-2112.46" gradientTransform="matrix(0.79, -0.62, 0.62, 0.79, 721.32, 2233.05)" xlink:href="#linear-gradient-18"/><linearGradient id="linear-gradient-26" x1="57.43" y1="108.08" x2="187.61" y2="144.46" gradientTransform="matrix(1, 0, 0, 1, 0, 0)" xlink:href="#linear-gradient-18"/><linearGradient id="linear-gradient-27" x1="2220.15" y1="-3188.84" x2="2220.15" y2="-3270.22" gradientTransform="translate(-25.39 4093.21) rotate(-31.4)" xlink:href="#linear-gradient-13"/><linearGradient id="linear-gradient-28" x1="-424.63" y1="2483.85" x2="-424.63" y2="2391.68" gradientTransform="translate(1315.49 -1989.43) rotate(18.76)" xlink:href="#linear-gradient-12"/><linearGradient id="linear-gradient-29" x1="168.44" y1="221.88" x2="168.44" y2="172.45" gradientTransform="matrix(1, 0, 0, 1, 0, 0)" xlink:href="#linear-gradient-12"/><linearGradient id="linear-gradient-30" x1="91.81" y1="282.96" x2="129.7" y2="101.89" xlink:href="#linear-gradient-15"/><linearGradient id="linear-gradient-31" x1="157.38" y1="141.33" x2="190.12" y2="318.54" xlink:href="#linear-gradient"/></defs><title>Santa Sleigh</title><g class="cls-1"><g id="Layer_1" data-name="Layer 1"><path class="cls-2" d="M352.06,213a4.36,4.36,0,0,0-5.54,2.69l-7.81,22.6c-6.74,19.51-24.77,33.86-45.93,36.56h0a7.73,7.73,0,0,1-7.93-4.28L279.7,260a4.36,4.36,0,1,0-7.84,3.82l1.57,3.23a7.73,7.73,0,0,1-6,11L205.75,286a7.73,7.73,0,0,1-8.55-9.19l.71-3.52a4.36,4.36,0,1,0-8.54-1.72L187,283a7.73,7.73,0,0,1-6.6,6.14l-1.29.16c-21.62,2.76-42.15-8.16-51.07-27.17l-1.57-3.35a4.36,4.36,0,0,0-7.89,3.71l1.57,3.35c10.54,22.45,34.67,35.35,60.06,32.11l9.88-1.26h0l95.11-12.14h0l8.59-1.1c24.42-3.12,45.24-19.74,53.06-42.36l7.81-22.6A4.36,4.36,0,0,0,352.06,213Z"/><path class="cls-3" d="M231.57,153.77s-13-3.29-15.08,10.24c0,0,.71,1.58,5,.59,0,0,.36-7.51,9.82-5.06"/><circle class="cls-4" cx="218.46" cy="166.27" r="4.05" transform="matrix(0.18, -0.98, 0.98, 0.18, 16.12, 351.82)"/><rect class="cls-3" x="228.9" y="178.44" width="8.77" height="20.32" rx="0.76" ry="0.76" transform="translate(37.1 -38.35) rotate(10.2)"/><rect class="cls-5" x="228.9" y="178.44" width="8.77" height="20.32" rx="0.76" ry="0.76" transform="translate(37.1 -38.35) rotate(10.2)"/><rect class="cls-3" x="221.55" y="185.53" width="20.32" height="5.57" rx="0.73" ry="0.73" transform="translate(5.32 383) rotate(-79.8)"/><path class="cls-4" d="M226.82,195.91h7.81a.76.76,0,0,1,.76.76v8.59a.76.76,0,0,1-.76.76H220.25a.76.76,0,0,1-.76-.76v-2a7.32,7.32,0,0,1,7.32-7.32Z" transform="translate(39.2 -37.12) rotate(10.21)"/><path class="cls-4" d="M234.49,206.63l1.53-8.51a.73.73,0,0,0-.59-.85l-1.93-.35a7.08,7.08,0,0,0-8.19,5.69l-.41,2.29a.73.73,0,0,0,.59.85l8.15,1.47A.73.73,0,0,0,234.49,206.63Z"/><path class="cls-6" d="M234.49,206.63l1.53-8.51a.73.73,0,0,0-.59-.85l-1.93-.35a7.08,7.08,0,0,0-8.19,5.69l-.41,2.29a.73.73,0,0,0,.59.85l8.15,1.47A.73.73,0,0,0,234.49,206.63Z"/><rect class="cls-3" x="252.52" y="182.69" width="8.77" height="20.32" rx="0.76" ry="0.76" transform="translate(38.23 -42.46) rotate(10.2)"/><rect class="cls-7" x="252.52" y="182.69" width="8.77" height="20.32" rx="0.76" ry="0.76" transform="translate(38.23 -42.46) rotate(10.2)"/><rect class="cls-3" x="245.17" y="189.78" width="20.32" height="5.57" rx="0.73" ry="0.73" transform="translate(20.57 409.74) rotate(-79.8)"/><path class="cls-4" d="M250.43,200.16h7.81a.76.76,0,0,1,.76.76v8.59a.76.76,0,0,1-.76.76H243.87a.76.76,0,0,1-.76-.76v-2a7.32,7.32,0,0,1,7.32-7.32Z" transform="translate(40.33 -41.23) rotate(10.2)"/><path class="cls-4" d="M258.11,210.88l1.53-8.51a.73.73,0,0,0-.59-.85l-1.93-.35a7.08,7.08,0,0,0-8.19,5.69l-.41,2.29a.73.73,0,0,0,.59.85l8.15,1.47A.73.73,0,0,0,258.11,210.88Z"/><path class="cls-8" d="M258.11,210.88l1.53-8.51a.73.73,0,0,0-.59-.85l-1.93-.35a7.08,7.08,0,0,0-8.19,5.69l-.41,2.29a.73.73,0,0,0,.59.85l8.15,1.47A.73.73,0,0,0,258.11,210.88Z"/><path class="cls-9" d="M271,162A8.65,8.65,0,0,0,264.28,152l-.1,0-3.36-.61a4.75,4.75,0,0,1-3.83-5.52l1-5.68-7.32-1.32-1,5.68a4.75,4.75,0,0,1-5.52,3.83l-3.36-.61-.1,0a8.65,8.65,0,0,0-9.85,7.07l-4.06,22.35a2.52,2.52,0,0,0,2,2.93l35.31,6.36a2.52,2.52,0,0,0,2.93-2Z"/><path class="cls-4" d="M264.54,183.93l4-22.37a8.65,8.65,0,0,0-6.77-10.06l-.1,0-.85-.15-2.52-.45a4.75,4.75,0,0,1-3.83-5.52l1-5.68-4.8-.86-1,5.68a4.75,4.75,0,0,1-5.52,3.83l-2.52-.45-.85-.15-.1,0a8.65,8.65,0,0,0-9.85,7.07l-4.06,22.35a2.52,2.52,0,0,0,2,2.93l32.79,5.9A2.52,2.52,0,0,0,264.54,183.93Z"/><path class="cls-10" d="M261.76,151.51l-.09,0-.86-.16h0l-2.52-.45a4.75,4.75,0,0,1-3.83-5.52l1-5.68-2.12-.38-2.85.85,1.34,1.93a9.8,9.8,0,0,1,1.6,7.33l-.71,3.93a8,8,0,0,0,1.31,6,3.16,3.16,0,0,0,2.58,1.35,35.07,35.07,0,0,0,11.93-2A8.55,8.55,0,0,0,261.76,151.51Z"/><rect class="cls-4" x="235.42" y="113.6" width="42.24" height="27.41" rx="3.39" ry="3.39" transform="translate(26.61 -43.44) rotate(10.2)"/><path class="cls-4" d="M276.53,117l-7-1.26a3.28,3.28,0,0,1,2.64,3.79l-3.7,20.55a3.28,3.28,0,0,1-3.79,2.64l7,1.26a3.28,3.28,0,0,0,3.79-2.64l3.7-20.55A3.28,3.28,0,0,0,276.53,117Z"/><path class="cls-11" d="M276.53,117l-7-1.26a3.28,3.28,0,0,1,2.64,3.79l-3.7,20.55a3.28,3.28,0,0,1-3.79,2.64l7,1.26a3.28,3.28,0,0,0,3.79-2.64l3.7-20.55A3.28,3.28,0,0,0,276.53,117Z"/><circle class="cls-12" cx="245.46" cy="122.47" r="2.7" transform="translate(81.44 342.34) rotate(-79.79)"/><circle class="cls-13" cx="245.93" cy="123.42" r="2.7" transform="translate(80.89 343.6) rotate(-79.79)"/><circle class="cls-12" cx="260.8" cy="125.23" r="2.7" transform="translate(91.34 359.71) rotate(-79.8)"/><circle class="cls-14" cx="261.27" cy="126.18" r="2.7" transform="translate(90.8 360.97) rotate(-79.8)"/><rect class="cls-3" x="241.57" y="131.55" width="20.34" height="3.65" rx="0.76" ry="0.76" transform="translate(27.61 -42.49) rotate(10.2)"/><path class="cls-15" d="M242.92,131.79a.73.73,0,0,1,.85-.59l18.1,3.26.06-.36a.73.73,0,0,0-.59-.85l-18.58-3.35a.73.73,0,0,0-.85.59l-.39,2.16a.73.73,0,0,0,.59.85l.48.09Z"/><circle class="cls-3" cx="260.78" cy="103.73" r="5.24" transform="matrix(0.18, -0.98, 0.98, 0.18, 112.49, 342.01)"/><path class="cls-16" d="M257.1,104.55a5.21,5.21,0,0,0,.52,3.35,5.23,5.23,0,0,0,7.8-6.59,5.23,5.23,0,0,0-8.31,3.24Z"/><rect class="cls-9" x="258.25" y="108.71" width="2.3" height="5.15" transform="translate(23.82 -44.2) rotate(10.2)"/><circle class="cls-3" cx="237.5" cy="153.37" r="0.9" transform="translate(44.48 359.95) rotate(-79.8)"/><rect class="cls-12" x="252.39" y="169.78" width="9.68" height="1.24" rx="0.61" ry="0.61" transform="matrix(0.98, 0.18, -0.18, 0.98, 34.26, -42.88)"/><rect class="cls-12" x="251.79" y="173.15" width="9.68" height="1.24" rx="0.61" ry="0.61" transform="translate(34.85 -42.72) rotate(10.2)"/><rect class="cls-12" x="251.18" y="176.52" width="9.68" height="1.24" rx="0.61" ry="0.61" transform="translate(35.43 -42.56) rotate(10.2)"/><ellipse class="cls-3" cx="269.35" cy="163.5" rx="2.84" ry="0.87" transform="translate(60.71 399.62) rotate(-79.79)"/><path class="cls-3" d="M269.86,160.7s14.13,1.55,11.35,15c0,0-1.21,1.23-4.86-1.18,0,0,2.28-7.16-7.44-8.17"/><circle class="cls-4" cx="278.57" cy="177.09" r="4.05" transform="translate(54.92 419.87) rotate(-79.79)"/><path class="cls-17" d="M306.48,168.77h0l-31.25,3.89L270,204.27l-79.64,10.22a27,27,0,0,1-26.13-12.15l-7.12-11.05a56.39,56.39,0,0,0-54.57-25.38l-42,5.38A10.73,10.73,0,0,0,53,187.76L86.7,240.11a65.72,65.72,0,0,0,63.6,29.58l129.32-16.6a44.07,44.07,0,0,0,37.8-36.1l5.44-31.06A14.73,14.73,0,0,0,306.48,168.77Z"/><path class="cls-18" d="M127.67,203.18s123.87-66.2,137.74,12.5L257.88,218,238.63,205.5S156.12,253,108.92,194.24"/><path class="cls-19" d="M102.06,211.83s123.85-71.39,137.72,7.31l-7.54,2.28L213,209s-82.51,47.47-129.71-11.27"/><rect class="cls-20" x="214" y="175.38" width="40.19" height="33.6" rx="0.67" ry="0.67" transform="translate(-45.74 76.32) rotate(-16.89)"/><path class="cls-21" d="M210.27,169.09h36.92a3.24,3.24,0,0,1,3.24,3.24v6.94a.66.66,0,0,1-.66.66H207.69a.66.66,0,0,1-.66-.66v-6.94a3.24,3.24,0,0,1,3.24-3.24Z" transform="translate(-40.84 74) rotate(-16.89)"/><rect class="cls-19" x="198.66" y="180.04" width="40.19" height="33.6" rx="0.67" ry="0.67" transform="translate(-47.76 72.06) rotate(-16.89)"/><rect class="cls-22" x="196.66" y="188.45" width="40.19" height="3.61" transform="translate(-45.93 71.19) rotate(-16.89)"/><rect class="cls-23" x="235.63" y="180.28" width="16.03" height="3.61" transform="translate(-42.4 78.66) rotate(-16.89)"/><rect class="cls-22" x="199.15" y="196.66" width="40.19" height="3.61" transform="translate(-48.21 72.27) rotate(-16.89)"/><rect class="cls-23" x="238.13" y="188.5" width="16.03" height="3.61" transform="matrix(0.96, -0.29, 0.29, 0.96, -44.68, 79.74)"/><rect class="cls-22" x="201.65" y="204.88" width="40.19" height="3.61" transform="translate(-50.49 73.35) rotate(-16.89)"/><rect class="cls-23" x="240.62" y="196.71" width="16.03" height="3.61" transform="matrix(0.96, -0.29, 0.29, 0.96, -46.96, 80.82)"/><path class="cls-24" d="M205,218.57a.65.65,0,0,1-.81-.43l-9.39-30.91a.65.65,0,0,1,.43-.81l38.92-7.9"/><path class="cls-19" d="M194.93,173.75h36.92a3.24,3.24,0,0,1,3.24,3.24v6.94a.66.66,0,0,1-.66.66H192.35a.66.66,0,0,1-.66-.66V177A3.24,3.24,0,0,1,194.93,173.75Z" transform="translate(-42.86 69.74) rotate(-16.89)"/><path class="cls-25" d="M254.8,188.3a1.1,1.1,0,0,0-1.45.71c-.87,2.65-4.95,6-9.53,1.78-2.59-2.35-18.14-18.41-37.11-1.67s6,39.12,6,39.12l6.09-4s-2.67-5.11,2.89-9.16c6-4.36,12.34-.93,12.34-.93l6.09-4s-4.85-7.59,4.91-9.63c9.44-2,10.43-8.78,10.49-11.09a1.09,1.09,0,0,0-.68-1Z"/><path class="cls-26" d="M212.54,195.92c0-8.22,8.54-7.56,8.54-7.56-4.74-1.89-13.75,1.67-20.67,9.94-4.69,14.72,12.29,29.94,12.29,29.94l3.87-2.57c-.83-7.73,3.31-9,3.31-9h0a10.17,10.17,0,0,1,1.8-1.66,11.82,11.82,0,0,1,10.92-1.51c-1.87-.88-4.71-2.64-2.56-4.62a7.31,7.31,0,0,0,2-6.87C223.47,210.21,212.54,203.26,212.54,195.92Z"/><circle class="cls-27" cx="236.09" cy="194.09" r="1.07" transform="translate(-67.93 162.75) rotate(-33.54)"/><path class="cls-28" d="M178.81,185.3c-31.15,2.24-66.65,17.84-76.94,22.65l-.26,5.28c30.13,15.2,66.24,7.09,86.6.18-6.45,2.16-18.31,5.62-25,4.44-9.46-1.68,6.25-7.31-7.54-10.84C142.28,203.56,177,186.18,178.81,185.3Z"/><path class="cls-29" d="M20.15,112.16,15,119.23a52.07,52.07,0,0,0-7.73,45.85h0A30.24,30.24,0,0,0,40,186.32l37.59-4.86-1.78-30.57"/><path class="cls-30" d="M40,186.32l37.59-4.86-1.78-30.57L49.5,132.57l-7.74-3s4.46,28.34-8.54,28.34-19.86-5-18,8.43c1.82,13-3.23,8-3.58,7.67A30.18,30.18,0,0,0,40,186.32Z"/><path class="cls-31" d="M158.46,77.93l4.2-7.18a16.61,16.61,0,0,1,1.7-2.4l1.58-1.85a1.49,1.49,0,0,1,1.75-.39h0a1.48,1.48,0,0,1,.85,1.6l-.4,2.32,5.67-3.28A3.12,3.12,0,0,1,178.12,68l.95,1.75a7.42,7.42,0,0,1,.22,6.63h0a12.6,12.6,0,0,1-4.74,5.41l-7.33,4.62"/><path class="cls-32" d="M138,77.05l5.75-5.94a11.88,11.88,0,0,1,6.82-3.49l.25,0a11.78,11.78,0,0,1,9.82,3.12h0a29.19,29.19,0,0,1,8.7,16.57h0a14,14,0,0,1-1.85,9.44l-.81,1.35a11.9,11.9,0,0,1-4.09,4.07h0a11.85,11.85,0,0,1-5.37,1.65l-4.58.27"/><path class="cls-19" d="M102.08,76.85h0a54.21,54.21,0,0,0,41.26-3.53h0a9.43,9.43,0,0,1,11.57,2.33l1.16,1.4a22.87,22.87,0,0,1,5.09,11.59h0a14.77,14.77,0,0,1-8.58,15.43l-12.38,5.57a54.15,54.15,0,0,1-45-.21l-.7-.32"/><path class="cls-33" d="M135.48,82.11l6.42-7.4-2.25.32A54.23,54.23,0,0,1,112,79l-9.42,1.35,11.55,33.94a54.21,54.21,0,0,0,21.28-2.77l-3.23-7.15A20.84,20.84,0,0,1,135.48,82.11Z"/><path class="cls-19" d="M96.8,82s59.22,7.9,77.79,67.58l1.07,3.5c5.1,16.77-2.48,33.95-16.94,38.36L107.4,207.09c-12.32,3.76-25.37-7.21-26.16-22l-1.08-20.23L53.45,96.58"/><path class="cls-34" d="M174.93,172.33l-33.06,10.09a.74.74,0,0,0-.49.92l3.51,11.53a.74.74,0,0,0,.92.49l33.07-10.09a6.78,6.78,0,0,0,4.5-8.44h0A6.78,6.78,0,0,0,174.93,172.33Z"/><path class="cls-19" d="M90.46,75.49s60.24,16,78.81,75.69l1.07,3.5c5.1,16.77-2.48,33.95-16.94,38.36l-51.31,15.67c-12.32,3.76-25.37-7.21-26.16-22h0a125.67,125.67,0,0,0-8.46-39.1L48.13,98.2"/><path class="cls-34" d="M86.44,199.31c5.09,6.64,13.17,10.16,21,7.78l51.31-15.67c8.88-2.71,15.16-10.24,17.51-19.52Z"/><path class="cls-32" d="M169.27,151.18C158.29,115.89,131,99,110.49,91c18.25,11.13,40.33,30.6,50.33,62.74l1.07,3.5.06.19c2.86,9.57-1.65,19.31-9.9,21.82L81.12,200.93a24.11,24.11,0,0,0,2,2.32l0,0q.5.5,1,1l.11.1a22,22,0,0,0,3.53,2.53l.19.11q.52.29,1,.55l.24.11c.39.19.79.36,1.19.52l.07,0q.66.25,1.33.46l.17,0q.55.16,1.12.29l.36.08,1,.17.37.05q.6.08,1.2.11h.13c.44,0,.89,0,1.34,0l.36,0c.33,0,.65,0,1-.08l.45-.06.94-.16.42-.08c.44-.1.88-.21,1.32-.34h0l42.86-13.09,8.45-2.58c.51-.16,1-.33,1.5-.52l.46-.18,1-.43.49-.23,1-.49.44-.24q.58-.33,1.13-.69l.19-.12q.66-.44,1.3-.92l.2-.16q.52-.4,1-.83l.3-.27q.46-.41.89-.83l.26-.26q.5-.51,1-1l.09-.1a27.11,27.11,0,0,0,2-2.62l.08-.11q.43-.63.82-1.29l.09-.16q.41-.7.79-1.43h0a30.53,30.53,0,0,0,2-4.85v0q.26-.84.48-1.69h0a35.18,35.18,0,0,0-.57-18.84Z"/><path class="cls-35" d="M116.57,160.55l-1.72-5.65L73.7,163.58h0A19.46,19.46,0,0,1,75,169.63l.91,17.1c.79,14.77,13.84,25.74,26.16,22l11-3.37,1.48-3.36C120.12,189.47,120.83,174.56,116.57,160.55Z"/><path class="cls-36" d="M74.46,152.83h99.67A2.86,2.86,0,0,1,177,155.7v1.43a2.86,2.86,0,0,1-2.86,2.86H71.88a1.67,1.67,0,0,1-1.67-1.67v-1.23A4.25,4.25,0,0,1,74.46,152.83Z" transform="translate(-40.28 42.9) rotate(-16.98)"/><path class="cls-31" d="M115.73,133.78l-3.29-5a3.58,3.58,0,0,0-3.63-1.56l-3.19.58a12.29,12.29,0,0,0-8,5.27l-3.2,4.8,9,10.37,2.68,0a8.22,8.22,0,0,0,6.6-3.47,9,9,0,0,0,.67-1.11L116,138.4A4.59,4.59,0,0,0,115.73,133.78Z"/><path class="cls-37" d="M104.24,130.17h0a1.68,1.68,0,0,0-2.43-1,12.24,12.24,0,0,0-4.21,3.89l-2.35,3.53,3.88,4.94,9,6.37a8.22,8.22,0,0,0,4.54-3.18,9.06,9.06,0,0,0,.67-1.11l2.64-5.15-8.69-4.66A6.19,6.19,0,0,1,104.24,130.17Z"/><path class="cls-38" d="M105.2,148.08a57.77,57.77,0,0,1,4.21-43.87l5-9.45h0L85.94,89.91l-31.6,15.92-1.19,4.82L74,162l31.24-14Z"/><path class="cls-32" d="M86.79,135.42h0a5.52,5.52,0,0,1,5.11-2.93l2.38.1a20.56,20.56,0,0,1,13.1,5.48h0a17.09,17.09,0,0,1,5.42,13.52h0a14,14,0,0,1-6.06,10.76l-2.07,1.42a14.44,14.44,0,0,1-9.87,2.44l-.72-.09a6.59,6.59,0,0,1-5.27-3.93h0"/><path class="cls-31" d="M74.53,66.41a5.43,5.43,0,0,0-3-6.92L65.59,57.1a16.4,16.4,0,0,0-1.52-.62h0A16.33,16.33,0,0,0,47.3,60.19a16.45,16.45,0,1,0,27,6.79Z"/><path class="cls-39" d="M63.92,56.44,42.33,71.88A16.41,16.41,0,0,0,65.55,87l4.63-6.9-1.71-2.18a24.16,24.16,0,0,1-5-17.73l.44-3.76Z"/><path class="cls-40" d="M47.89,77l-3.68,3.85L45,83a7.67,7.67,0,0,0,6.79,5.08l4.38.24-1.77-4.93A10.49,10.49,0,0,0,47.89,77Z"/><path class="cls-41" d="M50.88,78.58l-3.76.76-.42,1A2.33,2.33,0,0,0,47,82.68h0a4.14,4.14,0,0,0,4.06,1.51h0a3.91,3.91,0,0,1,2.76.48l1.29.77-.75-2.08A10.5,10.5,0,0,0,50.88,78.58Z"/><path class="cls-19" d="M55.52,101.35,51.19,89.82a1.72,1.72,0,0,1,1.32-2.3l28-4.69,18.8,10.92Z"/><path class="cls-40" d="M79.64,70.28,74.32,67,70.51,71.1a7.15,7.15,0,0,0-1.72,5.59,3.06,3.06,0,0,1-1.86,3.1,3.16,3.16,0,0,1-3.29-.61L60.05,76a5.74,5.74,0,0,1-1.91-3.59,5.74,5.74,0,0,0-1.39-3.07l-2.29-2.59-4.82,6.67,11.27,9.44a4.54,4.54,0,0,1,1.55,3.21,4.33,4.33,0,0,0,.92,2.37h0l0,.05.25.28a117.86,117.86,0,0,0,12.65,12.09c17,12.73,38.9-1.06,43.76-9.66,8-14.17-16.11-14.54-25.82-15.76A36.38,36.38,0,0,1,79.64,70.28Z"/><path class="cls-19" d="M58.62,53.07,50.78,51.8a19.87,19.87,0,0,0-15.93,4.39h0A20,20,0,0,0,28,68.32l-2.9,17.87,1.57.63,6.31-8.1a4.27,4.27,0,0,1,6.63-.12l1.74,2.07"/><path class="cls-42" d="M40.41,64h0A6.94,6.94,0,0,1,34,61.36h0a2.24,2.24,0,0,0-3.73.31A20,20,0,0,0,28,68.32l-2.9,17.87,1.57.63,6.31-8.1a4.27,4.27,0,0,1,6.63-.12l1.74,2.07L48.66,69l-1.87-2.39A6.94,6.94,0,0,0,40.41,64Z"/><path class="cls-32" d="M27.89,86.47a3.15,3.15,0,1,1-4.42-.53A3.16,3.16,0,0,1,27.89,86.47Z"/><path class="cls-43" d="M54.45,66.77l-4.82,6.67,2.55,2.14a71.75,71.75,0,0,1,4.43-6.36Z"/><path class="cls-44" d="M74.82,63.78,72.4,66.25a.52.52,0,0,0,.43.89L74.32,67l.21-.57A5.41,5.41,0,0,0,74.82,63.78Z"/><path class="cls-32" d="M45.15,83.5l2.75-5.2a71.79,71.79,0,0,1,7.85-11.85l8.18-10a.64.64,0,0,0-.07-.88L60.92,52.9a2.41,2.41,0,0,0-3.46.24l-7.3,8.67a54.41,54.41,0,0,0-8.26,13.31l-1.72,3.94A2.42,2.42,0,0,0,41,82l2.67,1.85A1,1,0,0,0,45.15,83.5Z"/><path class="cls-31" d="M47.54,73.95h0A3,3,0,0,0,46,77.32l.09.36a3,3,0,0,0,1.73,2l1.92.81a3,3,0,0,0,3-.4l2.55-2-4.49-3.76A3,3,0,0,0,47.54,73.95Z"/><path class="cls-45" d="M48.55,75.33h0a1.69,1.69,0,0,0-.91,1.92l0,.2a1.69,1.69,0,0,0,1,1.16l1.09.46a1.68,1.68,0,0,0,1.7-.23l.18-.15a1.32,1.32,0,0,0,0-2l-1.32-1.1A1.68,1.68,0,0,0,48.55,75.33Z"/><path class="cls-40" d="M64.67,61a3.55,3.55,0,0,1-1.6,3.19,3.75,3.75,0,0,0-1.32,1.67,3.25,3.25,0,0,1-2.75,2l-.44,0a1.8,1.8,0,0,1-1.92-2.11,8.74,8.74,0,0,1,5.57-6.7,1.79,1.79,0,0,1,2.41,1.52Z"/><path class="cls-19" d="M51.1,92.82h0A14.72,14.72,0,0,1,67,94.8h0a22,22,0,0,1,7.7,19.15l-.28,2.6a16,16,0,0,0,14.41,17.63h0a14.45,14.45,0,0,1,8.91,4.19L99,139.62a14.55,14.55,0,0,1,4,13h0a14.43,14.43,0,0,1-14.57,11.71l-10.09-.29a38,38,0,0,1-36.68-40.34l1.15-18.53A14.79,14.79,0,0,1,51.1,92.82Z"/><path class="cls-29" d="M97.94,132.43l-14-8.3a64.38,64.38,0,0,0-22.59-8.2l-5.5-.89a12.1,12.1,0,0,0-8.1,1.53h0a12.19,12.19,0,0,0-6,10.3l-.07,4.35L20.15,112.16l5.53-6.84a40.64,40.64,0,0,1,30.81-15.1h.16a39.73,39.73,0,0,1,33.28,16.91,121.21,121.21,0,0,0,15.5,17.72l2.43,2.32L99.46,131Z"/><path class="cls-46" d="M105.43,124.84a121.19,121.19,0,0,1-15.5-17.72,39.75,39.75,0,0,0-2.52-3.2,3.24,3.24,0,0,0-5.5,2.93,10.91,10.91,0,0,1-7.48,12.64v0q1.21.47,2.39,1l.17.08c.73.32,1.45.65,2.17,1l.72.36c.55.28,1.1.55,1.64.84q1.22.65,2.42,1.36l14,8.3L99.46,131l8.4-3.79Z"/><path class="cls-29" d="M169.17,148.14l-9,2.74a4.29,4.29,0,0,1-5.36-2.86h0a6.51,6.51,0,0,1,4.33-8.12l6.85-2.09a4.29,4.29,0,0,1,5.36,2.86l.64,2.12A4.29,4.29,0,0,1,169.17,148.14Z"/><path class="cls-32" d="M85.25,213.85l33.06-10.09a.74.74,0,0,0,.49-.92l-3.51-11.53a.74.74,0,0,0-.92-.49L81.3,200.91a6.78,6.78,0,0,0-4.5,8.44h0A6.78,6.78,0,0,0,85.25,213.85Z"/><circle class="cls-29" cx="184.97" cy="176.92" r="21.83" transform="translate(-65.09 122.29) rotate(-31.4)"/><ellipse class="cls-47" cx="184.97" cy="176.92" rx="10.92" ry="21.83" transform="translate(-65.09 122.3) rotate(-31.4)"/><path class="cls-48" d="M176.26,162.65a20.75,20.75,0,0,0-4.72,31.49,21.84,21.84,0,0,0,34.88-21.29,20.75,20.75,0,0,0-30.17-10.2Z"/><rect class="cls-49" x="118.67" y="177.44" width="37.16" height="55.86" rx="0.62" ry="0.62" transform="translate(73.34 -33.23) rotate(18.76)"/><path class="cls-50" d="M129.65,172.45H163.8a3,3,0,0,1,3,3v6.42a.61.61,0,0,1-.61.61H127.27a.61.61,0,0,1-.61-.61v-6.42a3,3,0,0,1,3-3Z" transform="translate(64.87 -37.76) rotate(18.76)"/><rect class="cls-51" x="104.63" y="172.67" width="37.16" height="55.86" rx="0.62" ry="0.62" transform="translate(71.06 -28.97) rotate(18.76)"/><rect class="cls-49" x="108.69" y="171.83" width="3.06" height="52.39" transform="translate(69.54 -24.93) rotate(18.76)"/><rect class="cls-52" x="143.4" y="183.62" width="3.06" height="52.39" transform="translate(75.17 -35.46) rotate(18.76)"/><rect class="cls-52" x="149.13" y="185.57" width="3.06" height="52.39" transform="translate(76.11 -37.2) rotate(18.76)"/><rect class="cls-49" x="114.39" y="173.79" width="3.18" height="52.39" transform="matrix(0.95, 0.32, -0.32, 0.95, 70.48, -26.68)"/><rect class="cls-49" x="120.66" y="175.92" width="3.18" height="52.39" transform="matrix(0.95, 0.32, -0.32, 0.95, 71.5, -28.58)"/><rect class="cls-49" x="126.92" y="178.04" width="3.18" height="52.39" transform="matrix(0.95, 0.32, -0.32, 0.95, 72.51, -30.48)"/><rect class="cls-49" x="133.19" y="180.17" width="3.18" height="52.39" transform="translate(73.52 -32.38) rotate(18.76)"/><path class="cls-53" d="M96.52,221a.61.61,0,0,1-.4-.77l17.58-51.76a.61.61,0,0,1,.78-.37l34.89,15.52"/><path class="cls-51" d="M115.62,167.69h34.15a3,3,0,0,1,3,3v6.42a.61.61,0,0,1-.61.61H113.23a.61.61,0,0,1-.61-.61v-6.42a3,3,0,0,1,3-3Z" transform="translate(62.59 -33.5) rotate(18.76)"/><rect class="cls-54" x="164.82" y="192.53" width="35.83" height="29.96" rx="0.6" ry="0.6"/><path class="cls-55" d="M166.27,186.21H199.2a2.89,2.89,0,0,1,2.89,2.89v6.19a.59.59,0,0,1-.59.59H164a.59.59,0,0,1-.59-.59V189.1A2.89,2.89,0,0,1,166.27,186.21Z"/><rect class="cls-56" x="150.52" y="192.53" width="35.83" height="29.96" rx="0.6" ry="0.6"/><rect class="cls-57" x="164.91" y="195.9" width="7.06" height="26.59"/><path class="cls-58" d="M151.1,222.49a.58.58,0,0,1-.58-.58v-28.8a.58.58,0,0,1,.58-.58l35.26,3.35"/><path class="cls-59" d="M152,186.21H184.9a2.89,2.89,0,0,1,2.89,2.89v6.19a.59.59,0,0,1-.59.59H149.68a.59.59,0,0,1-.59-.59V189.1A2.89,2.89,0,0,1,152,186.21Z"/><rect class="cls-57" x="163.38" y="186.21" width="7.06" height="9.67"/><path class="cls-36" d="M125.68,195.2l7.12,11.05a27,27,0,0,0,26.13,12.15L239,208.12A27,27,0,0,0,262.18,186l.22-1.25A14.73,14.73,0,0,1,275,172.68h0a14.73,14.73,0,0,1,16.39,17.15L286,220.9a44.07,44.07,0,0,1-37.8,36.1L118.86,273.6A65.72,65.72,0,0,1,55.25,244L21.5,191.67a10.73,10.73,0,0,1,7.66-16.46l42-5.38A56.38,56.38,0,0,1,125.68,195.2Z"/><path class="cls-60" d="M107.86,227.09C96,200.3,73.7,201,74.43,187.86c1.06-19,20-16.15,20-16.15h0L86.72,170a56.32,56.32,0,0,0-15.6-.18l-42,5.38a10.74,10.74,0,0,0-7.66,16.46L55.25,244a65.72,65.72,0,0,0,63.6,29.58l69.35-8.9C147.07,270,119.74,253.88,107.86,227.09Z"/><path class="cls-61" d="M292.7,223a4.36,4.36,0,0,0-5.54,2.69l-7.81,22.6c-6.74,19.51-24.77,33.86-45.93,36.56h0a7.73,7.73,0,0,1-7.93-4.28l-5.15-10.58a4.36,4.36,0,0,0-7.84,3.82l1.57,3.23a7.73,7.73,0,0,1-6,11l-61.72,7.88a7.73,7.73,0,0,1-8.55-9.19l.71-3.52a4.36,4.36,0,1,0-8.54-1.72L127.68,293a7.73,7.73,0,0,1-6.6,6.14l-1.29.16c-21.62,2.76-42.15-8.16-51.07-27.17l-1.57-3.35a4.36,4.36,0,0,0-7.89,3.71l1.57,3.35C71.37,298.29,95.51,311.2,120.9,308l9.88-1.26h0l95.11-12.14h0l8.59-1.1c24.42-3.12,45.24-19.74,53.06-42.36l7.81-22.6A4.36,4.36,0,0,0,292.7,223Z"/></g></g></svg>