<svg xmlns="http://www.w3.org/2000/svg" xmlns:xlink="http://www.w3.org/1999/xlink" viewBox="0 0 360 360"><defs><style>.cls-1{isolation:isolate;}.cls-2{fill:#c62f28;}.cls-11,.cls-17,.cls-19,.cls-21,.cls-22,.cls-23,.cls-24,.cls-3,.cls-5,.cls-7,.cls-9{opacity:0.49;mix-blend-mode:color-burn;}.cls-3{fill:url(#linear-gradient);}.cls-4{fill:#ce3b34;}.cls-5{fill:url(#linear-gradient-2);}.cls-6{fill:#db4337;}.cls-7{fill:url(#linear-gradient-3);}.cls-8{fill:#e8d2d1;}.cls-9{fill:url(#linear-gradient-4);}.cls-10{fill:#f1dbd9;}.cls-11{fill:url(#linear-gradient-5);}.cls-12{fill:#69110d;}.cls-13{fill:#f4a88e;}.cls-14{fill:#70462a;}.cls-15{fill:#603a20;}.cls-16{fill:#ffb699;}.cls-17{fill:url(#linear-gradient-6);}.cls-18{fill:#f9ebea;}.cls-19{fill:url(#linear-gradient-7);}.cls-20{opacity:0.06;mix-blend-mode:multiply;fill:url(#linear-gradient-8);}.cls-21{fill:url(#linear-gradient-9);}.cls-22{fill:url(#linear-gradient-10);}.cls-23{fill:url(#linear-gradient-11);}.cls-24{fill:url(#linear-gradient-12);}.cls-25{fill:#f4b401;}</style><linearGradient id="linear-gradient" x1="243.2" y1="89.72" x2="146.57" y2="130.17" gradientUnits="userSpaceOnUse"><stop offset="0.02" stop-color="#fff" stop-opacity="0"/><stop offset="0.71"/></linearGradient><linearGradient id="linear-gradient-2" x1="197.92" y1="290.44" x2="161.29" y2="207.73" xlink:href="#linear-gradient"/><linearGradient id="linear-gradient-3" x1="155.99" y1="299.05" x2="137.6" y2="187.18" xlink:href="#linear-gradient"/><linearGradient id="linear-gradient-4" x1="91.85" y1="187.43" x2="149.76" y2="90.93" xlink:href="#linear-gradient"/><linearGradient id="linear-gradient-5" x1="135.31" y1="244.84" x2="91.02" y2="117.25" xlink:href="#linear-gradient"/><linearGradient id="linear-gradient-6" x1="-80.57" y1="3123.74" x2="-104.56" y2="3057.4" gradientTransform="matrix(0.96, 0.27, -0.27, 0.96, 1074.73, -2929.98)" gradientUnits="userSpaceOnUse"><stop offset="0.02" stop-color="#fff" stop-opacity="0"/><stop offset="0.54"/></linearGradient><linearGradient id="linear-gradient-7" x1="-113.15" y1="3118.69" x2="-94.45" y2="3110.63" gradientTransform="matrix(0.96, 0.27, -0.27, 0.96, 1074.73, -2929.98)" gradientUnits="userSpaceOnUse"><stop offset="0.12" stop-color="#fff" stop-opacity="0"/><stop offset="0.85"/></linearGradient><linearGradient id="linear-gradient-8" x1="187.06" y1="130.19" x2="146.36" y2="15.43" xlink:href="#linear-gradient"/><linearGradient id="linear-gradient-9" x1="-119.58" y1="3089.14" x2="-37.12" y2="3085.46" xlink:href="#linear-gradient-6"/><linearGradient id="linear-gradient-10" x1="-90.17" y1="3112.16" x2="-91.32" y2="3098.31" gradientTransform="matrix(0.96, 0.27, -0.27, 0.96, 1074.73, -2929.98)" gradientUnits="userSpaceOnUse"><stop offset="0.21" stop-color="#fff" stop-opacity="0"/><stop offset="0.9"/></linearGradient><linearGradient id="linear-gradient-11" x1="-63.5" y1="3119.87" x2="-63.38" y2="3106.41" xlink:href="#linear-gradient-6"/><linearGradient id="linear-gradient-12" x1="-105.87" y1="3109.06" x2="-80.67" y2="3102.55" xlink:href="#linear-gradient-6"/></defs><title>Working santa</title><g class="cls-1"><g id="Layer_1" data-name="Layer 1"><path class="cls-2" d="M183,68.23s50.16,27.23,60.92,77.48c5.84,27.24-17.69,41.11-17.69,41.11"/><path class="cls-3" d="M209.53,88.26a142,142,0,0,0-26.56-20l19,52.17,17.22,26.06s.06-15,10-12.86c9,1.9-1.38-24.87-12.66-38.23q-1.73-1.88-3.46-3.63C211.88,90.64,210.69,89.47,209.53,88.26Z"/><path class="cls-4" d="M216.85,234.7s-5.12,48.19-20.09,90.07h-18l-2.74-26.84s-42.13-25-38.29-60.08"/><path class="cls-5" d="M194.59,275.47c16.89-6.54,20.4-26.88,20.4-26.93h0l1.46-13.82-23.81.95L137.7,246.2c2.81,30.61,38.36,51.73,38.36,51.73A28.85,28.85,0,0,1,194.59,275.47Z"/><path class="cls-6" d="M92.37,231s9.45,34.14,43.34,65.12l-9.46,37.15h19.29s46.93-52.94,53.17-100.85"/><path class="cls-7" d="M151.22,231.81,92.37,231s9.43,34,43.2,65c.86-5.57,4.4-24.9,13.66-37.16,10.88-14.41,48.73-22.48,48.88-22.51h0Z"/><path class="cls-6" d="M154.49,74.1s72.14,32.85,72.66,115.45v4.84c0,23.17-16.27,42-36.33,42h-71.2c-17.09,0-29.43-18.9-24.72-37.88l6.45-26,6.46-25.62"/><path class="cls-8" d="M218.82,218.47H172.9a1,1,0,0,0-1,1v15.93a1,1,0,0,0,1,1h45.92a9,9,0,0,0,8.94-8.94h0A9,9,0,0,0,218.82,218.47Z"/><path class="cls-6" d="M158.59,68.23s60.66,38.71,61.18,121.32v4.84c0,23.17-16.27,42-36.33,42h-71.2c-17.09,0-29.43-18.9-24.72-37.88h0a165.42,165.42,0,0,0,4.37-52.69s-2.24-89,52.31-94.95h0Z"/><path class="cls-9" d="M132.95,183.26c2.36,0,18.51-7.25,17.18-9.45s-6.81,4.84-16.26-2.41,15.37-7.82,15.37-7.82l-36.61-77-9.16-2.64C91,111.4,91.87,145.78,91.87,145.78a165.39,165.39,0,0,1-.48,30.79C108,179.36,131.43,183.26,132.95,183.26Z"/><path class="cls-8" d="M96,218.42c3.9,10.36,12.8,17.92,23.61,17.92h71.2c12.32,0,23.2-7.09,29.77-17.92Z"/><path class="cls-10" d="M219.77,189.55c-.31-48.85-28.44-80.79-51.39-98.74,18.87,21.11,39.39,54.25,39.67,98.74v4.84q0,.13,0,.27c-.07,13.2-9.56,23.77-21,23.77H88.62a31.84,31.84,0,0,0,1.68,3.72l0,.07q.44.82.93,1.61l.11.17a29.1,29.1,0,0,0,3.51,4.56l.2.21q.55.57,1.12,1.1l.26.24c.43.39.87.76,1.32,1.11l.07.06q.73.57,1.51,1.09l.2.13q.64.42,1.3.8l.43.24q.58.32,1.18.6l.45.21q.73.33,1.47.6l.17.07c.56.2,1.12.37,1.69.53l.47.12c.42.11.84.2,1.27.28l.6.1c.42.07.83.12,1.26.17l.56.06c.6,0,1.2.08,1.81.08h71.22c.71,0,1.41,0,2.11-.08l.65-.06c.49,0,1-.09,1.45-.16l.72-.11q.71-.11,1.41-.25l.65-.13q.86-.19,1.71-.43l.28-.08q1-.3,2-.66l.32-.13q.81-.31,1.61-.66l.49-.22q.74-.34,1.45-.71l.44-.23q.83-.45,1.64-.94l.16-.09a35.9,35.9,0,0,0,3.59-2.53l.14-.12q.78-.63,1.54-1.31l.18-.16q.79-.72,1.55-1.5h0a40.33,40.33,0,0,0,4.39-5.36l0,0q.65-1,1.26-2h0a46.33,46.33,0,0,0,6.56-24Z"/><path class="cls-11" d="M93,176.5l-5.45,22c-4.71,19,7.63,37.88,24.72,37.88h15.31l3.18-3.67c11.86-13.69,18.52-32.26,18.52-51.62V176.8Z"/><path class="cls-12" d="M226,183.26H91.56a2.68,2.68,0,0,1-2.67-2.67h0a6.8,6.8,0,0,1,6.78-6.78H226a4.58,4.58,0,0,1,4.57,4.57v.32A4.58,4.58,0,0,1,226,183.26Z"/><path class="cls-10" d="M216.15,148.48s6.84-7.22,17,0,11.33,24.84,3.65,36.64c-4.59,7-16,11.39-20.62,3.7"/><path class="cls-13" d="M233.08,165.23s15.54,10.47,13.18,16.55-3.75,8-4.5,7.62-4.3-7.28-6.66-9.22-7.34-5.36-7.34-5.36"/><path class="cls-14" d="M235.54,177.46l40.59-38.78,4,4.46-40.3,49.3c-2,2.43-10.47,4-12.7,3.24-2.46-.89-.63-1.84-.63-6.24"/><path class="cls-15" d="M230.61,177.46l40.59-38.78,4.82,4.63L234.9,192.44a9.19,9.19,0,0,1-8.31,3.3c-2.59-.38-5-1.9-5-6.29"/><path class="cls-16" d="M222.12,165.23s23.14,8.63,22,27c0,0-.49,4.73-3.35,2.18-1.17-1-1.89-5.18-4.85-5s-2.92,6.36-17.6,2.8"/><path class="cls-16" d="M187.07,58.51a7.49,7.49,0,0,0,5.2-9.08l-2.2-8.54a22.75,22.75,0,0,0-.57-2.21v0h0a22.77,22.77,0,1,0-3.23,20.1Z"/><path class="cls-17" d="M189.43,38.47,154.4,27a22.51,22.51,0,0,0-7.79,9.93,22.79,22.79,0,0,0,10.1,28.43l11.51-.49,1-3.69a33.29,33.29,0,0,1,15.65-20.11l4.55-2.59Z"/><path class="cls-18" d="M153.32,37.4l-7.32-1-2.8.26c-2.38,3.55-1.36,10.55,1,14.12l3.34,5.09,4-6a14.51,14.51,0,0,0,1.77-12.5Z"/><path class="cls-6" d="M128,55.66s10.09-4.32,13.5-8.39c2.19-2.62,14.77,15.69,15,17.4s1.91,12.47,1.91,12.47"/><path class="cls-19" d="M154,42.06l-4-3.57-1.43.33a3.22,3.22,0,0,0-2.38,2.28h0a5.76,5.76,0,0,0,1.67,5.78h0a5.44,5.44,0,0,1,1.74,3.48l.21,2.08,1.7-2.54A14.5,14.5,0,0,0,154,42.06Z"/><path class="cls-18" d="M187,67.39l-.72-8.65-7.73-.88a9.88,9.88,0,0,0-7.65,2.66,4.24,4.24,0,0,1-5,.49,4.4,4.4,0,0,1-2.06-4.2l.54-6.49a7.82,7.82,0,0,1,2.36-5.11,7.92,7.92,0,0,0,2.35-4.15l1-4.69-11.4.08-.34,5.7a76.36,76.36,0,0,1-4.91,21.5q-.08.23-.15.46h0l0,.09c0,.17-.08.34-.11.51a163.08,163.08,0,0,0-3,24.05c-.17,29.43,33.21,42,46.86,41C232.08,127,199.9,99.81,193.26,88A50.58,50.58,0,0,1,187,67.39Z"/><path class="cls-20" d="M171.66,78.78c12.91-4.07,14.6-20,14.6-20h0l-7.73-.88a9.88,9.88,0,0,0-7.65,2.66,4.24,4.24,0,0,1-5,.49,4.4,4.4,0,0,1-2.06-4.2l.54-6.49a7.82,7.82,0,0,1,2.36-5.11,7.92,7.92,0,0,0,2.35-4.15l1-4.69-11.4.08-.34,5.7a76.36,76.36,0,0,1-4.91,21.5q-.08.23-.15.46h0l0,.09c0,.17-.08.34-.11.51a163.06,163.06,0,0,0-3,24.05c-.1,17.52,11.69,29.08,24.13,35.34C155.9,114.94,158.75,82.85,171.66,78.78Z"/><path class="cls-6" d="M188.81,29.79,183.75,20a27.7,27.7,0,0,0-18-14.2h0A27.7,27.7,0,0,0,146.53,8L124.22,19.45l.6,2.26,14.23.42a5.94,5.94,0,0,1,5.61,7.32l-.87,3.64"/><path class="cls-21" d="M161.65,18.37h0a9.65,9.65,0,0,1-2.36-9.26h0a3.12,3.12,0,0,0-3.41-3.91A27.57,27.57,0,0,0,146.53,8L124.22,19.44l.6,2.26,14.23.42a5.94,5.94,0,0,1,5.61,7.32l-.87,3.64,19.1-1.4L164,27.63A9.65,9.65,0,0,0,161.65,18.37Z"/><circle class="cls-10" cx="122.03" cy="21.68" r="4.37" transform="translate(68.76 133.59) rotate(-74.62)"/><path class="cls-22" d="M170.1,36.37l-11.4.08-.28,4.61a99.5,99.5,0,0,1,10.74-.27Z"/><path class="cls-23" d="M190.24,56.67,185.49,56a.72.72,0,0,0-.64,1.2l1.4,1.54.81-.23A7.46,7.46,0,0,0,190.24,56.67Z"/><path class="cls-10" d="M143.78,39.7l8.07-1.19a99.5,99.5,0,0,1,19.68-.94l17.92.92a.89.89,0,0,0,.93-.8l.52-5.46a3.36,3.36,0,0,0-3.12-3.67l-15.69-1a75.39,75.39,0,0,0-21.65,1.69l-5.8,1.31a3.33,3.33,0,0,0-2.6,3.35l.14,4.51A1.4,1.4,0,0,0,143.78,39.7Z"/><path class="cls-16" d="M156.4,34.53h0a4.11,4.11,0,0,0-5.06,1l-.33.39a4.11,4.11,0,0,0-.85,3.61l.68,2.81a4.11,4.11,0,0,0,2.9,3l4.36,1.2.49-8.11A4.11,4.11,0,0,0,156.4,34.53Z"/><path class="cls-24" d="M155.69,36.79h0a2.34,2.34,0,0,0-2.89.56l-.19.22a2.34,2.34,0,0,0-.49,2.06l.39,1.6a2.34,2.34,0,0,0,1.66,1.71l.31.09a1.82,1.82,0,0,0,2.3-1.65l.14-2.37A2.34,2.34,0,0,0,155.69,36.79Z"/><path class="cls-18" d="M185,43a4.91,4.91,0,0,1-4.87.83,5.2,5.2,0,0,0-3-.1,4.53,4.53,0,0,1-4.47-1.44l-.4-.46A2.49,2.49,0,0,1,173,38a12.13,12.13,0,0,1,12.06.72,2.49,2.49,0,0,1,.3,3.94Z"/><path class="cls-25" d="M220.82,185.67H208.34a5.67,5.67,0,0,1-5.67-5.67h0a8.6,8.6,0,0,1,8.6-8.6h9.56a5.67,5.67,0,0,1,5.67,5.67V180A5.67,5.67,0,0,1,220.82,185.67Z"/><path class="cls-10" d="M88.82,236.34h45.92a1,1,0,0,0,1-1V219.44a1,1,0,0,0-1-1H88.82a9,9,0,0,0-8.94,8.94h0A9,9,0,0,0,88.82,236.34Z"/><polyline class="cls-12" points="127.3 332.08 121.26 355 146.07 355 134.39 349.32 143.19 332.08"/><polyline class="cls-12" points="179.56 332.08 178.24 355 203.06 355 191.37 349.32 194 332.08"/><path class="cls-10" d="M133.86,324.86s18.25-.48,18.25.83,3.81,11.6-9.72,11.6H125.23s-4.37.74-1.08-6.22.53-6.22,5.78-6.22"/><path class="cls-10" d="M198.33,325.69c0-1.31-13.52-.83-13.52-.83h-3.94c-5.25,0-2.49-.74-5.78,6.22s1.08,6.22,1.08,6.22,3.64,0,17.17,0C202.93,337.31,198.33,327,198.33,325.69Z"/><path class="cls-18" d="M210.15,147.25S214,144,223.74,147c17.13,5.32,7.47,39.31-2.56,45s-30-8.77-29.94-11.08"/><path class="cls-6" d="M122,59.44s-47.25,29.09-7.86,74.86,88.65,56.43,94.17,51.36,18.81-30.45,7.82-37.19c-15.89-9.75-66.92-26.25-68.23-57.66C147.3,75.77,132.42,50.64,122,59.44Z"/></g></g></svg>