<svg xmlns="http://www.w3.org/2000/svg" xmlns:xlink="http://www.w3.org/1999/xlink" viewBox="0 0 360 360"><defs><style>.cls-1{isolation:isolate;}.cls-2{fill:#69110d;}.cls-3{fill:#ce3b34;}.cls-4{fill:#db4337;}.cls-11,.cls-12,.cls-13,.cls-14,.cls-16,.cls-17,.cls-18,.cls-19,.cls-20,.cls-21,.cls-5,.cls-9{opacity:0.49;mix-blend-mode:color-burn;}.cls-5{fill:url(#linear-gradient);}.cls-6{fill:#f4b401;}.cls-7{fill:#ffb699;}.cls-8{fill:#f1dbd9;}.cls-9{fill:url(#linear-gradient-2);}.cls-10{fill:#e8d2d1;}.cls-11{fill:url(#linear-gradient-3);}.cls-12{fill:url(#linear-gradient-4);}.cls-13{fill:url(#linear-gradient-5);}.cls-14{fill:url(#linear-gradient-6);}.cls-15{fill:#f9ebea;}.cls-16{fill:url(#linear-gradient-7);}.cls-17{fill:url(#linear-gradient-8);}.cls-18{fill:url(#linear-gradient-9);}.cls-19{fill:url(#linear-gradient-10);}.cls-20{fill:url(#linear-gradient-11);}.cls-21{fill:url(#linear-gradient-12);}</style><linearGradient id="linear-gradient" x1="218.91" y1="271.85" x2="172.61" y2="182.41" gradientUnits="userSpaceOnUse"><stop offset="0.02" stop-color="#fff" stop-opacity="0"/><stop offset="0.71"/></linearGradient><linearGradient id="linear-gradient-2" x1="739.99" y1="320.46" x2="660.54" y2="383.49" gradientTransform="translate(-448.91 -364.97) rotate(8.42)" gradientUnits="userSpaceOnUse"><stop offset="0.02" stop-color="#fff" stop-opacity="0"/><stop offset="0.4"/></linearGradient><linearGradient id="linear-gradient-3" x1="196.19" y1="248.41" x2="148.21" y2="110.2" xlink:href="#linear-gradient"/><linearGradient id="linear-gradient-4" x1="211.27" y1="151.21" x2="165.76" y2="166.59" gradientUnits="userSpaceOnUse"><stop offset="0.02" stop-color="#fff" stop-opacity="0"/><stop offset="0.54"/></linearGradient><linearGradient id="linear-gradient-5" x1="205.93" y1="137.72" x2="123.16" y2="112.75" xlink:href="#linear-gradient-4"/><linearGradient id="linear-gradient-6" x1="-906.79" y1="-837.43" x2="-929.15" y2="-899.28" gradientTransform="matrix(0.93, -0.36, 0.36, 0.93, 1328.39, 516.49)" xlink:href="#linear-gradient-4"/><linearGradient id="linear-gradient-7" x1="-937.17" y1="-842.14" x2="-919.73" y2="-849.66" gradientTransform="matrix(0.93, -0.36, 0.36, 0.93, 1328.39, 516.49)" gradientUnits="userSpaceOnUse"><stop offset="0.12" stop-color="#fff" stop-opacity="0"/><stop offset="0.85"/></linearGradient><linearGradient id="linear-gradient-8" x1="-943.16" y1="-869.69" x2="-866.29" y2="-873.12" gradientTransform="matrix(0.93, -0.36, 0.36, 0.93, 1328.39, 516.49)" xlink:href="#linear-gradient-4"/><linearGradient id="linear-gradient-9" x1="-915.74" y1="-848.24" x2="-916.81" y2="-861.14" gradientTransform="matrix(0.93, -0.36, 0.36, 0.93, 1328.39, 516.49)" gradientUnits="userSpaceOnUse"><stop offset="0.21" stop-color="#fff" stop-opacity="0"/><stop offset="0.9"/></linearGradient><linearGradient id="linear-gradient-10" x1="-890.88" y1="-841.05" x2="-890.76" y2="-853.59" gradientTransform="matrix(0.93, -0.36, 0.36, 0.93, 1328.39, 516.49)" xlink:href="#linear-gradient-4"/><linearGradient id="linear-gradient-11" x1="-930.38" y1="-851.12" x2="-906.89" y2="-857.19" gradientTransform="matrix(0.93, -0.36, 0.36, 0.93, 1328.39, 516.49)" xlink:href="#linear-gradient-4"/><linearGradient id="linear-gradient-12" x1="154.02" y1="111.8" x2="283.42" y2="147.96" xlink:href="#linear-gradient-4"/></defs><title>Jolly santa</title><g class="cls-1"><g id="Layer_1" data-name="Layer 1"><polyline class="cls-2" points="157.13 317.91 138.78 333.09 144.51 346.43 159.39 346.43 154.68 341.91 155.25 334.56 168.43 327.16"/><polyline class="cls-2" points="242.37 332.64 244.59 355 262.35 355 254.26 349.93 257.12 332.64"/><path class="cls-3" d="M171.09,323.13c75.7-29.2,101.53-88,101.53-88s-110,4.12-94.36,33.16c9.19,17.06-5.67,37.56-16.33,46.9"/><path class="cls-4" d="M149.11,214.65s-7.72,52.17,53.41,64.07c46,9,37.51,49.74,37.51,49.74h17.54s13-63.83-8.81-97.23"/><path class="cls-5" d="M191.46,275.92h0a21.39,21.39,0,0,1,14.25-20.16L252.93,239,149.36,228.52C151.36,243.27,159.8,265.82,191.46,275.92Z"/><path class="cls-6" d="M107.66,89.3l-9.06,6.78a67,67,0,0,0-26.85,53.64h0a39.08,39.08,0,0,0,32.58,38.54l48.39,8.16L162,158"/><path class="cls-7" d="M242.81,30l-.42-10.71a21.31,21.31,0,0,1,.19-3.79l.43-3.11a1.93,1.93,0,0,1,1.64-1.64h0a1.93,1.93,0,0,1,2,1.16l1.19,2.8,3.9-7.5a4,4,0,0,1,5.54-1.67l2.26,1.25a9.58,9.58,0,0,1,4.86,7.06h0A16.18,16.18,0,0,1,263,23l-4.78,10.1"/><path class="cls-8" d="M219.83,43.22,222,32.78a15.28,15.28,0,0,1,5-8.53l.25-.21a15.28,15.28,0,0,1,12.89-3.41h0a37.87,37.87,0,0,1,21,12h0a18.06,18.06,0,0,1,4.57,11.55l.05,2a15.28,15.28,0,0,1-1.63,7.26h0a15.28,15.28,0,0,1-4.7,5.52l-4.81,3.47"/><path class="cls-4" d="M180.54,67.87h0a70.07,70.07,0,0,0,42.57-32.44h0a12.22,12.22,0,0,1,14.25-5.49l2.24.71a29.66,29.66,0,0,1,13.64,9.08h0a19,19,0,0,1,1.39,22.72L245,77.09A70.07,70.07,0,0,1,195.77,108l-1,.13"/><path class="cls-9" d="M220.66,50.44l1.85-12.5-2.23,1.91a70,70,0,0,1-27.4,23.45l-9.34,8,36.26,28.9A70,70,0,0,0,241.1,82.43l-8.51-5.53A26.86,26.86,0,0,1,220.66,50.44Z"/><path class="cls-4" d="M214,80.94s70.39,32,70.89,112.64v4.72c0,22.61-15.87,40.93-35.45,40.93H180c-16.68,0-28.71-18.44-24.12-37l6.29-25.36-7.35-94.3"/><path class="cls-10" d="M276.75,221.79H232a1,1,0,0,0-1,1v15.54a1,1,0,0,0,1,1h44.8a8.75,8.75,0,0,0,8.72-8.72h0A8.75,8.75,0,0,0,276.75,221.79Z"/><path class="cls-4" d="M208.58,70.55s68.59,42.43,69.09,123v4.72c0,22.61-15.87,40.93-35.45,40.93H172.76c-16.68,0-28.71-18.44-24.12-37h0a161.39,161.39,0,0,0,4.26-51.41l-5.32-68.25"/><path class="cls-10" d="M156.92,221.75c3.8,10.11,12.49,17.48,23,17.48h69.47c12,0,22.64-6.92,29-17.48Z"/><path class="cls-8" d="M277.68,193.58c-.3-47.66-27.75-78.82-50.14-96.34,18.41,20.6,38.43,52.93,38.7,96.34v4.72q0,.13,0,.26c-.07,12.88-9.33,23.19-20.48,23.19h-96a31.08,31.08,0,0,0,1.64,3.63l0,.07q.43.8.9,1.57l.1.17a28.38,28.38,0,0,0,3.42,4.45l.2.2q.53.55,1.09,1.07l.25.23c.42.38.85.74,1.28,1.09l.07.06q.72.56,1.47,1.07l.19.12q.62.41,1.27.78l.42.23q.57.31,1.15.58l.44.21q.71.32,1.44.59l.16.06c.54.19,1.09.37,1.65.52l.46.11c.41.1.82.2,1.24.27l.58.1c.41.07.81.12,1.23.16l.55.06c.58,0,1.17.08,1.77.08h69.48c.69,0,1.38,0,2.06-.07l.63-.06c.47,0,.95-.09,1.41-.15l.7-.1q.69-.11,1.37-.25l.63-.13q.84-.19,1.66-.42L251,238q1-.29,2-.64l.31-.12q.79-.3,1.57-.64l.47-.22q.72-.33,1.42-.69l.42-.22q.81-.43,1.6-.91l.15-.09a35,35,0,0,0,3.5-2.47l.14-.11q.77-.62,1.5-1.28l.17-.16q.77-.71,1.51-1.46h0a39.34,39.34,0,0,0,4.28-5.23l0,0q.64-.93,1.23-1.91h0a45.2,45.2,0,0,0,6.4-23.45Z"/><path class="cls-11" d="M208.86,185.29v-7.62l-54.24-4.78h0a25,25,0,0,1-.66,8l-5.32,21.43c-4.59,18.51,7.44,37,24.12,37h14.93l3.1-3.58C202.36,222.29,208.86,204.18,208.86,185.29Z"/><path class="cls-2" d="M283.8,187.44H152.6a2.61,2.61,0,0,1-2.61-2.61h0a6.64,6.64,0,0,1,6.62-6.62H283.8a4.47,4.47,0,0,1,4.46,4.46V183A4.47,4.47,0,0,1,283.8,187.44Z"/><path class="cls-7" d="M217.91,152l-2.19-7.41a4.63,4.63,0,0,0-3.91-3.29l-4.18-.48a16,16,0,0,0-11.91,3.49L189.94,149l7.18,16.16,3.33,1a10.68,10.68,0,0,0,9.49-1.8,11.67,11.67,0,0,0,1.25-1.11l5.3-5.45A5.9,5.9,0,0,0,217.91,152Z"/><path class="cls-12" d="M205,143.18h0a2.18,2.18,0,0,0-2.65-2.12,15.85,15.85,0,0,0-6.68,3.21l-4.25,3.47,3,7.55,8.69,11.22a10.67,10.67,0,0,0,6.83-2.21,11.7,11.7,0,0,0,1.25-1.11l5.21-5.36-9-9A8,8,0,0,1,205,143.18Z"/><path class="cls-13" d="M199.47,165.62a74.28,74.28,0,0,1,21.76-52.52l9.77-9.77h0L197.54,86.64,152.4,94.37l-3.29,5.5,6.41,71.2,44-5.44Z"/><path class="cls-8" d="M181.44,143.08h0a7.16,7.16,0,0,1,7.43-1.68l2.91,1a26.64,26.64,0,0,1,14.16,11.69h0a22,22,0,0,1,1.62,18.72h0a18.13,18.13,0,0,1-11.56,11l-3.09,1a18.77,18.77,0,0,1-13.15-.71l-.86-.38a8.52,8.52,0,0,1-5-6.84h0"/><path class="cls-7" d="M192.26,53.35a7,7,0,0,0-1.16-9.68l-6.4-5.16A21.24,21.24,0,0,0,183,37.17l0,0h0A21.23,21.23,0,1,0,191.78,54Z"/><path class="cls-14" d="M182.88,37.05,150.31,48a21,21,0,0,0-.3,11.76,21.24,21.24,0,0,0,23.37,15.64l8.34-6.77-1.3-3.33a31,31,0,0,1,.51-23.75l2-4.47Z"/><path class="cls-15" d="M155.28,56.35l-6,3.36.15,3a9.91,9.91,0,0,0,6.5,8.82l5.33,1.94-.34-6.75a13.53,13.53,0,0,0-5.63-10.33Z"/><path class="cls-16" d="M158.38,59.45,153.44,59l-.89,1a3,3,0,0,0-.51,3h0a5.37,5.37,0,0,0,4.46,3.39h0a5.07,5.07,0,0,1,3.24,1.63l1.31,1.44-.14-2.85A13.52,13.52,0,0,0,158.38,59.45Z"/><path class="cls-4" d="M155.55,89.29l-1-15.86a2.22,2.22,0,0,1,2.5-2.34l36.42,4.75,19.18,20.55Z"/><path class="cls-15" d="M197.13,60,191.78,54l-6.27,3.64a9.21,9.21,0,0,0-4.24,6.25A4,4,0,0,1,177.81,67,4.1,4.1,0,0,1,174,65l-3.26-5.23a7.38,7.38,0,0,1-1-5.15,7.38,7.38,0,0,0-.57-4.32l-1.86-4.06-8.48,6.41,10.4,15.88a5.83,5.83,0,0,1,.71,4.54,5.56,5.56,0,0,0,.24,3.27h0l0,.08c.06.15.13.3.2.44a152,152,0,0,0,11.11,19.68c16.25,22.1,48.58,13.34,57.85,4.56,15.26-14.46-14.48-24-26-29.16A47.15,47.15,0,0,1,197.13,60Z"/><path class="cls-4" d="M177.58,30.9l-9.24-4.51A25.82,25.82,0,0,0,147,25.81h0a25.82,25.82,0,0,0-13.1,12.36L123.53,59.11l1.71,1.36,10.87-7.61a5.54,5.54,0,0,1,8.26,2.35l1.38,3.21"/><path class="cls-17" d="M150.92,37.48h0A9,9,0,0,1,144,31.87h0a2.91,2.91,0,0,0-4.73-1,25.7,25.7,0,0,0-5.42,7.32L123.53,59.11l1.71,1.36,10.87-7.61a5.54,5.54,0,0,1,8.26,2.35l1.38,3.21,13.51-11.68-1.42-3.65A9,9,0,0,0,150.92,37.48Z"/><circle class="cls-8" cx="123.13" cy="62" r="4.07" transform="translate(-14.11 48.9) rotate(-21.28)"/><path class="cls-18" d="M167.26,46.24l-8.48,6.41,2.36,3.6A92.73,92.73,0,0,1,169,50.07Z"/><path class="cls-19" d="M193.61,50.21l-3.92,2.14a.67.67,0,0,0,.19,1.25l1.9.37.48-.63A7,7,0,0,0,193.61,50.21Z"/><path class="cls-8" d="M149.42,63.37,154.79,58A92.75,92.75,0,0,1,169,46.33L182.9,37a.83.83,0,0,0,.25-1.11l-2.65-4.38a3.13,3.13,0,0,0-4.38-1L163.8,38.5a70.27,70.27,0,0,0-15.25,13.31L144.94,56a3.11,3.11,0,0,0-.07,4l2.61,3.29A1.31,1.31,0,0,0,149.42,63.37Z"/><path class="cls-7" d="M156,52.49h0A3.83,3.83,0,0,0,152.75,56l0,.47a3.83,3.83,0,0,0,1.37,3.17l2.07,1.72A3.83,3.83,0,0,0,160,62l3.92-1.53-4.15-6.33A3.83,3.83,0,0,0,156,52.49Z"/><path class="cls-20" d="M156.72,54.57h0a2.18,2.18,0,0,0-1.85,2l0,.27a2.18,2.18,0,0,0,.78,1.81l1.18,1A2.18,2.18,0,0,0,159,60l.28-.11a1.7,1.7,0,0,0,.8-2.51l-1.22-1.85A2.18,2.18,0,0,0,156.72,54.57Z"/><path class="cls-15" d="M182.1,42.94a4.58,4.58,0,0,1-3.18,3.34,4.85,4.85,0,0,0-2.26,1.57,4.22,4.22,0,0,1-4.15,1.41l-.56-.12a2.32,2.32,0,0,1-1.58-3.32,11.31,11.31,0,0,1,9.42-6.17,2.32,2.32,0,0,1,2.41,2.78Z"/><path class="cls-4" d="M153.29,77.1h0a19.11,19.11,0,0,1,19,8.44h0a28.28,28.28,0,0,1,2.33,26.52l-1.32,3.11a20.61,20.61,0,0,0,11.21,27.17h0a18.7,18.7,0,0,1,9.46,8.53l1.08,2a18.7,18.7,0,0,1,0,17.58h0a18.7,18.7,0,0,1-22.47,9l-12.38-4.16A48.92,48.92,0,0,1,130,111.68l8.41-22.42A19.11,19.11,0,0,1,153.29,77.1Z"/><path class="cls-6" d="M196.38,143.59l-14.2-15.51a83.44,83.44,0,0,0-24.9-18.62l-6.48-3.17a15.73,15.73,0,0,0-10.61-1.16h0a15.73,15.73,0,0,0-11.27,10.45l-1.73,5.34L107.66,89.3l9.43-6.36a52.78,52.78,0,0,1,43.86-7l.2.06a51.41,51.41,0,0,1,37,42.61l3.07,22.78-2.36,1Z"/><path class="cls-21" d="M198.82,142.34l2.36-1-3.07-22.78a51.32,51.32,0,0,0-3.93-13.92,4.21,4.21,0,0,0-8,1.34h0a14.09,14.09,0,0,1-14,12.77h0v0a83.42,83.42,0,0,1,10.06,9.29l14.2,15.51Z"/><path class="cls-6" d="M278.71,189.79H266.52a5.53,5.53,0,0,1-5.53-5.53h0a8.39,8.39,0,0,1,8.39-8.39h9.33a5.53,5.53,0,0,1,5.53,5.53v2.86A5.53,5.53,0,0,1,278.71,189.79Z"/><path class="cls-8" d="M149.92,239.23h44.8a1,1,0,0,0,1-1V222.74a1,1,0,0,0-1-1h-44.8a8.75,8.75,0,0,0-8.72,8.72h0A8.75,8.75,0,0,0,149.92,239.23Z"/><rect class="cls-8" x="237.63" y="321.7" width="23.79" height="12.13" rx="4.75" ry="4.75"/><path class="cls-8" d="M157.86,314.5h12.73a4.22,4.22,0,0,1,4.22,4.22v2.35a4.22,4.22,0,0,1-4.22,4.22H157.86a4.23,4.23,0,0,1-4.23-4.23v-2.35a4.23,4.23,0,0,1,4.23-4.23Z" transform="translate(333.56 2.68) rotate(55.27)"/></g></g></svg>