
<svg xmlns="http://www.w3.org/2000/svg" version="1.1" xmlns:xlink="http://www.w3.org/1999/xlink" preserveAspectRatio="none" x="0px" y="0px" width="1024px" height="1024px" viewBox="0 0 1024 1024">
<defs>
<g id="Layer0_0_MEMBER_0_MEMBER_0_MEMBER_0_FILL">
<path fill="#EA2E33" stroke="none" d="
M 112.5 52.8
L 114.8 50.75 96.85 51 98.2 60.5
Q 105.7 58.45 112.5 52.8 Z"/>
</g>

<g id="Layer0_0_MEMBER_0_MEMBER_0_MEMBER_1_FILL">
<path fill="#EA2E33" stroke="none" d="
M 101.5 84.25
Q 106.8 85.1 113.25 82.9 119.85 80.6 125.8 75.7 127.95 73.9 129.9 71.8
L 131.55 59.9
Q 128.15 66.35 121.7 71.65 116.75 75.8 111.2 78.05 105.85 80.3 100.95 80.4
L 101.5 84.25 Z"/>
</g>

<g id="Layer0_0_MEMBER_0_MEMBER_0_MEMBER_2_FILL">
<path fill="#EA2E33" stroke="none" d="
M 113.25 96
L 114.85 96.05
Q 120.1 96.05 123.8 94.1 127.5 92.1 127.5 89.3
L 127.6 88.55
Q 120.85 94 113.25 96 Z"/>
</g>

<g id="Layer0_0_MEMBER_0_MEMBER_0_MEMBER_3_FILL">
<path fill="#EA2E33" stroke="none" d="
M 110.55 74.75
Q 115.95 72.45 120.8 68.45 129.55 61.2 132.6 52.4
L 132.85 50.5 127.95 50.55
Q 124.6 58.35 117 64.6 108.85 71.35 99.9 72.95
L 100.5 77.2
Q 105.3 76.95 110.55 74.75 Z"/>
</g>

<g id="Layer0_0_MEMBER_0_MEMBER_0_MEMBER_4_FILL">
<path fill="#EA2E33" stroke="none" d="
M 99.45 69.65
Q 108.1 67.95 116.1 61.4 122 56.45 125.4 50.6
L 118.8 50.7
Q 116.25 53.65 113.4 56 106.3 61.85 98.65 63.8
L 99.45 69.65 Z"/>
</g>

<g id="Layer0_0_MEMBER_0_MEMBER_0_MEMBER_5_FILL">
<path fill="#EA2E33" stroke="none" d="
M 105.2 93.7
Q 110.3 93.85 116 91.65 121.95 89.35 127.25 84.95
L 128.25 84.1 129.25 76.55
Q 127.9 77.9 126.7 78.9 120.6 83.9 113.85 86.15 107.3 88.35 101.95 87.3
L 102.2 89.2 102.15 89.3
Q 102.15 89.75 102.35 90.45
L 102.35 90.5 102.4 90.5
Q 103 92.35 105.2 93.7 Z"/>
</g>

<g id="Layer0_0_MEMBER_0_MEMBER_0_MEMBER_6_FILL">
<path fill="#FED55F" stroke="none" d="
M 100.95 80.4
Q 105.85 80.3 111.2 78.05 116.75 75.8 121.7 71.65 128.15 66.35 131.55 59.9
L 132.6 52.4
Q 129.55 61.2 120.8 68.45 115.95 72.45 110.55 74.75 105.3 76.95 100.5 77.2
L 100.95 80.4 Z"/>
</g>

<g id="Layer0_0_MEMBER_0_MEMBER_0_MEMBER_7_FILL">
<path fill="#FED55F" stroke="none" d="
M 101.95 87.3
Q 107.3 88.35 113.85 86.15 120.6 83.9 126.7 78.9 127.9 77.9 129.25 76.55
L 129.9 71.8
Q 127.95 73.9 125.8 75.7 119.85 80.6 113.25 82.9 106.8 85.1 101.5 84.25
L 101.95 87.3 Z"/>
</g>

<g id="Layer0_0_MEMBER_0_MEMBER_0_MEMBER_8_FILL">
<path fill="#FED55F" stroke="none" d="
M 105.2 93.7
Q 108.4 95.7 113.25 96 120.85 94 127.6 88.55
L 128.25 84.1 127.25 84.95
Q 121.95 89.35 116 91.65 110.3 93.85 105.2 93.7 Z"/>
</g>

<g id="Layer0_0_MEMBER_0_MEMBER_0_MEMBER_9_FILL">
<path fill="#FED55F" stroke="none" d="
M 99.9 72.95
Q 108.85 71.35 117 64.6 124.6 58.35 127.95 50.55
L 125.4 50.6
Q 122 56.45 116.1 61.4 108.1 67.95 99.45 69.65
L 99.9 72.95 Z"/>
</g>

<g id="Layer0_0_MEMBER_0_MEMBER_0_MEMBER_10_FILL">
<path fill="#FED55F" stroke="none" d="
M 113.4 56
Q 116.25 53.65 118.8 50.7
L 114.8 50.75 112.5 52.8
Q 105.7 58.45 98.2 60.5
L 98.65 63.8
Q 106.3 61.85 113.4 56 Z"/>
</g>

<g id="Layer0_0_MEMBER_0_MEMBER_1_FILL">
<path fill="#C43235" stroke="none" d="
M 114.85 40.95
Q 107.4 40.95 102.1 43.75 96.85 46.55 96.85 50.5 96.85 54.5 102.1 57.3 107.4 60.1 114.85 60.1 122.3 60.1 127.6 57.3 132.85 54.5 132.85 50.5 132.85 46.55 127.6 43.75 122.3 40.95 114.85 40.95 Z"/>
</g>

<g id="Layer0_0_MEMBER_0_MEMBER_2_FILL">
<path fill="#D5BC96" stroke="none" d="
M 115 39.55
Q 106.5 39.55 100.45 42.75 94.4 45.95 94.4 50.5 94.4 55.05 100.45 58.25 106.5 61.45 115 61.45 123.55 61.45 129.6 58.25 135.65 55.05 135.65 50.5 135.65 45.95 129.6 42.75 123.55 39.55 115 39.55 Z"/>
</g>

<g id="Layer0_0_MEMBER_0_MEMBER_3_FILL">
<path fill="#D5BC96" stroke="none" d="
M 98.3 47.8
L 94.4 47.8 94.4 50.4 98.3 50.4 98.3 47.8 Z"/>
</g>

<g id="Layer0_0_MEMBER_0_MEMBER_4_FILL">
<path fill="#D5BC96" stroke="none" d="
M 135.65 47.9
L 131.7 47.9 131.7 50.5 135.65 50.5 135.65 47.9 Z"/>
</g>

<g id="Layer0_0_MEMBER_0_MEMBER_5_FILL">
<path fill="#F9EACE" stroke="none" d="
M 135.65 48.05
Q 135.65 43.5 129.6 40.3 123.55 37.05 115 37.05 106.5 37.05 100.45 40.3 94.4 43.5 94.4 48.05 94.4 52.6 100.45 55.8 106.5 59 115 59 123.55 59 129.6 55.8 135.65 52.6 135.65 48.05 Z"/>
</g>

<g id="Layer0_0_MEMBER_0_MEMBER_6_FILL">
<path fill="#D5BC96" stroke="none" d="
M 130.4 48.05
Q 130.4 44.65 125.9 42.25 121.4 39.85 115 39.85 108.6 39.85 104.1 42.25 99.6 44.65 99.6 48.05 99.6 51.45 104.1 53.85 108.65 56.25 115 56.25 121.4 56.25 125.9 53.85 130.4 51.45 130.4 48.05 Z"/>
</g>

<g id="Layer0_0_MEMBER_0_MEMBER_7_FILL">
<path fill="#E9D7B7" stroke="none" d="
M 129 48.05
L 129 45.15 126.6 45.15 126.6 48.05 129 48.05 Z"/>
</g>

<g id="Layer0_0_MEMBER_0_MEMBER_8_FILL">
<path fill="#E9D7B7" stroke="none" d="
M 103.85 48.05
L 103.85 45.15 101.5 45.15 101.5 48.05 103.85 48.05 Z"/>
</g>

<g id="Layer0_0_MEMBER_0_MEMBER_9_FILL">
<path fill="#E9D7B7" stroke="none" d="
M 129 47.65
Q 129 44.6 124.95 42.45 120.9 40.3 115.2 40.3 109.5 40.3 105.5 42.45 101.45 44.6 101.45 47.65 101.45 50.65 105.5 52.8 109.5 54.95 115.2 54.95 120.9 54.95 124.95 52.8 129 50.65 129 47.65 Z"/>
</g>

<g id="Layer0_0_MEMBER_0_MEMBER_10_FILL">
<path fill="#FFFFFF" stroke="none" d="
M 129 45.35
Q 129 42.3 124.95 40.15 120.9 38 115.2 38 109.5 38 105.5 40.15 101.45 42.3 101.45 45.35 101.45 48.4 105.5 50.5 109.5 52.65 115.2 52.65 120.9 52.65 124.95 50.5 129 48.4 129 45.35 Z"/>
</g>

<g id="Layer0_0_MEMBER_0_MEMBER_11_MEMBER_0_FILL">
<path fill="#D5BC96" stroke="none" d="
M 115.2 44.55
Q 117.4 44.55 118.4 45.55 118.95 45.1 118.95 44.55 118.95 43.75 117.85 43.15 116.75 42.6 115.2 42.6 113.65 42.6 112.6 43.15 111.5 43.75 111.5 44.55 111.5 45.05 112 45.55 113.1 44.55 115.2 44.55 Z"/>
</g>

<g id="Layer0_0_MEMBER_0_MEMBER_11_MEMBER_1_FILL">
<path fill="#DB252B" stroke="none" d="
M 115.2 46.55
Q 117.4 46.55 118.4 45.55 117.4 44.55 115.2 44.55 113.1 44.55 112 45.55 113.1 46.55 115.2 46.55 Z"/>
</g>

<g id="Layer0_0_MEMBER_0_MEMBER_12_MEMBER_0_MEMBER_0_FILL">
<path fill="#EA2E33" stroke="none" d="
M 124.3 13.35
L 123.05 13.05 114.65 46.5 115.2 46.55 116 46.5 124.3 13.35 Z"/>
</g>

<g id="Layer0_0_MEMBER_0_MEMBER_12_MEMBER_0_MEMBER_1_FILL">
<path fill="#EA2E33" stroke="none" d="
M 125.8 13.65
L 125 13.5 116.75 46.35 117.7 46 125.8 13.65 Z"/>
</g>

<g id="Layer0_0_MEMBER_0_MEMBER_12_MEMBER_1_FILL">
<path fill="#FED55F" stroke="none" d="
M 125 13.5
L 124.3 13.35 116 46.5 116.75 46.35 125 13.5 Z"/>
</g>

<g id="Layer0_0_MEMBER_0_MEMBER_12_MEMBER_2_FILL">
<path fill="#FD6A6C" stroke="none" d="
M 123.05 13.05
Q 122.95 13.8 124.3 14.05 124.85 14.15 125.3 14.05 125.75 13.9 125.8 13.6 125.9 13.3 125.5 13 125.15 12.7 124.6 12.6 123.25 12.35 123.05 13.05 Z"/>
</g>

<g id="Layer0_0_MEMBER_1_MEMBER_0_MEMBER_0_FILL">
<path fill="#F9EACE" stroke="none" d="
M 179.45 44.5
Q 174.4 42.45 170.95 45.75 167.45 49.05 167.65 55.8 167.8 62.5 171.5 68.7 175.25 74.85 180.3 76.9 185.35 78.95 188.85 75.65 192.3 72.35 192.1 65.65 191.95 58.9 188.25 52.7 184.5 46.55 179.45 44.5 Z"/>
</g>

<g id="Layer0_0_MEMBER_1_MEMBER_0_MEMBER_1_FILL">
<path fill="#EA2E33" stroke="none" d="
M 182.25 101.65
L 182.25 72.4 158.15 58.55 159.8 88.7 182.25 101.65 Z"/>
</g>

<g id="Layer0_0_MEMBER_1_MEMBER_0_MEMBER_2_FILL">
<path fill="#FED55F" stroke="none" d="
M 182.25 75.25
L 182.25 72.4 158.15 58.55 158.3 61.4 182.25 75.25 Z"/>
</g>

<g id="Layer0_0_MEMBER_1_MEMBER_0_MEMBER_3_FILL">
<path fill="#FED55F" stroke="none" d="
M 182.25 89
L 182.25 86.2 158.95 72.75 159.1 75.65 182.25 89 Z"/>
</g>

<g id="Layer0_0_MEMBER_1_MEMBER_0_MEMBER_4_FILL">
<path fill="#D62126" stroke="none" d="
M 192.25 67
L 182.25 72.4 182.25 101.65 190.4 96.9 192.25 67 Z"/>
</g>

<g id="Layer0_0_MEMBER_1_MEMBER_0_MEMBER_5_FILL">
<path fill="#FCB43E" stroke="none" d="
M 182.25 75.25
L 192.1 69.45 192.25 67 182.25 72.4 182.25 75.25 Z"/>
</g>

<g id="Layer0_0_MEMBER_1_MEMBER_0_MEMBER_6_FILL">
<path fill="#FCB43E" stroke="none" d="
M 182.25 89.05
L 191.2 83.8 191.35 81.3 182.25 86.25 182.25 89.05 Z"/>
</g>

<g id="Layer0_0_MEMBER_1_MEMBER_0_MEMBER_7_FILL">
<path fill="#F9EACE" stroke="none" d="
M 192.25 67
L 167.8 52.9 158.15 58.55 182.25 72.4 192.25 67 Z"/>
</g>

<g id="Layer0_0_MEMBER_1_MEMBER_0_MEMBER_8_FILL">
<path fill="#E9D7B7" stroke="none" d="
M 167.65 64
L 167.8 52.9 158.15 58.55 167.65 64 Z"/>
</g>

<g id="Layer0_0_MEMBER_1_MEMBER_1_FILL">
<path fill="#F09F32" stroke="none" d="
M 174.1 49.3
L 172.7 48.3 172.35 49
Q 171.95 49.95 171.75 51 171.4 52.75 170.95 59.3
L 168.65 56.5 166.8 63.55 182.25 72.4 187.25 69.7 187.25 66.1 187.75 65.4
Q 188.4 64.55 189 64 189.95 63.1 192.9 61.3
L 192.15 59.3
Q 190 60.35 188.15 61.55 187 62.3 185.15 64.1
L 183.55 65.7 179.6 62.8
Q 177.05 60.2 175.8 59.95 175 59.85 173.8 59.9
L 172.75 59.95
Q 172.6 56.6 172.8 55 172.95 54 173.55 51.55
L 174.1 49.3 Z"/>
</g>

<g id="Layer0_0_MEMBER_1_MEMBER_2_FILL">
<path fill="#F09F32" stroke="none" d="
M 165.15 44.8
Q 164.6 46.65 164.7 48.65 164.95 51.8 166 58.55
L 168.3 53.45 165.75 43.3 165.15 44.8 Z"/>
</g>

<g id="Layer0_0_MEMBER_1_MEMBER_3_FILL">
<path fill="#F09F32" stroke="none" d="
M 175.25 55.35
L 174.9 53.8 172.65 59.55
Q 171.75 61.8 170 65.35
L 172.25 66.65
Q 174.65 60.8 175.2 58.55 175.55 57.15 175.25 55.35 Z"/>
</g>

<g id="Layer0_0_MEMBER_1_MEMBER_4_MEMBER_0_FILL">
<path fill="#FED55F" stroke="none" d="
M 162.7 61.15
L 165.3 62.65
Q 163.65 47.15 163.15 43.65 161.5 47.35 161.95 54.6 162.15 58.25 162.7 61.15 Z"/>
</g>

<g id="Layer0_0_MEMBER_1_MEMBER_4_MEMBER_1_FILL">
<path fill="#FCB43E" stroke="none" d="
M 162.4 47.35
Q 162.55 46 162.85 44.7
L 163.15 43.65
Q 162.4 44.1 161.65 44.9 160.1 46.55 160.05 48.6 160 51.8 160.6 59.95
L 163.4 61.55
Q 162.8 56.55 162.6 53.35 162.3 48.75 162.4 47.35 Z"/>
</g>

<g id="Layer0_0_MEMBER_1_MEMBER_5_MEMBER_0_FILL">
<path fill="#FCB43E" stroke="none" d="
M 168.85 47.95
Q 167.3 47 166.6 47 165.75 50.1 164.7 62.35
L 167.3 63.85
Q 168.5 50.9 168.85 47.95 Z"/>
</g>

<g id="Layer0_0_MEMBER_1_MEMBER_5_MEMBER_1_FILL">
<path fill="#FED55F" stroke="none" d="
M 170 47.4
L 168.85 47.95 167.3 63.85 168.85 64.75 170 47.4 Z"/>
</g>

<g id="Layer0_0_MEMBER_1_MEMBER_5_MEMBER_2_FILL">
<path fill="#FED598" stroke="none" d="
M 167.75 46.5
L 166.6 47 168.85 47.95 170 47.4 167.75 46.5 Z"/>
</g>

<g id="Layer0_0_MEMBER_1_MEMBER_6_FILL">
<path fill="#F09F32" stroke="none" d="
M 186 52.1
L 183.6 59
Q 183.1 60.6 182.2 64.35 181.3 68.05 181.4 68.05 181.5 68.05 181.85 68.5 182.35 68.95 182.85 68.85 183.7 68.65 184.4 68.85 186.1 57.35 186.55 55.5 186.85 54.35 186.45 53.1
L 186 52.1 Z"/>
</g>

<g id="Layer0_0_MEMBER_1_MEMBER_7_FILL">
<path fill="#F09F32" stroke="none" d="
M 178.45 53.45
Q 178.15 51.75 177.55 49.7
L 177.05 48.05 176.3 49.75
Q 175.55 51.75 175.85 53.45
L 177.9 64.05 180.25 64.05 178.45 53.45 Z"/>
</g>

<g id="Layer0_0_MEMBER_1_MEMBER_8_MEMBER_0_FILL">
<path fill="#FCB43E" stroke="none" d="
M 174.1 67.7
L 176.4 69.05 179.9 54.5 178.25 53.6 176.65 58.05
Q 175.2 62.05 174.1 67.7 Z"/>
</g>

<g id="Layer0_0_MEMBER_1_MEMBER_8_MEMBER_1_FILL">
<path fill="#FED55F" stroke="none" d="
M 174.6 67
L 178.25 53.6 177 54.4 174.45 62.95
Q 174.1 64 174.1 64.95
L 174.6 67 Z"/>
</g>

<g id="Layer0_0_MEMBER_1_MEMBER_9_MEMBER_0_FILL">
<path fill="#FCB43E" stroke="none" d="
M 171.25 51.2
L 168.85 52 170.45 60.4
Q 170.95 63.3 171.25 66.05
L 173.6 67.4
Q 173.35 62.25 172.75 58.25 172.4 55.8 171.8 53.25
L 171.25 51.2 Z"/>
</g>

<g id="Layer0_0_MEMBER_1_MEMBER_9_MEMBER_1_FILL">
<path fill="#FED55F" stroke="none" d="
M 171.75 51
L 170.7 51.4 172.65 59.55
Q 173.2 61.95 173.6 67.4
L 174.9 68.15
Q 174.4 60.9 173.6 57.55 173.1 55.45 172.4 53
L 171.75 51 Z"/>
</g>

<g id="Layer0_0_MEMBER_1_MEMBER_10_MEMBER_0_FILL">
<path fill="#FCB43E" stroke="none" d="
M 181.65 53.8
L 180.7 54 179.9 64.5
Q 179.7 67.6 179.6 70.85
L 181.75 72.1
Q 182.9 63.1 182.95 60.25
L 183.2 54.35 181.65 53.8 Z"/>
</g>

<g id="Layer0_0_MEMBER_1_MEMBER_10_MEMBER_1_FILL">
<path fill="#FED55F" stroke="none" d="
M 181.65 53.8
L 180.7 54 178.85 70.45 180.2 71.2
Q 180.95 63.55 181.05 61.55
L 181.65 53.8 Z"/>
</g>

<g id="Layer0_0_MEMBER_1_MEMBER_11_MEMBER_0_FILL">
<path fill="#FCB43E" stroke="none" d="
M 188.75 56.3
L 187.8 55 186.55 62.5
Q 186 65.7 186.1 70.35
L 188.7 68.9
Q 189 62.4 189.4 59.7 189.65 58 188.75 56.3 Z"/>
</g>

<g id="Layer0_0_MEMBER_1_MEMBER_11_MEMBER_1_FILL">
<path fill="#FED55F" stroke="none" d="
M 188.1 56.5
L 187.8 55 186.15 63.35
Q 185.95 65 185.7 70.55
L 187.25 69.7
Q 187.15 64.2 187.75 61.4 188.3 58.6 188.1 56.5 Z"/>
</g>

<g id="Layer0_0_MEMBER_1_MEMBER_12_FILL">
<path fill="#FED55F" stroke="none" d="
M 165.85 73.4
Q 164.2 75 164.25 78.25 164.35 81.55 166.15 84.55 167.95 87.6 170.4 88.55 172.9 89.55 174.6 87.95 176.3 86.35 176.2 83.05 176.1 79.8 174.3 76.8 172.45 73.75 170 72.75 167.55 71.8 165.85 73.4 Z"/>
</g>

<g id="Layer0_0_MEMBER_1_MEMBER_13_FILL">
<path fill="#FFFFFF" stroke="none" d="
M 166.9 75.15
Q 165.65 76.4 165.7 78.85 165.8 81.3 167.15 83.6 168.5 85.9 170.35 86.65 172.25 87.4 173.5 86.2 174.8 85 174.75 82.5 174.7 80 173.3 77.75 171.9 75.45 170.05 74.7 168.2 73.95 166.9 75.15 Z"/>
</g>

<g id="Layer0_0_MEMBER_2_MEMBER_0_MEMBER_0_FILL">
<path fill="#D5BC96" stroke="none" d="
M 109.85 106.9
L 143.4 126.35 177 106.95 143.4 87.5 109.85 106.9 Z"/>
</g>

<g id="Layer0_0_MEMBER_2_MEMBER_0_MEMBER_1_MEMBER_0_FILL">
<path fill="#F9EACE" stroke="none" d="
M 140.1 122.7
Q 141.85 123.7 142.95 124.45
L 176.65 105 143.75 86 110.15 105.4 140.1 122.7 Z"/>
</g>

<g id="Layer0_0_MEMBER_2_MEMBER_0_MEMBER_1_MEMBER_1_FILL">
<path fill="#D5BC96" stroke="none" d="
M 144.2 121.4
L 145.75 120.4 116.55 103.6 115.05 104.55
Q 143.25 120.75 144.2 121.4 Z"/>
</g>

<g id="Layer0_0_MEMBER_2_MEMBER_0_MEMBER_1_MEMBER_2_FILL">
<path fill="#E9D7B7" stroke="none" d="
M 177.3 105.4
L 176.65 105 142.95 124.45 143.4 124.8
Q 143.9 125.15 143.8 125.75 143.7103515625 126.153125 143.45 126.3
L 177 106.95 177.65 106.45
Q 178.15 105.85 177.3 105.4 Z"/>
</g>

<g id="Layer0_0_MEMBER_2_MEMBER_1_MEMBER_0_MEMBER_0_FILL">
<path fill="#D5BC96" stroke="none" d="
M 149.15 100.45
Q 149.3 100.35 149.25 100.3 149.2 100.15 148.9 100.15 148.55 100.05 148.45 100.25 148.3 100.5 148.7 100.5
L 149.15 100.45 Z"/>
</g>

<g id="Layer0_0_MEMBER_2_MEMBER_1_MEMBER_0_MEMBER_1_FILL">
<path fill="#D5BC96" stroke="none" d="
M 151.65 102.35
Q 152 102.35 152 102.15 152 101.9 151.75 101.75 151.65 101.7 151.55 101.75 151.4 101.8 151.4 101.85
L 151.3 102.15
Q 151.25 102.35 151.65 102.35 Z"/>
</g>

<g id="Layer0_0_MEMBER_2_MEMBER_1_MEMBER_0_MEMBER_2_FILL">
<path fill="#D5BC96" stroke="none" d="
M 148.55 102.05
Q 149.35 102 149.35 101.8 149.3 101.65 148.6 101.65 148.25 101.65 148.2 101.85 148.2 102.1 148.55 102.05 Z"/>
</g>

<g id="Layer0_0_MEMBER_2_MEMBER_1_MEMBER_0_MEMBER_3_FILL">
<path fill="#D5BC96" stroke="none" d="
M 145.35 101.25
Q 145.75 101.15 145.75 100.75 145.75 100.65 145.65 100.65 145.5 100.6 145.4 100.65 144.85 101 145.05 101.15 145.1 101.25 145.35 101.25 Z"/>
</g>

<g id="Layer0_0_MEMBER_2_MEMBER_1_MEMBER_0_MEMBER_4_FILL">
<path fill="#D5BC96" stroke="none" d="
M 150.75 104.45
Q 151.25 104.25 150.8 104.15 150.55 104.05 150.25 104.15 150 104.15 149.9 104.3 149.8 104.3 149.9 104.4 149.9 104.6 150.2 104.5
L 150.75 104.45 Z"/>
</g>

<g id="Layer0_0_MEMBER_2_MEMBER_1_MEMBER_0_MEMBER_5_FILL">
<path fill="#D5BC96" stroke="none" d="
M 152.75 104
Q 153.05 104 153.2 103.85 153.35 103.7 153.25 103.6 153.15 103.45 153.1 103.35 152.95 103.2 152.75 103.25 152.35 103.4 152.45 103.75 152.45 103.95 152.7 103.95
L 152.75 104 Z"/>
</g>

<g id="Layer0_0_MEMBER_2_MEMBER_1_MEMBER_0_MEMBER_6_FILL">
<path fill="#D5BC96" stroke="none" d="
M 152.7 105.6
Q 152.7 105.5 152.5 105.5 151.9 105.5 151.75 105.55 151.6 105.65 151.6 105.75 151.6 105.85 151.8 105.9
L 152.5 105.75
Q 152.7 105.7 152.7 105.6 Z"/>
</g>

<g id="Layer0_0_MEMBER_2_MEMBER_1_MEMBER_0_MEMBER_7_FILL">
<path fill="#D5BC96" stroke="none" d="
M 146.8 103.4
Q 147.1 103.35 147.05 103.15 147.05 103.05 146.9 102.95 146.75 102.85 146.6 102.9 146.25 103.1 146.4 103.25 146.5 103.45 146.8 103.4 Z"/>
</g>

<g id="Layer0_0_MEMBER_2_MEMBER_1_MEMBER_1_FILL">
<path fill="#D5BC96" stroke="none" d="
M 155.2 102.3
Q 154.55 100.95 152.1 99.95 151.15 99.6 150 99.35 148.1 98.9 146.2 99.05 144.35 99.2 143.1 99.65 141.5 100.2 141.55 101.1 138.2 100.2 138.05 101.2 137.95 101.7 138.4 102.05 138.85 102.45 138.8 102.85 138.45 102.9 137.95 103.1 137 102.9 136.6 102.8 136.25 102.7 136.25 102.9
L 136.25 103.3
Q 135.8 103.35 135.2 103.55 133.7 102.65 127.1 100.1 128 101.9 130.1 105 130.6 105.75 132.3 108.4 133.85 110.75 134.3 111.2 140.95 112.45 144.7 113.25 153.35 115 154.85 115.4 151.5 112.65 147.75 110.9
L 148.25 110.85
Q 149.2 110.65 148.35 109.6
L 148.75 109.25
Q 150.85 109.7 151.2 109.5 152.1 109 152.1 108.45 152.1 108.2 151.75 107.65 153.35 107.5 154.55 106.7 155.65 105.95 155.9 105 156.2 103.6 155.2 102.3
M 154.8 103.3
Q 155.4 104.7 154.55 105.9 153.5 107.3 150.8 107.15 149.55 107.1 148.25 106.45 147.65 106.2 146.3 105.3 144.05 103.85 142.95 102.65 142.2 101.85 142.25 101.25 142.35 100.45 143.9 99.85 145.55 99.2 147.85 99.4
L 147.95 99.4
Q 153.45 100.1 154.8 103.3
M 144.5 107
L 144.8 107.4
Q 145 107.65 145.25 107.75 145.6 107.95 146.4 108.05 147.45 108.35 148.25 109.15 147.65 109.65 147 109.6 146.05 109.6 144 108.55 143.5 108.3 141.5 107.05 140.2 106.25 139.45 105.7 138 104.65 137.9 104 137.85 103.55 138.9 103.2
L 138.9 103.5
Q 138.95 103.85 139.4 104 139.65 104.1 140.35 104.3 140.95 104.55 141.35 105.2 141.8 105.85 142.35 106.05 142.85 106.25 143.55 106.4 144.15 106.6 144.5 107
M 145.6 107.45
Q 145.25 107.3 144.7 106.55 144.45 106.1 143.1 105.95 142.15 105.8 141.9 105.05 141.55 104.25 140.7 104 139.8 103.8 139.55 103.55 139.35 103.4 139.4 102.9 139.5 102.1 138.9 101.85 138.4 101.6 138.65 101.3 138.9 101.05 139.3 101.05 140.05 101.1 141.55 101.55 141.5 102.5 142.8 103.65 143.1 103.9 145.2 105.35 146.75 106.4 147.65 106.85 149.35 107.6 151 107.65 151.05 107.75 151.25 108.15 151.4 108.6 151.25 108.95 151.05 109.45 148.55 108.8 148.2 108.45 148 108.3 147.75 108 147.15 107.9 145.9 107.65 145.6 107.45
M 145.25 111.35
Q 146.25 111.15 146.5 110.75
L 146.95 110.8
Q 147.45 111.1 150.15 112.7 151.85 113.7 153 114.55
L 135 110.8
Q 132.2 106.65 131.2 105.2 130.25 103.75 129.75 103 128.85 101.7 128.05 100.9 128.5 101.1 131.4 102.4 133.4 103.3 134.8 103.8 133.55 104.65 134.9 106.65 136 108.3 137.35 109.1 140.35 110.9 143.55 111.4 144.35 111.5 145.25 111.35
M 144.8 110.2
L 145.7 110.45
Q 144.9 111.7 141.6 110.45 139.3 109.6 137.6 108.45 136.05 107.4 135.25 106.05 134.05 104.15 136.3 103.7 136.35 105.05 137.5 106.7 138.15 107.7 138.9 108.15 139.6 108.6 141.2 109.15 143.05 109.8 144.8 110.2
M 148.2 110.25
Q 148.2 110.55 147.35 110.45 143.2 109.5 143.05 109.45 140.85 108.75 140.7 108.7 139.3 108.2 138.8 107.7 137.8 106.7 137.15 105.2 136.85 104.5 136.8 104.1 136.7 103.7 136.75 103.6
L 136.75 103.5
Q 136.8 103.2 137.65 103.45 136.65 104.15 138.55 105.6 139.5 106.4 141.35 107.45 143.9 109 144.4 109.25 146.8 110.35 147.95 109.7 148.05 109.9 148.2 110.25 Z"/>
</g>

<g id="Layer0_0_MEMBER_2_MEMBER_1_MEMBER_2_FILL">
<path fill="#D5BC96" stroke="none" d="
M 134.95 98.85
Q 134.75 98.75 134.6 98.8 134.4 98.85 134.55 99 135.25 99.8 136.55 100.8 136.75 101 137 100.9 137.3 100.8 137.1 100.6 136.2 99.65 134.95 98.85 Z"/>
</g>

<g id="Layer0_0_MEMBER_2_MEMBER_1_MEMBER_3_FILL">
<path fill="#D5BC96" stroke="none" d="
M 138.9 96.6
Q 139 96.95 139.8 97.85 140.55 98.8 140.95 99.05 141.1 99.15 141.25 99.1 141.45 99.05 141.4 98.9 141.35 98.55 140.45 97.65 139.6 96.75 139.15 96.5 138.8 96.35 138.9 96.6 Z"/>
</g>

<g id="Layer0_0_MEMBER_2_MEMBER_1_MEMBER_4_FILL">
<path fill="#D5BC96" stroke="none" d="
M 157.65 112.15
Q 158.3 112.1 157.95 111.85 157.4 111.45 155.65 110.75
L 152.8 109.65
Q 152.5 109.55 152.35 109.65 152.25 109.75 152.5 109.85 155.7 111.55 157.65 112.15 Z"/>
</g>

<g id="Layer0_0_MEMBER_2_MEMBER_1_MEMBER_5_FILL">
<path fill="#D5BC96" stroke="none" d="
M 160.5 108.75
Q 160.5 108.65 160.4 108.6 159.4 108.25 157.3 107.95 155.5 107.75 154.65 107.75 154.3 107.7 154.3 107.8 154.25 107.85 154.65 107.95 155 108.05 157.2 108.4 158.25 108.55 160.3 108.85 160.45 108.85 160.5 108.75 Z"/>
</g>

<g id="Layer0_0_MEMBER_2_MEMBER_1_MEMBER_6_FILL">
<path fill="#D5BC96" stroke="none" d="
M 145.45 96
Q 145.5 95.3 145.25 95.2
L 145.1 95.2
Q 144.85 95.35 144.7 96 144.55 96.65 144.7 96.9 144.9 97.1 145.1 96.9 145.35 96.65 145.45 96 Z"/>
</g>

<g id="Layer0_0_MEMBER_2_MEMBER_1_MEMBER_7_FILL">
<path fill="#D5BC96" stroke="none" d="
M 161.1 105.4
Q 161.15 105.25 161 105.2 160.55 105.1 158.05 105.1 157.85 105.1 157.85 105.2 157.8 105.3 158.05 105.35 160.2 105.6 160.85 105.55 161.05 105.5 161.1 105.4 Z"/>
</g>

<g id="Layer0_0_MEMBER_2_MEMBER_1_MEMBER_8_FILL">
<path fill="#D5BC96" stroke="none" d="
M 151.25 97.1
Q 151.45 96.95 151.8 96.4 152.1 95.9 152.1 95.7 152.15 95.6 152 95.55 151.8 95.5 151.7 95.6 151.35 95.8 150.95 96.3 150.6 96.8 150.7 97 150.75 97.1 150.9 97.15 151.1 97.2 151.25 97.1 Z"/>
</g>

<g id="Layer0_0_MEMBER_2_MEMBER_1_MEMBER_9_FILL">
<path fill="#D5BC96" stroke="none" d="
M 162.35 102.05
Q 162.65 101.95 162.35 101.85 161.95 101.8 160.9 101.8 159.75 101.85 159.4 101.9 159.15 101.9 159.1 102.05 159.05 102.15 159.25 102.2 162 102.2 162.35 102.05 Z"/>
</g>

<g id="Layer0_0_MEMBER_2_MEMBER_1_MEMBER_10_FILL">
<path fill="#D5BC96" stroke="none" d="
M 157.2 98.1
Q 156.7 98.2 156.15 98.6 155.55 98.95 155.35 99.25 155.15 99.5 155.75 99.4 156.2 99.3 156.7 98.9 157.3 98.5 157.45 98.25 157.45 98.1 157.2 98.1 Z"/>
</g>

<g id="Layer0_0_MEMBER_3_MEMBER_0_MEMBER_0_FILL">
<path fill="#AF531E" stroke="none" d="
M 156.55 98.25
Q 151.5 95.55 144.35 95.55 137.2 95.55 132.15 98.25 127.1 100.9 127.1 104.7 127.1 108.5 132.15 111.15 137.2 113.85 144.35 113.85 151.5 113.85 156.55 111.15 161.6 108.5 161.6 104.7 161.6 100.9 156.55 98.25 Z"/>
</g>

<g id="Layer0_0_MEMBER_3_MEMBER_0_MEMBER_1_FILL">
<path fill="#AF531E" stroke="none" d="
M 144.3 108.5
Q 160 108.6 160.9 107.2 162.15 105.4 162.45 101.6
L 126.25 101.6 126.45 103.55
Q 126.8 105.75 127.65 106.95 128.6 108.35 144.3 108.5 Z"/>
</g>

<g id="Layer0_0_MEMBER_3_MEMBER_0_MEMBER_2_FILL">
<path fill="#D07437" stroke="none" d="
M 157.15 94.8
Q 151.85 92 144.35 92 136.85 92 131.55 94.8 126.25 97.65 126.25 101.6 126.25 105.6 131.55 108.4 136.85 111.25 144.35 111.25 151.85 111.25 157.15 108.4 162.45 105.6 162.45 101.6 162.45 97.65 157.15 94.8 Z"/>
</g>

<g id="Layer0_0_MEMBER_3_MEMBER_1_MEMBER_0_FILL">
<path fill="#B5E031" stroke="none" d="
M 163.4 103.1
Q 166.4 102.05 166.5 99.95 166.6 98.5 164.6 97.8 162.05 97.25 160.95 97 160.35 96.85 160.1 96.2 159.9 95.75 159.25 95.95 155.55 97.3 153.75 97.85 150.75 98.75 147.85 98.65 143.95 98.55 137.75 97.95 129.3 97.15 127.6 97 127.1 96.95 126.85 97.45 125.4 97.5 124.15 98.25 122.65 99.1 123.85 100.05 124.85 100.85 125.15 101.2 125.75 101.95 125.35 102.45 124.65 103.35 124.45 104.45 124.2 105.65 124.7 106.4 124.9 106.7 126.65 106.25 128.5 105.8 129.6 106.45 130.1 106.75 130.1 108.2 130.1 109.55 131.65 110.15 132.15 110.35 133.45 109.6 134.75 108.85 135.1 108.9 136.5 109.2 136.95 111.1 137.4 113.15 138.15 113.5 138.85 113.85 141 110.9 142.75 108.35 144.6 111.1 145.75 112.75 146.4 113.45 147.35 114.35 148.25 114.25 150.4 114 151.05 111.9 151.35 109.75 151.55 109.55 152.6 108.65 154.75 109.85 157.15 111.2 158.85 110.45 159.95 109.95 159.65 108.15 159.3 105.85 159.5 105.4 160 104.3 163.4 103.1 Z"/>
</g>

<g id="Layer0_0_MEMBER_3_MEMBER_1_MEMBER_1_FILL">
<path fill="#A1C426" stroke="none" d="
M 131 103.45
L 129.7 101.75
Q 129.05 101.85 128.25 102 126.75 102.4 126.3 103 125.15 104.6 125.85 105.05 126.5 105.45 131 103.45 Z"/>
</g>

<g id="Layer0_0_MEMBER_3_MEMBER_1_MEMBER_2_FILL">
<path fill="#A1C426" stroke="none" d="
M 136 106.3
L 133.15 104.8
Q 133 104.95 132.8 105.3 132.45 106 132.15 106.85 131.75 107.9 132.4 108.2 133.05 108.5 134.2 107.8 135.75 106.8 136 106.3 Z"/>
</g>

<g id="Layer0_0_MEMBER_3_MEMBER_1_MEMBER_3_FILL">
<path fill="#A1C426" stroke="none" d="
M 139 108.2
L 138.1 108.45 138.05 109.4
Q 138 110.5 138.1 111.2 138.2 112.1 138.95 111.3 139.65 110.55 139.75 109.25 139.85 108.15 139 108.2 Z"/>
</g>

<g id="Layer0_0_MEMBER_3_MEMBER_1_MEMBER_4_FILL">
<path fill="#A1C426" stroke="none" d="
M 147.8 107.5
L 144.6 108.4 147.05 111.2
Q 147.8 112.1 148.75 111.65 149.7 111.15 149.35 109.9 149.05 108.85 148.4 108.05
L 147.8 107.5 Z"/>
</g>

<g id="Layer0_0_MEMBER_3_MEMBER_1_MEMBER_5_FILL">
<path fill="#A1C426" stroke="none" d="
M 155.65 105.05
L 152.3 106.55 153.55 107.05
Q 154.95 107.65 155.75 108.2 156.85 108.95 157.4 108.8 158.1 108.6 157.35 107.2 156.65 105.9 156.1 105.35
L 155.65 105.05 Z"/>
</g>

<g id="Layer0_0_MEMBER_3_MEMBER_1_MEMBER_6_FILL">
<path fill="#A1C426" stroke="none" d="
M 164.55 100.75
Q 165 99.6 162.35 99.6
L 160 101.65
Q 160.15 101.6 162.2 101.6 164.25 101.45 164.55 100.75 Z"/>
</g>

<g id="Layer0_0_MEMBER_3_MEMBER_2_MEMBER_0_FILL">
<path fill="#FED55F" stroke="none" d="
M 154.85 92.7
Q 144.95 87.25 141.5 88.55
L 124.1 97.25 126 99.5
Q 128.3 102.1 130.6 103.95 134.3 106.9 140.1 109.4
L 144.3 108.45
Q 149.2 107.25 152.55 105.7 157.95 103.3 164.05 98.4 159.8 95.4 154.85 92.7 Z"/>
</g>

<g id="Layer0_0_MEMBER_3_MEMBER_2_MEMBER_1_FILL">
<path fill="#FCB43E" stroke="none" d="
M 145.3 109.2
Q 150.75 107.8 152.6 107 157.25 105.05 161.1 101.5 163.05 99.75 164.05 98.4 161.8 100.1 158.75 101.95 152.7 105.75 148.85 106.7
L 140.3 108.85
Q 135.2 106 130.7 102.8 129.25 101.8 126.5 99.45
L 124.1 97.25 127.2 100.95
Q 131 105 134.3 107
L 140.2 110.45 145.3 109.2 Z"/>
</g>

<g id="Layer0_0_MEMBER_3_MEMBER_3_MEMBER_0_FILL">
<path fill="#AF531E" stroke="none" d="
M 161.85 95.35
Q 161.85 91.4 156.65 88.65 151.45 85.85 144.1 85.85 136.7 85.85 131.5 88.65 126.3 91.4 126.3 95.35 126.3 99.25 131.5 102.05 136.7 104.8 144.1 104.8 151.45 104.8 156.65 102.05 161.85 99.25 161.85 95.35 Z"/>
</g>

<g id="Layer0_0_MEMBER_3_MEMBER_3_MEMBER_1_FILL">
<path fill="#AF531E" stroke="none" d="
M 161.8 96.05
Q 161.95 95.1 161.8 93.8 161.5 91.25 160.2 89.7 156.15 85 144.2 84.8 132.3 84.6 128.35 89.1 126.65 91 126.3 93.35 126.15 94.55 126.3 95.35
L 161.8 96.05 Z"/>
</g>

<g id="Layer0_0_MEMBER_3_MEMBER_3_MEMBER_2_FILL">
<path fill="#D07437" stroke="none" d="
M 160.85 92.15
Q 160.85 88.45 155.95 85.85 151.05 83.25 144.1 83.25 137.15 83.25 132.2 85.85 127.3 88.45 127.3 92.15 127.3 95.85 132.2 98.5 137.15 101.1 144.1 101.1 151.05 101.1 155.95 98.5 160.85 95.85 160.85 92.15 Z"/>
</g>

<g id="Layer0_0_MEMBER_3_MEMBER_3_MEMBER_3_FILL">
<path fill="#FEC554" stroke="none" d="
M 129.75 95.4
Q 131.1 95.4 129.6 93.55
L 129.2 94.45
Q 128.95 95.35 129.75 95.4 Z"/>
</g>

<g id="Layer0_0_MEMBER_3_MEMBER_3_MEMBER_4_FILL">
<path fill="#FEC554" stroke="none" d="
M 149.95 98.6
Q 151.35 98.65 149.8 96.75
L 149.4 97.65
Q 149.15 98.55 149.95 98.6 Z"/>
</g>

<g id="Layer0_0_MEMBER_3_MEMBER_3_MEMBER_5_FILL">
<path fill="#FEC554" stroke="none" d="
M 144.6 102.5
Q 144.6 103.05 144.8 103.6 146.55 102.3 145.35 101.8 144.55 101.5 144.6 102.5 Z"/>
</g>

<g id="Layer0_0_MEMBER_3_MEMBER_3_MEMBER_6_FILL">
<path fill="#FEC554" stroke="none" d="
M 148.75 91.55
Q 148.8 92.1 148.95 92.65 150.7 91.35 149.5 90.85 148.7 90.55 148.75 91.55 Z"/>
</g>

<g id="Layer0_0_MEMBER_3_MEMBER_3_MEMBER_7_FILL">
<path fill="#FEC554" stroke="none" d="
M 156.65 99.15
Q 155.85 99.7 156.45 100.25 157.45 101.2 157.6 98.75 157.1 98.9 156.65 99.15 Z"/>
</g>

<g id="Layer0_0_MEMBER_3_MEMBER_3_MEMBER_8_FILL">
<path fill="#FEC554" stroke="none" d="
M 139.95 98.4
Q 141.1 98.95 142.15 98.25 143.2 97.5 142.15 97.15 141.35 96.9 140.55 97.65
L 139.95 98.4 Z"/>
</g>

<g id="Layer0_0_MEMBER_3_MEMBER_3_MEMBER_9_FILL">
<path fill="#FEC554" stroke="none" d="
M 142.6 88.5
Q 143.75 89 144.8 88.3 145.85 87.6 144.8 87.25 144 86.95 143.25 87.7
L 142.6 88.5 Z"/>
</g>

<g id="Layer0_0_MEMBER_3_MEMBER_3_MEMBER_10_FILL">
<path fill="#FEC554" stroke="none" d="
M 150.55 102.25
Q 151.7 102.75 152.75 102.05 153.8 101.35 152.75 101 151.95 100.7 151.15 101.45
L 150.55 102.25 Z"/>
</g>

<g id="Layer0_0_MEMBER_3_MEMBER_3_MEMBER_11_FILL">
<path fill="#FEC554" stroke="none" d="
M 130.75 90.8
Q 131.8 91.5 132.95 91 132.7 90.6 132.3 90.2 131.55 89.45 130.75 89.75 129.7 90.05 130.75 90.8 Z"/>
</g>

<g id="Layer0_0_MEMBER_3_MEMBER_3_MEMBER_12_FILL">
<path fill="#FEC554" stroke="none" d="
M 153 89.45
Q 154.05 90.15 155.2 89.65 155 89.25 154.6 88.85 153.8 88.1 153 88.4 151.95 88.75 153 89.45 Z"/>
</g>

<g id="Layer0_0_MEMBER_3_MEMBER_3_MEMBER_13_FILL">
<path fill="#FEC554" stroke="none" d="
M 129.4 99
Q 130.45 99.7 131.65 99.2 130.7 97.5 129.4 97.95 128.35 98.25 129.4 99 Z"/>
</g>

<g id="Layer0_0_MEMBER_3_MEMBER_3_MEMBER_14_FILL">
<path fill="#FEC554" stroke="none" d="
M 134.45 94.45
Q 135.45 95.25 135.7 93 135.15 93.15 134.7 93.45 133.85 93.95 134.45 94.45 Z"/>
</g>

<g id="Layer0_0_MEMBER_3_MEMBER_3_MEMBER_15_FILL">
<path fill="#FEC554" stroke="none" d="
M 149.35 86.4
Q 149.85 86.55 150.4 86.55 150.2 86 149.85 85.6 149.25 84.8 148.8 85.45 148.35 86.1 149.35 86.4 Z"/>
</g>

<g id="Layer0_0_MEMBER_3_MEMBER_3_MEMBER_16_FILL">
<path fill="#FEC554" stroke="none" d="
M 153.1 95.7
Q 154.1 96.5 154.35 94.25 153.8 94.4 153.35 94.7 152.5 95.2 153.1 95.7 Z"/>
</g>

<g id="Layer0_0_MEMBER_3_MEMBER_3_MEMBER_17_FILL">
<path fill="#FEC554" stroke="none" d="
M 140.2 103.25
Q 141.15 104.05 141.45 101.8 140.9 101.95 140.45 102.25 139.6 102.75 140.2 103.25 Z"/>
</g>

<g id="Layer0_0_MEMBER_3_MEMBER_3_MEMBER_18_FILL">
<path fill="#FEC554" stroke="none" d="
M 136.6 87.95
Q 137.1 88.15 137.65 88.2 136.95 86 136.15 86.95 135.65 87.6 136.6 87.95 Z"/>
</g>

<g id="Layer0_0_MEMBER_3_MEMBER_3_MEMBER_19_FILL">
<path fill="#FEC554" stroke="none" d="
M 133.6 101.6
Q 134.75 101.05 132.8 99.85
L 132.75 100.95
Q 132.9 101.95 133.6 101.6 Z"/>
</g>

<g id="Layer0_0_MEMBER_3_MEMBER_3_MEMBER_20_FILL">
<path fill="#FEC554" stroke="none" d="
M 141.55 92.3
L 140.55 91.95 140.9 92.95
Q 141.35 93.85 141.9 93.3 142.45 92.75 141.55 92.3 Z"/>
</g>

<g id="Layer0_0_MEMBER_3_MEMBER_3_MEMBER_21_FILL">
<path fill="#A24114" stroke="none" d="
M 134.2 97.1
L 132.95 95.45 132.15 96.85 134.2 97.1 Z"/>
</g>

<g id="Layer0_0_MEMBER_3_MEMBER_3_MEMBER_22_FILL">
<path fill="#A24114" stroke="none" d="
M 140.6 96.3
L 141 94.65 138.85 95.7 140.6 96.3 Z"/>
</g>

<g id="Layer0_0_MEMBER_3_MEMBER_3_MEMBER_23_FILL">
<path fill="#A24114" stroke="none" d="
M 138.4 101.75
L 136.8 99.6 136 101.65 138.4 101.75 Z"/>
</g>

<g id="Layer0_0_MEMBER_3_MEMBER_3_MEMBER_24_FILL">
<path fill="#A24114" stroke="none" d="
M 147.4 97.85
L 146.8 95.85
Q 146.45 96.25 146.15 96.65 145.5 97.4 145.6 97.45
L 147.4 97.85 Z"/>
</g>

<g id="Layer0_0_MEMBER_3_MEMBER_3_MEMBER_25_FILL">
<path fill="#A24114" stroke="none" d="
M 155.2 98.2
L 155.2 96.4 153.9 97.3 155.2 98.2 Z"/>
</g>

<g id="Layer0_0_MEMBER_3_MEMBER_3_MEMBER_26_FILL">
<path fill="#A24114" stroke="none" d="
M 149.9 99.85
Q 149.7 100 148.2 99.6
L 148.3 102
Q 150.15 99.7 149.9 99.85 Z"/>
</g>

<g id="Layer0_0_MEMBER_3_MEMBER_3_MEMBER_27_FILL">
<path fill="#A24114" stroke="none" d="
M 154.2 91.95
L 152.85 91.05 152.3 92.5 154.2 91.95 Z"/>
</g>

<g id="Layer0_0_MEMBER_3_MEMBER_3_MEMBER_28_FILL">
<path fill="#A24114" stroke="none" d="
M 159.45 89.85
L 157.35 88.7 158.45 91.05 159.45 89.85 Z"/>
</g>

<g id="Layer0_0_MEMBER_3_MEMBER_3_MEMBER_29_FILL">
<path fill="#A24114" stroke="none" d="
M 158.85 95.35
L 158.4 93.8 157.15 94.65 158.85 95.35 Z"/>
</g>

<g id="Layer0_0_MEMBER_3_MEMBER_3_MEMBER_30_FILL">
<path fill="#A24114" stroke="none" d="
M 146.3 90.8
L 145.25 89.85 144.85 91.25 146.3 90.8 Z"/>
</g>

<g id="Layer0_0_MEMBER_3_MEMBER_3_MEMBER_31_FILL">
<path fill="#A24114" stroke="none" d="
M 138.1 89.65
L 136 89.85 137.95 91.05 138.1 89.65 Z"/>
</g>

<g id="Layer0_0_MEMBER_3_MEMBER_3_MEMBER_32_FILL">
<path fill="#A24114" stroke="none" d="
M 133.75 87.95
L 133.35 86.55 132.15 87.65
Q 133.85 88.1 133.75 87.95 Z"/>
</g>

<g id="Layer0_0_MEMBER_3_MEMBER_3_MEMBER_33_FILL">
<path fill="#A24114" stroke="none" d="
M 141.45 85.95
L 139.75 85.85 140.7 87.25 141.45 85.95 Z"/>
</g>

<g id="Layer0_0_MEMBER_3_MEMBER_3_MEMBER_34_FILL">
<path fill="#A24114" stroke="none" d="
M 147.8 85.6
L 146.3 84.9 146.75 86.55 147.8 85.6 Z"/>
</g>

<g id="Layer0_0_MEMBER_3_MEMBER_4_MEMBER_0_FILL">
<path fill="#EA2E33" stroke="none" d="
M 159.9 90.95
L 159.9 89.25 128.3 89.25 128.3 90.95 159.9 90.95 Z"/>
</g>

<g id="Layer0_0_MEMBER_3_MEMBER_4_MEMBER_1_FILL">
<path fill="#EA2E33" stroke="none" d="
M 159.9 90.65
Q 159.9 87.15 155.25 84.7 150.65 82.25 144.1 82.25 137.55 82.25 132.9 84.7 128.3 87.15 128.3 90.65 128.3 94.15 132.9 96.6 137.55 99.05 144.1 99.05 150.65 99.05 155.25 96.6 159.9 94.15 159.9 90.65 Z"/>
</g>

<g id="Layer0_0_MEMBER_3_MEMBER_4_MEMBER_2_FILL">
<path fill="#FD6A6C" stroke="none" d="
M 159.9 89.3
Q 159.9 85.8 155.25 83.35 150.65 80.9 144.1 80.9 137.55 80.9 132.9 83.35 128.3 85.8 128.3 89.3 128.3 92.8 132.9 95.25 137.55 97.7 144.1 97.7 150.65 97.7 155.25 95.25 159.9 92.8 159.9 89.3 Z"/>
</g>

<g id="Layer0_0_MEMBER_3_MEMBER_4_MEMBER_3_FILL">
<path fill="#FC4549" stroke="none" d="
M 158.25 89.3
Q 158.25 86.4 154.1 84.3 149.95 82.25 144.1 82.25 138.2 82.25 134.05 84.3 129.9 86.4 129.9 89.3 129.9 92.25 134.05 94.35 138.2 96.4 144.1 96.4 149.95 96.4 154.1 94.35 158.25 92.25 158.25 89.3 Z"/>
</g>

<g id="Layer0_0_MEMBER_3_MEMBER_4_MEMBER_4_FILL">
<path fill="#EA2E33" stroke="none" d="
M 134.65 92.9
Q 135.55 92.9 136.8 91.75 138.05 90.55 138 89.7 137.95 89.15 138.55 88.5 139.2 87.65 140.45 87.1 142.2 86.3 145.7 86 147.55 85.9 148.6 84.85 149.7 83.8 148.2 83.45 145.75 82.95 142.8 83.05 137.9 83.25 134.55 85.25 131.15 87.25 132.15 90.25 133.05 92.95 134.65 92.9 Z"/>
</g>

<g id="Layer0_0_MEMBER_3_MEMBER_4_MEMBER_5_FILL">
<path fill="#EA2E33" stroke="none" d="
M 139.45 91.05
Q 138 91.85 137.35 92.85 136.6 94.1 138.25 94.6 142 95.7 146.05 95.3 149.65 94.9 152.75 93.45 155.6 92.1 156.3 90.05 157 88.1 155.3 86.5 154.15 85.45 152.95 85.2 151.9 84.95 151.15 85.45 150.45 85.9 149.7 88 149.1 89.6 146.75 90.1 146 90.25 142.8 90.45 140.4 90.55 139.45 91.05 Z"/>
</g>

<g id="Layer0_0_MEMBER_3_MEMBER_4_MEMBER_6_FILL">
<path fill="#FD6A6C" stroke="none" d="
M 144.9 84.55
Q 145.1 84.9 145.35 85.25 146.45 83.8 145.15 83.8 144.6 83.85 144.9 84.55 Z"/>
</g>

<g id="Layer0_0_MEMBER_3_MEMBER_4_MEMBER_7_FILL">
<path fill="#FD6A6C" stroke="none" d="
M 142.8 84.65
Q 143.25 85.05 143.85 85.4 143.85 84.95 143.7 84.55 143.35 83.7 142.45 83.8 141.85 83.9 142.8 84.65 Z"/>
</g>

<g id="Layer0_0_MEMBER_3_MEMBER_4_MEMBER_8_FILL">
<path fill="#FD6A6C" stroke="none" d="
M 140.4 85.05
Q 141 85.35 141.75 85.6 140.85 83.95 139.8 84.25 139.2 84.45 140.4 85.05 Z"/>
</g>

<g id="Layer0_0_MEMBER_3_MEMBER_4_MEMBER_9_FILL">
<path fill="#FD6A6C" stroke="none" d="
M 137.85 85.95
Q 138.65 86.2 139.6 86.4 139.35 85.9 138.9 85.5 138 84.65 137.1 85 136.25 85.4 137.85 85.95 Z"/>
</g>

<g id="Layer0_0_MEMBER_3_MEMBER_4_MEMBER_10_FILL">
<path fill="#FD6A6C" stroke="none" d="
M 135.9 87.3
Q 136.85 87.45 137.95 87.55 137.55 87.05 136.9 86.65 135.65 85.9 134.65 86.5 134 86.95 135.9 87.3 Z"/>
</g>

<g id="Layer0_0_MEMBER_3_MEMBER_4_MEMBER_11_FILL">
<path fill="#FD6A6C" stroke="none" d="
M 134.3 89.3
Q 135.75 89.6 137 88.75 134.45 87.9 133.6 88.5 132.85 89.05 134.3 89.3 Z"/>
</g>

<g id="Layer0_0_MEMBER_3_MEMBER_4_MEMBER_12_FILL">
<path fill="#FD6A6C" stroke="none" d="
M 135 91.55
Q 136.45 91.25 136.8 90.1 135 90.15 134.2 90.75 133.85 90.95 134.15 91.3 134.45 91.65 135 91.55 Z"/>
</g>

<g id="Layer0_0_MEMBER_3_MEMBER_4_MEMBER_13_FILL">
<path fill="#FD6A6C" stroke="none" d="
M 151.05 86.9
L 151.65 87
Q 152.4 87.1 153.15 87.05 154.05 87 153.85 86.65 153.7 86.3 152.85 86.25 152.25 86.2 151.6 86.55
L 151.05 86.9 Z"/>
</g>

<g id="Layer0_0_MEMBER_3_MEMBER_4_MEMBER_14_FILL">
<path fill="#FD6A6C" stroke="none" d="
M 140.5 91.8
L 140.45 91.45
Q 140.1 91.65 139.75 91.9 139.05 92.45 138.85 92.8 138.6 93.25 139.3 93.45 139.95 93.65 140.25 92.9 140.5 92.25 140.5 91.8 Z"/>
</g>

<g id="Layer0_0_MEMBER_3_MEMBER_4_MEMBER_15_FILL">
<path fill="#FD6A6C" stroke="none" d="
M 142.65 91.75
L 142.35 91.45 142.1 91.85
Q 141.85 92.35 141.9 92.9 141.95 93.6 142.5 93.65 143.1 93.75 143.05 92.9 143 92.2 142.65 91.75 Z"/>
</g>

<g id="Layer0_0_MEMBER_3_MEMBER_4_MEMBER_16_FILL">
<path fill="#FD6A6C" stroke="none" d="
M 144.9 91.5
L 144.4 91.2 144.45 91.8
Q 144.5 92.45 144.65 92.9 144.8 93.55 145.6 93.6 146.35 93.65 145.9 92.75 145.45 91.95 144.9 91.5 Z"/>
</g>

<g id="Layer0_0_MEMBER_3_MEMBER_4_MEMBER_17_FILL">
<path fill="#FD6A6C" stroke="none" d="
M 147.7 91.3
L 146.8 91.05 147.15 91.7
Q 147.6 92.4 148.15 92.9 148.85 93.5 149.3 93.2 149.8 92.85 149.2 92.2 148.65 91.65 147.7 91.3 Z"/>
</g>

<g id="Layer0_0_MEMBER_3_MEMBER_4_MEMBER_18_FILL">
<path fill="#FD6A6C" stroke="none" d="
M 149.85 90.45
L 148.9 90.25 149.5 90.9
Q 150.2 91.6 150.9 91.95 151.7 92.4 152.2 92.1 152.7 91.75 151.75 91.2 150.95 90.75 149.85 90.45 Z"/>
</g>

<g id="Layer0_0_MEMBER_3_MEMBER_4_MEMBER_19_FILL">
<path fill="#FD6A6C" stroke="none" d="
M 151.8 89.05
L 150.5 89.05 151.55 89.7
Q 152.75 90.35 153.45 90.45 154.35 90.6 154.65 90 155 89.35 154.05 89.2 153.25 89.1 151.8 89.05 Z"/>
</g>

<g id="Layer0_0_MEMBER_3_MEMBER_4_MEMBER_20_FILL">
<path fill="#FD6A6C" stroke="none" d="
M 151.2 88.05
L 152.45 88.25
Q 153.8 88.5 154.4 88.45 155.15 88.4 154.75 88.1 154.4 87.8 153.65 87.7 153.1 87.65 152.1 87.85
L 151.2 88.05 Z"/>
</g>

<g id="Layer0_0_MEMBER_3_MEMBER_5_MEMBER_0_FILL">
<path fill="#B5E031" stroke="none" d="
M 162.35 89.2
Q 165.25 88.2 165.35 86.2 165.4 84.85 163.5 84.15 161.1 83.6 160.05 83.35 159.5 83.2 159.2 82.6 159 82.15 158.4 82.35 154.85 83.65 153.15 84.2 150.3 85.05 147.5 84.95 143.75 84.85 137.85 84.25 129.45 83.45 128.15 83.35 127.65 83.35 127.45 83.8 126.05 83.85 124.85 84.55 123.45 85.35 124.6 86.3 125.5 87 125.8 87.35 126.4 88.1 126 88.6 125.3 89.45 125.1 90.5 124.9 91.65 125.4 92.35 125.6 92.65 127.2 92.25 129 91.75 130.05 92.4 130.55 92.7 130.55 94.1 130.55 95.35 132.05 95.9 132.55 96.1 133.75 95.4 135 94.7 135.35 94.75 136.65 95 137.05 96.85 137.5 98.75 138.25 99.1 138.95 99.45 140.95 96.6 142.65 94.2 144.4 96.8 145.5 98.4 146.15 99.05 147.05 99.95 147.9 99.85 149.95 99.65 150.6 97.6 150.85 95.55 151.05 95.4 152.1 94.55 154.1 95.65 156.35 96.9 158 96.2 159.05 95.75 158.8 94 158.45 91.85 158.65 91.4 159.15 90.35 162.35 89.2 Z"/>
</g>

<g id="Layer0_0_MEMBER_3_MEMBER_5_MEMBER_1_FILL">
<path fill="#A1C426" stroke="none" d="
M 131.4 89.5
L 130.15 87.9
Q 129.5 88 128.8 88.15 127.35 88.55 126.9 89.1 125.8 90.6 126.5 91.05 127.1 91.45 131.4 89.5 Z"/>
</g>

<g id="Layer0_0_MEMBER_3_MEMBER_5_MEMBER_2_FILL">
<path fill="#A1C426" stroke="none" d="
M 136.15 92.25
L 133.45 90.8
Q 133.35 90.95 133.15 91.25 132.8 91.9 132.5 92.75 132.1 93.75 132.75 94.05 133.35 94.35 134.45 93.7 135.95 92.75 136.15 92.25 Z"/>
</g>

<g id="Layer0_0_MEMBER_3_MEMBER_5_MEMBER_3_FILL">
<path fill="#A1C426" stroke="none" d="
M 139.05 94.1
L 138.2 94.35 138.15 95.25
Q 138.1 96.3 138.2 96.95 138.3 97.75 138.95 97.05 139.65 96.3 139.8 95.1 139.9 94.05 139.05 94.1 Z"/>
</g>

<g id="Layer0_0_MEMBER_3_MEMBER_5_MEMBER_4_FILL">
<path fill="#A1C426" stroke="none" d="
M 147.45 93.4
L 144.4 94.25 146.7 96.95
Q 147.45 97.85 148.35 97.4 149.3 96.9 148.95 95.7 148.65 94.7 148.05 93.95
L 147.45 93.4 Z"/>
</g>

<g id="Layer0_0_MEMBER_3_MEMBER_5_MEMBER_5_FILL">
<path fill="#A1C426" stroke="none" d="
M 155 91.05
L 151.8 92.5 153 92.95
Q 154.3 93.55 155.05 94.1 156.1 94.85 156.65 94.65 157.3 94.45 156.6 93.1 155.95 91.9 155.4 91.35
L 155 91.05 Z"/>
</g>

<g id="Layer0_0_MEMBER_3_MEMBER_5_MEMBER_6_FILL">
<path fill="#A1C426" stroke="none" d="
M 161.35 85.85
L 159.1 87.85
Q 159.25 87.8 161.25 87.75 163.25 87.6 163.5 86.95 163.9 85.85 161.35 85.85 Z"/>
</g>

<g id="Layer0_0_MEMBER_3_MEMBER_6_MEMBER_0_MEMBER_0_FILL">
<path fill="#D07437" stroke="none" d="
M 126.35 82.4
Q 130 90.5 146.6 88.1 152.95 87.15 156.05 83.6 158.9 80.35 158.55 75.55 156.05 72.4 152.3 70.65 148.45 68.8 144.1 68.8 137.5 68.8 132.5 72.7 127.55 76.55 126.35 82.4 Z"/>
</g>

<g id="Layer0_0_MEMBER_3_MEMBER_6_MEMBER_0_MEMBER_1_FILL">
<path fill="#AF531E" stroke="none" d="
M 162.2 85.05
L 162.1 84.3
Q 161.75 79.55 158.55 75.55 158.9 80.35 156.05 83.6 152.95 87.15 146.6 88.1 130 90.5 126.35 82.4 126.15 83.3 126.05 84.3
L 126 85.25
Q 126.1 89.15 131.4 91.95 136.7 94.7 144.1 94.7 151.5 94.7 156.8 91.95 162.05 89.15 162.15 85.25
L 162.2 85.25 162.2 85.05 Z"/>
</g>

<g id="Layer0_0_MEMBER_3_MEMBER_6_MEMBER_1_FILL">
<path fill="#AF531E" stroke="none" d="
M 139.45 73.6
Q 139.45 73.25 139.15 73.05 138.8 72.8 138.4 72.8 137.95 72.8 137.65 73.05 137.3 73.25 137.3 73.6 137.3 73.95 137.65 74.15 137.95 74.4 138.4 74.4 138.8 74.4 139.15 74.15 139.45 73.95 139.45 73.6 Z"/>
</g>

<g id="Layer0_0_MEMBER_3_MEMBER_6_MEMBER_2_FILL">
<path fill="#AF531E" stroke="none" d="
M 145.8 82.3
Q 145.8 81.95 145.5 81.7 145.15 81.45 144.7 81.45 144.3 81.45 143.95 81.7 143.65 81.95 143.65 82.3 143.65 82.6 143.95 82.85 144.3 83.1 144.7 83.1 145.15 83.1 145.5 82.85 145.8 82.6 145.8 82.3 Z"/>
</g>

<g id="Layer0_0_MEMBER_3_MEMBER_6_MEMBER_3_FILL">
<path fill="#AF531E" stroke="none" d="
M 134.25 75.65
Q 134.15 75.35 133.75 75.25 133.35 75.15 132.95 75.35 132.05 75.8 132.3 76.5 132.45 76.8 132.85 76.9 133.25 77 133.6 76.8 134.6 76.35 134.25 75.65 Z"/>
</g>

<g id="Layer0_0_MEMBER_3_MEMBER_6_MEMBER_4_FILL">
<path fill="#AF531E" stroke="none" d="
M 145.5 71.65
Q 145.5 70.85 144.45 70.85 144.05 70.85 143.7 71.1 143.4 71.3 143.4 71.65 143.4 71.95 143.7 72.2 144.05 72.45 144.45 72.45 144.9 72.45 145.2 72.2 145.5 71.95 145.5 71.65 Z"/>
</g>

<g id="Layer0_0_MEMBER_3_MEMBER_6_MEMBER_5_FILL">
<path fill="#AF531E" stroke="none" d="
M 147.95 76.45
Q 148.05 76.1 147.8 75.8 147.55 75.55 147.1 75.45 146.7 75.35 146.35 75.5 146 75.65 145.9 76 145.85 76.3 146.1 76.6 146.35 76.9 146.75 77 147.2 77.1 147.55 76.9 147.9 76.75 147.95 76.45 Z"/>
</g>

<g id="Layer0_0_MEMBER_3_MEMBER_6_MEMBER_6_FILL">
<path fill="#AF531E" stroke="none" d="
M 152.95 80.4
Q 153.3 79.7 152.4 79.2 152.05 79 151.65 79.05 151.25 79.1 151.1 79.4 150.95 79.65 151.1 80 151.25 80.4 151.65 80.6 152 80.85 152.4 80.75 152.8 80.7 152.95 80.4 Z"/>
</g>

<g id="Layer0_0_MEMBER_3_MEMBER_6_MEMBER_7_FILL">
<path fill="#AF531E" stroke="none" d="
M 139.45 79.8
Q 139.35 79 138.3 79.1 137.85 79.15 137.6 79.4 137.3 79.65 137.35 80 137.35 80.35 137.7 80.55 138.05 80.75 138.45 80.7 138.9 80.65 139.2 80.4 139.5 80.1 139.45 79.8 Z"/>
</g>

<g id="Layer0_0_MEMBER_3_MEMBER_6_MEMBER_8_FILL">
<path fill="#AF531E" stroke="none" d="
M 133.65 80.1
Q 133.45 79.85 133.1 79.8 132.7 79.8 132.35 80.05 131.95 80.3 131.85 80.7 131.75 81.05 131.95 81.3 132.15 81.55 132.55 81.6 132.9 81.6 133.25 81.35 133.6 81.15 133.75 80.75 133.85 80.35 133.65 80.1 Z"/>
</g>

<g id="Layer0_0_MEMBER_3_MEMBER_6_MEMBER_9_FILL">
<path fill="#AF531E" stroke="none" d="
M 155.95 76.85
Q 156.45 76.25 155.8 75.5 155.5 75.2 155.1 75.15 154.7 75.1 154.45 75.3 154.2 75.55 154.25 75.9 154.3 76.3 154.65 76.65 154.95 76.95 155.35 77 155.75 77.1 155.95 76.85 Z"/>
</g>

<g id="Layer0_0_MEMBER_3_MEMBER_6_MEMBER_10_MEMBER_0_FILL">
<path fill="#FEC554" stroke="none" d="
M 134.2 83.25
Q 136.55 82.2 135.7 81.6 134.95 81.05 134.5 82.1 134.3 82.65 134.2 83.25 Z"/>
</g>

<g id="Layer0_0_MEMBER_3_MEMBER_6_MEMBER_10_MEMBER_1_FILL">
<path fill="#FEC554" stroke="none" d="
M 148.7 73.7
Q 151 72.6 150.2 72.05 149.45 71.5 149 72.55 148.8 73.1 148.7 73.7 Z"/>
</g>

<g id="Layer0_0_MEMBER_3_MEMBER_6_MEMBER_10_MEMBER_2_FILL">
<path fill="#FEC554" stroke="none" d="
M 141.85 77.65
Q 142.05 77.1 142.05 76.6 142.05 75.6 141.15 76.05 140.5 76.35 141.1 77.05 141.4 77.4 141.85 77.65 Z"/>
</g>

<g id="Layer0_0_MEMBER_3_MEMBER_6_MEMBER_10_MEMBER_3_FILL">
<path fill="#FEC554" stroke="none" d="
M 131.4 78.55
Q 131.6 77.95 131.55 77.45 131.55 76.45 130.65 76.9 130 77.25 130.65 77.95 130.95 78.3 131.4 78.55 Z"/>
</g>

<g id="Layer0_0_MEMBER_3_MEMBER_6_MEMBER_10_MEMBER_4_FILL">
<path fill="#FEC554" stroke="none" d="
M 140.7 83.45
Q 141.8 83.4 140.45 81.5
L 139.9 82.5
Q 139.6 83.5 140.7 83.45 Z"/>
</g>

<g id="Layer0_0_MEMBER_3_MEMBER_6_MEMBER_10_MEMBER_5_FILL">
<path fill="#FEC554" stroke="none" d="
M 146.05 79.1
L 147.05 80.1
Q 148.1 80.9 148.65 79.85 149 79.2 146.05 79.1 Z"/>
</g>

<g id="Layer0_0_MEMBER_3_MEMBER_6_MEMBER_10_MEMBER_6_FILL">
<path fill="#FEC554" stroke="none" d="
M 139.7 70.75
L 140.7 71.75
Q 141.75 72.6 142.3 71.55 142.7 70.85 139.7 70.75 Z"/>
</g>

<g id="Layer0_0_MEMBER_3_MEMBER_6_MEMBER_10_MEMBER_7_FILL">
<path fill="#FEC554" stroke="none" d="
M 150.4 76.05
Q 150.15 76.8 151.5 77 152.15 77.1 152.85 77.05 152.35 76.5 151.8 76.05 150.7 75.25 150.4 76.05 Z"/>
</g>

<g id="Layer0_0_MEMBER_3_MEMBER_6_MEMBER_10_MEMBER_8_FILL">
<path fill="#FEC554" stroke="none" d="
M 136.1 76.5
Q 135.85 77.2 137.2 77.4 137.9 77.5 138.6 77.45 138.1 76.9 137.5 76.45 136.4 75.65 136.1 76.5 Z"/>
</g>
</defs>

<g transform="matrix( 8, 0, 0, 8, -637.2,-43.5) ">
<use xlink:href="#Layer0_0_MEMBER_0_MEMBER_0_MEMBER_0_FILL"/>
</g>

<g transform="matrix( 8, 0, 0, 8, -637.2,-43.5) ">
<use xlink:href="#Layer0_0_MEMBER_0_MEMBER_0_MEMBER_1_FILL"/>
</g>

<g transform="matrix( 8, 0, 0, 8, -637.2,-43.5) ">
<use xlink:href="#Layer0_0_MEMBER_0_MEMBER_0_MEMBER_2_FILL"/>
</g>

<g transform="matrix( 8, 0, 0, 8, -637.2,-43.5) ">
<use xlink:href="#Layer0_0_MEMBER_0_MEMBER_0_MEMBER_3_FILL"/>
</g>

<g transform="matrix( 8, 0, 0, 8, -637.2,-43.5) ">
<use xlink:href="#Layer0_0_MEMBER_0_MEMBER_0_MEMBER_4_FILL"/>
</g>

<g transform="matrix( 8, 0, 0, 8, -637.2,-43.5) ">
<use xlink:href="#Layer0_0_MEMBER_0_MEMBER_0_MEMBER_5_FILL"/>
</g>

<g transform="matrix( 8, 0, 0, 8, -637.2,-43.5) ">
<use xlink:href="#Layer0_0_MEMBER_0_MEMBER_0_MEMBER_6_FILL"/>
</g>

<g transform="matrix( 8, 0, 0, 8, -637.2,-43.5) ">
<use xlink:href="#Layer0_0_MEMBER_0_MEMBER_0_MEMBER_7_FILL"/>
</g>

<g transform="matrix( 8, 0, 0, 8, -637.2,-43.5) ">
<use xlink:href="#Layer0_0_MEMBER_0_MEMBER_0_MEMBER_8_FILL"/>
</g>

<g transform="matrix( 8, 0, 0, 8, -637.2,-43.5) ">
<use xlink:href="#Layer0_0_MEMBER_0_MEMBER_0_MEMBER_9_FILL"/>
</g>

<g transform="matrix( 8, 0, 0, 8, -637.2,-43.5) ">
<use xlink:href="#Layer0_0_MEMBER_0_MEMBER_0_MEMBER_10_FILL"/>
</g>

<g transform="matrix( 8, 0, 0, 8, -637.2,-43.5) ">
<use xlink:href="#Layer0_0_MEMBER_0_MEMBER_1_FILL"/>
</g>

<g transform="matrix( 8, 0, 0, 8, -637.2,-43.5) ">
<use xlink:href="#Layer0_0_MEMBER_0_MEMBER_2_FILL"/>
</g>

<g transform="matrix( 8, 0, 0, 8, -637.2,-43.5) ">
<use xlink:href="#Layer0_0_MEMBER_0_MEMBER_3_FILL"/>
</g>

<g transform="matrix( 8, 0, 0, 8, -637.2,-43.5) ">
<use xlink:href="#Layer0_0_MEMBER_0_MEMBER_4_FILL"/>
</g>

<g transform="matrix( 8, 0, 0, 8, -637.2,-43.5) ">
<use xlink:href="#Layer0_0_MEMBER_0_MEMBER_5_FILL"/>
</g>

<g transform="matrix( 8, 0, 0, 8, -637.2,-43.5) ">
<use xlink:href="#Layer0_0_MEMBER_0_MEMBER_6_FILL"/>
</g>

<g transform="matrix( 8, 0, 0, 8, -637.2,-43.5) ">
<use xlink:href="#Layer0_0_MEMBER_0_MEMBER_7_FILL"/>
</g>

<g transform="matrix( 8, 0, 0, 8, -637.2,-43.5) ">
<use xlink:href="#Layer0_0_MEMBER_0_MEMBER_8_FILL"/>
</g>

<g transform="matrix( 8, 0, 0, 8, -637.2,-43.5) ">
<use xlink:href="#Layer0_0_MEMBER_0_MEMBER_9_FILL"/>
</g>

<g transform="matrix( 8, 0, 0, 8, -637.2,-43.5) ">
<use xlink:href="#Layer0_0_MEMBER_0_MEMBER_10_FILL"/>
</g>

<g transform="matrix( 8, 0, 0, 8, -637.2,-43.5) ">
<use xlink:href="#Layer0_0_MEMBER_0_MEMBER_11_MEMBER_0_FILL"/>
</g>

<g transform="matrix( 8, 0, 0, 8, -637.2,-43.5) ">
<use xlink:href="#Layer0_0_MEMBER_0_MEMBER_11_MEMBER_1_FILL"/>
</g>

<g transform="matrix( 8, 0, 0, 8, -637.2,-43.5) ">
<use xlink:href="#Layer0_0_MEMBER_0_MEMBER_12_MEMBER_0_MEMBER_0_FILL"/>
</g>

<g transform="matrix( 8, 0, 0, 8, -637.2,-43.5) ">
<use xlink:href="#Layer0_0_MEMBER_0_MEMBER_12_MEMBER_0_MEMBER_1_FILL"/>
</g>

<g transform="matrix( 8, 0, 0, 8, -637.2,-43.5) ">
<use xlink:href="#Layer0_0_MEMBER_0_MEMBER_12_MEMBER_1_FILL"/>
</g>

<g transform="matrix( 8, 0, 0, 8, -637.2,-43.5) ">
<use xlink:href="#Layer0_0_MEMBER_0_MEMBER_12_MEMBER_2_FILL"/>
</g>

<g transform="matrix( 8, 0, 0, 8, -637.2,-43.5) ">
<use xlink:href="#Layer0_0_MEMBER_1_MEMBER_0_MEMBER_0_FILL"/>
</g>

<g transform="matrix( 8, 0, 0, 8, -637.2,-43.5) ">
<use xlink:href="#Layer0_0_MEMBER_1_MEMBER_0_MEMBER_1_FILL"/>
</g>

<g transform="matrix( 8, 0, 0, 8, -637.2,-43.5) ">
<use xlink:href="#Layer0_0_MEMBER_1_MEMBER_0_MEMBER_2_FILL"/>
</g>

<g transform="matrix( 8, 0, 0, 8, -637.2,-43.5) ">
<use xlink:href="#Layer0_0_MEMBER_1_MEMBER_0_MEMBER_3_FILL"/>
</g>

<g transform="matrix( 8, 0, 0, 8, -637.2,-43.5) ">
<use xlink:href="#Layer0_0_MEMBER_1_MEMBER_0_MEMBER_4_FILL"/>
</g>

<g transform="matrix( 8, 0, 0, 8, -637.2,-43.5) ">
<use xlink:href="#Layer0_0_MEMBER_1_MEMBER_0_MEMBER_5_FILL"/>
</g>

<g transform="matrix( 8, 0, 0, 8, -637.2,-43.5) ">
<use xlink:href="#Layer0_0_MEMBER_1_MEMBER_0_MEMBER_6_FILL"/>
</g>

<g transform="matrix( 8, 0, 0, 8, -637.2,-43.5) ">
<use xlink:href="#Layer0_0_MEMBER_1_MEMBER_0_MEMBER_7_FILL"/>
</g>

<g transform="matrix( 8, 0, 0, 8, -637.2,-43.5) ">
<use xlink:href="#Layer0_0_MEMBER_1_MEMBER_0_MEMBER_8_FILL"/>
</g>

<g transform="matrix( 8, 0, 0, 8, -637.2,-43.5) ">
<use xlink:href="#Layer0_0_MEMBER_1_MEMBER_1_FILL"/>
</g>

<g transform="matrix( 8, 0, 0, 8, -637.2,-43.5) ">
<use xlink:href="#Layer0_0_MEMBER_1_MEMBER_2_FILL"/>
</g>

<g transform="matrix( 8, 0, 0, 8, -637.2,-43.5) ">
<use xlink:href="#Layer0_0_MEMBER_1_MEMBER_3_FILL"/>
</g>

<g transform="matrix( 8, 0, 0, 8, -637.2,-43.5) ">
<use xlink:href="#Layer0_0_MEMBER_1_MEMBER_4_MEMBER_0_FILL"/>
</g>

<g transform="matrix( 8, 0, 0, 8, -637.2,-43.5) ">
<use xlink:href="#Layer0_0_MEMBER_1_MEMBER_4_MEMBER_1_FILL"/>
</g>

<g transform="matrix( 8, 0, 0, 8, -637.2,-43.5) ">
<use xlink:href="#Layer0_0_MEMBER_1_MEMBER_5_MEMBER_0_FILL"/>
</g>

<g transform="matrix( 8, 0, 0, 8, -637.2,-43.5) ">
<use xlink:href="#Layer0_0_MEMBER_1_MEMBER_5_MEMBER_1_FILL"/>
</g>

<g transform="matrix( 8, 0, 0, 8, -637.2,-43.5) ">
<use xlink:href="#Layer0_0_MEMBER_1_MEMBER_5_MEMBER_2_FILL"/>
</g>

<g transform="matrix( 8, 0, 0, 8, -637.2,-43.5) ">
<use xlink:href="#Layer0_0_MEMBER_1_MEMBER_6_FILL"/>
</g>

<g transform="matrix( 8, 0, 0, 8, -637.2,-43.5) ">
<use xlink:href="#Layer0_0_MEMBER_1_MEMBER_7_FILL"/>
</g>

<g transform="matrix( 8, 0, 0, 8, -637.2,-43.5) ">
<use xlink:href="#Layer0_0_MEMBER_1_MEMBER_8_MEMBER_0_FILL"/>
</g>

<g transform="matrix( 8, 0, 0, 8, -637.2,-43.5) ">
<use xlink:href="#Layer0_0_MEMBER_1_MEMBER_8_MEMBER_1_FILL"/>
</g>

<g transform="matrix( 8, 0, 0, 8, -637.2,-43.5) ">
<use xlink:href="#Layer0_0_MEMBER_1_MEMBER_9_MEMBER_0_FILL"/>
</g>

<g transform="matrix( 8, 0, 0, 8, -637.2,-43.5) ">
<use xlink:href="#Layer0_0_MEMBER_1_MEMBER_9_MEMBER_1_FILL"/>
</g>

<g transform="matrix( 8, 0, 0, 8, -637.2,-43.5) ">
<use xlink:href="#Layer0_0_MEMBER_1_MEMBER_10_MEMBER_0_FILL"/>
</g>

<g transform="matrix( 8, 0, 0, 8, -637.2,-43.5) ">
<use xlink:href="#Layer0_0_MEMBER_1_MEMBER_10_MEMBER_1_FILL"/>
</g>

<g transform="matrix( 8, 0, 0, 8, -637.2,-43.5) ">
<use xlink:href="#Layer0_0_MEMBER_1_MEMBER_11_MEMBER_0_FILL"/>
</g>

<g transform="matrix( 8, 0, 0, 8, -637.2,-43.5) ">
<use xlink:href="#Layer0_0_MEMBER_1_MEMBER_11_MEMBER_1_FILL"/>
</g>

<g transform="matrix( 8, 0, 0, 8, -637.2,-43.5) ">
<use xlink:href="#Layer0_0_MEMBER_1_MEMBER_12_FILL"/>
</g>

<g transform="matrix( 8, 0, 0, 8, -637.2,-43.5) ">
<use xlink:href="#Layer0_0_MEMBER_1_MEMBER_13_FILL"/>
</g>

<g transform="matrix( 8, 0, 0, 8, -637.2,-43.5) ">
<use xlink:href="#Layer0_0_MEMBER_2_MEMBER_0_MEMBER_0_FILL"/>
</g>

<g transform="matrix( 8, 0, 0, 8, -637.2,-43.5) ">
<use xlink:href="#Layer0_0_MEMBER_2_MEMBER_0_MEMBER_1_MEMBER_0_FILL"/>
</g>

<g transform="matrix( 8, 0, 0, 8, -637.2,-43.5) ">
<use xlink:href="#Layer0_0_MEMBER_2_MEMBER_0_MEMBER_1_MEMBER_1_FILL"/>
</g>

<g transform="matrix( 8, 0, 0, 8, -637.2,-43.5) ">
<use xlink:href="#Layer0_0_MEMBER_2_MEMBER_0_MEMBER_1_MEMBER_2_FILL"/>
</g>

<g transform="matrix( 8, 0, 0, 8, -637.2,-43.5) ">
<use xlink:href="#Layer0_0_MEMBER_2_MEMBER_1_MEMBER_0_MEMBER_0_FILL"/>
</g>

<g transform="matrix( 8, 0, 0, 8, -637.2,-43.5) ">
<use xlink:href="#Layer0_0_MEMBER_2_MEMBER_1_MEMBER_0_MEMBER_1_FILL"/>
</g>

<g transform="matrix( 8, 0, 0, 8, -637.2,-43.5) ">
<use xlink:href="#Layer0_0_MEMBER_2_MEMBER_1_MEMBER_0_MEMBER_2_FILL"/>
</g>

<g transform="matrix( 8, 0, 0, 8, -637.2,-43.5) ">
<use xlink:href="#Layer0_0_MEMBER_2_MEMBER_1_MEMBER_0_MEMBER_3_FILL"/>
</g>

<g transform="matrix( 8, 0, 0, 8, -637.2,-43.5) ">
<use xlink:href="#Layer0_0_MEMBER_2_MEMBER_1_MEMBER_0_MEMBER_4_FILL"/>
</g>

<g transform="matrix( 8, 0, 0, 8, -637.2,-43.5) ">
<use xlink:href="#Layer0_0_MEMBER_2_MEMBER_1_MEMBER_0_MEMBER_5_FILL"/>
</g>

<g transform="matrix( 8, 0, 0, 8, -637.2,-43.5) ">
<use xlink:href="#Layer0_0_MEMBER_2_MEMBER_1_MEMBER_0_MEMBER_6_FILL"/>
</g>

<g transform="matrix( 8, 0, 0, 8, -637.2,-43.5) ">
<use xlink:href="#Layer0_0_MEMBER_2_MEMBER_1_MEMBER_0_MEMBER_7_FILL"/>
</g>

<g transform="matrix( 8, 0, 0, 8, -637.2,-43.5) ">
<use xlink:href="#Layer0_0_MEMBER_2_MEMBER_1_MEMBER_1_FILL"/>
</g>

<g transform="matrix( 8, 0, 0, 8, -637.2,-43.5) ">
<use xlink:href="#Layer0_0_MEMBER_2_MEMBER_1_MEMBER_2_FILL"/>
</g>

<g transform="matrix( 8, 0, 0, 8, -637.2,-43.5) ">
<use xlink:href="#Layer0_0_MEMBER_2_MEMBER_1_MEMBER_3_FILL"/>
</g>

<g transform="matrix( 8, 0, 0, 8, -637.2,-43.5) ">
<use xlink:href="#Layer0_0_MEMBER_2_MEMBER_1_MEMBER_4_FILL"/>
</g>

<g transform="matrix( 8, 0, 0, 8, -637.2,-43.5) ">
<use xlink:href="#Layer0_0_MEMBER_2_MEMBER_1_MEMBER_5_FILL"/>
</g>

<g transform="matrix( 8, 0, 0, 8, -637.2,-43.5) ">
<use xlink:href="#Layer0_0_MEMBER_2_MEMBER_1_MEMBER_6_FILL"/>
</g>

<g transform="matrix( 8, 0, 0, 8, -637.2,-43.5) ">
<use xlink:href="#Layer0_0_MEMBER_2_MEMBER_1_MEMBER_7_FILL"/>
</g>

<g transform="matrix( 8, 0, 0, 8, -637.2,-43.5) ">
<use xlink:href="#Layer0_0_MEMBER_2_MEMBER_1_MEMBER_8_FILL"/>
</g>

<g transform="matrix( 8, 0, 0, 8, -637.2,-43.5) ">
<use xlink:href="#Layer0_0_MEMBER_2_MEMBER_1_MEMBER_9_FILL"/>
</g>

<g transform="matrix( 8, 0, 0, 8, -637.2,-43.5) ">
<use xlink:href="#Layer0_0_MEMBER_2_MEMBER_1_MEMBER_10_FILL"/>
</g>

<g transform="matrix( 8, 0, 0, 8, -637.2,-43.5) ">
<use xlink:href="#Layer0_0_MEMBER_3_MEMBER_0_MEMBER_0_FILL"/>
</g>

<g transform="matrix( 8, 0, 0, 8, -637.2,-43.5) ">
<use xlink:href="#Layer0_0_MEMBER_3_MEMBER_0_MEMBER_1_FILL"/>
</g>

<g transform="matrix( 8, 0, 0, 8, -637.2,-43.5) ">
<use xlink:href="#Layer0_0_MEMBER_3_MEMBER_0_MEMBER_2_FILL"/>
</g>

<g transform="matrix( 8, 0, 0, 8, -637.2,-43.5) ">
<use xlink:href="#Layer0_0_MEMBER_3_MEMBER_1_MEMBER_0_FILL"/>
</g>

<g transform="matrix( 8, 0, 0, 8, -637.2,-43.5) ">
<use xlink:href="#Layer0_0_MEMBER_3_MEMBER_1_MEMBER_1_FILL"/>
</g>

<g transform="matrix( 8, 0, 0, 8, -637.2,-43.5) ">
<use xlink:href="#Layer0_0_MEMBER_3_MEMBER_1_MEMBER_2_FILL"/>
</g>

<g transform="matrix( 8, 0, 0, 8, -637.2,-43.5) ">
<use xlink:href="#Layer0_0_MEMBER_3_MEMBER_1_MEMBER_3_FILL"/>
</g>

<g transform="matrix( 8, 0, 0, 8, -637.2,-43.5) ">
<use xlink:href="#Layer0_0_MEMBER_3_MEMBER_1_MEMBER_4_FILL"/>
</g>

<g transform="matrix( 8, 0, 0, 8, -637.2,-43.5) ">
<use xlink:href="#Layer0_0_MEMBER_3_MEMBER_1_MEMBER_5_FILL"/>
</g>

<g transform="matrix( 8, 0, 0, 8, -637.2,-43.5) ">
<use xlink:href="#Layer0_0_MEMBER_3_MEMBER_1_MEMBER_6_FILL"/>
</g>

<g transform="matrix( 8, 0, 0, 8, -637.2,-43.5) ">
<use xlink:href="#Layer0_0_MEMBER_3_MEMBER_2_MEMBER_0_FILL"/>
</g>

<g transform="matrix( 8, 0, 0, 8, -637.2,-43.5) ">
<use xlink:href="#Layer0_0_MEMBER_3_MEMBER_2_MEMBER_1_FILL"/>
</g>

<g transform="matrix( 8, 0, 0, 8, -637.2,-43.5) ">
<use xlink:href="#Layer0_0_MEMBER_3_MEMBER_3_MEMBER_0_FILL"/>
</g>

<g transform="matrix( 8, 0, 0, 8, -637.2,-43.5) ">
<use xlink:href="#Layer0_0_MEMBER_3_MEMBER_3_MEMBER_1_FILL"/>
</g>

<g transform="matrix( 8, 0, 0, 8, -637.2,-43.5) ">
<use xlink:href="#Layer0_0_MEMBER_3_MEMBER_3_MEMBER_2_FILL"/>
</g>

<g transform="matrix( 8, 0, 0, 8, -637.2,-43.5) ">
<use xlink:href="#Layer0_0_MEMBER_3_MEMBER_3_MEMBER_3_FILL"/>
</g>

<g transform="matrix( 8, 0, 0, 8, -637.2,-43.5) ">
<use xlink:href="#Layer0_0_MEMBER_3_MEMBER_3_MEMBER_4_FILL"/>
</g>

<g transform="matrix( 8, 0, 0, 8, -637.2,-43.5) ">
<use xlink:href="#Layer0_0_MEMBER_3_MEMBER_3_MEMBER_5_FILL"/>
</g>

<g transform="matrix( 8, 0, 0, 8, -637.2,-43.5) ">
<use xlink:href="#Layer0_0_MEMBER_3_MEMBER_3_MEMBER_6_FILL"/>
</g>

<g transform="matrix( 8, 0, 0, 8, -637.2,-43.5) ">
<use xlink:href="#Layer0_0_MEMBER_3_MEMBER_3_MEMBER_7_FILL"/>
</g>

<g transform="matrix( 8, 0, 0, 8, -637.2,-43.5) ">
<use xlink:href="#Layer0_0_MEMBER_3_MEMBER_3_MEMBER_8_FILL"/>
</g>

<g transform="matrix( 8, 0, 0, 8, -637.2,-43.5) ">
<use xlink:href="#Layer0_0_MEMBER_3_MEMBER_3_MEMBER_9_FILL"/>
</g>

<g transform="matrix( 8, 0, 0, 8, -637.2,-43.5) ">
<use xlink:href="#Layer0_0_MEMBER_3_MEMBER_3_MEMBER_10_FILL"/>
</g>

<g transform="matrix( 8, 0, 0, 8, -637.2,-43.5) ">
<use xlink:href="#Layer0_0_MEMBER_3_MEMBER_3_MEMBER_11_FILL"/>
</g>

<g transform="matrix( 8, 0, 0, 8, -637.2,-43.5) ">
<use xlink:href="#Layer0_0_MEMBER_3_MEMBER_3_MEMBER_12_FILL"/>
</g>

<g transform="matrix( 8, 0, 0, 8, -637.2,-43.5) ">
<use xlink:href="#Layer0_0_MEMBER_3_MEMBER_3_MEMBER_13_FILL"/>
</g>

<g transform="matrix( 8, 0, 0, 8, -637.2,-43.5) ">
<use xlink:href="#Layer0_0_MEMBER_3_MEMBER_3_MEMBER_14_FILL"/>
</g>

<g transform="matrix( 8, 0, 0, 8, -637.2,-43.5) ">
<use xlink:href="#Layer0_0_MEMBER_3_MEMBER_3_MEMBER_15_FILL"/>
</g>

<g transform="matrix( 8, 0, 0, 8, -637.2,-43.5) ">
<use xlink:href="#Layer0_0_MEMBER_3_MEMBER_3_MEMBER_16_FILL"/>
</g>

<g transform="matrix( 8, 0, 0, 8, -637.2,-43.5) ">
<use xlink:href="#Layer0_0_MEMBER_3_MEMBER_3_MEMBER_17_FILL"/>
</g>

<g transform="matrix( 8, 0, 0, 8, -637.2,-43.5) ">
<use xlink:href="#Layer0_0_MEMBER_3_MEMBER_3_MEMBER_18_FILL"/>
</g>

<g transform="matrix( 8, 0, 0, 8, -637.2,-43.5) ">
<use xlink:href="#Layer0_0_MEMBER_3_MEMBER_3_MEMBER_19_FILL"/>
</g>

<g transform="matrix( 8, 0, 0, 8, -637.2,-43.5) ">
<use xlink:href="#Layer0_0_MEMBER_3_MEMBER_3_MEMBER_20_FILL"/>
</g>

<g transform="matrix( 8, 0, 0, 8, -637.2,-43.5) ">
<use xlink:href="#Layer0_0_MEMBER_3_MEMBER_3_MEMBER_21_FILL"/>
</g>

<g transform="matrix( 8, 0, 0, 8, -637.2,-43.5) ">
<use xlink:href="#Layer0_0_MEMBER_3_MEMBER_3_MEMBER_22_FILL"/>
</g>

<g transform="matrix( 8, 0, 0, 8, -637.2,-43.5) ">
<use xlink:href="#Layer0_0_MEMBER_3_MEMBER_3_MEMBER_23_FILL"/>
</g>

<g transform="matrix( 8, 0, 0, 8, -637.2,-43.5) ">
<use xlink:href="#Layer0_0_MEMBER_3_MEMBER_3_MEMBER_24_FILL"/>
</g>

<g transform="matrix( 8, 0, 0, 8, -637.2,-43.5) ">
<use xlink:href="#Layer0_0_MEMBER_3_MEMBER_3_MEMBER_25_FILL"/>
</g>

<g transform="matrix( 8, 0, 0, 8, -637.2,-43.5) ">
<use xlink:href="#Layer0_0_MEMBER_3_MEMBER_3_MEMBER_26_FILL"/>
</g>

<g transform="matrix( 8, 0, 0, 8, -637.2,-43.5) ">
<use xlink:href="#Layer0_0_MEMBER_3_MEMBER_3_MEMBER_27_FILL"/>
</g>

<g transform="matrix( 8, 0, 0, 8, -637.2,-43.5) ">
<use xlink:href="#Layer0_0_MEMBER_3_MEMBER_3_MEMBER_28_FILL"/>
</g>

<g transform="matrix( 8, 0, 0, 8, -637.2,-43.5) ">
<use xlink:href="#Layer0_0_MEMBER_3_MEMBER_3_MEMBER_29_FILL"/>
</g>

<g transform="matrix( 8, 0, 0, 8, -637.2,-43.5) ">
<use xlink:href="#Layer0_0_MEMBER_3_MEMBER_3_MEMBER_30_FILL"/>
</g>

<g transform="matrix( 8, 0, 0, 8, -637.2,-43.5) ">
<use xlink:href="#Layer0_0_MEMBER_3_MEMBER_3_MEMBER_31_FILL"/>
</g>

<g transform="matrix( 8, 0, 0, 8, -637.2,-43.5) ">
<use xlink:href="#Layer0_0_MEMBER_3_MEMBER_3_MEMBER_32_FILL"/>
</g>

<g transform="matrix( 8, 0, 0, 8, -637.2,-43.5) ">
<use xlink:href="#Layer0_0_MEMBER_3_MEMBER_3_MEMBER_33_FILL"/>
</g>

<g transform="matrix( 8, 0, 0, 8, -637.2,-43.5) ">
<use xlink:href="#Layer0_0_MEMBER_3_MEMBER_3_MEMBER_34_FILL"/>
</g>

<g transform="matrix( 8, 0, 0, 8, -637.2,-43.5) ">
<use xlink:href="#Layer0_0_MEMBER_3_MEMBER_4_MEMBER_0_FILL"/>
</g>

<g transform="matrix( 8, 0, 0, 8, -637.2,-43.5) ">
<use xlink:href="#Layer0_0_MEMBER_3_MEMBER_4_MEMBER_1_FILL"/>
</g>

<g transform="matrix( 8, 0, 0, 8, -637.2,-43.5) ">
<use xlink:href="#Layer0_0_MEMBER_3_MEMBER_4_MEMBER_2_FILL"/>
</g>

<g transform="matrix( 8, 0, 0, 8, -637.2,-43.5) ">
<use xlink:href="#Layer0_0_MEMBER_3_MEMBER_4_MEMBER_3_FILL"/>
</g>

<g transform="matrix( 8, 0, 0, 8, -637.2,-43.5) ">
<use xlink:href="#Layer0_0_MEMBER_3_MEMBER_4_MEMBER_4_FILL"/>
</g>

<g transform="matrix( 8, 0, 0, 8, -637.2,-43.5) ">
<use xlink:href="#Layer0_0_MEMBER_3_MEMBER_4_MEMBER_5_FILL"/>
</g>

<g transform="matrix( 8, 0, 0, 8, -637.2,-43.5) ">
<use xlink:href="#Layer0_0_MEMBER_3_MEMBER_4_MEMBER_6_FILL"/>
</g>

<g transform="matrix( 8, 0, 0, 8, -637.2,-43.5) ">
<use xlink:href="#Layer0_0_MEMBER_3_MEMBER_4_MEMBER_7_FILL"/>
</g>

<g transform="matrix( 8, 0, 0, 8, -637.2,-43.5) ">
<use xlink:href="#Layer0_0_MEMBER_3_MEMBER_4_MEMBER_8_FILL"/>
</g>

<g transform="matrix( 8, 0, 0, 8, -637.2,-43.5) ">
<use xlink:href="#Layer0_0_MEMBER_3_MEMBER_4_MEMBER_9_FILL"/>
</g>

<g transform="matrix( 8, 0, 0, 8, -637.2,-43.5) ">
<use xlink:href="#Layer0_0_MEMBER_3_MEMBER_4_MEMBER_10_FILL"/>
</g>

<g transform="matrix( 8, 0, 0, 8, -637.2,-43.5) ">
<use xlink:href="#Layer0_0_MEMBER_3_MEMBER_4_MEMBER_11_FILL"/>
</g>

<g transform="matrix( 8, 0, 0, 8, -637.2,-43.5) ">
<use xlink:href="#Layer0_0_MEMBER_3_MEMBER_4_MEMBER_12_FILL"/>
</g>

<g transform="matrix( 8, 0, 0, 8, -637.2,-43.5) ">
<use xlink:href="#Layer0_0_MEMBER_3_MEMBER_4_MEMBER_13_FILL"/>
</g>

<g transform="matrix( 8, 0, 0, 8, -637.2,-43.5) ">
<use xlink:href="#Layer0_0_MEMBER_3_MEMBER_4_MEMBER_14_FILL"/>
</g>

<g transform="matrix( 8, 0, 0, 8, -637.2,-43.5) ">
<use xlink:href="#Layer0_0_MEMBER_3_MEMBER_4_MEMBER_15_FILL"/>
</g>

<g transform="matrix( 8, 0, 0, 8, -637.2,-43.5) ">
<use xlink:href="#Layer0_0_MEMBER_3_MEMBER_4_MEMBER_16_FILL"/>
</g>

<g transform="matrix( 8, 0, 0, 8, -637.2,-43.5) ">
<use xlink:href="#Layer0_0_MEMBER_3_MEMBER_4_MEMBER_17_FILL"/>
</g>

<g transform="matrix( 8, 0, 0, 8, -637.2,-43.5) ">
<use xlink:href="#Layer0_0_MEMBER_3_MEMBER_4_MEMBER_18_FILL"/>
</g>

<g transform="matrix( 8, 0, 0, 8, -637.2,-43.5) ">
<use xlink:href="#Layer0_0_MEMBER_3_MEMBER_4_MEMBER_19_FILL"/>
</g>

<g transform="matrix( 8, 0, 0, 8, -637.2,-43.5) ">
<use xlink:href="#Layer0_0_MEMBER_3_MEMBER_4_MEMBER_20_FILL"/>
</g>

<g transform="matrix( 8, 0, 0, 8, -637.2,-43.5) ">
<use xlink:href="#Layer0_0_MEMBER_3_MEMBER_5_MEMBER_0_FILL"/>
</g>

<g transform="matrix( 8, 0, 0, 8, -637.2,-43.5) ">
<use xlink:href="#Layer0_0_MEMBER_3_MEMBER_5_MEMBER_1_FILL"/>
</g>

<g transform="matrix( 8, 0, 0, 8, -637.2,-43.5) ">
<use xlink:href="#Layer0_0_MEMBER_3_MEMBER_5_MEMBER_2_FILL"/>
</g>

<g transform="matrix( 8, 0, 0, 8, -637.2,-43.5) ">
<use xlink:href="#Layer0_0_MEMBER_3_MEMBER_5_MEMBER_3_FILL"/>
</g>

<g transform="matrix( 8, 0, 0, 8, -637.2,-43.5) ">
<use xlink:href="#Layer0_0_MEMBER_3_MEMBER_5_MEMBER_4_FILL"/>
</g>

<g transform="matrix( 8, 0, 0, 8, -637.2,-43.5) ">
<use xlink:href="#Layer0_0_MEMBER_3_MEMBER_5_MEMBER_5_FILL"/>
</g>

<g transform="matrix( 8, 0, 0, 8, -637.2,-43.5) ">
<use xlink:href="#Layer0_0_MEMBER_3_MEMBER_5_MEMBER_6_FILL"/>
</g>

<g transform="matrix( 8, 0, 0, 8, -637.2,-43.5) ">
<use xlink:href="#Layer0_0_MEMBER_3_MEMBER_6_MEMBER_0_MEMBER_0_FILL"/>
</g>

<g transform="matrix( 8, 0, 0, 8, -637.2,-43.5) ">
<use xlink:href="#Layer0_0_MEMBER_3_MEMBER_6_MEMBER_0_MEMBER_1_FILL"/>
</g>

<g transform="matrix( 8, 0, 0, 8, -637.2,-43.5) ">
<use xlink:href="#Layer0_0_MEMBER_3_MEMBER_6_MEMBER_1_FILL"/>
</g>

<g transform="matrix( 8, 0, 0, 8, -637.2,-43.5) ">
<use xlink:href="#Layer0_0_MEMBER_3_MEMBER_6_MEMBER_2_FILL"/>
</g>

<g transform="matrix( 8, 0, 0, 8, -637.2,-43.5) ">
<use xlink:href="#Layer0_0_MEMBER_3_MEMBER_6_MEMBER_3_FILL"/>
</g>

<g transform="matrix( 8, 0, 0, 8, -637.2,-43.5) ">
<use xlink:href="#Layer0_0_MEMBER_3_MEMBER_6_MEMBER_4_FILL"/>
</g>

<g transform="matrix( 8, 0, 0, 8, -637.2,-43.5) ">
<use xlink:href="#Layer0_0_MEMBER_3_MEMBER_6_MEMBER_5_FILL"/>
</g>

<g transform="matrix( 8, 0, 0, 8, -637.2,-43.5) ">
<use xlink:href="#Layer0_0_MEMBER_3_MEMBER_6_MEMBER_6_FILL"/>
</g>

<g transform="matrix( 8, 0, 0, 8, -637.2,-43.5) ">
<use xlink:href="#Layer0_0_MEMBER_3_MEMBER_6_MEMBER_7_FILL"/>
</g>

<g transform="matrix( 8, 0, 0, 8, -637.2,-43.5) ">
<use xlink:href="#Layer0_0_MEMBER_3_MEMBER_6_MEMBER_8_FILL"/>
</g>

<g transform="matrix( 8, 0, 0, 8, -637.2,-43.5) ">
<use xlink:href="#Layer0_0_MEMBER_3_MEMBER_6_MEMBER_9_FILL"/>
</g>

<g transform="matrix( 8, 0, 0, 8, -637.2,-43.5) ">
<use xlink:href="#Layer0_0_MEMBER_3_MEMBER_6_MEMBER_10_MEMBER_0_FILL"/>
</g>

<g transform="matrix( 8, 0, 0, 8, -637.2,-43.5) ">
<use xlink:href="#Layer0_0_MEMBER_3_MEMBER_6_MEMBER_10_MEMBER_1_FILL"/>
</g>

<g transform="matrix( 8, 0, 0, 8, -637.2,-43.5) ">
<use xlink:href="#Layer0_0_MEMBER_3_MEMBER_6_MEMBER_10_MEMBER_2_FILL"/>
</g>

<g transform="matrix( 8, 0, 0, 8, -637.2,-43.5) ">
<use xlink:href="#Layer0_0_MEMBER_3_MEMBER_6_MEMBER_10_MEMBER_3_FILL"/>
</g>

<g transform="matrix( 8, 0, 0, 8, -637.2,-43.5) ">
<use xlink:href="#Layer0_0_MEMBER_3_MEMBER_6_MEMBER_10_MEMBER_4_FILL"/>
</g>

<g transform="matrix( 8, 0, 0, 8, -637.2,-43.5) ">
<use xlink:href="#Layer0_0_MEMBER_3_MEMBER_6_MEMBER_10_MEMBER_5_FILL"/>
</g>

<g transform="matrix( 8, 0, 0, 8, -637.2,-43.5) ">
<use xlink:href="#Layer0_0_MEMBER_3_MEMBER_6_MEMBER_10_MEMBER_6_FILL"/>
</g>

<g transform="matrix( 8, 0, 0, 8, -637.2,-43.5) ">
<use xlink:href="#Layer0_0_MEMBER_3_MEMBER_6_MEMBER_10_MEMBER_7_FILL"/>
</g>

<g transform="matrix( 8, 0, 0, 8, -637.2,-43.5) ">
<use xlink:href="#Layer0_0_MEMBER_3_MEMBER_6_MEMBER_10_MEMBER_8_FILL"/>
</g>
</svg>
