
<svg xmlns="http://www.w3.org/2000/svg" version="1.1" xmlns:xlink="http://www.w3.org/1999/xlink" preserveAspectRatio="none" x="0px" y="0px" width="1024px" height="1024px" viewBox="0 0 1024 1024">
<defs>
<g id="Layer0_0_MEMBER_0_MEMBER_0_FILL">
<path fill="#A14945" stroke="none" d="
M 60.15 276.25
Q 41.3 276.25 28 283.3 14.7 290.4 14.7 300.4 14.7 310.4 28 317.5 41.3 324.55 60.15 324.55 78.95 324.55 92.25 317.5 105.55 310.4 105.55 300.4 105.55 290.4 92.25 283.3 78.95 276.25 60.15 276.25 Z"/>
</g>

<g id="Layer0_0_MEMBER_0_MEMBER_1_FILL">
<path fill="#A14945" stroke="none" d="
M 105.55 300.9
L 105.55 296.1 14.7 296.1 14.7 300.9 105.55 300.9 Z"/>
</g>

<g id="Layer0_0_MEMBER_0_MEMBER_2_FILL">
<path fill="#BF6061" stroke="none" d="
M 105.55 296.1
Q 105.55 286.1 92.25 279 78.95 271.95 60.1 271.95 41.3 271.95 28 279 14.7 286.1 14.7 296.1 14.7 306.1 28 313.2 41.3 320.3 60.1 320.3 78.9 320.3 92.25 313.2 105.55 306.1 105.55 296.1 Z"/>
</g>

<g id="Layer0_0_MEMBER_0_MEMBER_3_MEMBER_0_FILL">
<path fill="#A14945" stroke="none" d="
M 101.6 295.5
Q 101.6 286.8 89.4 280.65 77.25 274.45 60.05 274.45 42.9 274.45 30.7 280.65 18.55 286.8 18.55 295.5 18.55 304.15 30.7 310.35 42.9 316.5 60.05 316.5 77.2 316.5 89.4 310.35 101.6 304.15 101.6 295.5
M 88.7 281.35
Q 100.6 287.2 100.6 295.5 100.6 303.75 88.7 309.65 76.8 315.5 60.05 315.5 43.3 315.5 31.4 309.65 19.55 303.75 19.55 295.5 19.55 287.2 31.4 281.35 43.3 275.5 60.05 275.5 76.8 275.5 88.7 281.35 Z"/>
</g>

<g id="Layer0_0_MEMBER_1_MEMBER_0_FILL">
<path fill="#FEE2A9" stroke="none" d="
M 19.9 290.25
L 19.1 292 20.55 293.3
Q 22.85 294.95 27.25 296.8 33.5 299.5 41.15 298.85 47.9 298.3 54.3 295.3 58.4 293.35 60.55 290.85
L 61.85 288.75 61.85 285.15 19.9 290.25 Z"/>
</g>

<g id="Layer0_0_MEMBER_1_MEMBER_1_FILL">
<path fill="#FEE2A9" stroke="none" d="
M 39.05 270.1
Q 30.45 276.25 24.1 284.25 20.9 288.3 19.45 291.05
L 20.2 292 54.75 264.85 53.1 263.45
Q 52.4 263.1 50.3 263.75 46.1 265.05 39.05 270.1 Z"/>
</g>

<g id="Layer0_0_MEMBER_1_MEMBER_2_FILL">
<path fill="#FEC554" stroke="none" d="
M 20.2 292
L 23.15 293.7
Q 26.9 295.65 31 296.7 44.2 300 56.1 293.15 65.85 287.55 59.4 280.55 57.35 278.35 53.95 276.3
L 50.95 274.65 20.2 292 Z"/>
</g>

<g id="Layer0_0_MEMBER_1_MEMBER_3_MEMBER_0_FILL">
<path fill="#EA2E33" stroke="none" d="
M 39.65 288.7
L 39.65 290 63.4 290 63.4 288.7 39.65 288.7 Z"/>
</g>

<g id="Layer0_0_MEMBER_1_MEMBER_3_MEMBER_1_FILL">
<path fill="#EA2E33" stroke="none" d="
M 63.4 289.75
Q 63.4 287.15 59.95 285.3 56.45 283.45 51.55 283.45 46.65 283.45 43.15 285.3 39.65 287.15 39.65 289.75 39.65 292.35 43.15 294.2 46.65 296.05 51.55 296.05 56.45 296.05 59.95 294.2 63.4 292.35 63.4 289.75 Z"/>
</g>

<g id="Layer0_0_MEMBER_1_MEMBER_3_MEMBER_2_FILL">
<path fill="#FD6A6C" stroke="none" d="
M 63.4 288.75
Q 63.4 286.15 59.95 284.3 56.45 282.45 51.55 282.45 46.65 282.45 43.15 284.3 39.65 286.15 39.65 288.75 39.65 291.35 43.15 293.2 46.65 295.05 51.55 295.05 56.45 295.05 59.95 293.2 63.4 291.35 63.4 288.75 Z"/>
</g>

<g id="Layer0_0_MEMBER_1_MEMBER_3_MEMBER_3_FILL">
<path fill="#FC4549" stroke="none" d="
M 62.15 288.75
Q 62.15 286.55 59.05 285 55.95 283.45 51.55 283.45 47.15 283.45 44 285 40.9 286.55 40.9 288.75 40.9 290.95 44 292.55 47.15 294.1 51.55 294.1 55.95 294.1 59.05 292.55 62.15 290.95 62.15 288.75 Z"/>
</g>

<g id="Layer0_0_MEMBER_1_MEMBER_3_MEMBER_4_FILL">
<path fill="#EA2E33" stroke="none" d="
M 44.45 291.45
Q 45.15 291.45 46.1 290.55 47.05 289.7 46.95 289.05 46.9 288.65 47.35 288.15 47.85 287.5 48.8 287.1 50.4 286.45 52.75 286.3 54.15 286.2 54.95 285.45 55.75 284.65 54.6 284.4 53.1 283.95 50.55 284.05 46.9 284.2 44.35 285.7 41.8 287.25 42.55 289.5 43.25 291.5 44.45 291.45 Z"/>
</g>

<g id="Layer0_0_MEMBER_1_MEMBER_3_MEMBER_5_FILL">
<path fill="#EA2E33" stroke="none" d="
M 46.5 291.4
Q 45.9 292.35 47.15 292.7 50 293.55 53 293.25 55.7 292.95 58.05 291.85 60.2 290.85 60.75 289.35 61.25 287.85 59.95 286.65 58.15 285 56.8 285.85 56.3 286.2 55.75 287.75 55.35 289 53.55 289.35 53 289.45 50.6 289.6 48.75 289.7 48.05 290.1 46.95 290.65 46.5 291.4 Z"/>
</g>

<g id="Layer0_0_MEMBER_1_MEMBER_3_MEMBER_6_FILL">
<path fill="#FD6A6C" stroke="none" d="
M 52.15 285.2
Q 52.3 285.45 52.5 285.7 53.3 284.6 52.3 284.65 51.9 284.65 52.15 285.2 Z"/>
</g>

<g id="Layer0_0_MEMBER_1_MEMBER_3_MEMBER_7_FILL">
<path fill="#FD6A6C" stroke="none" d="
M 50.55 285.3
Q 50.9 285.6 51.35 285.85 51.35 284.45 50.3 284.65 49.85 284.7 50.55 285.3 Z"/>
</g>

<g id="Layer0_0_MEMBER_1_MEMBER_3_MEMBER_8_FILL">
<path fill="#FD6A6C" stroke="none" d="
M 48.8 285.55
Q 49.25 285.75 49.8 285.95 49.65 285.65 49.35 285.35 48.8 284.8 48.35 284.95 47.85 285.1 48.8 285.55 Z"/>
</g>

<g id="Layer0_0_MEMBER_1_MEMBER_3_MEMBER_9_FILL">
<path fill="#FD6A6C" stroke="none" d="
M 46.85 286.2
Q 47.45 286.4 48.2 286.55 48 286.2 47.65 285.9 46.95 285.25 46.3 285.55 45.65 285.8 46.85 286.2 Z"/>
</g>

<g id="Layer0_0_MEMBER_1_MEMBER_3_MEMBER_10_FILL">
<path fill="#FD6A6C" stroke="none" d="
M 45.4 287.25
Q 46.15 287.4 46.95 287.45 46.65 287.05 46.15 286.75 45.2 286.2 44.45 286.65 43.95 286.95 45.4 287.25 Z"/>
</g>

<g id="Layer0_0_MEMBER_1_MEMBER_3_MEMBER_11_FILL">
<path fill="#FD6A6C" stroke="none" d="
M 44.2 288.75
Q 45.25 288.95 46.2 288.35 45.75 288.2 45.15 288.1 44.05 287.85 43.65 288.15 43.1 288.55 44.2 288.75 Z"/>
</g>

<g id="Layer0_0_MEMBER_1_MEMBER_3_MEMBER_12_FILL">
<path fill="#FD6A6C" stroke="none" d="
M 44.75 290.45
Q 45.8 290.2 46.05 289.35 45.75 289.35 45.3 289.45 44.5 289.55 44.1 289.8 43.85 290 44.05 290.25 44.3 290.5 44.75 290.45 Z"/>
</g>

<g id="Layer0_0_MEMBER_1_MEMBER_3_MEMBER_13_FILL">
<path fill="#FD6A6C" stroke="none" d="
M 56.75 286.95
L 57.2 287
Q 57.8 287.1 58.35 287.05 59 287 58.85 286.75 58.75 286.5 58.15 286.45 57.65 286.4 57.15 286.7
L 56.75 286.95 Z"/>
</g>

<g id="Layer0_0_MEMBER_1_MEMBER_3_MEMBER_14_FILL">
<path fill="#FD6A6C" stroke="none" d="
M 48.85 290.6
L 48.8 290.35
Q 48.75 290.4 47.6 291.35 47.4 291.75 47.9 291.85 48.45 292 48.65 291.45 48.85 291 48.85 290.6 Z"/>
</g>

<g id="Layer0_0_MEMBER_1_MEMBER_3_MEMBER_15_FILL">
<path fill="#FD6A6C" stroke="none" d="
M 50.5 290.6
L 50.25 290.35 50.05 290.65
Q 49.85 291.05 49.9 291.45 49.95 292 50.35 292.05 50.8 292.05 50.75 291.45 50.7 290.95 50.5 290.6 Z"/>
</g>

<g id="Layer0_0_MEMBER_1_MEMBER_3_MEMBER_16_FILL">
<path fill="#FD6A6C" stroke="none" d="
M 52.1 290.4
L 51.75 290.2 51.95 291.45
Q 52.1 291.9 52.65 291.95 53.25 292 52.9 291.35 52.55 290.75 52.1 290.4 Z"/>
</g>

<g id="Layer0_0_MEMBER_1_MEMBER_3_MEMBER_17_FILL">
<path fill="#FD6A6C" stroke="none" d="
M 54.25 290.25
L 53.6 290.05 53.85 290.55
Q 54.2 291.1 54.6 291.45 55.15 291.9 55.5 291.65 55.85 291.45 55.35 290.95 55 290.5 54.25 290.25 Z"/>
</g>

<g id="Layer0_0_MEMBER_1_MEMBER_3_MEMBER_18_FILL">
<path fill="#FD6A6C" stroke="none" d="
M 55.85 289.6
L 55.15 289.45 55.6 289.95
Q 56.15 290.45 56.65 290.75 57.25 291.1 57.65 290.85 58 290.6 57.3 290.2 56.7 289.85 55.85 289.6 Z"/>
</g>

<g id="Layer0_0_MEMBER_1_MEMBER_3_MEMBER_19_FILL">
<path fill="#FD6A6C" stroke="none" d="
M 57.3 288.55
L 56.35 288.55 57.15 289.05
Q 58 289.55 58.55 289.6 59.2 289.7 59.45 289.25 59.7 288.8 59 288.7 58.4 288.6 57.3 288.55 Z"/>
</g>

<g id="Layer0_0_MEMBER_1_MEMBER_3_MEMBER_20_FILL">
<path fill="#FD6A6C" stroke="none" d="
M 56.9 287.85
L 59.25 288.1
Q 59.8 288.1 59.5 287.85 59.25 287.6 58.7 287.55 58.3 287.5 57.55 287.65
L 56.9 287.85 Z"/>
</g>

<g id="Layer0_0_MEMBER_1_MEMBER_4_MEMBER_0_FILL">
<path fill="#FFFFFF" stroke="none" d="
M 55 289.25
L 57.4 285.7 56.3 285.55 51.6 290.85
Q 50.6 291.85 44.95 292.6
L 39.45 293.1
Q 48.6 294.2 50.9 293.35 52.35 292.85 55 289.25 Z"/>
</g>

<g id="Layer0_0_MEMBER_1_MEMBER_4_MEMBER_1_FILL">
<path fill="#FEEECE" stroke="none" d="
M 52.2 291.45
Q 50.15 293 44.6 293.2
L 39.45 293.1 43.9 294.3
Q 49 295.1 52.2 293.2 55.4 291.3 57.25 288.6
L 58.45 286.25 57.4 285.7 55.85 287.75
Q 53.95 290.1 52.2 291.45 Z"/>
</g>

<g id="Layer0_0_MEMBER_1_MEMBER_5_FILL">
<path fill="#F2B03D" stroke="none" d="
M 26.35 283.5
Q 22.1 288.45 20.2 292
L 50.95 274.65
Q 53.8 270.45 54.7 267.4 56.5 261.25 46.75 266.85 34.85 273.65 26.35 283.5 Z"/>
</g>

<g id="Layer0_0_MEMBER_1_MEMBER_6_FILL">
<path fill="#D18725" fill-opacity="0.4980392156862745" stroke="none" d="
M 0 21.35
Q 18 11.85 25 7.35 26.55 0.95 26.45 0.55 26.15 -0.8 21.5 1.8 17.15 4.2 8.15 13 3.65 17.45 0 21.35 Z"/>
</g>

<g id="Layer0_0_MEMBER_1_MEMBER_7_MEMBER_0_FILL">
<path fill="#FD872E" stroke="none" d="
M 26.1 293.8
Q 28.95 292.4 32.7 290.75 40.2 287.45 44.65 286.35 51.75 284.65 60.7 283.7
L 62.75 283.7
Q 64.85 283.55 64.8 282.9 64.8 281.85 64.65 281.55 64.35 280.9 63.2 280.55 62.2 280.25 52.6 282.1 41.8 284.25 36.55 286.6 31.5 288.85 28.3 291.55 26.7 292.9 26.1 293.8 Z"/>
</g>

<g id="Layer0_0_MEMBER_1_MEMBER_7_MEMBER_1_FILL">
<path fill="#E06621" stroke="none" d="
M 26.1 293.8
L 28.9 292.4
Q 32.1 290.85 34.05 290.15 43.05 286.95 49.35 285.9 54.95 284.9 64.75 284
L 64.85 282.35
Q 50.5 284.05 42.1 286.25 37.25 287.55 31.2 290.8 28.15 292.45 26.1 293.8 Z"/>
</g>

<g id="Layer0_0_MEMBER_1_MEMBER_8_MEMBER_0_MEMBER_0_FILL">
<path fill="#73A92E" stroke="none" d="
M 40.05 287
Q 34.1 290 33.95 295 33.85 297.5 34.95 299.4
L 37.95 297.6
Q 37.1 296.15 37.15 294.25 37.25 290.4 41.8 288.1 46.35 285.8 51.2 286.55 53.6 286.9 55.1 287.7
L 57.4 286.45
Q 55.45 285.4 52.3 284.95 46 284 40.05 287 Z"/>
</g>

<g id="Layer0_0_MEMBER_1_MEMBER_8_MEMBER_0_MEMBER_1_FILL">
<path fill="#BECF43" stroke="none" d="
M 51.2 286.55
Q 46.35 285.8 41.8 288.1 37.25 290.4 37.15 294.25 37.1 296.15 37.95 297.6
L 41.35 295.65
Q 41.45 292.95 44.65 291.3 47.8 289.8 50.9 290.15
L 55.1 287.7
Q 53.6 286.9 51.2 286.55 Z"/>
</g>

<g id="Layer0_0_MEMBER_1_MEMBER_8_MEMBER_1_FILL">
<path fill="#DCE651" stroke="none" d="
M 48.85 290.65
Q 50 290.35 50.9 290.15 50.2 289.9 49.05 289.9 46.7 289.9 44.4 291.1 41.95 292.35 41.4 294.15 41.15 295 41.35 295.65 41.75 295 42.5 294.15 44 292.55 45.7 291.75 46.65 291.3 48.85 290.65 Z"/>
</g>

<g id="Layer0_0_MEMBER_1_MEMBER_9_MEMBER_0_FILL">
<path fill="#FD872E" stroke="none" d="
M 24.1 291.55
Q 26.85 289.95 30.45 288 37.7 284.2 42.05 282.8 49 280.55 57.85 279 62 278.95 61.9 277.9 61.85 276.85 61.7 276.55 61.35 275.95 60.15 275.7 59.15 275.45 49.7 278 39.05 280.85 34 283.6 29.1 286.25 26.1 289.15 24.6 290.6 24.1 291.55 Z"/>
</g>

<g id="Layer0_0_MEMBER_1_MEMBER_9_MEMBER_1_FILL">
<path fill="#E06621" stroke="none" d="
M 24.1 291.55
Q 25.25 290.85 26.8 289.95 29.9 288.2 31.75 287.35 40.05 283.6 46.7 282 52.25 280.6 61.95 279
L 61.95 277.35
Q 47.7 280.05 39.5 282.85 34.8 284.5 28.95 288.2 26.05 290.05 24.1 291.55 Z"/>
</g>

<g id="Layer0_0_MEMBER_1_MEMBER_10_MEMBER_0_FILL">
<path fill="#F6D391" stroke="none" d="
M 30.8 289.95
Q 30.15 291.8 29.85 294.65
L 29.85 295.75
Q 30.25 294.05 31.2 292.1 33.15 288.25 36.2 287.2 39.2 286.15 44.6 286.2 47.25 286.25 49.35 286.45
L 49.5 285.3
Q 49 284.95 47.75 284.7 45.25 284.2 41.65 284.6 37.55 285.1 34.3 286.85 31.35 288.45 30.8 289.95 Z"/>
</g>

<g id="Layer0_0_MEMBER_1_MEMBER_10_MEMBER_1_FILL">
<path fill="#FEEECE" stroke="none" d="
M 28.6 294.8
L 29.85 294.65
Q 29.8 293.3 30.65 291.55 32.4 288.05 37 286.1 39.9 284.9 45 284.95 47.55 285 49.5 285.3
L 49.35 284.25
Q 47.4 283.85 44.55 283.75 38.9 283.6 34.6 285.3 30.25 287 29 291.1 28.35 293.1 28.6 294.8 Z"/>
</g>

<g id="Layer0_0_MEMBER_1_MEMBER_10_MEMBER_2_FILL">
<path fill="#FFFFFF" stroke="none" d="
M 29.85 294.65
L 28.6 294.8 28.6 296.2 29.85 295.75 29.85 294.65 Z"/>
</g>

<g id="Layer0_0_MEMBER_1_MEMBER_11_MEMBER_0_MEMBER_0_FILL">
<path fill="#73A92E" stroke="none" d="
M 38.1 283.4
Q 38.05 285.9 39.15 287.8
L 42.1 286
Q 41.25 284.55 41.3 282.6 41.45 278.8 46 276.5 50.55 274.2 55.35 274.95 57.8 275.3 59.3 276.1
L 61.6 274.85
Q 59.65 273.8 56.45 273.35 50.15 272.4 44.2 275.4 38.25 278.4 38.1 283.4 Z"/>
</g>

<g id="Layer0_0_MEMBER_1_MEMBER_11_MEMBER_0_MEMBER_1_FILL">
<path fill="#BECF43" stroke="none" d="
M 55.35 274.95
Q 50.55 274.2 46 276.5 41.45 278.8 41.3 282.6 41.25 284.55 42.1 286
L 45.5 284.05
Q 45.6 281.35 48.8 279.7 51.85 278.2 55.05 278.55
L 59.3 276.1
Q 57.8 275.3 55.35 274.95 Z"/>
</g>

<g id="Layer0_0_MEMBER_1_MEMBER_11_MEMBER_1_FILL">
<path fill="#DCE651" stroke="none" d="
M 53.05 279.05
Q 54.15 278.75 55.05 278.55 54.35 278.3 53.2 278.3 50.85 278.3 48.55 279.45 46.1 280.75 45.55 282.5 45.3 283.4 45.5 284.05 45.9 283.4 46.65 282.55 48.15 280.9 49.85 280.1 50.8 279.65 53.05 279.05 Z"/>
</g>

<g id="Layer0_0_MEMBER_1_MEMBER_12_FILL">
<path fill="#FEE2A9" stroke="none" d="
M 55.05 281.8
Q 55.7 280.95 54.8 278.75 54 276.95 52.5 276.45 51.2 276 49.9 276.85 48.65 277.6 48.1 279 47.75 279.85 47.75 280.3 47.7 280.95 48.3 281.45 48.75 281.8 49.8 281.8 50.5 281.85 52.25 282.35 54.2 282.95 55.05 281.8 Z"/>
</g>

<g id="Layer0_0_MEMBER_1_MEMBER_13_FILL">
<path fill="#FFFFFF" fill-opacity="0.4980392156862745" stroke="none" d="
M 3.1 1.25
L 2.45 0.25
Q 2 -0.35 1 0.3 0 0.9 0 1.6 0 2.35 1.05 2.65 1.95 2.75 2.15 2.75 2.75 2.7 3.1 2.25 3.4 1.85 3.1 1.25 Z"/>
</g>

<g id="Layer0_0_MEMBER_1_MEMBER_14_FILL">
<path fill="#FEE2A9" stroke="none" d="
M 37.25 292.2
Q 38.35 292.7 39.8 292.4 41.4 292.05 41.65 290.9 41.95 289.65 40.7 288.9 39.55 288.25 38.25 289.35 37.95 289.6 37.45 290.3 36.9 291.1 36.85 291.55 36.85 292.05 37.25 292.2 Z"/>
</g>

<g id="Layer0_0_MEMBER_1_MEMBER_15_FILL">
<path fill="#FEE2A9" stroke="none" d="
M 47.05 286.85
Q 44.2 286.5 43.55 287.25 42.5 288.4 43.55 289.7 44.45 290.85 45.85 291.05 47.2 291.3 48.55 290.65 50.05 289.9 50.05 288.5 50 287.15 47.05 286.85 Z"/>
</g>

<g id="Layer0_0_MEMBER_1_MEMBER_16_FILL">
<path fill="#FFFFFF" fill-opacity="0.4980392156862745" stroke="none" d="
M 2.9 0.1
Q 2.25 -0.1 1.45 0.1 0.6 -0.2 0.15 0.5 -0.25 1.15 0.45 1.75 0.95 2.15 1.75 2.4 2.45 2.7 3.15 2.3 3.8 1.9 3.75 1.1 3.7 0.35 2.9 0.1 Z"/>
</g>

<g id="Layer0_0_MEMBER_1_MEMBER_17_MEMBER_0_FILL">
<path fill="#EA2E33" stroke="none" d="
M 27.8 290.9
Q 31.45 291.4 34.05 290.15 39.35 287.65 41.7 282.05 42.6 279.95 42.25 277
L 41.7 274.45 25.2 289.4 24.65 290.1 27.8 290.9 Z"/>
</g>

<g id="Layer0_0_MEMBER_1_MEMBER_17_MEMBER_1_FILL">
<path fill="#FC4549" stroke="none" d="
M 25.2 289.4
L 27.2 289.8
Q 29.45 290.15 30.8 289.95 32.9 289.6 35.2 288.15 37.85 286.45 39.7 283.7 41.35 281.25 41.35 277.9
L 41 275.05 25.2 289.4 Z"/>
</g>

<g id="Layer0_0_MEMBER_1_MEMBER_17_MEMBER_2_FILL">
<path fill="#FD6A6C" stroke="none" d="
M 37 280.7
Q 35.5 283.25 34.75 283.85 33.95 284.5 33.05 284.65 32 284.8 31.2 285.25 30.45 285.65 29.45 286.8 28.4 288 28.3 288.7 28.15 289.5 30.85 289.1 33.65 288.6 35.55 287.05 37.4 285.5 38.55 283.9 39.2 282.9 40 281.15 40.7 279.7 40.45 278.45 40.25 277.1 39.05 277.85 38.45 278.25 37 280.7 Z"/>
</g>

<g id="Layer0_0_MEMBER_1_MEMBER_17_MEMBER_3_FILL">
<path fill="#EA2E33" stroke="none" d="
M 32.1 286.15
L 31.85 285.85 30.85 287.75
Q 30.7 288.3 31.4 288.05 32.1 287.8 32.2 287.15 32.3 286.55 32.1 286.15 Z"/>
</g>

<g id="Layer0_0_MEMBER_1_MEMBER_17_MEMBER_4_FILL">
<path fill="#EA2E33" stroke="none" d="
M 33.9 285.7
L 33.5 285.45 33.45 286.25
Q 33.4 287.05 33.6 287.25 33.8 287.45 34.15 287.2 34.55 286.9 34.4 286.45 34.3 286.05 33.9 285.7 Z"/>
</g>

<g id="Layer0_0_MEMBER_1_MEMBER_17_MEMBER_5_FILL">
<path fill="#EA2E33" stroke="none" d="
M 35.65 284.5
L 35.2 284.45 35.3 284.85
Q 35.45 285.3 35.85 285.6 36.15 285.8 36.3 285.35 36.5 284.9 36.25 284.75 36.1 284.6 35.65 284.5 Z"/>
</g>

<g id="Layer0_0_MEMBER_1_MEMBER_17_MEMBER_6_FILL">
<path fill="#EA2E33" stroke="none" d="
M 37.8 282.9
L 36.35 282.9
Q 37.2 284.1 37.6 284.05 37.85 284 38 283.5 38.15 282.95 37.8 282.9 Z"/>
</g>

<g id="Layer0_0_MEMBER_1_MEMBER_17_MEMBER_7_FILL">
<path fill="#EA2E33" stroke="none" d="
M 37.1 281.7
L 37.55 281.8
Q 38.1 281.9 38.7 281.9 39.35 281.9 39.3 281.55 39.2 281.2 38.8 281.15 38.5 281.1 37.75 281.4
L 37.1 281.7 Z"/>
</g>

<g id="Layer0_0_MEMBER_1_MEMBER_17_MEMBER_8_FILL">
<path fill="#EA2E33" stroke="none" d="
M 37.6 280.4
L 39.3 280.15
Q 39.85 280 39.7 279.75 39.55 279.5 39.05 279.4 38.65 279.35 38.1 279.9 37.8 280.15 37.6 280.4 Z"/>
</g>

<g id="Layer0_0_MEMBER_1_MEMBER_18_FILL">
<path fill="#5F8D20" stroke="none" d="
M 55.15 282.2
L 56.55 278.75
Q 55.75 278.75 54.8 279.05 52.9 279.7 52.05 281.4 51.2 283.1 51.4 284.9 51.5 285.8 51.75 286.35 54.35 284.4 55.15 282.2 Z"/>
</g>

<g id="Layer0_0_MEMBER_1_MEMBER_19_FILL">
<path fill="#5F8D20" stroke="none" d="
M 47.5 275.75
L 47.4 274.65 45.9 275.6
Q 44.3 276.7 43.8 277.6 43.3 278.55 43.55 279.4 43.65 279.85 43.85 280.1
L 45.4 279.65
Q 47 279 47.25 278 47.5 277.05 47.5 275.75 Z"/>
</g>

<g id="Layer0_0_MEMBER_1_MEMBER_20_FILL">
<path fill="#5F8D20" stroke="none" d="
M 28.3 289.4
L 29.05 290.95
Q 29.95 292.7 30.85 293.65 31.75 294.55 33.7 294.65 34.65 294.7 35.45 294.55 34.05 292.35 32.95 290.8 32.25 289.85 30.2 289.55
L 28.3 289.4 Z"/>
</g>

<g id="Layer0_0_MEMBER_1_MEMBER_21_FILL">
<path fill="#BECF43" stroke="none" d="
M 58.8 281.05
L 58 280 57.35 280.9
Q 56.65 282 56.65 283.1 56.6 284.85 56.8 286.3 58.9 284.4 59.3 283.1 59.55 282.3 58.8 281.05 Z"/>
</g>

<g id="Layer0_0_MEMBER_2_FILL">
<path fill="#BECF43" stroke="none" d="
M 28.8 302.55
L 30.8 303.3
Q 33.15 304.05 35 304.25 36.8 304.45 38.4 303.25
L 39.6 302.05
Q 37.4 301.2 35.45 301 34.25 300.9 31.4 301.7
L 28.8 302.55 Z"/>
</g>

<g id="Layer0_0_MEMBER_3_FILL">
<path fill="#BECF43" stroke="none" d="
M 36.45 303.7
L 35.75 302.55 34.45 304.35
Q 33.25 306.5 33.45 308.1 33.8 310.65 34.8 312.65 35.5 312.1 36.2 311.15 37.55 309.25 37.35 307.2 37.2 305.2 36.45 303.7 Z"/>
</g>

<g id="Layer0_0_MEMBER_4_FILL">
<path fill="#BECF43" stroke="none" d="
M 94.25 299.05
Q 90.8 297.6 88 298.8
L 88.9 300.55
Q 90.15 302.3 91.75 302.4 94.35 302.55 97.1 300.7 95.95 299.75 94.25 299.05 Z"/>
</g>

<g id="Layer0_0_MEMBER_5_MEMBER_0_FILL">
<path fill="#FEE2A9" stroke="none" d="
M 19.9 290.25
L 19.1 292 20.55 293.3
Q 22.85 294.95 27.25 296.8 33.5 299.5 41.15 298.85 47.9 298.3 54.3 295.3 58.4 293.35 60.55 290.85
L 61.85 288.75 61.85 285.15 19.9 290.25 Z"/>
</g>

<g id="Layer0_0_MEMBER_5_MEMBER_1_FILL">
<path fill="#FEE2A9" stroke="none" d="
M 39.05 270.1
Q 30.45 276.25 24.1 284.25 20.9 288.3 19.45 291.05
L 20.2 292 54.75 264.85 53.1 263.45
Q 52.4 263.1 50.3 263.75 46.1 265.05 39.05 270.1 Z"/>
</g>

<g id="Layer0_0_MEMBER_5_MEMBER_2_FILL">
<path fill="#FEC554" stroke="none" d="
M 20.2 292
L 23.15 293.7
Q 26.9 295.65 31 296.7 44.2 300 56.1 293.15 65.85 287.55 59.4 280.55 57.35 278.35 53.95 276.3
L 50.95 274.65 20.2 292 Z"/>
</g>

<g id="Layer0_0_MEMBER_5_MEMBER_3_MEMBER_0_FILL">
<path fill="#EA2E33" stroke="none" d="
M 39.65 288.7
L 39.65 290 63.4 290 63.4 288.7 39.65 288.7 Z"/>
</g>

<g id="Layer0_0_MEMBER_5_MEMBER_3_MEMBER_1_FILL">
<path fill="#EA2E33" stroke="none" d="
M 63.4 289.75
Q 63.4 287.15 59.95 285.3 56.45 283.45 51.55 283.45 46.65 283.45 43.15 285.3 39.65 287.15 39.65 289.75 39.65 292.35 43.15 294.2 46.65 296.05 51.55 296.05 56.45 296.05 59.95 294.2 63.4 292.35 63.4 289.75 Z"/>
</g>

<g id="Layer0_0_MEMBER_5_MEMBER_3_MEMBER_2_FILL">
<path fill="#FD6A6C" stroke="none" d="
M 63.4 288.75
Q 63.4 286.15 59.95 284.3 56.45 282.45 51.55 282.45 46.65 282.45 43.15 284.3 39.65 286.15 39.65 288.75 39.65 291.35 43.15 293.2 46.65 295.05 51.55 295.05 56.45 295.05 59.95 293.2 63.4 291.35 63.4 288.75 Z"/>
</g>

<g id="Layer0_0_MEMBER_5_MEMBER_3_MEMBER_3_FILL">
<path fill="#FC4549" stroke="none" d="
M 62.15 288.75
Q 62.15 286.55 59.05 285 55.95 283.45 51.55 283.45 47.15 283.45 44 285 40.9 286.55 40.9 288.75 40.9 290.95 44 292.55 47.15 294.1 51.55 294.1 55.95 294.1 59.05 292.55 62.15 290.95 62.15 288.75 Z"/>
</g>

<g id="Layer0_0_MEMBER_5_MEMBER_3_MEMBER_4_FILL">
<path fill="#EA2E33" stroke="none" d="
M 44.45 291.45
Q 45.15 291.45 46.1 290.55 47.05 289.7 46.95 289.05 46.9 288.65 47.35 288.15 47.85 287.5 48.8 287.1 50.4 286.45 52.75 286.3 54.15 286.2 54.95 285.45 55.75 284.65 54.6 284.4 53.1 283.95 50.55 284.05 46.9 284.2 44.35 285.7 41.8 287.25 42.55 289.5 43.25 291.5 44.45 291.45 Z"/>
</g>

<g id="Layer0_0_MEMBER_5_MEMBER_3_MEMBER_5_FILL">
<path fill="#EA2E33" stroke="none" d="
M 46.5 291.4
Q 45.9 292.35 47.15 292.7 50 293.55 53 293.25 55.7 292.95 58.05 291.85 60.2 290.85 60.75 289.35 61.25 287.85 59.95 286.65 58.15 285 56.8 285.85 56.3 286.2 55.75 287.75 55.35 289 53.55 289.35 53 289.45 50.6 289.6 48.75 289.7 48.05 290.1 46.95 290.65 46.5 291.4 Z"/>
</g>

<g id="Layer0_0_MEMBER_5_MEMBER_3_MEMBER_6_FILL">
<path fill="#FD6A6C" stroke="none" d="
M 52.15 285.2
Q 52.3 285.45 52.5 285.7 53.3 284.6 52.3 284.65 51.9 284.65 52.15 285.2 Z"/>
</g>

<g id="Layer0_0_MEMBER_5_MEMBER_3_MEMBER_7_FILL">
<path fill="#FD6A6C" stroke="none" d="
M 50.55 285.3
Q 50.9 285.6 51.35 285.85 51.35 284.45 50.3 284.65 49.85 284.7 50.55 285.3 Z"/>
</g>

<g id="Layer0_0_MEMBER_5_MEMBER_3_MEMBER_8_FILL">
<path fill="#FD6A6C" stroke="none" d="
M 48.8 285.55
Q 49.25 285.75 49.8 285.95 49.65 285.65 49.35 285.35 48.8 284.8 48.35 284.95 47.85 285.1 48.8 285.55 Z"/>
</g>

<g id="Layer0_0_MEMBER_5_MEMBER_3_MEMBER_9_FILL">
<path fill="#FD6A6C" stroke="none" d="
M 46.85 286.2
Q 47.45 286.4 48.2 286.55 48 286.2 47.65 285.9 46.95 285.25 46.3 285.55 45.65 285.8 46.85 286.2 Z"/>
</g>

<g id="Layer0_0_MEMBER_5_MEMBER_3_MEMBER_10_FILL">
<path fill="#FD6A6C" stroke="none" d="
M 45.4 287.25
Q 46.15 287.4 46.95 287.45 46.65 287.05 46.15 286.75 45.2 286.2 44.45 286.65 43.95 286.95 45.4 287.25 Z"/>
</g>

<g id="Layer0_0_MEMBER_5_MEMBER_3_MEMBER_11_FILL">
<path fill="#FD6A6C" stroke="none" d="
M 44.2 288.75
Q 45.25 288.95 46.2 288.35 45.75 288.2 45.15 288.1 44.05 287.85 43.65 288.15 43.1 288.55 44.2 288.75 Z"/>
</g>

<g id="Layer0_0_MEMBER_5_MEMBER_3_MEMBER_12_FILL">
<path fill="#FD6A6C" stroke="none" d="
M 44.75 290.45
Q 45.8 290.2 46.05 289.35 45.75 289.35 45.3 289.45 44.5 289.55 44.1 289.8 43.85 290 44.05 290.25 44.3 290.5 44.75 290.45 Z"/>
</g>

<g id="Layer0_0_MEMBER_5_MEMBER_3_MEMBER_13_FILL">
<path fill="#FD6A6C" stroke="none" d="
M 56.75 286.95
L 57.2 287
Q 57.8 287.1 58.35 287.05 59 287 58.85 286.75 58.75 286.5 58.15 286.45 57.65 286.4 57.15 286.7
L 56.75 286.95 Z"/>
</g>

<g id="Layer0_0_MEMBER_5_MEMBER_3_MEMBER_14_FILL">
<path fill="#FD6A6C" stroke="none" d="
M 48.85 290.6
L 48.8 290.35
Q 48.75 290.4 47.6 291.35 47.4 291.75 47.9 291.85 48.45 292 48.65 291.45 48.85 291 48.85 290.6 Z"/>
</g>

<g id="Layer0_0_MEMBER_5_MEMBER_3_MEMBER_15_FILL">
<path fill="#FD6A6C" stroke="none" d="
M 50.5 290.6
L 50.25 290.35 50.05 290.65
Q 49.85 291.05 49.9 291.45 49.95 292 50.35 292.05 50.8 292.05 50.75 291.45 50.7 290.95 50.5 290.6 Z"/>
</g>

<g id="Layer0_0_MEMBER_5_MEMBER_3_MEMBER_16_FILL">
<path fill="#FD6A6C" stroke="none" d="
M 52.1 290.4
L 51.75 290.2 51.95 291.45
Q 52.1 291.9 52.65 291.95 53.25 292 52.9 291.35 52.55 290.75 52.1 290.4 Z"/>
</g>

<g id="Layer0_0_MEMBER_5_MEMBER_3_MEMBER_17_FILL">
<path fill="#FD6A6C" stroke="none" d="
M 54.25 290.25
L 53.6 290.05 53.85 290.55
Q 54.2 291.1 54.6 291.45 55.15 291.9 55.5 291.65 55.85 291.45 55.35 290.95 55 290.5 54.25 290.25 Z"/>
</g>

<g id="Layer0_0_MEMBER_5_MEMBER_3_MEMBER_18_FILL">
<path fill="#FD6A6C" stroke="none" d="
M 55.85 289.6
L 55.15 289.45 55.6 289.95
Q 56.15 290.45 56.65 290.75 57.25 291.1 57.65 290.85 58 290.6 57.3 290.2 56.7 289.85 55.85 289.6 Z"/>
</g>

<g id="Layer0_0_MEMBER_5_MEMBER_3_MEMBER_19_FILL">
<path fill="#FD6A6C" stroke="none" d="
M 57.3 288.55
L 56.35 288.55 57.15 289.05
Q 58 289.55 58.55 289.6 59.2 289.7 59.45 289.25 59.7 288.8 59 288.7 58.4 288.6 57.3 288.55 Z"/>
</g>

<g id="Layer0_0_MEMBER_5_MEMBER_3_MEMBER_20_FILL">
<path fill="#FD6A6C" stroke="none" d="
M 56.9 287.85
L 59.25 288.1
Q 59.8 288.1 59.5 287.85 59.25 287.6 58.7 287.55 58.3 287.5 57.55 287.65
L 56.9 287.85 Z"/>
</g>

<g id="Layer0_0_MEMBER_5_MEMBER_4_MEMBER_0_FILL">
<path fill="#FFFFFF" stroke="none" d="
M 55 289.25
L 57.4 285.7 56.3 285.55 51.6 290.85
Q 50.6 291.85 44.95 292.6
L 39.45 293.1
Q 48.6 294.2 50.9 293.35 52.35 292.85 55 289.25 Z"/>
</g>

<g id="Layer0_0_MEMBER_5_MEMBER_4_MEMBER_1_FILL">
<path fill="#FEEECE" stroke="none" d="
M 52.2 291.45
Q 50.15 293 44.6 293.2
L 39.45 293.1 43.9 294.3
Q 49 295.1 52.2 293.2 55.4 291.3 57.25 288.6
L 58.45 286.25 57.4 285.7 55.85 287.75
Q 53.95 290.1 52.2 291.45 Z"/>
</g>

<g id="Layer0_0_MEMBER_5_MEMBER_5_FILL">
<path fill="#F2B03D" stroke="none" d="
M 26.35 283.5
Q 22.1 288.45 20.2 292
L 50.95 274.65
Q 53.8 270.45 54.7 267.4 56.5 261.25 46.75 266.85 34.85 273.65 26.35 283.5 Z"/>
</g>

<g id="Layer0_0_MEMBER_5_MEMBER_6_FILL">
<path fill="#D18725" fill-opacity="0.4980392156862745" stroke="none" d="
M 0 21.35
Q 18 11.85 25 7.35 26.55 0.95 26.45 0.55 26.15 -0.8 21.5 1.8 17.15 4.2 8.15 13 3.65 17.45 0 21.35 Z"/>
</g>

<g id="Layer0_0_MEMBER_5_MEMBER_7_MEMBER_0_FILL">
<path fill="#FD872E" stroke="none" d="
M 26.1 293.8
Q 28.95 292.4 32.7 290.75 40.2 287.45 44.65 286.35 51.75 284.65 60.7 283.7
L 62.75 283.7
Q 64.85 283.55 64.8 282.9 64.8 281.85 64.65 281.55 64.35 280.9 63.2 280.55 62.2 280.25 52.6 282.1 41.8 284.25 36.55 286.6 31.5 288.85 28.3 291.55 26.7 292.9 26.1 293.8 Z"/>
</g>

<g id="Layer0_0_MEMBER_5_MEMBER_7_MEMBER_1_FILL">
<path fill="#E06621" stroke="none" d="
M 26.1 293.8
L 28.9 292.4
Q 32.1 290.85 34.05 290.15 43.05 286.95 49.35 285.9 54.95 284.9 64.75 284
L 64.85 282.35
Q 50.5 284.05 42.1 286.25 37.25 287.55 31.2 290.8 28.15 292.45 26.1 293.8 Z"/>
</g>

<g id="Layer0_0_MEMBER_5_MEMBER_8_MEMBER_0_MEMBER_0_FILL">
<path fill="#73A92E" stroke="none" d="
M 40.05 287
Q 34.1 290 33.95 295 33.85 297.5 34.95 299.4
L 37.95 297.6
Q 37.1 296.15 37.15 294.25 37.25 290.4 41.8 288.1 46.35 285.8 51.2 286.55 53.6 286.9 55.1 287.7
L 57.4 286.45
Q 55.45 285.4 52.3 284.95 46 284 40.05 287 Z"/>
</g>

<g id="Layer0_0_MEMBER_5_MEMBER_8_MEMBER_0_MEMBER_1_FILL">
<path fill="#BECF43" stroke="none" d="
M 51.2 286.55
Q 46.35 285.8 41.8 288.1 37.25 290.4 37.15 294.25 37.1 296.15 37.95 297.6
L 41.35 295.65
Q 41.45 292.95 44.65 291.3 47.8 289.8 50.9 290.15
L 55.1 287.7
Q 53.6 286.9 51.2 286.55 Z"/>
</g>

<g id="Layer0_0_MEMBER_5_MEMBER_8_MEMBER_1_FILL">
<path fill="#DCE651" stroke="none" d="
M 48.85 290.65
Q 50 290.35 50.9 290.15 50.2 289.9 49.05 289.9 46.7 289.9 44.4 291.1 41.95 292.35 41.4 294.15 41.15 295 41.35 295.65 41.75 295 42.5 294.15 44 292.55 45.7 291.75 46.65 291.3 48.85 290.65 Z"/>
</g>

<g id="Layer0_0_MEMBER_5_MEMBER_9_MEMBER_0_FILL">
<path fill="#FD872E" stroke="none" d="
M 24.1 291.55
Q 26.85 289.95 30.45 288 37.7 284.2 42.05 282.8 49 280.55 57.85 279 62 278.95 61.9 277.9 61.85 276.85 61.7 276.55 61.35 275.95 60.15 275.7 59.15 275.45 49.7 278 39.05 280.85 34 283.6 29.1 286.25 26.1 289.15 24.6 290.6 24.1 291.55 Z"/>
</g>

<g id="Layer0_0_MEMBER_5_MEMBER_9_MEMBER_1_FILL">
<path fill="#E06621" stroke="none" d="
M 24.1 291.55
Q 25.25 290.85 26.8 289.95 29.9 288.2 31.75 287.35 40.05 283.6 46.7 282 52.25 280.6 61.95 279
L 61.95 277.35
Q 47.7 280.05 39.5 282.85 34.8 284.5 28.95 288.2 26.05 290.05 24.1 291.55 Z"/>
</g>

<g id="Layer0_0_MEMBER_5_MEMBER_10_MEMBER_0_FILL">
<path fill="#F6D391" stroke="none" d="
M 30.8 289.95
Q 30.15 291.8 29.85 294.65
L 29.85 295.75
Q 30.25 294.05 31.2 292.1 33.15 288.25 36.2 287.2 39.2 286.15 44.6 286.2 47.25 286.25 49.35 286.45
L 49.5 285.3
Q 49 284.95 47.75 284.7 45.25 284.2 41.65 284.6 37.55 285.1 34.3 286.85 31.35 288.45 30.8 289.95 Z"/>
</g>

<g id="Layer0_0_MEMBER_5_MEMBER_10_MEMBER_1_FILL">
<path fill="#FEEECE" stroke="none" d="
M 28.6 294.8
L 29.85 294.65
Q 29.8 293.3 30.65 291.55 32.4 288.05 37 286.1 39.9 284.9 45 284.95 47.55 285 49.5 285.3
L 49.35 284.25
Q 47.4 283.85 44.55 283.75 38.9 283.6 34.6 285.3 30.25 287 29 291.1 28.35 293.1 28.6 294.8 Z"/>
</g>

<g id="Layer0_0_MEMBER_5_MEMBER_10_MEMBER_2_FILL">
<path fill="#FFFFFF" stroke="none" d="
M 29.85 294.65
L 28.6 294.8 28.6 296.2 29.85 295.75 29.85 294.65 Z"/>
</g>

<g id="Layer0_0_MEMBER_5_MEMBER_11_MEMBER_0_MEMBER_0_FILL">
<path fill="#73A92E" stroke="none" d="
M 38.1 283.4
Q 38.05 285.9 39.15 287.8
L 42.1 286
Q 41.25 284.55 41.3 282.6 41.45 278.8 46 276.5 50.55 274.2 55.35 274.95 57.8 275.3 59.3 276.1
L 61.6 274.85
Q 59.65 273.8 56.45 273.35 50.15 272.4 44.2 275.4 38.25 278.4 38.1 283.4 Z"/>
</g>

<g id="Layer0_0_MEMBER_5_MEMBER_11_MEMBER_0_MEMBER_1_FILL">
<path fill="#BECF43" stroke="none" d="
M 55.35 274.95
Q 50.55 274.2 46 276.5 41.45 278.8 41.3 282.6 41.25 284.55 42.1 286
L 45.5 284.05
Q 45.6 281.35 48.8 279.7 51.85 278.2 55.05 278.55
L 59.3 276.1
Q 57.8 275.3 55.35 274.95 Z"/>
</g>

<g id="Layer0_0_MEMBER_5_MEMBER_11_MEMBER_1_FILL">
<path fill="#DCE651" stroke="none" d="
M 53.05 279.05
Q 54.15 278.75 55.05 278.55 54.35 278.3 53.2 278.3 50.85 278.3 48.55 279.45 46.1 280.75 45.55 282.5 45.3 283.4 45.5 284.05 45.9 283.4 46.65 282.55 48.15 280.9 49.85 280.1 50.8 279.65 53.05 279.05 Z"/>
</g>

<g id="Layer0_0_MEMBER_5_MEMBER_12_FILL">
<path fill="#FEE2A9" stroke="none" d="
M 55.05 281.8
Q 55.7 280.95 54.8 278.75 54 276.95 52.5 276.45 51.2 276 49.9 276.85 48.65 277.6 48.1 279 47.75 279.85 47.75 280.3 47.7 280.95 48.3 281.45 48.75 281.8 49.8 281.8 50.5 281.85 52.25 282.35 54.2 282.95 55.05 281.8 Z"/>
</g>

<g id="Layer0_0_MEMBER_5_MEMBER_13_FILL">
<path fill="#FFFFFF" fill-opacity="0.4980392156862745" stroke="none" d="
M 3.1 1.25
L 2.45 0.25
Q 2 -0.35 1 0.3 0 0.9 0 1.6 0 2.35 1.05 2.65 1.95 2.75 2.15 2.75 2.75 2.7 3.1 2.25 3.4 1.85 3.1 1.25 Z"/>
</g>

<g id="Layer0_0_MEMBER_5_MEMBER_14_FILL">
<path fill="#FEE2A9" stroke="none" d="
M 37.25 292.2
Q 38.35 292.7 39.8 292.4 41.4 292.05 41.65 290.9 41.95 289.65 40.7 288.9 39.55 288.25 38.25 289.35 37.95 289.6 37.45 290.3 36.9 291.1 36.85 291.55 36.85 292.05 37.25 292.2 Z"/>
</g>

<g id="Layer0_0_MEMBER_5_MEMBER_15_FILL">
<path fill="#FEE2A9" stroke="none" d="
M 47.05 286.85
Q 44.2 286.5 43.55 287.25 42.5 288.4 43.55 289.7 44.45 290.85 45.85 291.05 47.2 291.3 48.55 290.65 50.05 289.9 50.05 288.5 50 287.15 47.05 286.85 Z"/>
</g>

<g id="Layer0_0_MEMBER_5_MEMBER_16_FILL">
<path fill="#FFFFFF" fill-opacity="0.4980392156862745" stroke="none" d="
M 2.9 0.1
Q 2.25 -0.1 1.45 0.1 0.6 -0.2 0.15 0.5 -0.25 1.15 0.45 1.75 0.95 2.15 1.75 2.4 2.45 2.7 3.15 2.3 3.8 1.9 3.75 1.1 3.7 0.35 2.9 0.1 Z"/>
</g>

<g id="Layer0_0_MEMBER_5_MEMBER_17_MEMBER_0_FILL">
<path fill="#EA2E33" stroke="none" d="
M 27.8 290.9
Q 31.45 291.4 34.05 290.15 39.35 287.65 41.7 282.05 42.6 279.95 42.25 277
L 41.7 274.45 25.2 289.4 24.65 290.1 27.8 290.9 Z"/>
</g>

<g id="Layer0_0_MEMBER_5_MEMBER_17_MEMBER_1_FILL">
<path fill="#FC4549" stroke="none" d="
M 25.2 289.4
L 27.2 289.8
Q 29.45 290.15 30.8 289.95 32.9 289.6 35.2 288.15 37.85 286.45 39.7 283.7 41.35 281.25 41.35 277.9
L 41 275.05 25.2 289.4 Z"/>
</g>

<g id="Layer0_0_MEMBER_5_MEMBER_17_MEMBER_2_FILL">
<path fill="#FD6A6C" stroke="none" d="
M 37 280.7
Q 35.5 283.25 34.75 283.85 33.95 284.5 33.05 284.65 32 284.8 31.2 285.25 30.45 285.65 29.45 286.8 28.4 288 28.3 288.7 28.15 289.5 30.85 289.1 33.65 288.6 35.55 287.05 37.4 285.5 38.55 283.9 39.2 282.9 40 281.15 40.7 279.7 40.45 278.45 40.25 277.1 39.05 277.85 38.45 278.25 37 280.7 Z"/>
</g>

<g id="Layer0_0_MEMBER_5_MEMBER_17_MEMBER_3_FILL">
<path fill="#EA2E33" stroke="none" d="
M 32.1 286.15
L 31.85 285.85 30.85 287.75
Q 30.7 288.3 31.4 288.05 32.1 287.8 32.2 287.15 32.3 286.55 32.1 286.15 Z"/>
</g>

<g id="Layer0_0_MEMBER_5_MEMBER_17_MEMBER_4_FILL">
<path fill="#EA2E33" stroke="none" d="
M 33.9 285.7
L 33.5 285.45 33.45 286.25
Q 33.4 287.05 33.6 287.25 33.8 287.45 34.15 287.2 34.55 286.9 34.4 286.45 34.3 286.05 33.9 285.7 Z"/>
</g>

<g id="Layer0_0_MEMBER_5_MEMBER_17_MEMBER_5_FILL">
<path fill="#EA2E33" stroke="none" d="
M 35.65 284.5
L 35.2 284.45 35.3 284.85
Q 35.45 285.3 35.85 285.6 36.15 285.8 36.3 285.35 36.5 284.9 36.25 284.75 36.1 284.6 35.65 284.5 Z"/>
</g>

<g id="Layer0_0_MEMBER_5_MEMBER_17_MEMBER_6_FILL">
<path fill="#EA2E33" stroke="none" d="
M 37.8 282.9
L 36.35 282.9
Q 37.2 284.1 37.6 284.05 37.85 284 38 283.5 38.15 282.95 37.8 282.9 Z"/>
</g>

<g id="Layer0_0_MEMBER_5_MEMBER_17_MEMBER_7_FILL">
<path fill="#EA2E33" stroke="none" d="
M 37.1 281.7
L 37.55 281.8
Q 38.1 281.9 38.7 281.9 39.35 281.9 39.3 281.55 39.2 281.2 38.8 281.15 38.5 281.1 37.75 281.4
L 37.1 281.7 Z"/>
</g>

<g id="Layer0_0_MEMBER_5_MEMBER_17_MEMBER_8_FILL">
<path fill="#EA2E33" stroke="none" d="
M 37.6 280.4
L 39.3 280.15
Q 39.85 280 39.7 279.75 39.55 279.5 39.05 279.4 38.65 279.35 38.1 279.9 37.8 280.15 37.6 280.4 Z"/>
</g>

<g id="Layer0_0_MEMBER_5_MEMBER_18_FILL">
<path fill="#5F8D20" stroke="none" d="
M 55.15 282.2
L 56.55 278.75
Q 55.75 278.75 54.8 279.05 52.9 279.7 52.05 281.4 51.2 283.1 51.4 284.9 51.5 285.8 51.75 286.35 54.35 284.4 55.15 282.2 Z"/>
</g>

<g id="Layer0_0_MEMBER_5_MEMBER_19_FILL">
<path fill="#5F8D20" stroke="none" d="
M 47.5 275.75
L 47.4 274.65 45.9 275.6
Q 44.3 276.7 43.8 277.6 43.3 278.55 43.55 279.4 43.65 279.85 43.85 280.1
L 45.4 279.65
Q 47 279 47.25 278 47.5 277.05 47.5 275.75 Z"/>
</g>

<g id="Layer0_0_MEMBER_5_MEMBER_20_FILL">
<path fill="#5F8D20" stroke="none" d="
M 28.3 289.4
L 29.05 290.95
Q 29.95 292.7 30.85 293.65 31.75 294.55 33.7 294.65 34.65 294.7 35.45 294.55 34.05 292.35 32.95 290.8 32.25 289.85 30.2 289.55
L 28.3 289.4 Z"/>
</g>

<g id="Layer0_0_MEMBER_5_MEMBER_21_FILL">
<path fill="#BECF43" stroke="none" d="
M 58.8 281.05
L 58 280 57.35 280.9
Q 56.65 282 56.65 283.1 56.6 284.85 56.8 286.3 58.9 284.4 59.3 283.1 59.55 282.3 58.8 281.05 Z"/>
</g>

<g id="Layer0_0_MEMBER_6_MEMBER_0_FILL">
<path fill="#FEE2A9" stroke="none" d="
M 19.9 290.25
L 19.1 292 20.55 293.3
Q 22.85 294.95 27.25 296.8 33.5 299.5 41.15 298.85 47.9 298.3 54.3 295.3 58.4 293.35 60.55 290.85
L 61.85 288.75 61.85 285.15 19.9 290.25 Z"/>
</g>

<g id="Layer0_0_MEMBER_6_MEMBER_1_FILL">
<path fill="#FEE2A9" stroke="none" d="
M 39.05 270.1
Q 30.45 276.25 24.1 284.25 20.9 288.3 19.45 291.05
L 20.2 292 54.75 264.85 53.1 263.45
Q 52.4 263.1 50.3 263.75 46.1 265.05 39.05 270.1 Z"/>
</g>

<g id="Layer0_0_MEMBER_6_MEMBER_2_FILL">
<path fill="#FEC554" stroke="none" d="
M 20.2 292
L 23.15 293.7
Q 26.9 295.65 31 296.7 44.2 300 56.1 293.15 65.85 287.55 59.4 280.55 57.35 278.35 53.95 276.3
L 50.95 274.65 20.2 292 Z"/>
</g>

<g id="Layer0_0_MEMBER_6_MEMBER_3_MEMBER_0_FILL">
<path fill="#EA2E33" stroke="none" d="
M 39.65 288.7
L 39.65 290 63.4 290 63.4 288.7 39.65 288.7 Z"/>
</g>

<g id="Layer0_0_MEMBER_6_MEMBER_3_MEMBER_1_FILL">
<path fill="#EA2E33" stroke="none" d="
M 63.4 289.75
Q 63.4 287.15 59.95 285.3 56.45 283.45 51.55 283.45 46.65 283.45 43.15 285.3 39.65 287.15 39.65 289.75 39.65 292.35 43.15 294.2 46.65 296.05 51.55 296.05 56.45 296.05 59.95 294.2 63.4 292.35 63.4 289.75 Z"/>
</g>

<g id="Layer0_0_MEMBER_6_MEMBER_3_MEMBER_2_FILL">
<path fill="#FD6A6C" stroke="none" d="
M 63.4 288.75
Q 63.4 286.15 59.95 284.3 56.45 282.45 51.55 282.45 46.65 282.45 43.15 284.3 39.65 286.15 39.65 288.75 39.65 291.35 43.15 293.2 46.65 295.05 51.55 295.05 56.45 295.05 59.95 293.2 63.4 291.35 63.4 288.75 Z"/>
</g>

<g id="Layer0_0_MEMBER_6_MEMBER_3_MEMBER_3_FILL">
<path fill="#FC4549" stroke="none" d="
M 62.15 288.75
Q 62.15 286.55 59.05 285 55.95 283.45 51.55 283.45 47.15 283.45 44 285 40.9 286.55 40.9 288.75 40.9 290.95 44 292.55 47.15 294.1 51.55 294.1 55.95 294.1 59.05 292.55 62.15 290.95 62.15 288.75 Z"/>
</g>

<g id="Layer0_0_MEMBER_6_MEMBER_3_MEMBER_4_FILL">
<path fill="#EA2E33" stroke="none" d="
M 44.45 291.45
Q 45.15 291.45 46.1 290.55 47.05 289.7 46.95 289.05 46.9 288.65 47.35 288.15 47.85 287.5 48.8 287.1 50.4 286.45 52.75 286.3 54.15 286.2 54.95 285.45 55.75 284.65 54.6 284.4 53.1 283.95 50.55 284.05 46.9 284.2 44.35 285.7 41.8 287.25 42.55 289.5 43.25 291.5 44.45 291.45 Z"/>
</g>

<g id="Layer0_0_MEMBER_6_MEMBER_3_MEMBER_5_FILL">
<path fill="#EA2E33" stroke="none" d="
M 46.5 291.4
Q 45.9 292.35 47.15 292.7 50 293.55 53 293.25 55.7 292.95 58.05 291.85 60.2 290.85 60.75 289.35 61.25 287.85 59.95 286.65 58.15 285 56.8 285.85 56.3 286.2 55.75 287.75 55.35 289 53.55 289.35 53 289.45 50.6 289.6 48.75 289.7 48.05 290.1 46.95 290.65 46.5 291.4 Z"/>
</g>

<g id="Layer0_0_MEMBER_6_MEMBER_3_MEMBER_6_FILL">
<path fill="#FD6A6C" stroke="none" d="
M 52.15 285.2
Q 52.3 285.45 52.5 285.7 53.3 284.6 52.3 284.65 51.9 284.65 52.15 285.2 Z"/>
</g>

<g id="Layer0_0_MEMBER_6_MEMBER_3_MEMBER_7_FILL">
<path fill="#FD6A6C" stroke="none" d="
M 50.55 285.3
Q 50.9 285.6 51.35 285.85 51.35 284.45 50.3 284.65 49.85 284.7 50.55 285.3 Z"/>
</g>

<g id="Layer0_0_MEMBER_6_MEMBER_3_MEMBER_8_FILL">
<path fill="#FD6A6C" stroke="none" d="
M 48.8 285.55
Q 49.25 285.75 49.8 285.95 49.65 285.65 49.35 285.35 48.8 284.8 48.35 284.95 47.85 285.1 48.8 285.55 Z"/>
</g>

<g id="Layer0_0_MEMBER_6_MEMBER_3_MEMBER_9_FILL">
<path fill="#FD6A6C" stroke="none" d="
M 46.85 286.2
Q 47.45 286.4 48.2 286.55 48 286.2 47.65 285.9 46.95 285.25 46.3 285.55 45.65 285.8 46.85 286.2 Z"/>
</g>

<g id="Layer0_0_MEMBER_6_MEMBER_3_MEMBER_10_FILL">
<path fill="#FD6A6C" stroke="none" d="
M 45.4 287.25
Q 46.15 287.4 46.95 287.45 46.65 287.05 46.15 286.75 45.2 286.2 44.45 286.65 43.95 286.95 45.4 287.25 Z"/>
</g>

<g id="Layer0_0_MEMBER_6_MEMBER_3_MEMBER_11_FILL">
<path fill="#FD6A6C" stroke="none" d="
M 44.2 288.75
Q 45.25 288.95 46.2 288.35 45.75 288.2 45.15 288.1 44.05 287.85 43.65 288.15 43.1 288.55 44.2 288.75 Z"/>
</g>

<g id="Layer0_0_MEMBER_6_MEMBER_3_MEMBER_12_FILL">
<path fill="#FD6A6C" stroke="none" d="
M 44.75 290.45
Q 45.8 290.2 46.05 289.35 45.75 289.35 45.3 289.45 44.5 289.55 44.1 289.8 43.85 290 44.05 290.25 44.3 290.5 44.75 290.45 Z"/>
</g>

<g id="Layer0_0_MEMBER_6_MEMBER_3_MEMBER_13_FILL">
<path fill="#FD6A6C" stroke="none" d="
M 56.75 286.95
L 57.2 287
Q 57.8 287.1 58.35 287.05 59 287 58.85 286.75 58.75 286.5 58.15 286.45 57.65 286.4 57.15 286.7
L 56.75 286.95 Z"/>
</g>

<g id="Layer0_0_MEMBER_6_MEMBER_3_MEMBER_14_FILL">
<path fill="#FD6A6C" stroke="none" d="
M 48.85 290.6
L 48.8 290.35
Q 48.75 290.4 47.6 291.35 47.4 291.75 47.9 291.85 48.45 292 48.65 291.45 48.85 291 48.85 290.6 Z"/>
</g>

<g id="Layer0_0_MEMBER_6_MEMBER_3_MEMBER_15_FILL">
<path fill="#FD6A6C" stroke="none" d="
M 50.5 290.6
L 50.25 290.35 50.05 290.65
Q 49.85 291.05 49.9 291.45 49.95 292 50.35 292.05 50.8 292.05 50.75 291.45 50.7 290.95 50.5 290.6 Z"/>
</g>

<g id="Layer0_0_MEMBER_6_MEMBER_3_MEMBER_16_FILL">
<path fill="#FD6A6C" stroke="none" d="
M 52.1 290.4
L 51.75 290.2 51.95 291.45
Q 52.1 291.9 52.65 291.95 53.25 292 52.9 291.35 52.55 290.75 52.1 290.4 Z"/>
</g>

<g id="Layer0_0_MEMBER_6_MEMBER_3_MEMBER_17_FILL">
<path fill="#FD6A6C" stroke="none" d="
M 54.25 290.25
L 53.6 290.05 53.85 290.55
Q 54.2 291.1 54.6 291.45 55.15 291.9 55.5 291.65 55.85 291.45 55.35 290.95 55 290.5 54.25 290.25 Z"/>
</g>

<g id="Layer0_0_MEMBER_6_MEMBER_3_MEMBER_18_FILL">
<path fill="#FD6A6C" stroke="none" d="
M 55.85 289.6
L 55.15 289.45 55.6 289.95
Q 56.15 290.45 56.65 290.75 57.25 291.1 57.65 290.85 58 290.6 57.3 290.2 56.7 289.85 55.85 289.6 Z"/>
</g>

<g id="Layer0_0_MEMBER_6_MEMBER_3_MEMBER_19_FILL">
<path fill="#FD6A6C" stroke="none" d="
M 57.3 288.55
L 56.35 288.55 57.15 289.05
Q 58 289.55 58.55 289.6 59.2 289.7 59.45 289.25 59.7 288.8 59 288.7 58.4 288.6 57.3 288.55 Z"/>
</g>

<g id="Layer0_0_MEMBER_6_MEMBER_3_MEMBER_20_FILL">
<path fill="#FD6A6C" stroke="none" d="
M 56.9 287.85
L 59.25 288.1
Q 59.8 288.1 59.5 287.85 59.25 287.6 58.7 287.55 58.3 287.5 57.55 287.65
L 56.9 287.85 Z"/>
</g>

<g id="Layer0_0_MEMBER_6_MEMBER_4_MEMBER_0_FILL">
<path fill="#FFFFFF" stroke="none" d="
M 55 289.25
L 57.4 285.7 56.3 285.55 51.6 290.85
Q 50.6 291.85 44.95 292.6
L 39.45 293.1
Q 48.6 294.2 50.9 293.35 52.35 292.85 55 289.25 Z"/>
</g>

<g id="Layer0_0_MEMBER_6_MEMBER_4_MEMBER_1_FILL">
<path fill="#FEEECE" stroke="none" d="
M 52.2 291.45
Q 50.15 293 44.6 293.2
L 39.45 293.1 43.9 294.3
Q 49 295.1 52.2 293.2 55.4 291.3 57.25 288.6
L 58.45 286.25 57.4 285.7 55.85 287.75
Q 53.95 290.1 52.2 291.45 Z"/>
</g>

<g id="Layer0_0_MEMBER_6_MEMBER_5_FILL">
<path fill="#F2B03D" stroke="none" d="
M 26.35 283.5
Q 22.1 288.45 20.2 292
L 50.95 274.65
Q 53.8 270.45 54.7 267.4 56.5 261.25 46.75 266.85 34.85 273.65 26.35 283.5 Z"/>
</g>

<g id="Layer0_0_MEMBER_6_MEMBER_6_FILL">
<path fill="#D18725" fill-opacity="0.4980392156862745" stroke="none" d="
M 0 21.35
Q 18 11.85 25 7.35 26.55 0.95 26.45 0.55 26.15 -0.8 21.5 1.8 17.15 4.2 8.15 13 3.65 17.45 0 21.35 Z"/>
</g>

<g id="Layer0_0_MEMBER_6_MEMBER_7_MEMBER_0_FILL">
<path fill="#FD872E" stroke="none" d="
M 26.1 293.8
Q 28.95 292.4 32.7 290.75 40.2 287.45 44.65 286.35 51.75 284.65 60.7 283.7
L 62.75 283.7
Q 64.85 283.55 64.8 282.9 64.8 281.85 64.65 281.55 64.35 280.9 63.2 280.55 62.2 280.25 52.6 282.1 41.8 284.25 36.55 286.6 31.5 288.85 28.3 291.55 26.7 292.9 26.1 293.8 Z"/>
</g>

<g id="Layer0_0_MEMBER_6_MEMBER_7_MEMBER_1_FILL">
<path fill="#E06621" stroke="none" d="
M 26.1 293.8
L 28.9 292.4
Q 32.1 290.85 34.05 290.15 43.05 286.95 49.35 285.9 54.95 284.9 64.75 284
L 64.85 282.35
Q 50.5 284.05 42.1 286.25 37.25 287.55 31.2 290.8 28.15 292.45 26.1 293.8 Z"/>
</g>

<g id="Layer0_0_MEMBER_6_MEMBER_8_MEMBER_0_MEMBER_0_FILL">
<path fill="#73A92E" stroke="none" d="
M 40.05 287
Q 34.1 290 33.95 295 33.85 297.5 34.95 299.4
L 37.95 297.6
Q 37.1 296.15 37.15 294.25 37.25 290.4 41.8 288.1 46.35 285.8 51.2 286.55 53.6 286.9 55.1 287.7
L 57.4 286.45
Q 55.45 285.4 52.3 284.95 46 284 40.05 287 Z"/>
</g>

<g id="Layer0_0_MEMBER_6_MEMBER_8_MEMBER_0_MEMBER_1_FILL">
<path fill="#BECF43" stroke="none" d="
M 51.2 286.55
Q 46.35 285.8 41.8 288.1 37.25 290.4 37.15 294.25 37.1 296.15 37.95 297.6
L 41.35 295.65
Q 41.45 292.95 44.65 291.3 47.8 289.8 50.9 290.15
L 55.1 287.7
Q 53.6 286.9 51.2 286.55 Z"/>
</g>

<g id="Layer0_0_MEMBER_6_MEMBER_8_MEMBER_1_FILL">
<path fill="#DCE651" stroke="none" d="
M 48.85 290.65
Q 50 290.35 50.9 290.15 50.2 289.9 49.05 289.9 46.7 289.9 44.4 291.1 41.95 292.35 41.4 294.15 41.15 295 41.35 295.65 41.75 295 42.5 294.15 44 292.55 45.7 291.75 46.65 291.3 48.85 290.65 Z"/>
</g>

<g id="Layer0_0_MEMBER_6_MEMBER_9_MEMBER_0_FILL">
<path fill="#FD872E" stroke="none" d="
M 24.1 291.55
Q 26.85 289.95 30.45 288 37.7 284.2 42.05 282.8 49 280.55 57.85 279 62 278.95 61.9 277.9 61.85 276.85 61.7 276.55 61.35 275.95 60.15 275.7 59.15 275.45 49.7 278 39.05 280.85 34 283.6 29.1 286.25 26.1 289.15 24.6 290.6 24.1 291.55 Z"/>
</g>

<g id="Layer0_0_MEMBER_6_MEMBER_9_MEMBER_1_FILL">
<path fill="#E06621" stroke="none" d="
M 24.1 291.55
Q 25.25 290.85 26.8 289.95 29.9 288.2 31.75 287.35 40.05 283.6 46.7 282 52.25 280.6 61.95 279
L 61.95 277.35
Q 47.7 280.05 39.5 282.85 34.8 284.5 28.95 288.2 26.05 290.05 24.1 291.55 Z"/>
</g>

<g id="Layer0_0_MEMBER_6_MEMBER_10_MEMBER_0_FILL">
<path fill="#F6D391" stroke="none" d="
M 30.8 289.95
Q 30.15 291.8 29.85 294.65
L 29.85 295.75
Q 30.25 294.05 31.2 292.1 33.15 288.25 36.2 287.2 39.2 286.15 44.6 286.2 47.25 286.25 49.35 286.45
L 49.5 285.3
Q 49 284.95 47.75 284.7 45.25 284.2 41.65 284.6 37.55 285.1 34.3 286.85 31.35 288.45 30.8 289.95 Z"/>
</g>

<g id="Layer0_0_MEMBER_6_MEMBER_10_MEMBER_1_FILL">
<path fill="#FEEECE" stroke="none" d="
M 28.6 294.8
L 29.85 294.65
Q 29.8 293.3 30.65 291.55 32.4 288.05 37 286.1 39.9 284.9 45 284.95 47.55 285 49.5 285.3
L 49.35 284.25
Q 47.4 283.85 44.55 283.75 38.9 283.6 34.6 285.3 30.25 287 29 291.1 28.35 293.1 28.6 294.8 Z"/>
</g>

<g id="Layer0_0_MEMBER_6_MEMBER_10_MEMBER_2_FILL">
<path fill="#FFFFFF" stroke="none" d="
M 29.85 294.65
L 28.6 294.8 28.6 296.2 29.85 295.75 29.85 294.65 Z"/>
</g>

<g id="Layer0_0_MEMBER_6_MEMBER_11_MEMBER_0_MEMBER_0_FILL">
<path fill="#73A92E" stroke="none" d="
M 38.1 283.4
Q 38.05 285.9 39.15 287.8
L 42.1 286
Q 41.25 284.55 41.3 282.6 41.45 278.8 46 276.5 50.55 274.2 55.35 274.95 57.8 275.3 59.3 276.1
L 61.6 274.85
Q 59.65 273.8 56.45 273.35 50.15 272.4 44.2 275.4 38.25 278.4 38.1 283.4 Z"/>
</g>

<g id="Layer0_0_MEMBER_6_MEMBER_11_MEMBER_0_MEMBER_1_FILL">
<path fill="#BECF43" stroke="none" d="
M 55.35 274.95
Q 50.55 274.2 46 276.5 41.45 278.8 41.3 282.6 41.25 284.55 42.1 286
L 45.5 284.05
Q 45.6 281.35 48.8 279.7 51.85 278.2 55.05 278.55
L 59.3 276.1
Q 57.8 275.3 55.35 274.95 Z"/>
</g>

<g id="Layer0_0_MEMBER_6_MEMBER_11_MEMBER_1_FILL">
<path fill="#DCE651" stroke="none" d="
M 53.05 279.05
Q 54.15 278.75 55.05 278.55 54.35 278.3 53.2 278.3 50.85 278.3 48.55 279.45 46.1 280.75 45.55 282.5 45.3 283.4 45.5 284.05 45.9 283.4 46.65 282.55 48.15 280.9 49.85 280.1 50.8 279.65 53.05 279.05 Z"/>
</g>

<g id="Layer0_0_MEMBER_6_MEMBER_12_FILL">
<path fill="#FEE2A9" stroke="none" d="
M 55.05 281.8
Q 55.7 280.95 54.8 278.75 54 276.95 52.5 276.45 51.2 276 49.9 276.85 48.65 277.6 48.1 279 47.75 279.85 47.75 280.3 47.7 280.95 48.3 281.45 48.75 281.8 49.8 281.8 50.5 281.85 52.25 282.35 54.2 282.95 55.05 281.8 Z"/>
</g>

<g id="Layer0_0_MEMBER_6_MEMBER_13_FILL">
<path fill="#FFFFFF" fill-opacity="0.4980392156862745" stroke="none" d="
M 3.1 1.25
L 2.45 0.25
Q 2 -0.35 1 0.3 0 0.9 0 1.6 0 2.35 1.05 2.65 1.95 2.75 2.15 2.75 2.75 2.7 3.1 2.25 3.4 1.85 3.1 1.25 Z"/>
</g>

<g id="Layer0_0_MEMBER_6_MEMBER_14_FILL">
<path fill="#FEE2A9" stroke="none" d="
M 37.25 292.2
Q 38.35 292.7 39.8 292.4 41.4 292.05 41.65 290.9 41.95 289.65 40.7 288.9 39.55 288.25 38.25 289.35 37.95 289.6 37.45 290.3 36.9 291.1 36.85 291.55 36.85 292.05 37.25 292.2 Z"/>
</g>

<g id="Layer0_0_MEMBER_6_MEMBER_15_FILL">
<path fill="#FEE2A9" stroke="none" d="
M 47.05 286.85
Q 44.2 286.5 43.55 287.25 42.5 288.4 43.55 289.7 44.45 290.85 45.85 291.05 47.2 291.3 48.55 290.65 50.05 289.9 50.05 288.5 50 287.15 47.05 286.85 Z"/>
</g>

<g id="Layer0_0_MEMBER_6_MEMBER_16_FILL">
<path fill="#FFFFFF" fill-opacity="0.4980392156862745" stroke="none" d="
M 2.9 0.1
Q 2.25 -0.1 1.45 0.1 0.6 -0.2 0.15 0.5 -0.25 1.15 0.45 1.75 0.95 2.15 1.75 2.4 2.45 2.7 3.15 2.3 3.8 1.9 3.75 1.1 3.7 0.35 2.9 0.1 Z"/>
</g>

<g id="Layer0_0_MEMBER_6_MEMBER_17_MEMBER_0_FILL">
<path fill="#EA2E33" stroke="none" d="
M 27.8 290.9
Q 31.45 291.4 34.05 290.15 39.35 287.65 41.7 282.05 42.6 279.95 42.25 277
L 41.7 274.45 25.2 289.4 24.65 290.1 27.8 290.9 Z"/>
</g>

<g id="Layer0_0_MEMBER_6_MEMBER_17_MEMBER_1_FILL">
<path fill="#FC4549" stroke="none" d="
M 25.2 289.4
L 27.2 289.8
Q 29.45 290.15 30.8 289.95 32.9 289.6 35.2 288.15 37.85 286.45 39.7 283.7 41.35 281.25 41.35 277.9
L 41 275.05 25.2 289.4 Z"/>
</g>

<g id="Layer0_0_MEMBER_6_MEMBER_17_MEMBER_2_FILL">
<path fill="#FD6A6C" stroke="none" d="
M 37 280.7
Q 35.5 283.25 34.75 283.85 33.95 284.5 33.05 284.65 32 284.8 31.2 285.25 30.45 285.65 29.45 286.8 28.4 288 28.3 288.7 28.15 289.5 30.85 289.1 33.65 288.6 35.55 287.05 37.4 285.5 38.55 283.9 39.2 282.9 40 281.15 40.7 279.7 40.45 278.45 40.25 277.1 39.05 277.85 38.45 278.25 37 280.7 Z"/>
</g>

<g id="Layer0_0_MEMBER_6_MEMBER_17_MEMBER_3_FILL">
<path fill="#EA2E33" stroke="none" d="
M 32.1 286.15
L 31.85 285.85 30.85 287.75
Q 30.7 288.3 31.4 288.05 32.1 287.8 32.2 287.15 32.3 286.55 32.1 286.15 Z"/>
</g>

<g id="Layer0_0_MEMBER_6_MEMBER_17_MEMBER_4_FILL">
<path fill="#EA2E33" stroke="none" d="
M 33.9 285.7
L 33.5 285.45 33.45 286.25
Q 33.4 287.05 33.6 287.25 33.8 287.45 34.15 287.2 34.55 286.9 34.4 286.45 34.3 286.05 33.9 285.7 Z"/>
</g>

<g id="Layer0_0_MEMBER_6_MEMBER_17_MEMBER_5_FILL">
<path fill="#EA2E33" stroke="none" d="
M 35.65 284.5
L 35.2 284.45 35.3 284.85
Q 35.45 285.3 35.85 285.6 36.15 285.8 36.3 285.35 36.5 284.9 36.25 284.75 36.1 284.6 35.65 284.5 Z"/>
</g>

<g id="Layer0_0_MEMBER_6_MEMBER_17_MEMBER_6_FILL">
<path fill="#EA2E33" stroke="none" d="
M 37.8 282.9
L 36.35 282.9
Q 37.2 284.1 37.6 284.05 37.85 284 38 283.5 38.15 282.95 37.8 282.9 Z"/>
</g>

<g id="Layer0_0_MEMBER_6_MEMBER_17_MEMBER_7_FILL">
<path fill="#EA2E33" stroke="none" d="
M 37.1 281.7
L 37.55 281.8
Q 38.1 281.9 38.7 281.9 39.35 281.9 39.3 281.55 39.2 281.2 38.8 281.15 38.5 281.1 37.75 281.4
L 37.1 281.7 Z"/>
</g>

<g id="Layer0_0_MEMBER_6_MEMBER_17_MEMBER_8_FILL">
<path fill="#EA2E33" stroke="none" d="
M 37.6 280.4
L 39.3 280.15
Q 39.85 280 39.7 279.75 39.55 279.5 39.05 279.4 38.65 279.35 38.1 279.9 37.8 280.15 37.6 280.4 Z"/>
</g>

<g id="Layer0_0_MEMBER_6_MEMBER_18_FILL">
<path fill="#5F8D20" stroke="none" d="
M 55.15 282.2
L 56.55 278.75
Q 55.75 278.75 54.8 279.05 52.9 279.7 52.05 281.4 51.2 283.1 51.4 284.9 51.5 285.8 51.75 286.35 54.35 284.4 55.15 282.2 Z"/>
</g>

<g id="Layer0_0_MEMBER_6_MEMBER_19_FILL">
<path fill="#5F8D20" stroke="none" d="
M 47.5 275.75
L 47.4 274.65 45.9 275.6
Q 44.3 276.7 43.8 277.6 43.3 278.55 43.55 279.4 43.65 279.85 43.85 280.1
L 45.4 279.65
Q 47 279 47.25 278 47.5 277.05 47.5 275.75 Z"/>
</g>

<g id="Layer0_0_MEMBER_6_MEMBER_20_FILL">
<path fill="#5F8D20" stroke="none" d="
M 28.3 289.4
L 29.05 290.95
Q 29.95 292.7 30.85 293.65 31.75 294.55 33.7 294.65 34.65 294.7 35.45 294.55 34.05 292.35 32.95 290.8 32.25 289.85 30.2 289.55
L 28.3 289.4 Z"/>
</g>

<g id="Layer0_0_MEMBER_6_MEMBER_21_FILL">
<path fill="#BECF43" stroke="none" d="
M 58.8 281.05
L 58 280 57.35 280.9
Q 56.65 282 56.65 283.1 56.6 284.85 56.8 286.3 58.9 284.4 59.3 283.1 59.55 282.3 58.8 281.05 Z"/>
</g>
</defs>

<g transform="matrix( 8, 0, 0, 8, 27.8,-1829.5) ">
<use xlink:href="#Layer0_0_MEMBER_0_MEMBER_0_FILL"/>
</g>

<g transform="matrix( 8, 0, 0, 8, 27.8,-1829.5) ">
<use xlink:href="#Layer0_0_MEMBER_0_MEMBER_1_FILL"/>
</g>

<g transform="matrix( 8, 0, 0, 8, 27.8,-1829.5) ">
<use xlink:href="#Layer0_0_MEMBER_0_MEMBER_2_FILL"/>
</g>

<g transform="matrix( 8, 0, 0, 8, 27.8,-1829.5) ">
<use xlink:href="#Layer0_0_MEMBER_0_MEMBER_3_MEMBER_0_FILL"/>
</g>

<g transform="matrix( 8, 0, 0, 8, 27.8,-1829.5) ">
<use xlink:href="#Layer0_0_MEMBER_1_MEMBER_0_FILL"/>
</g>

<g transform="matrix( 8, 0, 0, 8, 27.8,-1829.5) ">
<use xlink:href="#Layer0_0_MEMBER_1_MEMBER_1_FILL"/>
</g>

<g transform="matrix( 8, 0, 0, 8, 27.8,-1829.5) ">
<use xlink:href="#Layer0_0_MEMBER_1_MEMBER_2_FILL"/>
</g>

<g transform="matrix( 8, 0, 0, 8, 27.8,-1829.5) ">
<use xlink:href="#Layer0_0_MEMBER_1_MEMBER_3_MEMBER_0_FILL"/>
</g>

<g transform="matrix( 8, 0, 0, 8, 27.8,-1829.5) ">
<use xlink:href="#Layer0_0_MEMBER_1_MEMBER_3_MEMBER_1_FILL"/>
</g>

<g transform="matrix( 8, 0, 0, 8, 27.8,-1829.5) ">
<use xlink:href="#Layer0_0_MEMBER_1_MEMBER_3_MEMBER_2_FILL"/>
</g>

<g transform="matrix( 8, 0, 0, 8, 27.8,-1829.5) ">
<use xlink:href="#Layer0_0_MEMBER_1_MEMBER_3_MEMBER_3_FILL"/>
</g>

<g transform="matrix( 8, 0, 0, 8, 27.8,-1829.5) ">
<use xlink:href="#Layer0_0_MEMBER_1_MEMBER_3_MEMBER_4_FILL"/>
</g>

<g transform="matrix( 8, 0, 0, 8, 27.8,-1829.5) ">
<use xlink:href="#Layer0_0_MEMBER_1_MEMBER_3_MEMBER_5_FILL"/>
</g>

<g transform="matrix( 8, 0, 0, 8, 27.8,-1829.5) ">
<use xlink:href="#Layer0_0_MEMBER_1_MEMBER_3_MEMBER_6_FILL"/>
</g>

<g transform="matrix( 8, 0, 0, 8, 27.8,-1829.5) ">
<use xlink:href="#Layer0_0_MEMBER_1_MEMBER_3_MEMBER_7_FILL"/>
</g>

<g transform="matrix( 8, 0, 0, 8, 27.8,-1829.5) ">
<use xlink:href="#Layer0_0_MEMBER_1_MEMBER_3_MEMBER_8_FILL"/>
</g>

<g transform="matrix( 8, 0, 0, 8, 27.8,-1829.5) ">
<use xlink:href="#Layer0_0_MEMBER_1_MEMBER_3_MEMBER_9_FILL"/>
</g>

<g transform="matrix( 8, 0, 0, 8, 27.8,-1829.5) ">
<use xlink:href="#Layer0_0_MEMBER_1_MEMBER_3_MEMBER_10_FILL"/>
</g>

<g transform="matrix( 8, 0, 0, 8, 27.8,-1829.5) ">
<use xlink:href="#Layer0_0_MEMBER_1_MEMBER_3_MEMBER_11_FILL"/>
</g>

<g transform="matrix( 8, 0, 0, 8, 27.8,-1829.5) ">
<use xlink:href="#Layer0_0_MEMBER_1_MEMBER_3_MEMBER_12_FILL"/>
</g>

<g transform="matrix( 8, 0, 0, 8, 27.8,-1829.5) ">
<use xlink:href="#Layer0_0_MEMBER_1_MEMBER_3_MEMBER_13_FILL"/>
</g>

<g transform="matrix( 8, 0, 0, 8, 27.8,-1829.5) ">
<use xlink:href="#Layer0_0_MEMBER_1_MEMBER_3_MEMBER_14_FILL"/>
</g>

<g transform="matrix( 8, 0, 0, 8, 27.8,-1829.5) ">
<use xlink:href="#Layer0_0_MEMBER_1_MEMBER_3_MEMBER_15_FILL"/>
</g>

<g transform="matrix( 8, 0, 0, 8, 27.8,-1829.5) ">
<use xlink:href="#Layer0_0_MEMBER_1_MEMBER_3_MEMBER_16_FILL"/>
</g>

<g transform="matrix( 8, 0, 0, 8, 27.8,-1829.5) ">
<use xlink:href="#Layer0_0_MEMBER_1_MEMBER_3_MEMBER_17_FILL"/>
</g>

<g transform="matrix( 8, 0, 0, 8, 27.8,-1829.5) ">
<use xlink:href="#Layer0_0_MEMBER_1_MEMBER_3_MEMBER_18_FILL"/>
</g>

<g transform="matrix( 8, 0, 0, 8, 27.8,-1829.5) ">
<use xlink:href="#Layer0_0_MEMBER_1_MEMBER_3_MEMBER_19_FILL"/>
</g>

<g transform="matrix( 8, 0, 0, 8, 27.8,-1829.5) ">
<use xlink:href="#Layer0_0_MEMBER_1_MEMBER_3_MEMBER_20_FILL"/>
</g>

<g transform="matrix( 8, 0, 0, 8, 27.8,-1829.5) ">
<use xlink:href="#Layer0_0_MEMBER_1_MEMBER_4_MEMBER_0_FILL"/>
</g>

<g transform="matrix( 8, 0, 0, 8, 27.8,-1829.5) ">
<use xlink:href="#Layer0_0_MEMBER_1_MEMBER_4_MEMBER_1_FILL"/>
</g>

<g transform="matrix( 8, 0, 0, 8, 27.8,-1829.5) ">
<use xlink:href="#Layer0_0_MEMBER_1_MEMBER_5_FILL"/>
</g>

<g transform="matrix( 8, 0, 0, 8, 217.4,320.1) ">
<use xlink:href="#Layer0_0_MEMBER_1_MEMBER_6_FILL"/>
</g>

<g transform="matrix( 8, 0, 0, 8, 27.8,-1829.5) ">
<use xlink:href="#Layer0_0_MEMBER_1_MEMBER_7_MEMBER_0_FILL"/>
</g>

<g transform="matrix( 8, 0, 0, 8, 27.8,-1829.5) ">
<use xlink:href="#Layer0_0_MEMBER_1_MEMBER_7_MEMBER_1_FILL"/>
</g>

<g transform="matrix( 8, 0, 0, 8, 27.8,-1829.5) ">
<use xlink:href="#Layer0_0_MEMBER_1_MEMBER_8_MEMBER_0_MEMBER_0_FILL"/>
</g>

<g transform="matrix( 8, 0, 0, 8, 27.8,-1829.5) ">
<use xlink:href="#Layer0_0_MEMBER_1_MEMBER_8_MEMBER_0_MEMBER_1_FILL"/>
</g>

<g transform="matrix( 8, 0, 0, 8, 27.8,-1829.5) ">
<use xlink:href="#Layer0_0_MEMBER_1_MEMBER_8_MEMBER_1_FILL"/>
</g>

<g transform="matrix( 8, 0, 0, 8, 27.8,-1829.5) ">
<use xlink:href="#Layer0_0_MEMBER_1_MEMBER_9_MEMBER_0_FILL"/>
</g>

<g transform="matrix( 8, 0, 0, 8, 27.8,-1829.5) ">
<use xlink:href="#Layer0_0_MEMBER_1_MEMBER_9_MEMBER_1_FILL"/>
</g>

<g transform="matrix( 8, 0, 0, 8, 27.8,-1829.5) ">
<use xlink:href="#Layer0_0_MEMBER_1_MEMBER_10_MEMBER_0_FILL"/>
</g>

<g transform="matrix( 8, 0, 0, 8, 27.8,-1829.5) ">
<use xlink:href="#Layer0_0_MEMBER_1_MEMBER_10_MEMBER_1_FILL"/>
</g>

<g transform="matrix( 8, 0, 0, 8, 27.8,-1829.5) ">
<use xlink:href="#Layer0_0_MEMBER_1_MEMBER_10_MEMBER_2_FILL"/>
</g>

<g transform="matrix( 8, 0, 0, 8, 27.8,-1829.5) ">
<use xlink:href="#Layer0_0_MEMBER_1_MEMBER_11_MEMBER_0_MEMBER_0_FILL"/>
</g>

<g transform="matrix( 8, 0, 0, 8, 27.8,-1829.5) ">
<use xlink:href="#Layer0_0_MEMBER_1_MEMBER_11_MEMBER_0_MEMBER_1_FILL"/>
</g>

<g transform="matrix( 8, 0, 0, 8, 27.8,-1829.5) ">
<use xlink:href="#Layer0_0_MEMBER_1_MEMBER_11_MEMBER_1_FILL"/>
</g>

<g transform="matrix( 8, 0, 0, 8, 27.8,-1829.5) ">
<use xlink:href="#Layer0_0_MEMBER_1_MEMBER_12_FILL"/>
</g>

<g transform="matrix( 8, 0, 0, 8, 422.2,389.7) ">
<use xlink:href="#Layer0_0_MEMBER_1_MEMBER_13_FILL"/>
</g>

<g transform="matrix( 8, 0, 0, 8, 27.8,-1829.5) ">
<use xlink:href="#Layer0_0_MEMBER_1_MEMBER_14_FILL"/>
</g>

<g transform="matrix( 8, 0, 0, 8, 27.8,-1829.5) ">
<use xlink:href="#Layer0_0_MEMBER_1_MEMBER_15_FILL"/>
</g>

<g transform="matrix( 8, 0, 0, 8, 384.2,469.3) ">
<use xlink:href="#Layer0_0_MEMBER_1_MEMBER_16_FILL"/>
</g>

<g transform="matrix( 8, 0, 0, 8, 27.8,-1829.5) ">
<use xlink:href="#Layer0_0_MEMBER_1_MEMBER_17_MEMBER_0_FILL"/>
</g>

<g transform="matrix( 8, 0, 0, 8, 27.8,-1829.5) ">
<use xlink:href="#Layer0_0_MEMBER_1_MEMBER_17_MEMBER_1_FILL"/>
</g>

<g transform="matrix( 8, 0, 0, 8, 27.8,-1829.5) ">
<use xlink:href="#Layer0_0_MEMBER_1_MEMBER_17_MEMBER_2_FILL"/>
</g>

<g transform="matrix( 8, 0, 0, 8, 27.8,-1829.5) ">
<use xlink:href="#Layer0_0_MEMBER_1_MEMBER_17_MEMBER_3_FILL"/>
</g>

<g transform="matrix( 8, 0, 0, 8, 27.8,-1829.5) ">
<use xlink:href="#Layer0_0_MEMBER_1_MEMBER_17_MEMBER_4_FILL"/>
</g>

<g transform="matrix( 8, 0, 0, 8, 27.8,-1829.5) ">
<use xlink:href="#Layer0_0_MEMBER_1_MEMBER_17_MEMBER_5_FILL"/>
</g>

<g transform="matrix( 8, 0, 0, 8, 27.8,-1829.5) ">
<use xlink:href="#Layer0_0_MEMBER_1_MEMBER_17_MEMBER_6_FILL"/>
</g>

<g transform="matrix( 8, 0, 0, 8, 27.8,-1829.5) ">
<use xlink:href="#Layer0_0_MEMBER_1_MEMBER_17_MEMBER_7_FILL"/>
</g>

<g transform="matrix( 8, 0, 0, 8, 27.8,-1829.5) ">
<use xlink:href="#Layer0_0_MEMBER_1_MEMBER_17_MEMBER_8_FILL"/>
</g>

<g transform="matrix( 8, 0, 0, 8, 27.8,-1829.5) ">
<use xlink:href="#Layer0_0_MEMBER_1_MEMBER_18_FILL"/>
</g>

<g transform="matrix( 8, 0, 0, 8, 27.8,-1829.5) ">
<use xlink:href="#Layer0_0_MEMBER_1_MEMBER_19_FILL"/>
</g>

<g transform="matrix( 8, 0, 0, 8, 27.8,-1829.5) ">
<use xlink:href="#Layer0_0_MEMBER_1_MEMBER_20_FILL"/>
</g>

<g transform="matrix( 8, 0, 0, 8, 27.8,-1829.5) ">
<use xlink:href="#Layer0_0_MEMBER_1_MEMBER_21_FILL"/>
</g>

<g transform="matrix( 8, 0, 0, 8, 27.8,-1829.5) ">
<use xlink:href="#Layer0_0_MEMBER_2_FILL"/>
</g>

<g transform="matrix( 8, 0, 0, 8, 27.8,-1829.5) ">
<use xlink:href="#Layer0_0_MEMBER_3_FILL"/>
</g>

<g transform="matrix( 8, 0, 0, 8, 27.8,-1829.5) ">
<use xlink:href="#Layer0_0_MEMBER_4_FILL"/>
</g>

<g transform="matrix( 8, 0, 0, 8, 359.8,-1849.5) ">
<use xlink:href="#Layer0_0_MEMBER_5_MEMBER_0_FILL"/>
</g>

<g transform="matrix( 8, 0, 0, 8, 359.8,-1849.5) ">
<use xlink:href="#Layer0_0_MEMBER_5_MEMBER_1_FILL"/>
</g>

<g transform="matrix( 8, 0, 0, 8, 359.8,-1849.5) ">
<use xlink:href="#Layer0_0_MEMBER_5_MEMBER_2_FILL"/>
</g>

<g transform="matrix( 8, 0, 0, 8, 359.8,-1849.5) ">
<use xlink:href="#Layer0_0_MEMBER_5_MEMBER_3_MEMBER_0_FILL"/>
</g>

<g transform="matrix( 8, 0, 0, 8, 359.8,-1849.5) ">
<use xlink:href="#Layer0_0_MEMBER_5_MEMBER_3_MEMBER_1_FILL"/>
</g>

<g transform="matrix( 8, 0, 0, 8, 359.8,-1849.5) ">
<use xlink:href="#Layer0_0_MEMBER_5_MEMBER_3_MEMBER_2_FILL"/>
</g>

<g transform="matrix( 8, 0, 0, 8, 359.8,-1849.5) ">
<use xlink:href="#Layer0_0_MEMBER_5_MEMBER_3_MEMBER_3_FILL"/>
</g>

<g transform="matrix( 8, 0, 0, 8, 359.8,-1849.5) ">
<use xlink:href="#Layer0_0_MEMBER_5_MEMBER_3_MEMBER_4_FILL"/>
</g>

<g transform="matrix( 8, 0, 0, 8, 359.8,-1849.5) ">
<use xlink:href="#Layer0_0_MEMBER_5_MEMBER_3_MEMBER_5_FILL"/>
</g>

<g transform="matrix( 8, 0, 0, 8, 359.8,-1849.5) ">
<use xlink:href="#Layer0_0_MEMBER_5_MEMBER_3_MEMBER_6_FILL"/>
</g>

<g transform="matrix( 8, 0, 0, 8, 359.8,-1849.5) ">
<use xlink:href="#Layer0_0_MEMBER_5_MEMBER_3_MEMBER_7_FILL"/>
</g>

<g transform="matrix( 8, 0, 0, 8, 359.8,-1849.5) ">
<use xlink:href="#Layer0_0_MEMBER_5_MEMBER_3_MEMBER_8_FILL"/>
</g>

<g transform="matrix( 8, 0, 0, 8, 359.8,-1849.5) ">
<use xlink:href="#Layer0_0_MEMBER_5_MEMBER_3_MEMBER_9_FILL"/>
</g>

<g transform="matrix( 8, 0, 0, 8, 359.8,-1849.5) ">
<use xlink:href="#Layer0_0_MEMBER_5_MEMBER_3_MEMBER_10_FILL"/>
</g>

<g transform="matrix( 8, 0, 0, 8, 359.8,-1849.5) ">
<use xlink:href="#Layer0_0_MEMBER_5_MEMBER_3_MEMBER_11_FILL"/>
</g>

<g transform="matrix( 8, 0, 0, 8, 359.8,-1849.5) ">
<use xlink:href="#Layer0_0_MEMBER_5_MEMBER_3_MEMBER_12_FILL"/>
</g>

<g transform="matrix( 8, 0, 0, 8, 359.8,-1849.5) ">
<use xlink:href="#Layer0_0_MEMBER_5_MEMBER_3_MEMBER_13_FILL"/>
</g>

<g transform="matrix( 8, 0, 0, 8, 359.8,-1849.5) ">
<use xlink:href="#Layer0_0_MEMBER_5_MEMBER_3_MEMBER_14_FILL"/>
</g>

<g transform="matrix( 8, 0, 0, 8, 359.8,-1849.5) ">
<use xlink:href="#Layer0_0_MEMBER_5_MEMBER_3_MEMBER_15_FILL"/>
</g>

<g transform="matrix( 8, 0, 0, 8, 359.8,-1849.5) ">
<use xlink:href="#Layer0_0_MEMBER_5_MEMBER_3_MEMBER_16_FILL"/>
</g>

<g transform="matrix( 8, 0, 0, 8, 359.8,-1849.5) ">
<use xlink:href="#Layer0_0_MEMBER_5_MEMBER_3_MEMBER_17_FILL"/>
</g>

<g transform="matrix( 8, 0, 0, 8, 359.8,-1849.5) ">
<use xlink:href="#Layer0_0_MEMBER_5_MEMBER_3_MEMBER_18_FILL"/>
</g>

<g transform="matrix( 8, 0, 0, 8, 359.8,-1849.5) ">
<use xlink:href="#Layer0_0_MEMBER_5_MEMBER_3_MEMBER_19_FILL"/>
</g>

<g transform="matrix( 8, 0, 0, 8, 359.8,-1849.5) ">
<use xlink:href="#Layer0_0_MEMBER_5_MEMBER_3_MEMBER_20_FILL"/>
</g>

<g transform="matrix( 8, 0, 0, 8, 359.8,-1849.5) ">
<use xlink:href="#Layer0_0_MEMBER_5_MEMBER_4_MEMBER_0_FILL"/>
</g>

<g transform="matrix( 8, 0, 0, 8, 359.8,-1849.5) ">
<use xlink:href="#Layer0_0_MEMBER_5_MEMBER_4_MEMBER_1_FILL"/>
</g>

<g transform="matrix( 8, 0, 0, 8, 359.8,-1849.5) ">
<use xlink:href="#Layer0_0_MEMBER_5_MEMBER_5_FILL"/>
</g>

<g transform="matrix( 8, 0, 0, 8, 549.4,300.1) ">
<use xlink:href="#Layer0_0_MEMBER_5_MEMBER_6_FILL"/>
</g>

<g transform="matrix( 8, 0, 0, 8, 359.8,-1849.5) ">
<use xlink:href="#Layer0_0_MEMBER_5_MEMBER_7_MEMBER_0_FILL"/>
</g>

<g transform="matrix( 8, 0, 0, 8, 359.8,-1849.5) ">
<use xlink:href="#Layer0_0_MEMBER_5_MEMBER_7_MEMBER_1_FILL"/>
</g>

<g transform="matrix( 8, 0, 0, 8, 359.8,-1849.5) ">
<use xlink:href="#Layer0_0_MEMBER_5_MEMBER_8_MEMBER_0_MEMBER_0_FILL"/>
</g>

<g transform="matrix( 8, 0, 0, 8, 359.8,-1849.5) ">
<use xlink:href="#Layer0_0_MEMBER_5_MEMBER_8_MEMBER_0_MEMBER_1_FILL"/>
</g>

<g transform="matrix( 8, 0, 0, 8, 359.8,-1849.5) ">
<use xlink:href="#Layer0_0_MEMBER_5_MEMBER_8_MEMBER_1_FILL"/>
</g>

<g transform="matrix( 8, 0, 0, 8, 359.8,-1849.5) ">
<use xlink:href="#Layer0_0_MEMBER_5_MEMBER_9_MEMBER_0_FILL"/>
</g>

<g transform="matrix( 8, 0, 0, 8, 359.8,-1849.5) ">
<use xlink:href="#Layer0_0_MEMBER_5_MEMBER_9_MEMBER_1_FILL"/>
</g>

<g transform="matrix( 8, 0, 0, 8, 359.8,-1849.5) ">
<use xlink:href="#Layer0_0_MEMBER_5_MEMBER_10_MEMBER_0_FILL"/>
</g>

<g transform="matrix( 8, 0, 0, 8, 359.8,-1849.5) ">
<use xlink:href="#Layer0_0_MEMBER_5_MEMBER_10_MEMBER_1_FILL"/>
</g>

<g transform="matrix( 8, 0, 0, 8, 359.8,-1849.5) ">
<use xlink:href="#Layer0_0_MEMBER_5_MEMBER_10_MEMBER_2_FILL"/>
</g>

<g transform="matrix( 8, 0, 0, 8, 359.8,-1849.5) ">
<use xlink:href="#Layer0_0_MEMBER_5_MEMBER_11_MEMBER_0_MEMBER_0_FILL"/>
</g>

<g transform="matrix( 8, 0, 0, 8, 359.8,-1849.5) ">
<use xlink:href="#Layer0_0_MEMBER_5_MEMBER_11_MEMBER_0_MEMBER_1_FILL"/>
</g>

<g transform="matrix( 8, 0, 0, 8, 359.8,-1849.5) ">
<use xlink:href="#Layer0_0_MEMBER_5_MEMBER_11_MEMBER_1_FILL"/>
</g>

<g transform="matrix( 8, 0, 0, 8, 359.8,-1849.5) ">
<use xlink:href="#Layer0_0_MEMBER_5_MEMBER_12_FILL"/>
</g>

<g transform="matrix( 8, 0, 0, 8, 754.2,369.7) ">
<use xlink:href="#Layer0_0_MEMBER_5_MEMBER_13_FILL"/>
</g>

<g transform="matrix( 8, 0, 0, 8, 359.8,-1849.5) ">
<use xlink:href="#Layer0_0_MEMBER_5_MEMBER_14_FILL"/>
</g>

<g transform="matrix( 8, 0, 0, 8, 359.8,-1849.5) ">
<use xlink:href="#Layer0_0_MEMBER_5_MEMBER_15_FILL"/>
</g>

<g transform="matrix( 8, 0, 0, 8, 716.2,449.3) ">
<use xlink:href="#Layer0_0_MEMBER_5_MEMBER_16_FILL"/>
</g>

<g transform="matrix( 8, 0, 0, 8, 359.8,-1849.5) ">
<use xlink:href="#Layer0_0_MEMBER_5_MEMBER_17_MEMBER_0_FILL"/>
</g>

<g transform="matrix( 8, 0, 0, 8, 359.8,-1849.5) ">
<use xlink:href="#Layer0_0_MEMBER_5_MEMBER_17_MEMBER_1_FILL"/>
</g>

<g transform="matrix( 8, 0, 0, 8, 359.8,-1849.5) ">
<use xlink:href="#Layer0_0_MEMBER_5_MEMBER_17_MEMBER_2_FILL"/>
</g>

<g transform="matrix( 8, 0, 0, 8, 359.8,-1849.5) ">
<use xlink:href="#Layer0_0_MEMBER_5_MEMBER_17_MEMBER_3_FILL"/>
</g>

<g transform="matrix( 8, 0, 0, 8, 359.8,-1849.5) ">
<use xlink:href="#Layer0_0_MEMBER_5_MEMBER_17_MEMBER_4_FILL"/>
</g>

<g transform="matrix( 8, 0, 0, 8, 359.8,-1849.5) ">
<use xlink:href="#Layer0_0_MEMBER_5_MEMBER_17_MEMBER_5_FILL"/>
</g>

<g transform="matrix( 8, 0, 0, 8, 359.8,-1849.5) ">
<use xlink:href="#Layer0_0_MEMBER_5_MEMBER_17_MEMBER_6_FILL"/>
</g>

<g transform="matrix( 8, 0, 0, 8, 359.8,-1849.5) ">
<use xlink:href="#Layer0_0_MEMBER_5_MEMBER_17_MEMBER_7_FILL"/>
</g>

<g transform="matrix( 8, 0, 0, 8, 359.8,-1849.5) ">
<use xlink:href="#Layer0_0_MEMBER_5_MEMBER_17_MEMBER_8_FILL"/>
</g>

<g transform="matrix( 8, 0, 0, 8, 359.8,-1849.5) ">
<use xlink:href="#Layer0_0_MEMBER_5_MEMBER_18_FILL"/>
</g>

<g transform="matrix( 8, 0, 0, 8, 359.8,-1849.5) ">
<use xlink:href="#Layer0_0_MEMBER_5_MEMBER_19_FILL"/>
</g>

<g transform="matrix( 8, 0, 0, 8, 359.8,-1849.5) ">
<use xlink:href="#Layer0_0_MEMBER_5_MEMBER_20_FILL"/>
</g>

<g transform="matrix( 8, 0, 0, 8, 359.8,-1849.5) ">
<use xlink:href="#Layer0_0_MEMBER_5_MEMBER_21_FILL"/>
</g>

<g transform="matrix( 8, 0, 0, 8, 183,-1666.3) ">
<use xlink:href="#Layer0_0_MEMBER_6_MEMBER_0_FILL"/>
</g>

<g transform="matrix( 8, 0, 0, 8, 183,-1666.3) ">
<use xlink:href="#Layer0_0_MEMBER_6_MEMBER_1_FILL"/>
</g>

<g transform="matrix( 8, 0, 0, 8, 183,-1666.3) ">
<use xlink:href="#Layer0_0_MEMBER_6_MEMBER_2_FILL"/>
</g>

<g transform="matrix( 8, 0, 0, 8, 183,-1666.3) ">
<use xlink:href="#Layer0_0_MEMBER_6_MEMBER_3_MEMBER_0_FILL"/>
</g>

<g transform="matrix( 8, 0, 0, 8, 183,-1666.3) ">
<use xlink:href="#Layer0_0_MEMBER_6_MEMBER_3_MEMBER_1_FILL"/>
</g>

<g transform="matrix( 8, 0, 0, 8, 183,-1666.3) ">
<use xlink:href="#Layer0_0_MEMBER_6_MEMBER_3_MEMBER_2_FILL"/>
</g>

<g transform="matrix( 8, 0, 0, 8, 183,-1666.3) ">
<use xlink:href="#Layer0_0_MEMBER_6_MEMBER_3_MEMBER_3_FILL"/>
</g>

<g transform="matrix( 8, 0, 0, 8, 183,-1666.3) ">
<use xlink:href="#Layer0_0_MEMBER_6_MEMBER_3_MEMBER_4_FILL"/>
</g>

<g transform="matrix( 8, 0, 0, 8, 183,-1666.3) ">
<use xlink:href="#Layer0_0_MEMBER_6_MEMBER_3_MEMBER_5_FILL"/>
</g>

<g transform="matrix( 8, 0, 0, 8, 183,-1666.3) ">
<use xlink:href="#Layer0_0_MEMBER_6_MEMBER_3_MEMBER_6_FILL"/>
</g>

<g transform="matrix( 8, 0, 0, 8, 183,-1666.3) ">
<use xlink:href="#Layer0_0_MEMBER_6_MEMBER_3_MEMBER_7_FILL"/>
</g>

<g transform="matrix( 8, 0, 0, 8, 183,-1666.3) ">
<use xlink:href="#Layer0_0_MEMBER_6_MEMBER_3_MEMBER_8_FILL"/>
</g>

<g transform="matrix( 8, 0, 0, 8, 183,-1666.3) ">
<use xlink:href="#Layer0_0_MEMBER_6_MEMBER_3_MEMBER_9_FILL"/>
</g>

<g transform="matrix( 8, 0, 0, 8, 183,-1666.3) ">
<use xlink:href="#Layer0_0_MEMBER_6_MEMBER_3_MEMBER_10_FILL"/>
</g>

<g transform="matrix( 8, 0, 0, 8, 183,-1666.3) ">
<use xlink:href="#Layer0_0_MEMBER_6_MEMBER_3_MEMBER_11_FILL"/>
</g>

<g transform="matrix( 8, 0, 0, 8, 183,-1666.3) ">
<use xlink:href="#Layer0_0_MEMBER_6_MEMBER_3_MEMBER_12_FILL"/>
</g>

<g transform="matrix( 8, 0, 0, 8, 183,-1666.3) ">
<use xlink:href="#Layer0_0_MEMBER_6_MEMBER_3_MEMBER_13_FILL"/>
</g>

<g transform="matrix( 8, 0, 0, 8, 183,-1666.3) ">
<use xlink:href="#Layer0_0_MEMBER_6_MEMBER_3_MEMBER_14_FILL"/>
</g>

<g transform="matrix( 8, 0, 0, 8, 183,-1666.3) ">
<use xlink:href="#Layer0_0_MEMBER_6_MEMBER_3_MEMBER_15_FILL"/>
</g>

<g transform="matrix( 8, 0, 0, 8, 183,-1666.3) ">
<use xlink:href="#Layer0_0_MEMBER_6_MEMBER_3_MEMBER_16_FILL"/>
</g>

<g transform="matrix( 8, 0, 0, 8, 183,-1666.3) ">
<use xlink:href="#Layer0_0_MEMBER_6_MEMBER_3_MEMBER_17_FILL"/>
</g>

<g transform="matrix( 8, 0, 0, 8, 183,-1666.3) ">
<use xlink:href="#Layer0_0_MEMBER_6_MEMBER_3_MEMBER_18_FILL"/>
</g>

<g transform="matrix( 8, 0, 0, 8, 183,-1666.3) ">
<use xlink:href="#Layer0_0_MEMBER_6_MEMBER_3_MEMBER_19_FILL"/>
</g>

<g transform="matrix( 8, 0, 0, 8, 183,-1666.3) ">
<use xlink:href="#Layer0_0_MEMBER_6_MEMBER_3_MEMBER_20_FILL"/>
</g>

<g transform="matrix( 8, 0, 0, 8, 183,-1666.3) ">
<use xlink:href="#Layer0_0_MEMBER_6_MEMBER_4_MEMBER_0_FILL"/>
</g>

<g transform="matrix( 8, 0, 0, 8, 183,-1666.3) ">
<use xlink:href="#Layer0_0_MEMBER_6_MEMBER_4_MEMBER_1_FILL"/>
</g>

<g transform="matrix( 8, 0, 0, 8, 183,-1666.3) ">
<use xlink:href="#Layer0_0_MEMBER_6_MEMBER_5_FILL"/>
</g>

<g transform="matrix( 8, 0, 0, 8, 372.6,483.3) ">
<use xlink:href="#Layer0_0_MEMBER_6_MEMBER_6_FILL"/>
</g>

<g transform="matrix( 8, 0, 0, 8, 183,-1666.3) ">
<use xlink:href="#Layer0_0_MEMBER_6_MEMBER_7_MEMBER_0_FILL"/>
</g>

<g transform="matrix( 8, 0, 0, 8, 183,-1666.3) ">
<use xlink:href="#Layer0_0_MEMBER_6_MEMBER_7_MEMBER_1_FILL"/>
</g>

<g transform="matrix( 8, 0, 0, 8, 183,-1666.3) ">
<use xlink:href="#Layer0_0_MEMBER_6_MEMBER_8_MEMBER_0_MEMBER_0_FILL"/>
</g>

<g transform="matrix( 8, 0, 0, 8, 183,-1666.3) ">
<use xlink:href="#Layer0_0_MEMBER_6_MEMBER_8_MEMBER_0_MEMBER_1_FILL"/>
</g>

<g transform="matrix( 8, 0, 0, 8, 183,-1666.3) ">
<use xlink:href="#Layer0_0_MEMBER_6_MEMBER_8_MEMBER_1_FILL"/>
</g>

<g transform="matrix( 8, 0, 0, 8, 183,-1666.3) ">
<use xlink:href="#Layer0_0_MEMBER_6_MEMBER_9_MEMBER_0_FILL"/>
</g>

<g transform="matrix( 8, 0, 0, 8, 183,-1666.3) ">
<use xlink:href="#Layer0_0_MEMBER_6_MEMBER_9_MEMBER_1_FILL"/>
</g>

<g transform="matrix( 8, 0, 0, 8, 183,-1666.3) ">
<use xlink:href="#Layer0_0_MEMBER_6_MEMBER_10_MEMBER_0_FILL"/>
</g>

<g transform="matrix( 8, 0, 0, 8, 183,-1666.3) ">
<use xlink:href="#Layer0_0_MEMBER_6_MEMBER_10_MEMBER_1_FILL"/>
</g>

<g transform="matrix( 8, 0, 0, 8, 183,-1666.3) ">
<use xlink:href="#Layer0_0_MEMBER_6_MEMBER_10_MEMBER_2_FILL"/>
</g>

<g transform="matrix( 8, 0, 0, 8, 183,-1666.3) ">
<use xlink:href="#Layer0_0_MEMBER_6_MEMBER_11_MEMBER_0_MEMBER_0_FILL"/>
</g>

<g transform="matrix( 8, 0, 0, 8, 183,-1666.3) ">
<use xlink:href="#Layer0_0_MEMBER_6_MEMBER_11_MEMBER_0_MEMBER_1_FILL"/>
</g>

<g transform="matrix( 8, 0, 0, 8, 183,-1666.3) ">
<use xlink:href="#Layer0_0_MEMBER_6_MEMBER_11_MEMBER_1_FILL"/>
</g>

<g transform="matrix( 8, 0, 0, 8, 183,-1666.3) ">
<use xlink:href="#Layer0_0_MEMBER_6_MEMBER_12_FILL"/>
</g>

<g transform="matrix( 8, 0, 0, 8, 577.4,552.9) ">
<use xlink:href="#Layer0_0_MEMBER_6_MEMBER_13_FILL"/>
</g>

<g transform="matrix( 8, 0, 0, 8, 183,-1666.3) ">
<use xlink:href="#Layer0_0_MEMBER_6_MEMBER_14_FILL"/>
</g>

<g transform="matrix( 8, 0, 0, 8, 183,-1666.3) ">
<use xlink:href="#Layer0_0_MEMBER_6_MEMBER_15_FILL"/>
</g>

<g transform="matrix( 8, 0, 0, 8, 539.4,632.5) ">
<use xlink:href="#Layer0_0_MEMBER_6_MEMBER_16_FILL"/>
</g>

<g transform="matrix( 8, 0, 0, 8, 183,-1666.3) ">
<use xlink:href="#Layer0_0_MEMBER_6_MEMBER_17_MEMBER_0_FILL"/>
</g>

<g transform="matrix( 8, 0, 0, 8, 183,-1666.3) ">
<use xlink:href="#Layer0_0_MEMBER_6_MEMBER_17_MEMBER_1_FILL"/>
</g>

<g transform="matrix( 8, 0, 0, 8, 183,-1666.3) ">
<use xlink:href="#Layer0_0_MEMBER_6_MEMBER_17_MEMBER_2_FILL"/>
</g>

<g transform="matrix( 8, 0, 0, 8, 183,-1666.3) ">
<use xlink:href="#Layer0_0_MEMBER_6_MEMBER_17_MEMBER_3_FILL"/>
</g>

<g transform="matrix( 8, 0, 0, 8, 183,-1666.3) ">
<use xlink:href="#Layer0_0_MEMBER_6_MEMBER_17_MEMBER_4_FILL"/>
</g>

<g transform="matrix( 8, 0, 0, 8, 183,-1666.3) ">
<use xlink:href="#Layer0_0_MEMBER_6_MEMBER_17_MEMBER_5_FILL"/>
</g>

<g transform="matrix( 8, 0, 0, 8, 183,-1666.3) ">
<use xlink:href="#Layer0_0_MEMBER_6_MEMBER_17_MEMBER_6_FILL"/>
</g>

<g transform="matrix( 8, 0, 0, 8, 183,-1666.3) ">
<use xlink:href="#Layer0_0_MEMBER_6_MEMBER_17_MEMBER_7_FILL"/>
</g>

<g transform="matrix( 8, 0, 0, 8, 183,-1666.3) ">
<use xlink:href="#Layer0_0_MEMBER_6_MEMBER_17_MEMBER_8_FILL"/>
</g>

<g transform="matrix( 8, 0, 0, 8, 183,-1666.3) ">
<use xlink:href="#Layer0_0_MEMBER_6_MEMBER_18_FILL"/>
</g>

<g transform="matrix( 8, 0, 0, 8, 183,-1666.3) ">
<use xlink:href="#Layer0_0_MEMBER_6_MEMBER_19_FILL"/>
</g>

<g transform="matrix( 8, 0, 0, 8, 183,-1666.3) ">
<use xlink:href="#Layer0_0_MEMBER_6_MEMBER_20_FILL"/>
</g>

<g transform="matrix( 8, 0, 0, 8, 183,-1666.3) ">
<use xlink:href="#Layer0_0_MEMBER_6_MEMBER_21_FILL"/>
</g>
</svg>
