
<svg xmlns="http://www.w3.org/2000/svg" version="1.1" xmlns:xlink="http://www.w3.org/1999/xlink" preserveAspectRatio="none" x="0px" y="0px" width="1024px" height="1024px" viewBox="0 0 1024 1024">
<defs>
<g id="Layer0_0_MEMBER_0_MEMBER_0_FILL">
<path fill="#8BD5EC" stroke="none" d="
M 190.8 309.7
Q 178.6 316.2 178.6 325.4 178.6 334.6 190.8 341.1 203 347.6 220.3 347.6 237.6 347.6 249.8 341.1 262.05 334.6 262.05 325.4 262.05 316.2 249.8 309.7 237.6 303.2 220.3 303.2 203 303.2 190.8 309.7 Z"/>
</g>

<g id="Layer0_0_MEMBER_0_MEMBER_1_MEMBER_0_FILL">
<path fill="#FFFFFF" stroke="none" d="
M 192.85 311.5
Q 181.55 317.3 181.55 325.45 181.55 333.65 192.85 339.4 204.2 345.2 220.15 345.2 236.1 345.2 247.4 339.4 258.7 333.6 258.7 325.45 258.7 317.3 247.4 311.5 236.1 305.7 220.15 305.7 204.2 305.7 192.85 311.5
M 193.5 338.8
Q 182.45 333.25 182.45 325.45 182.45 317.7 193.5 312.15 204.55 306.65 220.15 306.65 235.7 306.65 246.75 312.15 257.8 317.7 257.8 325.45 257.8 333.25 246.75 338.8 235.7 344.3 220.15 344.3 204.55 344.3 193.5 338.8 Z"/>
</g>

<g id="Layer0_0_MEMBER_0_MEMBER_2_MEMBER_0_FILL">
<path fill="#4897B5" stroke="none" d="
M 204.1 318.5
Q 210.9 315.15 220.2 315.15 229.5 315.15 236.3 318.5 243.1 321.8 244 326.65 244.2 325.85 244.2 325.4 244.2 320.1 237.15 316.4 230.15 312.65 220.2 312.65 210.25 312.65 203.25 316.4 196.25 320.1 196.25 325.4 196.25 325.85 196.45 326.65 197.35 321.8 204.1 318.5 Z"/>
</g>

<g id="Layer0_0_MEMBER_0_MEMBER_2_MEMBER_1_FILL">
<path fill="#6CB2D4" stroke="none" d="
M 204.1 334.8
Q 210.9 338.15 220.2 338.15 229.5 338.15 236.3 334.8 243.1 331.5 244 326.65 243.1 321.8 236.3 318.5 229.5 315.15 220.2 315.15 210.9 315.15 204.1 318.5 197.35 321.8 196.45 326.65 197.35 331.5 204.1 334.8 Z"/>
</g>

<g id="Layer0_0_MEMBER_1_MEMBER_0_FILL">
<path fill="#5F8D20" stroke="none" d="
M 200.3 325.55
Q 200.3 323.15 197.15 321.5 193.95 319.8 189.5 319.8 185.05 319.8 181.85 321.5 178.7 323.15 178.7 325.55 178.7 327.9 181.85 329.6 185.05 331.25 189.5 331.25 193.95 331.25 197.15 329.6 200.3 327.9 200.3 325.55 Z"/>
</g>

<g id="Layer0_0_MEMBER_1_MEMBER_1_MEMBER_0_FILL">
<path fill="#9FB0B2" stroke="none" d="
M 206.35 314.65
Q 220.15 307 237.35 297
L 236.45 295.9
Q 220.75 304.8 207.8 311.75 190.7 320.95 184.4 324.65 176.2 329.45 174.3 331.85 178.85 329.5 189.65 323.7 201.1 317.6 206.35 314.65 Z"/>
</g>

<g id="Layer0_0_MEMBER_1_MEMBER_1_MEMBER_1_FILL">
<path fill="#344144" stroke="none" d="
M 242.4 292.4
Q 241.3 291.4 239.2 292.35 238.05 292.9 235.7 294.55
L 232.4 296.6
Q 234.3 296.85 234.7 298.65 234.9 299.55 234.7 300.4 235.5 299.9 236.55 299.3 238.7 298.05 240.1 297.45 242.3 296.5 243.05 295.3 243.95 293.85 242.4 292.4 Z"/>
</g>

<g id="Layer0_0_MEMBER_1_MEMBER_1_MEMBER_2_FILL">
<path fill="#48575B" stroke="none" d="
M 233.8 296.7
Q 233.05 296.3 232.4 296.6 231.85 296.85 232 297.6 232.05 298 232.2 298.3
L 232.55 298.2
Q 232.9 298.2 233.2 298.7 233.55 299.3 232.9 299.6 234 300.9 234.8 300.35 235.2 300.1 235.15 299.25 235.1 298.65 234.9 298.15 234.55 297.1 233.8 296.7 Z"/>
</g>

<g id="Layer0_0_MEMBER_1_MEMBER_2_MEMBER_0_FILL">
<path fill="#5F8D20" stroke="none" d="
M 231.55 308.95
Q 231.55 306.55 228.4 304.9 225.2 303.2 220.75 303.2 216.3 303.2 213.1 304.9 209.95 306.55 209.95 308.95 209.95 311.3 213.1 313 216.3 314.65 220.75 314.65 225.2 314.65 228.4 313 231.55 311.3 231.55 308.95 Z"/>
</g>

<g id="Layer0_0_MEMBER_1_MEMBER_2_MEMBER_1_FILL">
<path fill="#5F8D20" stroke="none" d="
M 231.55 308.95
L 231.55 304.95 209.95 304.95 209.95 308.95 231.55 308.95 Z"/>
</g>

<g id="Layer0_0_MEMBER_1_MEMBER_2_MEMBER_2_MEMBER_0_FILL">
<path fill="#5F8D20" stroke="none" d="
M 217.05 304.95
Q 215.2 304.9 213.8 306.35 212.25 307.85 212.8 309.75
L 213.1 309.8
Q 213.4 309.9 213.5 310.3 213.7 310.95 213.15 311.25
L 213.9 311.65
Q 214.85 312 215.8 311.85 217 311.65 218.7 310.5 220.45 309.25 220.2 308.6 219.45 306.6 219.35 306.4 218.5 304.95 217.05 304.95 Z"/>
</g>

<g id="Layer0_0_MEMBER_1_MEMBER_2_MEMBER_2_MEMBER_1_FILL">
<path fill="#BECF43" stroke="none" d="
M 231.55 304.95
Q 231.55 302.55 228.4 300.9 225.2 299.2 220.75 299.2 216.3 299.2 213.1 300.9 209.95 302.55 209.95 304.95 209.95 307.3 213.1 309 216.3 310.65 220.75 310.65 225.2 310.65 228.4 309 231.55 307.3 231.55 304.95 Z"/>
</g>

<g id="Layer0_0_MEMBER_1_MEMBER_2_MEMBER_2_MEMBER_2_FILL">
<path fill="#FED683" stroke="none" d="
M 230.4 304.95
Q 230.4 302.95 227.6 301.5 224.75 300.1 220.75 300.1 216.75 300.1 213.9 301.5 211.1 302.95 211.1 304.95 211.1 306.95 213.9 308.35 216.75 309.75 220.75 309.75 224.75 309.75 227.6 308.35 230.4 306.95 230.4 304.95 Z"/>
</g>

<g id="Layer0_0_MEMBER_1_MEMBER_2_MEMBER_2_MEMBER_3_FILL">
<path fill="#FEC554" stroke="none" d="
M 216.05 305.15
Q 218 305.1 220.25 304.5 219.75 303.8 218.9 303.15 217.2 301.85 215.5 301.95 213.1 302.15 212.75 303 212.45 303.6 213.35 304.5 214 305.15 216.05 305.15 Z"/>
</g>

<g id="Layer0_0_MEMBER_1_MEMBER_2_MEMBER_2_MEMBER_4_FILL">
<path fill="#FEC554" stroke="none" d="
M 221.05 304.45
Q 226.8 306.05 228.2 304.5 229 303.65 228.6 303.05 228.1 302.3 226.2 302.3 224.5 302.3 222.6 303.4 221.65 303.9 221.05 304.45 Z"/>
</g>

<g id="Layer0_0_MEMBER_1_MEMBER_2_MEMBER_2_MEMBER_5_FILL">
<path fill="#5F8D20" stroke="none" d="
M 220.05 306.7
L 220.25 304.95
Q 216.3 305.85 215.15 306.3 214.15 306.65 214.95 307.5 215.7 308.35 217.45 308.4 219.5 308.45 220.05 306.7 Z"/>
</g>

<g id="Layer0_0_MEMBER_1_MEMBER_2_MEMBER_2_MEMBER_6_FILL">
<path fill="#FEC554" stroke="none" d="
M 221 304.95
L 220.8 306.7
Q 221 308.45 223.05 308.4 224.9 308.35 226.05 307.6 227.2 306.8 226.1 306.3 225.4 305.95 223.1 305.4
L 221 304.95 Z"/>
</g>

<g id="Layer0_0_MEMBER_1_MEMBER_2_MEMBER_2_MEMBER_7_FILL">
<path fill="#FEC554" stroke="none" d="
M 220.75 304
Q 222.15 303.25 223 302.3 224.5 300.6 221.05 300.6 219.75 300.6 219.1 301.05 218.45 301.5 218.75 301.95 219.1 302.55 220.75 304 Z"/>
</g>

<g id="Layer0_0_MEMBER_1_MEMBER_3_MEMBER_0_FILL">
<path fill="#FEE2A9" stroke="none" d="
M 211.8 322
L 211.8 310.15 202.85 305 202.85 316.85 211.8 322 Z"/>
</g>

<g id="Layer0_0_MEMBER_1_MEMBER_3_MEMBER_1_FILL">
<path fill="#F6D391" stroke="none" d="
M 211.75 310.15
L 211.75 322 220.7 316.85 220.7 305 211.75 310.15 Z"/>
</g>

<g id="Layer0_0_MEMBER_1_MEMBER_3_MEMBER_2_FILL">
<path fill="#FEEECE" stroke="none" d="
M 211.75 299.75
L 202.85 305 211.8 310.15 220.7 305 211.75 299.75 Z"/>
</g>

<g id="Layer0_0_MEMBER_1_MEMBER_3_MEMBER_3_FILL">
<path fill="#73A92E" stroke="none" d="
M 211 303
L 210.6 302.4 210.1 303
Q 209.6 303.75 209.55 304.45 209.5 305.6 209.95 306.35 211.8 305.45 211.6 304.4 211.45 303.7 211 303 Z"/>
</g>

<g id="Layer0_0_MEMBER_1_MEMBER_3_MEMBER_4_FILL">
<path fill="#73A92E" stroke="none" d="
M 215 304.95
L 214.75 304.4 214.1 304.95
Q 213.45 305.6 213.15 306.35 212.65 307.6 212.9 308.3 214.5 307.45 214.95 306.35 215.25 305.65 215 304.95 Z"/>
</g>

<g id="Layer0_0_MEMBER_1_MEMBER_3_MEMBER_5_FILL">
<path fill="#73A92E" stroke="none" d="
M 208.5 310.35
L 207.75 310.1 208 310.85
Q 208.3 311.7 208.65 312.25 209.3 313.1 210.35 313.5 210.55 312 209.8 311.15 209.35 310.65 208.5 310.35 Z"/>
</g>

<g id="Layer0_0_MEMBER_1_MEMBER_3_MEMBER_6_FILL">
<path fill="#73A92E" stroke="none" d="
M 216.9 309.75
L 216.2 309.5 216.45 310.25
Q 216.75 311.1 217.1 311.65 217.7 312.5 218.75 312.9 218.95 311.4 218.2 310.55 217.75 310.05 216.9 309.75 Z"/>
</g>

<g id="Layer0_0_MEMBER_1_MEMBER_3_MEMBER_7_FILL">
<path fill="#73A92E" stroke="none" d="
M 215.65 314.3
Q 215.35 314.35 214.95 314.55 214.1 314.85 213.65 315.35 212.9 316.15 213.1 317.7 214.15 317.25 214.75 316.4 215.15 315.9 215.45 315.05
L 215.65 314.3 Z"/>
</g>

<g id="Layer0_0_MEMBER_1_MEMBER_3_MEMBER_8_FILL">
<path fill="#73A92E" stroke="none" d="
M 207.25 313.7
L 207.6 312.9
Q 207.1 313 206.55 313.15 205.4 313.55 205 314.1 204.4 315 204.35 315.65 205.55 315.6 206.3 315 206.75 314.6 207.25 313.7 Z"/>
</g>

<g id="Layer0_0_MEMBER_1_MEMBER_3_MEMBER_9_FILL">
<path fill="#73A92E" stroke="none" d="
M 205.85 311.2
L 205.3 309.1 204.15 310.15 205.85 311.2 Z"/>
</g>

<g id="Layer0_0_MEMBER_1_MEMBER_3_MEMBER_10_FILL">
<path fill="#73A92E" stroke="none" d="
M 209.95 317.7
L 209.05 316 208.15 317.7 209.95 317.7 Z"/>
</g>

<g id="Layer0_0_MEMBER_1_MEMBER_3_MEMBER_11_FILL">
<path fill="#73A92E" stroke="none" d="
M 214.75 311.8
L 213.3 311.2 213.55 312.9 214.75 311.8 Z"/>
</g>

<g id="Layer0_0_MEMBER_1_MEMBER_3_MEMBER_12_FILL">
<path fill="#73A92E" stroke="none" d="
M 218.85 315.2
L 217.5 313.9 217.15 315.65 218.85 315.2 Z"/>
</g>

<g id="Layer0_0_MEMBER_1_MEMBER_3_MEMBER_13_FILL">
<path fill="#73A92E" stroke="none" d="
M 207.6 305.75
L 207.3 304.4 205.65 304.95 207.6 305.75 Z"/>
</g>

<g id="Layer0_0_MEMBER_1_MEMBER_3_MEMBER_14_FILL">
<path fill="#73A92E" stroke="none" d="
M 213.95 302.4
L 212.1 302.4 212.8 303.5 213.95 302.4 Z"/>
</g>

<g id="Layer0_0_MEMBER_1_MEMBER_3_MEMBER_15_FILL">
<path fill="#73A92E" stroke="none" d="
M 217.15 305.75
L 217.15 304.4 215.65 304.95 217.15 305.75 Z"/>
</g>

<g id="Layer0_0_MEMBER_1_MEMBER_4_MEMBER_0_FILL">
<path fill="#FC4549" stroke="none" d="
M 204.45 319.3
Q 207.15 323.1 210.4 323.5 212 323.75 213.1 323.2 210.5 318.25 207.85 313.9 206.2 311.2 203.6 306.25
L 201.35 301.9
Q 199.95 305.95 200.6 310.25 201.35 314.95 204.45 319.3 Z"/>
</g>

<g id="Layer0_0_MEMBER_1_MEMBER_4_MEMBER_1_MEMBER_0_FILL">
<path fill="#EA2E33" stroke="none" d="
M 204.8 317.65
Q 203.8 316.4 202.95 314.5 201.3 310.55 201.15 305.8
L 201.35 301.9 199.5 302.7
Q 197.25 303.85 195.3 305.55 192.65 307.85 192.3 310.85 193.15 314.45 197 316.2 200.15 317.6 204.8 317.65 Z"/>
</g>

<g id="Layer0_0_MEMBER_1_MEMBER_4_MEMBER_1_MEMBER_1_FILL">
<path fill="#D12328" stroke="none" d="
M 210.25 322.1
Q 206.95 320.45 204.8 317.65 200.15 317.6 197 316.2 193.15 314.45 192.3 310.85 192.1 312.2 192.35 313.55 192.9 317 193.15 317.65 194.05 320.35 196.5 322.75 200.9 326.95 207.45 325.5 210.7 324.8 213.1 323.2 211.9 322.95 210.25 322.1 Z"/>
</g>

<g id="Layer0_0_MEMBER_1_MEMBER_4_MEMBER_2_FILL">
<path fill="#FD6A6C" stroke="none" d="
M 203.8 312.65
Q 204.85 313.1 205.8 312.05 203.6 307.75 203.15 306.65 202.8 305.7 202.35 305.95 201.85 306.25 201.9 307.95 201.95 309.7 202.5 311.05 203.05 312.35 203.8 312.65 Z"/>
</g>

<g id="Layer0_0_MEMBER_1_MEMBER_4_MEMBER_3_FILL">
<path fill="#FD6A6C" stroke="none" d="
M 206.6 313.9
L 206.2 312.75
Q 205.8 312.9 205.3 313.1 204.35 313.55 203.95 313.9 203.2 314.55 205.4 317.2 206.15 318.1 206.7 317.6 207.15 317.1 207.05 316 207 315.2 206.6 313.9 Z"/>
</g>

<g id="Layer0_0_MEMBER_1_MEMBER_4_MEMBER_4_FILL">
<path fill="#FD6A6C" stroke="none" d="
M 208.95 316.95
L 207.45 314.4 207.6 315.9
Q 207.85 317.7 208.2 318.9 208.55 320.15 209.85 321 211.1 321.85 210.95 321.25 210.55 319.8 208.95 316.95 Z"/>
</g>

<g id="Layer0_0_MEMBER_1_MEMBER_4_MEMBER_5_FILL">
<path fill="#FC4549" stroke="none" d="
M 203.8 311.3
Q 204.25 311.65 205.1 311.65 204.9 310.7 203.95 310.25 203.5 310.05 203.45 310.5 203.4 310.9 203.8 311.3 Z"/>
</g>

<g id="Layer0_0_MEMBER_1_MEMBER_4_MEMBER_6_FILL">
<path fill="#FC4549" stroke="none" d="
M 206.05 313.85
L 205.95 313.45 205.65 313.6
Q 205.3 313.85 205.1 314.2 204.85 314.65 205.3 314.95 205.8 315.25 205.95 314.75 206.1 314.35 206.05 313.85 Z"/>
</g>

<g id="Layer0_0_MEMBER_1_MEMBER_4_MEMBER_7_FILL">
<path fill="#FC4549" stroke="none" d="
M 208.3 316.35
L 207.95 315.9 208.2 317.4
Q 208.35 317.85 208.65 317.9 208.95 317.9 208.8 317.35 208.7 316.9 208.3 316.35 Z"/>
</g>

<g id="Layer0_0_MEMBER_1_MEMBER_5_FILL">
<path fill="#5F8D20" stroke="none" d="
M 200.3 325.55
L 200.3 321.55 178.7 321.55 178.7 325.55 200.3 325.55 Z"/>
</g>

<g id="Layer0_0_MEMBER_1_MEMBER_6_MEMBER_0_FILL">
<path fill="#5F8D20" stroke="none" d="
M 181.55 326.35
L 181.85 326.4
Q 182.15 326.5 182.25 326.9 182.45 327.55 181.9 327.85
L 182.65 328.25
Q 183.6 328.6 184.55 328.45 185.8 328.25 187.45 327.05 189.2 325.85 188.95 325.2 188.2 323.2 188.1 323 187.25 321.55 185.8 321.55 183.95 321.5 182.55 322.95 181 324.45 181.55 326.35 Z"/>
</g>

<g id="Layer0_0_MEMBER_1_MEMBER_6_MEMBER_1_FILL">
<path fill="#BECF43" stroke="none" d="
M 200.3 321.55
Q 200.3 319.15 197.15 317.5 193.95 315.8 189.5 315.8 185.05 315.8 181.85 317.5 178.7 319.15 178.7 321.55 178.7 323.9 181.85 325.6 185.05 327.25 189.5 327.25 193.95 327.25 197.15 325.6 200.3 323.9 200.3 321.55 Z"/>
</g>

<g id="Layer0_0_MEMBER_1_MEMBER_6_MEMBER_2_FILL">
<path fill="#FED683" stroke="none" d="
M 199.15 321.55
Q 199.15 319.55 196.35 318.1 193.5 316.7 189.5 316.7 185.5 316.7 182.65 318.1 179.85 319.55 179.85 321.55 179.85 323.55 182.65 324.95 185.5 326.35 189.5 326.35 193.5 326.35 196.35 324.95 199.15 323.55 199.15 321.55 Z"/>
</g>

<g id="Layer0_0_MEMBER_1_MEMBER_6_MEMBER_3_FILL">
<path fill="#FEC554" stroke="none" d="
M 184.8 321.75
Q 186.75 321.7 189 321.1 188.5 320.4 187.65 319.75 185.95 318.45 184.3 318.55 181.9 318.75 181.5 319.6 181.25 320.2 182.15 321.1 182.75 321.75 184.8 321.75 Z"/>
</g>

<g id="Layer0_0_MEMBER_1_MEMBER_6_MEMBER_4_FILL">
<path fill="#FEC554" stroke="none" d="
M 189.8 321.05
Q 195.55 322.65 196.95 321.1 197.75 320.25 197.35 319.65 196.85 318.9 194.95 318.9 193.25 318.9 191.35 320 190.4 320.5 189.8 321.05 Z"/>
</g>

<g id="Layer0_0_MEMBER_1_MEMBER_6_MEMBER_5_FILL">
<path fill="#FEC554" stroke="none" d="
M 188.8 323.3
L 189 321.55
Q 185.05 322.45 183.9 322.9 182.9 323.25 183.7 324.1 184.45 324.95 186.2 325 188.25 325.05 188.8 323.3 Z"/>
</g>

<g id="Layer0_0_MEMBER_1_MEMBER_6_MEMBER_6_FILL">
<path fill="#FEC554" stroke="none" d="
M 189.75 321.55
L 189.55 323.3
Q 189.75 325.05 191.8 325 193.65 324.95 194.8 324.2 195.95 323.4 194.85 322.9 194.15 322.55 191.85 322
L 189.75 321.55 Z"/>
</g>

<g id="Layer0_0_MEMBER_1_MEMBER_6_MEMBER_7_FILL">
<path fill="#FEC554" stroke="none" d="
M 189.5 320.6
Q 190.9 319.85 191.75 318.9 193.25 317.2 189.8 317.2 188.5 317.2 187.85 317.65 187.2 318.1 187.5 318.55 187.85 319.15 189.5 320.6 Z"/>
</g>

<g id="Layer0_0_MEMBER_2_MEMBER_0_MEMBER_0_FILL">
<path fill="#9FB0B2" stroke="none" d="
M 203.6 331.75
Q 214.75 325.75 220.3 322.7 234.05 315 251.25 305
L 250.4 303.95
Q 234.65 312.8 221.7 319.75 204.55 328.95 198.3 332.65 190.1 337.5 188.2 339.85 192.5 337.65 203.6 331.75 Z"/>
</g>

<g id="Layer0_0_MEMBER_2_MEMBER_0_MEMBER_1_FILL">
<path fill="#344144" stroke="none" d="
M 254 305.5
Q 256.25 304.5 257 303.3 257.85 301.85 256.3 300.4 255.2 299.4 253.1 300.35 251.9 300.9 249.65 302.55
L 246.35 304.6
Q 248.2 304.85 248.6 306.7 248.8 307.6 248.6 308.45 249.4 307.95 250.45 307.35 252.6 306.1 254 305.5 Z"/>
</g>

<g id="Layer0_0_MEMBER_2_MEMBER_0_MEMBER_2_FILL">
<path fill="#48575B" stroke="none" d="
M 245.95 305.6
Q 246 306 246.15 306.3
L 246.5 306.2
Q 246.85 306.2 247.15 306.75 247.45 307.35 246.8 307.6 247.9 308.9 248.7 308.35 249.4 307.95 248.85 306.15 248.5 305.15 247.7 304.7 247 304.3 246.35 304.6 245.8 304.9 245.95 305.6 Z"/>
</g>

<g id="Layer0_0_MEMBER_2_MEMBER_1_MEMBER_0_FILL">
<path fill="#FEC554" stroke="none" d="
M 223.3 307.45
Q 215.85 311.2 210.75 314.2 205 317.6 197 323.9 188.95 330.25 186.5 333.35 184.35 336.05 184.9 338.2 187.65 339.8 191.85 338.7 192.5 338.5 198.7 336.1 204.6 333.8 210.05 331.3 220.2 326.7 229.45 321.4 233.95 318.75 238.05 316.1 239.55 315.15 241.9 313.4 242.75 312.75 244.2 311.2 244.35 307.35 240.9 304.15 237.35 300.95 232.3 303.05 229.3 304.35 223.3 307.45 Z"/>
</g>

<g id="Layer0_0_MEMBER_2_MEMBER_1_MEMBER_1_FILL">
<path fill="#F2B03D" stroke="none" d="
M 242.1 313.25
Q 242.25 312.1 241.35 311.35 241 311.05 240.75 311.2 240.5 311.4 240.6 312.1 240.7 312.7 240.45 313.6 240.25 314.4 239.9 314.85
L 236.55 317.05
Q 236.55 316.75 236.2 316 235.85 315.25 235.6 315 235.35 314.65 235.15 314.8 234.9 315.05 235.1 316.15 235.2 316.6 235.05 317.25 234.9 317.9 234.65 318.25 231.55 320.2 229.45 321.4 220.2 326.7 210.05 331.3 204.6 333.8 198.7 336.1 192.5 338.5 191.85 338.7 187.65 339.8 184.9 338.2 185.65 341.1 190.6 341 195.45 340.95 210.65 333.75 215.2 331.6 229.05 324.5 234.4 321.8 238.2 319.2 243.35 315.65 243.85 313.4 244.1 312.4 244.2 311.2 242.85 312.65 242.1 313.25 Z"/>
</g>

<g id="Layer0_0_MEMBER_2_MEMBER_1_MEMBER_2_MEMBER_0_FILL">
<path fill="#F2B03D" stroke="none" d="
M 237.55 313.7
Q 238.55 313 238.25 312.05 237.9 310.75 236.25 310.75 236.05 310.75 236 310.95 235.95 311.2 236.1 311.3 237.8 312.3 237.2 313.35 237.1 313.6 237.2 313.7 237.35 313.85 237.55 313.7 Z"/>
</g>

<g id="Layer0_0_MEMBER_2_MEMBER_1_MEMBER_2_MEMBER_1_FILL">
<path fill="#F2B03D" stroke="none" d="
M 218.6 324.55
Q 219.6 323.85 219.35 322.85 219 321.55 217.35 321.55 217.15 321.6 217.1 321.8 217.05 322.05 217.2 322.15 218.9 323.05 218.3 324.2 218.2 324.4 218.3 324.55 218.4 324.7 218.6 324.55 Z"/>
</g>

<g id="Layer0_0_MEMBER_2_MEMBER_1_MEMBER_2_MEMBER_2_FILL">
<path fill="#F2B03D" stroke="none" d="
M 198.85 329.25
Q 198.9 328.85 198.6 328.35 197.95 327.15 196.4 327.55 196.2 327.6 196.15 327.85 196.15 328.05 196.35 328.15 198.25 328.65 197.9 329.9 197.85 330.15 198 330.25 198.15 330.35 198.35 330.15 198.75 329.6 198.85 329.25 Z"/>
</g>

<g id="Layer0_0_MEMBER_2_MEMBER_1_MEMBER_2_MEMBER_3_FILL">
<path fill="#F2B03D" stroke="none" d="
M 198.85 331.25
Q 198.9 330.85 198.6 330.35 197.95 329.15 196.4 329.55 196.2 329.6 196.15 329.85 196.15 330.05 196.35 330.15 198.25 330.65 197.9 331.9 197.85 332.15 198 332.25 198.15 332.35 198.35 332.15 198.75 331.6 198.85 331.25 Z"/>
</g>

<g id="Layer0_0_MEMBER_2_MEMBER_1_MEMBER_2_MEMBER_4_FILL">
<path fill="#F2B03D" stroke="none" d="
M 190.6 337.55
Q 191.8 337.3 192 336.35 192.15 335.45 191.65 334.95 191.45 334.65 190.75 334.3 190.55 334.25 190.4 334.4 190.25 334.6 190.35 334.75 191.45 336.35 190.45 337.05 190.25 337.2 190.3 337.4 190.4 337.6 190.6 337.55 Z"/>
</g>

<g id="Layer0_0_MEMBER_2_MEMBER_1_MEMBER_2_MEMBER_5_FILL">
<path fill="#F2B03D" stroke="none" d="
M 194.45 336.4
Q 195.5 335.7 195.25 334.7 195 333.85 194.35 333.55 194.05 333.4 193.3 333.35 193.1 333.35 193 333.6 192.95 333.85 193.15 333.9 194.7 335 194.15 336 194.05 336.25 194.15 336.35 194.25 336.5 194.45 336.4 Z"/>
</g>

<g id="Layer0_0_MEMBER_2_MEMBER_1_MEMBER_2_MEMBER_6_FILL">
<path fill="#F2B03D" stroke="none" d="
M 208.5 326
Q 209.5 325.25 209.2 324.3 208.85 323 207.25 323 207 323 206.95 323.2 206.9 323.45 207.1 323.55 208.75 324.55 208.15 325.6 208.05 325.8 208.2 325.95 208.3 326.1 208.5 326 Z"/>
</g>

<g id="Layer0_0_MEMBER_2_MEMBER_1_MEMBER_2_MEMBER_7_FILL">
<path fill="#F2B03D" stroke="none" d="
M 208.6 323.35
Q 209.6 322.7 209.35 321.65 208.95 320.4 207.35 320.4 207.15 320.4 207.1 320.6 207.05 320.85 207.2 320.95 208.9 321.95 208.3 323 208.15 323.2 208.3 323.35 208.4 323.5 208.6 323.35 Z"/>
</g>

<g id="Layer0_0_MEMBER_2_MEMBER_1_MEMBER_2_MEMBER_8_FILL">
<path fill="#F2B03D" stroke="none" d="
M 204.6 329.8
Q 205.6 329.1 205.35 328.1 204.95 326.8 203.35 326.8 203.15 326.8 203.05 327 203 327.25 203.2 327.35 204.85 328.35 204.25 329.4 204.15 329.6 204.3 329.75 204.4 329.9 204.6 329.8 Z"/>
</g>

<g id="Layer0_0_MEMBER_2_MEMBER_1_MEMBER_2_MEMBER_9_FILL">
<path fill="#F2B03D" stroke="none" d="
M 220.25 318
Q 221.25 317.35 221 316.3 220.6 315.05 219 315.05 218.8 315.05 218.7 315.25 218.65 315.5 218.85 315.6 220.55 316.55 219.9 317.65 219.8 317.85 219.95 318 220.05 318.15 220.25 318 Z"/>
</g>

<g id="Layer0_0_MEMBER_2_MEMBER_1_MEMBER_2_MEMBER_10_FILL">
<path fill="#F2B03D" stroke="none" d="
M 216.25 318.9
Q 217.25 318.15 216.95 317.2 216.6 315.9 214.95 315.9 214.75 315.9 214.7 316.15 214.65 316.35 214.8 316.45 216.5 317.45 215.9 318.55 215.8 318.75 215.9 318.9 216.05 319.05 216.25 318.9 Z"/>
</g>

<g id="Layer0_0_MEMBER_2_MEMBER_1_MEMBER_2_MEMBER_11_FILL">
<path fill="#F2B03D" stroke="none" d="
M 220.1 320.4
Q 221.1 319.75 220.85 318.7 220.45 317.45 218.85 317.45 218.65 317.45 218.55 317.65 218.5 317.9 218.7 318 220.35 319 219.75 320.05 219.65 320.3 219.8 320.4 219.9 320.55 220.1 320.4 Z"/>
</g>

<g id="Layer0_0_MEMBER_2_MEMBER_1_MEMBER_2_MEMBER_12_FILL">
<path fill="#F2B03D" stroke="none" d="
M 226.8 318
Q 227.8 317.3 227.5 316.3 227.15 315.05 225.55 315.05 225.3 315.05 225.25 315.25 225.2 315.5 225.4 315.6 227.1 316.55 226.45 317.65 226.35 317.85 226.5 318 226.6 318.15 226.8 318 Z"/>
</g>

<g id="Layer0_0_MEMBER_2_MEMBER_1_MEMBER_2_MEMBER_13_FILL">
<path fill="#F2B03D" stroke="none" d="
M 227.95 313.45
Q 228.95 312.8 228.7 311.75 228.35 310.5 226.7 310.5 226.5 310.5 226.45 310.7 226.4 310.95 226.55 311.05 227.25 311.45 227.6 311.95 227.95 312.55 227.65 313.1 227.55 313.3 227.65 313.45 227.75 313.6 227.95 313.45 Z"/>
</g>

<g id="Layer0_0_MEMBER_2_MEMBER_1_MEMBER_2_MEMBER_14_FILL">
<path fill="#F2B03D" stroke="none" d="
M 239.3 310.3
Q 240.3 309.6 240.05 308.6 239.65 307.3 238.05 307.3 237.85 307.3 237.75 307.55 237.7 307.8 237.9 307.85 239.55 308.85 238.95 309.95 238.85 310.15 239 310.3 239.1 310.45 239.3 310.3 Z"/>
</g>

<g id="Layer0_0_MEMBER_2_MEMBER_1_MEMBER_2_MEMBER_15_FILL">
<path fill="#F2B03D" stroke="none" d="
M 231 317.45
Q 230.9 317.75 231.05 318.35 231.15 318.95 231.1 319.25 231 320.25 230.4 321 230.3 321.1 230.4 321.25 230.55 321.4 230.7 321.35
L 230.9 321.3
Q 231 321.3 231.1 321.1
L 231.55 321.05
Q 232.4 320.5 232.25 319.3 232.15 318.2 231.4 317.35 231.1 317.15 231 317.45 Z"/>
</g>

<g id="Layer0_0_MEMBER_2_MEMBER_1_MEMBER_2_MEMBER_16_FILL">
<path fill="#F2B03D" stroke="none" d="
M 222.6 324.75
Q 222.5 323.6 221.75 322.8 221.65 322.75 221.55 322.75 221.4 322.8 221.35 322.9 221.25 323.25 221.4 323.8 221.5 324.45 221.5 324.7 221.45 325.2 221.1 325.8 220.8 326.2 220.75 326.45 220.65 326.9 221.1 326.8
L 221.25 326.75
Q 221.45 326.75 221.45 326.55
L 221.9 326.5
Q 222.75 325.95 222.6 324.75 Z"/>
</g>

<g id="Layer0_0_MEMBER_2_MEMBER_1_MEMBER_2_MEMBER_17_FILL">
<path fill="#F2B03D" stroke="none" d="
M 213.8 326.85
Q 213.7 326.8 213.6 326.8 213.45 326.85 213.4 326.95 213.3 327.3 213.45 327.85 213.55 328.5 213.55 328.75 213.5 329.25 213.15 329.85 212.85 330.25 212.8 330.5 212.7 330.95 213.15 330.85
L 213.3 330.8
Q 213.35 330.8 213.5 330.65
L 213.95 330.55
Q 214.8 330 214.65 328.8 214.55 327.7 213.8 326.85 Z"/>
</g>

<g id="Layer0_0_MEMBER_2_MEMBER_1_MEMBER_2_MEMBER_18_FILL">
<path fill="#F2B03D" stroke="none" d="
M 206.75 330
Q 206.65 330.3 206.8 330.9 206.9 331.5 206.85 331.8 206.75 332.45 206.45 332.9 206.15 333.3 206.15 333.55 206.1 333.7 206.2 333.8 206.3 333.95 206.45 333.9
L 206.65 333.85
Q 206.75 333.85 206.85 333.65
L 207.3 333.6
Q 208.15 333.05 208 331.85 207.9 330.7 207.15 329.9 206.9 329.65 206.75 330 Z"/>
</g>

<g id="Layer0_0_MEMBER_2_MEMBER_1_MEMBER_2_MEMBER_19_FILL">
<path fill="#F2B03D" stroke="none" d="
M 203.4 333.85
Q 203.3 332.75 202.55 331.95 202.5 331.85 202.35 331.85 202.2 331.9 202.15 332.05 202.05 332.35 202.2 332.9 202.35 333.5 202.3 333.8 202.25 334.3 201.9 334.9 201.55 335.45 201.55 335.55 201.45 336 201.9 335.9
L 202.05 335.9
Q 202.25 335.8 202.25 335.7
L 202.7 335.6
Q 203.55 335.1 203.4 333.85 Z"/>
</g>

<g id="Layer0_0_MEMBER_2_MEMBER_1_MEMBER_2_MEMBER_20_FILL">
<path fill="#FEE2A9" stroke="none" d="
M 189.6 335.1
Q 189.6 334.55 189.25 334.15 188.95 333.75 188.4 333.8 187.85 333.85 187.7 334.15 187.45 334.6 188.05 335.05 188.7 335.7 189.05 335.7 189.6 335.7 189.6 335.1 Z"/>
</g>

<g id="Layer0_0_MEMBER_2_MEMBER_1_MEMBER_2_MEMBER_21_FILL">
<path fill="#FEE2A9" stroke="none" d="
M 205.1 322.6
Q 204.95 322.1 204.55 321.8 204.15 321.5 203.6 321.7 203.1 321.8 203 322.15 202.9 322.65 203.6 322.95 204.3 323.4 204.7 323.35 205.25 323.2 205.1 322.6 Z"/>
</g>

<g id="Layer0_0_MEMBER_2_MEMBER_1_MEMBER_2_MEMBER_22_FILL">
<path fill="#FEE2A9" stroke="none" d="
M 222.6 311.5
Q 222.45 311 222 310.7 221.6 310.4 221.1 310.6 220.6 310.75 220.5 311.05 220.4 311.45 221.05 311.9 221.9 312.35 222.2 312.25 222.75 312.1 222.6 311.5 Z"/>
</g>

<g id="Layer0_0_MEMBER_2_MEMBER_1_MEMBER_2_MEMBER_23_FILL">
<path fill="#FEE2A9" stroke="none" d="
M 232.25 308.05
Q 232.1 307.55 231.65 307.25 231.25 306.95 230.75 307.1 230.25 307.25 230.15 307.6 230.05 308.05 230.7 308.4 231.55 308.85 231.85 308.75 232.4 308.6 232.25 308.05 Z"/>
</g>

<g id="Layer0_0_MEMBER_2_MEMBER_1_MEMBER_2_MEMBER_24_FILL">
<path fill="#FEE2A9" stroke="none" d="
M 205.15 318.65
Q 205.35 318.35 204.95 318.15 204.1 317.8 203.2 318.55 202.65 319 201.7 319.9 201.2 320.3 200.1 320.95 199.2 321.6 198.65 322.2 198.55 322.3 198.55 322.5 198.25 322.75 197.55 323.15 196.95 323.5 196.6 323.95 196.45 324.15 194.8 325.35 194.75 325.4 194.3 325.9 193.75 326.4 193.1 326.75 192.5 327.05 191.95 327.6 191.65 327.9 191.35 328.15 191.25 328.25 190.9 328.7 190.65 329.1 190.4 329.25 190.35 329.3 188.85 330.6
L 187.65 331.9
Q 186.85 332.7 186.4 333.5 185.85 333.7 185.45 334.3 185.1 334.9 185.05 335.55
L 184.7 336.25
Q 184.45 336.8 184.55 337.5 184.7 338.4 185.4 338.35 185.45 338.35 185.45 337.45 185.4 336.5 185.8 336.25 186 337 186.45 337.5 187.05 338.2 187.5 337.7 187.95 337.15 187.4 336.1 186.55 335 186.8 334.35 186.75 333.65 187.2 333 187.35 332.75 187.7 332.45 188.1 332.1 188.2 331.95 188.4 331.4 188.65 331.2 189 330.85 189.65 331.2 189.9 331.3 190 331.05
L 190.05 331.05 190.5 330.15
Q 190.8 329.7 192.3 329.45 192.5 329.4 192.5 328.65 192.7 328.35 193.4 328.95 193.7 329.25 193.9 328.9 194 328.75 193.8 328.45 193.6 328.15 193.75 327.95 194.15 327.3 194.25 327.15 194.65 326.7 195.3 326.5 195.65 326.4 196.2 325.95 196.75 325.55 196.8 325.4 197 324.6 197.95 324.05 198.8 323.55 199.75 323.4 200.25 323.3 200.3 322.75 200.2 322.2 200.25 322.1 201.1 321.45 202.25 320.75 203.55 320.05 203.95 320 204.55 319.9 204.65 319.65 204.9 319 205.15 318.65 Z"/>
</g>

<g id="Layer0_0_MEMBER_2_MEMBER_1_MEMBER_2_MEMBER_25_FILL">
<path fill="#FEE2A9" stroke="none" d="
M 197 332.15
Q 197.2 331.55 197 331.2 196.65 330.5 195.8 330.5 195.6 330.45 195.45 330.7 195.3 330.9 195.3 331.15 195.3 331.8 196.15 332.4 196.75 332.8 197 332.15 Z"/>
</g>

<g id="Layer0_0_MEMBER_2_MEMBER_1_MEMBER_2_MEMBER_26_FILL">
<path fill="#FEE2A9" stroke="none" d="
M 203.3 329.6
Q 203.65 329.1 203.55 328.65 203.25 327.9 202.45 327.75 202.05 327.6 201.85 328.3 201.75 328.95 202.45 329.65 202.95 330.2 203.3 329.6 Z"/>
</g>

<g id="Layer0_0_MEMBER_2_MEMBER_1_MEMBER_2_MEMBER_27_FILL">
<path fill="#FEE2A9" stroke="none" d="
M 212.7 316.25
Q 212.3 315.7 211.9 315.7 211.15 315.65 210.65 316.35 210.3 316.8 210.95 317.1 211.5 317.5 212.45 317.05 213.1 316.8 212.7 316.25 Z"/>
</g>

<g id="Layer0_0_MEMBER_2_MEMBER_1_MEMBER_2_MEMBER_28_FILL">
<path fill="#FEE2A9" stroke="none" d="
M 232.4 313.55
Q 232.5 312.9 232.25 312.55 231.75 312 230.9 312.1 230.45 312.2 230.55 312.85 230.6 313.4 231.6 313.9 232.25 314.2 232.4 313.55 Z"/>
</g>

<g id="Layer0_0_MEMBER_2_MEMBER_1_MEMBER_2_MEMBER_29_FILL">
<path fill="#FEE2A9" stroke="none" d="
M 239.85 305.95
Q 239.95 305.3 239.7 304.95 239.3 304.4 238.35 304.5 237.9 304.6 238 305.25 238.15 305.85 239.1 306.3 239.75 306.6 239.85 305.95 Z"/>
</g>

<g id="Layer0_0_MEMBER_2_MEMBER_1_MEMBER_2_MEMBER_30_FILL">
<path fill="#FEE2A9" stroke="none" d="
M 215.8 322.5
Q 216.25 322.1 216.25 321.65 216.2 320.9 215.45 320.5 215.05 320.25 214.7 320.9 214.45 321.5 214.95 322.35 215.3 323 215.8 322.5 Z"/>
</g>

<g id="Layer0_0_MEMBER_2_MEMBER_1_MEMBER_2_MEMBER_31_FILL">
<path fill="#FEE2A9" stroke="none" d="
M 224.65 318.4
Q 225.1 317.95 225.05 317.5 225.05 316.75 224.25 316.35 224.05 316.25 223.85 316.4 223.65 316.5 223.55 316.75 223.25 317.25 223.8 318.2 224.15 318.85 224.65 318.4 Z"/>
</g>

<g id="Layer0_0_MEMBER_2_MEMBER_1_MEMBER_2_MEMBER_32_FILL">
<path fill="#FEE2A9" stroke="none" d="
M 235.55 313.45
Q 236 313.05 236 312.6 235.95 311.85 235.15 311.45 234.8 311.25 234.45 311.8 234.15 312.4 234.7 313.3 235.05 313.95 235.55 313.45 Z"/>
</g>

<g id="Layer0_0_MEMBER_2_MEMBER_1_MEMBER_2_MEMBER_33_FILL">
<path fill="#FEE2A9" stroke="none" d="
M 212.5 328.8
Q 212.85 328.25 212.7 327.85 212.5 327.15 211.65 326.9 211.15 326.8 211.05 327.45 210.9 328.1 211.65 328.85 212.15 329.4 212.5 328.8 Z"/>
</g>

<g id="Layer0_0_MEMBER_2_MEMBER_1_MEMBER_2_MEMBER_34_FILL">
<path fill="#FEE2A9" stroke="none" d="
M 239.15 303.5
Q 240.25 303.7 240 303.45 238.4 301.9 235.95 301.9 233.9 301.9 231.65 302.95 227.15 305.1 224.9 306.3 222.9 307.6 221.7 308.1 220.55 308.4 220 308.65
L 217.85 310
Q 217.75 310.15 216.95 310.5 216.1 310.85 215.7 310.9 215.15 311 214.55 311.55 213.7 312.35 213.55 312.45
L 211.4 313.55
Q 209.05 314.6 207.85 316 207.45 316.5 208.25 316.35 208.7 316.2 209.45 315.35 209.6 315.2 210.35 315.05 211.15 314.95 211.45 314.75 212.85 313.8 213.6 313.35 214.9 312.5 215.85 312.25 216.25 312.15 216.75 312.55 217.05 312.75 217.55 313.15 217.65 313.35 217.9 313.35 218.1 313.35 218.2 313.15 219 311.9 217.6 311.35 217.8 311.25 218.15 311.25 218.5 311.25 218.7 311.1 219.2 310.2 219.4 309.95 219.6 309.8 220.05 309.75 220.5 309.7 220.6 309.65 222.7 308.9 223.1 310.4 223.2 310.6 223.5 310.6 223.75 310.55 223.85 310.4 224.1 310.05 224.25 309.35
L 224.35 308.6
Q 224.85 308.05 225.95 308 227.35 307.9 227.7 307.7 227.95 307.55 228.1 307.25 228.35 306.85 228.4 306.8 229.1 305.95 230.95 306.25 231.45 306.35 232.1 306.5 232.55 306.5 232.9 306 232.95 305.95 233.05 305.45 233.1 305.05 233.45 304.7 234.3 303.85 236 303.55 237.5 303.3 239.15 303.5 Z"/>
</g>

<g id="Layer0_0_MEMBER_3_MEMBER_0_FILL">
<path fill="#5F8D20" stroke="none" d="
M 227.45 341.25
Q 227.45 338.9 224.3 337.2 221.1 335.5 216.65 335.5 212.2 335.5 209.05 337.2 205.9 338.9 205.9 341.25 205.9 343.6 209.05 345.3 212.2 347 216.65 347 221.1 347 224.3 345.3 227.45 343.6 227.45 341.25 Z"/>
</g>

<g id="Layer0_0_MEMBER_3_MEMBER_1_MEMBER_0_FILL">
<path fill="#9FB0B2" stroke="none" d="
M 234.95 327.45
Q 217.8 336.65 211.55 340.35 203.35 345.2 201.45 347.6 220.95 337.4 233.55 330.4 247.3 322.7 264.5 312.7
L 263.6 311.65
Q 247.9 320.5 234.95 327.45 Z"/>
</g>

<g id="Layer0_0_MEMBER_3_MEMBER_1_MEMBER_1_FILL">
<path fill="#344144" stroke="none" d="
M 269.55 308.1
Q 268.5 307.1 266.35 308.1 265.35 308.55 262.85 310.25
L 259.55 312.35
Q 261.45 312.55 261.85 314.4 262.05 315.3 261.85 316.15 262.65 315.65 263.7 315.05 265.85 313.8 267.25 313.2 269.5 312.3 270.2 311.05 271.1 309.55 269.55 308.1 Z"/>
</g>

<g id="Layer0_0_MEMBER_3_MEMBER_1_MEMBER_2_FILL">
<path fill="#48575B" stroke="none" d="
M 259.35 314.05
L 259.7 313.95
Q 260.05 313.9 260.35 314.45 260.7 315.05 260.05 315.3 261.15 316.6 261.95 316.05 262.35 315.8 262.3 315 262.25 314.4 262.05 313.85 261.7 312.85 260.95 312.4 260.2 312 259.55 312.35 259 312.6 259.15 313.35 259.2 313.75 259.35 314.05 Z"/>
</g>

<g id="Layer0_0_MEMBER_3_MEMBER_2_MEMBER_0_FILL">
<path fill="#5F8D20" stroke="none" d="
M 240.25 320.6
Q 237.1 322.3 237.1 324.65 237.1 327 240.25 328.7 243.45 330.4 247.9 330.4 252.35 330.4 255.55 328.7 258.7 327 258.7 324.65 258.7 322.3 255.55 320.6 252.35 318.9 247.9 318.9 243.45 318.9 240.25 320.6 Z"/>
</g>

<g id="Layer0_0_MEMBER_3_MEMBER_2_MEMBER_1_FILL">
<path fill="#5F8D20" stroke="none" d="
M 237.1 320.65
L 237.1 324.65 258.7 324.65 258.7 320.65 237.1 320.65 Z"/>
</g>

<g id="Layer0_0_MEMBER_3_MEMBER_2_MEMBER_2_MEMBER_0_FILL">
<path fill="#5F8D20" stroke="none" d="
M 240.95 322.1
Q 239.4 323.6 239.95 325.5
L 240.25 325.55
Q 240.55 325.65 240.65 326.05 240.85 326.7 240.3 327
L 241.05 327.35
Q 242 327.7 242.95 327.55 244.15 327.4 245.85 326.2 247.6 325 247.35 324.3
L 246.5 322.15
Q 245.65 320.65 244.2 320.65 242.35 320.65 240.95 322.1 Z"/>
</g>

<g id="Layer0_0_MEMBER_3_MEMBER_2_MEMBER_2_MEMBER_1_FILL">
<path fill="#BECF43" stroke="none" d="
M 240.25 316.6
Q 237.1 318.3 237.1 320.65 237.1 323 240.25 324.7 243.45 326.4 247.9 326.4 252.35 326.4 255.55 324.7 258.7 323 258.7 320.65 258.7 318.3 255.55 316.6 252.35 314.9 247.9 314.9 243.45 314.9 240.25 316.6 Z"/>
</g>

<g id="Layer0_0_MEMBER_3_MEMBER_2_MEMBER_2_MEMBER_2_FILL">
<path fill="#FED683" stroke="none" d="
M 241.05 317.25
Q 238.25 318.65 238.25 320.65 238.25 322.65 241.05 324.05 243.9 325.5 247.9 325.5 251.9 325.5 254.75 324.05 257.55 322.65 257.55 320.65 257.55 318.65 254.75 317.25 251.9 315.8 247.9 315.8 243.9 315.8 241.05 317.25 Z"/>
</g>

<g id="Layer0_0_MEMBER_3_MEMBER_2_MEMBER_2_MEMBER_3_FILL">
<path fill="#FEC554" stroke="none" d="
M 242.7 317.7
Q 238.45 318.05 240.55 320.25 241.15 320.9 243.2 320.85 245.1 320.85 247.4 320.25 246.9 319.55 246.05 318.9 244.35 317.6 242.7 317.7 Z"/>
</g>

<g id="Layer0_0_MEMBER_3_MEMBER_2_MEMBER_2_MEMBER_4_FILL">
<path fill="#FEC554" stroke="none" d="
M 248.2 320.2
Q 253.95 321.7 255.35 320.25 256.15 319.4 255.75 318.75 255.25 318 253.35 318 251.65 318.05 249.75 319.1 248.8 319.65 248.2 320.2 Z"/>
</g>

<g id="Layer0_0_MEMBER_3_MEMBER_2_MEMBER_2_MEMBER_5_FILL">
<path fill="#5F8D20" stroke="none" d="
M 242.3 322
Q 241.3 322.35 242.1 323.2 242.85 324.1 244.6 324.1 246.65 324.15 247.2 322.4
L 247.4 320.65
Q 243.45 321.6 242.3 322 Z"/>
</g>

<g id="Layer0_0_MEMBER_3_MEMBER_2_MEMBER_2_MEMBER_6_FILL">
<path fill="#FEC554" stroke="none" d="
M 248.15 320.65
L 247.95 322.4
Q 248.15 324.15 250.2 324.1 252.05 324.1 253.2 323.3 254.35 322.5 253.25 322 252.55 321.7 250.25 321.15
L 248.15 320.65 Z"/>
</g>

<g id="Layer0_0_MEMBER_3_MEMBER_2_MEMBER_2_MEMBER_7_FILL">
<path fill="#FEC554" stroke="none" d="
M 247.9 319.7
Q 249.3 318.95 250.15 318 251.7 316.3 248.2 316.35 246.9 316.35 246.25 316.8 245.6 317.2 245.9 317.7 246.25 318.25 247.9 319.7 Z"/>
</g>

<g id="Layer0_0_MEMBER_3_MEMBER_3_MEMBER_0_FILL">
<path fill="#FEE2A9" stroke="none" d="
M 238.95 337.75
L 238.95 325.85 230 320.7 230 332.6 238.95 337.75 Z"/>
</g>

<g id="Layer0_0_MEMBER_3_MEMBER_3_MEMBER_1_FILL">
<path fill="#F6D391" stroke="none" d="
M 238.85 325.85
L 238.85 337.75 247.8 332.6 247.8 320.7 238.85 325.85 Z"/>
</g>

<g id="Layer0_0_MEMBER_3_MEMBER_3_MEMBER_2_FILL">
<path fill="#FEEECE" stroke="none" d="
M 238.9 315.45
L 230 320.7 238.95 325.85 247.85 320.7 238.9 315.45 Z"/>
</g>

<g id="Layer0_0_MEMBER_3_MEMBER_3_MEMBER_3_FILL">
<path fill="#73A92E" stroke="none" d="
M 238.15 318.7
L 237.75 318.1 237.25 318.7
Q 236.75 319.45 236.7 320.15 236.65 321.35 237.1 322.1 238.95 321.2 238.75 320.1 238.6 319.4 238.15 318.7 Z"/>
</g>

<g id="Layer0_0_MEMBER_3_MEMBER_3_MEMBER_4_FILL">
<path fill="#73A92E" stroke="none" d="
M 242.15 320.7
L 241.9 320.1 241.25 320.65
Q 240.6 321.3 240.3 322.1 239.8 323.3 240.05 324 241.65 323.2 242.1 322.1 242.4 321.4 242.15 320.7 Z"/>
</g>

<g id="Layer0_0_MEMBER_3_MEMBER_3_MEMBER_5_FILL">
<path fill="#73A92E" stroke="none" d="
M 235.65 326.05
L 234.9 325.8 235.15 326.55
Q 235.45 327.4 235.85 327.95 236.45 328.8 237.5 329.2 237.7 327.7 236.95 326.9 236.5 326.35 235.65 326.05 Z"/>
</g>

<g id="Layer0_0_MEMBER_3_MEMBER_3_MEMBER_6_FILL">
<path fill="#73A92E" stroke="none" d="
M 244.05 325.45
L 243.35 325.2 243.6 325.95
Q 243.9 326.8 244.25 327.35 244.9 328.2 245.9 328.6 246.1 327.1 245.35 326.3 244.9 325.75 244.05 325.45 Z"/>
</g>

<g id="Layer0_0_MEMBER_3_MEMBER_3_MEMBER_7_FILL">
<path fill="#73A92E" stroke="none" d="
M 242.8 330
Q 242.5 330.05 242.1 330.25 241.25 330.55 240.8 331.05 240.05 331.9 240.25 333.4 241.3 333 241.9 332.15 242.3 331.6 242.6 330.75
L 242.8 330 Z"/>
</g>

<g id="Layer0_0_MEMBER_3_MEMBER_3_MEMBER_8_FILL">
<path fill="#73A92E" stroke="none" d="
M 234.4 329.45
L 234.75 328.6
Q 234.25 328.7 233.7 328.9 232.55 329.25 232.15 329.8 231.55 330.7 231.5 331.4 232.7 331.3 233.45 330.7 233.9 330.35 234.4 329.45 Z"/>
</g>

<g id="Layer0_0_MEMBER_3_MEMBER_3_MEMBER_9_FILL">
<path fill="#73A92E" stroke="none" d="
M 233 326.9
L 232.45 324.8 231.3 325.85 233 326.9 Z"/>
</g>

<g id="Layer0_0_MEMBER_3_MEMBER_3_MEMBER_10_FILL">
<path fill="#73A92E" stroke="none" d="
M 237.1 333.4
L 236.2 331.7 235.3 333.4 237.1 333.4 Z"/>
</g>

<g id="Layer0_0_MEMBER_3_MEMBER_3_MEMBER_11_FILL">
<path fill="#73A92E" stroke="none" d="
M 241.9 327.5
L 240.5 326.9 240.7 328.6 241.9 327.5 Z"/>
</g>

<g id="Layer0_0_MEMBER_3_MEMBER_3_MEMBER_12_FILL">
<path fill="#73A92E" stroke="none" d="
M 246 330.9
L 244.65 329.6 244.3 331.4 246 330.9 Z"/>
</g>

<g id="Layer0_0_MEMBER_3_MEMBER_3_MEMBER_13_FILL">
<path fill="#73A92E" stroke="none" d="
M 234.75 321.45
L 234.45 320.1 232.8 320.65 234.75 321.45 Z"/>
</g>

<g id="Layer0_0_MEMBER_3_MEMBER_3_MEMBER_14_FILL">
<path fill="#73A92E" stroke="none" d="
M 241.1 318.1
L 239.25 318.1 239.95 319.2 241.1 318.1 Z"/>
</g>

<g id="Layer0_0_MEMBER_3_MEMBER_3_MEMBER_15_FILL">
<path fill="#73A92E" stroke="none" d="
M 244.3 321.45
L 244.3 320.1 242.8 320.65 244.3 321.45 Z"/>
</g>

<g id="Layer0_0_MEMBER_3_MEMBER_4_MEMBER_0_FILL">
<path fill="#FC4549" stroke="none" d="
M 228.5 317.65
Q 227.1 321.7 227.75 326 228.5 330.7 231.6 335.05 234.3 338.8 237.55 339.25 239.15 339.5 240.25 338.95 237.65 333.95 235 329.6 233.35 326.9 230.75 322
L 228.5 317.65 Z"/>
</g>

<g id="Layer0_0_MEMBER_3_MEMBER_4_MEMBER_1_MEMBER_0_FILL">
<path fill="#EA2E33" stroke="none" d="
M 224.2 331.9
Q 227.3 333.3 231.95 333.35 230.85 331.95 230.15 330.25 228.45 326.25 228.3 321.55
L 228.5 317.65 226.65 318.45
Q 224.4 319.6 222.45 321.3 219.9 323.45 219.45 326.55 220.35 330.15 224.2 331.9 Z"/>
</g>

<g id="Layer0_0_MEMBER_3_MEMBER_4_MEMBER_1_MEMBER_1_FILL">
<path fill="#D12328" stroke="none" d="
M 219.5 329.25
Q 220.05 332.7 220.3 333.4 221.2 336.1 223.65 338.45 228.05 342.65 234.6 341.25 237.85 340.5 240.25 338.95 239.05 338.7 237.4 337.85 234.1 336.2 231.95 333.35 227.3 333.3 224.2 331.9 220.35 330.15 219.45 326.55 219.25 327.95 219.5 329.25 Z"/>
</g>

<g id="Layer0_0_MEMBER_3_MEMBER_4_MEMBER_2_FILL">
<path fill="#FD6A6C" stroke="none" d="
M 230.95 328.4
Q 232 328.8 232.95 327.75 230.75 323.45 230.35 322.35 229.95 321.4 229.5 321.65 229 321.95 229.05 323.7 229.15 325.5 229.65 326.8 230.2 328.05 230.95 328.4 Z"/>
</g>

<g id="Layer0_0_MEMBER_3_MEMBER_4_MEMBER_3_FILL">
<path fill="#FD6A6C" stroke="none" d="
M 233.75 329.6
L 233.35 328.45
Q 232.95 328.6 232.45 328.8 231.5 329.25 231.1 329.6 230.35 330.3 232.55 332.95 233.3 333.8 233.85 333.3 234.3 332.85 234.25 331.75 234.2 330.9 233.75 329.6 Z"/>
</g>

<g id="Layer0_0_MEMBER_3_MEMBER_4_MEMBER_4_FILL">
<path fill="#FD6A6C" stroke="none" d="
M 236.1 332.7
L 234.6 330.15 234.75 331.65
Q 235 333.4 235.35 334.6 235.7 335.9 237 336.75 238.3 337.65 238.1 337 237.7 335.5 236.1 332.7 Z"/>
</g>

<g id="Layer0_0_MEMBER_3_MEMBER_4_MEMBER_5_FILL">
<path fill="#FC4549" stroke="none" d="
M 230.95 327
Q 231.4 327.4 232.25 327.4 232.05 326.4 231.1 325.95 230.65 325.75 230.6 326.2 230.55 326.6 230.95 327 Z"/>
</g>

<g id="Layer0_0_MEMBER_3_MEMBER_4_MEMBER_6_FILL">
<path fill="#FC4549" stroke="none" d="
M 233.2 329.6
L 233.1 329.15 232.8 329.35
Q 232.45 329.6 232.25 329.95 232 330.4 232.45 330.7 232.95 330.95 233.1 330.5 233.25 330.1 233.2 329.6 Z"/>
</g>

<g id="Layer0_0_MEMBER_3_MEMBER_4_MEMBER_7_FILL">
<path fill="#FC4549" stroke="none" d="
M 235.45 332.05
L 235.1 331.65 235.35 333.1
Q 235.5 333.6 235.8 333.6 236.1 333.6 235.95 333.05 235.85 332.6 235.45 332.05 Z"/>
</g>

<g id="Layer0_0_MEMBER_3_MEMBER_5_FILL">
<path fill="#5F8D20" stroke="none" d="
M 227.45 341.25
L 227.45 337.25 205.9 337.25 205.9 341.25 227.45 341.25 Z"/>
</g>

<g id="Layer0_0_MEMBER_3_MEMBER_6_MEMBER_0_FILL">
<path fill="#5F8D20" stroke="none" d="
M 209.7 338.7
Q 208.15 340.2 208.7 342.1
L 209 342.15
Q 209.3 342.25 209.4 342.65 209.6 343.3 209.05 343.6
L 209.8 343.95
Q 210.75 344.3 211.7 344.15 212.95 344 214.6 342.8 216.35 341.6 216.1 340.9
L 215.25 338.75
Q 214.4 337.25 212.95 337.25 211.1 337.25 209.7 338.7 Z"/>
</g>

<g id="Layer0_0_MEMBER_3_MEMBER_6_MEMBER_1_FILL">
<path fill="#BECF43" stroke="none" d="
M 227.45 337.25
Q 227.45 334.9 224.3 333.2 221.1 331.5 216.65 331.5 212.2 331.5 209.05 333.2 205.9 334.9 205.9 337.25 205.9 339.6 209.05 341.3 212.2 343 216.65 343 221.1 343 224.3 341.3 227.45 339.6 227.45 337.25 Z"/>
</g>

<g id="Layer0_0_MEMBER_3_MEMBER_6_MEMBER_2_FILL">
<path fill="#FED683" stroke="none" d="
M 226.3 337.25
Q 226.3 335.25 223.5 333.85 220.65 332.4 216.65 332.4 212.65 332.4 209.8 333.85 207 335.25 207 337.25 207 339.25 209.8 340.65 212.65 342.1 216.65 342.1 220.65 342.1 223.5 340.65 226.3 339.25 226.3 337.25 Z"/>
</g>

<g id="Layer0_0_MEMBER_3_MEMBER_6_MEMBER_3_FILL">
<path fill="#FEC554" stroke="none" d="
M 212 337.45
Q 213.9 337.45 216.15 336.85 215.65 336.15 214.8 335.5 213.1 334.2 211.45 334.3 207.2 334.65 209.3 336.85 209.9 337.5 212 337.45 Z"/>
</g>

<g id="Layer0_0_MEMBER_3_MEMBER_6_MEMBER_4_FILL">
<path fill="#FEC554" stroke="none" d="
M 216.95 336.8
Q 222.7 338.3 224.1 336.85 224.9 336 224.5 335.35 224.05 334.6 222.1 334.6 220.4 334.65 218.5 335.7 217.55 336.25 216.95 336.8 Z"/>
</g>

<g id="Layer0_0_MEMBER_3_MEMBER_6_MEMBER_5_FILL">
<path fill="#FEC554" stroke="none" d="
M 215.95 339
L 216.15 337.25
Q 212.2 338.2 211.05 338.6 210.05 338.95 210.85 339.8 211.6 340.7 213.35 340.7 215.4 340.75 215.95 339 Z"/>
</g>

<g id="Layer0_0_MEMBER_3_MEMBER_6_MEMBER_6_FILL">
<path fill="#FEC554" stroke="none" d="
M 216.9 337.25
L 216.75 339
Q 216.95 340.75 218.95 340.7 220.8 340.7 221.95 339.9 223.1 339.1 222 338.6 221.3 338.3 219 337.75
L 216.9 337.25 Z"/>
</g>

<g id="Layer0_0_MEMBER_3_MEMBER_6_MEMBER_7_FILL">
<path fill="#FEC554" stroke="none" d="
M 216.65 336.3
Q 218.05 335.55 218.9 334.6 220.45 332.9 216.95 332.95 215.65 332.95 215 333.4 214.35 333.8 214.65 334.3 215 334.85 216.65 336.3 Z"/>
</g>
</defs>

<g transform="matrix( 8, 0, 0, 8, -1267.3,-2045.95) ">
<use xlink:href="#Layer0_0_MEMBER_0_MEMBER_0_FILL"/>
</g>

<g transform="matrix( 8, 0, 0, 8, -1267.3,-2045.95) ">
<use xlink:href="#Layer0_0_MEMBER_0_MEMBER_1_MEMBER_0_FILL"/>
</g>

<g transform="matrix( 8, 0, 0, 8, -1267.3,-2045.95) ">
<use xlink:href="#Layer0_0_MEMBER_0_MEMBER_2_MEMBER_0_FILL"/>
</g>

<g transform="matrix( 8, 0, 0, 8, -1267.3,-2045.95) ">
<use xlink:href="#Layer0_0_MEMBER_0_MEMBER_2_MEMBER_1_FILL"/>
</g>

<g transform="matrix( 8, 0, 0, 8, -1267.3,-2045.95) ">
<use xlink:href="#Layer0_0_MEMBER_1_MEMBER_0_FILL"/>
</g>

<g transform="matrix( 8, 0, 0, 8, -1267.3,-2045.95) ">
<use xlink:href="#Layer0_0_MEMBER_1_MEMBER_1_MEMBER_0_FILL"/>
</g>

<g transform="matrix( 8, 0, 0, 8, -1267.3,-2045.95) ">
<use xlink:href="#Layer0_0_MEMBER_1_MEMBER_1_MEMBER_1_FILL"/>
</g>

<g transform="matrix( 8, 0, 0, 8, -1267.3,-2045.95) ">
<use xlink:href="#Layer0_0_MEMBER_1_MEMBER_1_MEMBER_2_FILL"/>
</g>

<g transform="matrix( 8, 0, 0, 8, -1267.3,-2045.95) ">
<use xlink:href="#Layer0_0_MEMBER_1_MEMBER_2_MEMBER_0_FILL"/>
</g>

<g transform="matrix( 8, 0, 0, 8, -1267.3,-2045.95) ">
<use xlink:href="#Layer0_0_MEMBER_1_MEMBER_2_MEMBER_1_FILL"/>
</g>

<g transform="matrix( 8, 0, 0, 8, -1267.3,-2045.95) ">
<use xlink:href="#Layer0_0_MEMBER_1_MEMBER_2_MEMBER_2_MEMBER_0_FILL"/>
</g>

<g transform="matrix( 8, 0, 0, 8, -1267.3,-2045.95) ">
<use xlink:href="#Layer0_0_MEMBER_1_MEMBER_2_MEMBER_2_MEMBER_1_FILL"/>
</g>

<g transform="matrix( 8, 0, 0, 8, -1267.3,-2045.95) ">
<use xlink:href="#Layer0_0_MEMBER_1_MEMBER_2_MEMBER_2_MEMBER_2_FILL"/>
</g>

<g transform="matrix( 8, 0, 0, 8, -1267.3,-2045.95) ">
<use xlink:href="#Layer0_0_MEMBER_1_MEMBER_2_MEMBER_2_MEMBER_3_FILL"/>
</g>

<g transform="matrix( 8, 0, 0, 8, -1267.3,-2045.95) ">
<use xlink:href="#Layer0_0_MEMBER_1_MEMBER_2_MEMBER_2_MEMBER_4_FILL"/>
</g>

<g transform="matrix( 8, 0, 0, 8, -1267.3,-2045.95) ">
<use xlink:href="#Layer0_0_MEMBER_1_MEMBER_2_MEMBER_2_MEMBER_5_FILL"/>
</g>

<g transform="matrix( 8, 0, 0, 8, -1267.3,-2045.95) ">
<use xlink:href="#Layer0_0_MEMBER_1_MEMBER_2_MEMBER_2_MEMBER_6_FILL"/>
</g>

<g transform="matrix( 8, 0, 0, 8, -1267.3,-2045.95) ">
<use xlink:href="#Layer0_0_MEMBER_1_MEMBER_2_MEMBER_2_MEMBER_7_FILL"/>
</g>

<g transform="matrix( 8, 0, 0, 8, -1267.3,-2045.95) ">
<use xlink:href="#Layer0_0_MEMBER_1_MEMBER_3_MEMBER_0_FILL"/>
</g>

<g transform="matrix( 8, 0, 0, 8, -1267.3,-2045.95) ">
<use xlink:href="#Layer0_0_MEMBER_1_MEMBER_3_MEMBER_1_FILL"/>
</g>

<g transform="matrix( 8, 0, 0, 8, -1267.3,-2045.95) ">
<use xlink:href="#Layer0_0_MEMBER_1_MEMBER_3_MEMBER_2_FILL"/>
</g>

<g transform="matrix( 8, 0, 0, 8, -1267.3,-2045.95) ">
<use xlink:href="#Layer0_0_MEMBER_1_MEMBER_3_MEMBER_3_FILL"/>
</g>

<g transform="matrix( 8, 0, 0, 8, -1267.3,-2045.95) ">
<use xlink:href="#Layer0_0_MEMBER_1_MEMBER_3_MEMBER_4_FILL"/>
</g>

<g transform="matrix( 8, 0, 0, 8, -1267.3,-2045.95) ">
<use xlink:href="#Layer0_0_MEMBER_1_MEMBER_3_MEMBER_5_FILL"/>
</g>

<g transform="matrix( 8, 0, 0, 8, -1267.3,-2045.95) ">
<use xlink:href="#Layer0_0_MEMBER_1_MEMBER_3_MEMBER_6_FILL"/>
</g>

<g transform="matrix( 8, 0, 0, 8, -1267.3,-2045.95) ">
<use xlink:href="#Layer0_0_MEMBER_1_MEMBER_3_MEMBER_7_FILL"/>
</g>

<g transform="matrix( 8, 0, 0, 8, -1267.3,-2045.95) ">
<use xlink:href="#Layer0_0_MEMBER_1_MEMBER_3_MEMBER_8_FILL"/>
</g>

<g transform="matrix( 8, 0, 0, 8, -1267.3,-2045.95) ">
<use xlink:href="#Layer0_0_MEMBER_1_MEMBER_3_MEMBER_9_FILL"/>
</g>

<g transform="matrix( 8, 0, 0, 8, -1267.3,-2045.95) ">
<use xlink:href="#Layer0_0_MEMBER_1_MEMBER_3_MEMBER_10_FILL"/>
</g>

<g transform="matrix( 8, 0, 0, 8, -1267.3,-2045.95) ">
<use xlink:href="#Layer0_0_MEMBER_1_MEMBER_3_MEMBER_11_FILL"/>
</g>

<g transform="matrix( 8, 0, 0, 8, -1267.3,-2045.95) ">
<use xlink:href="#Layer0_0_MEMBER_1_MEMBER_3_MEMBER_12_FILL"/>
</g>

<g transform="matrix( 8, 0, 0, 8, -1267.3,-2045.95) ">
<use xlink:href="#Layer0_0_MEMBER_1_MEMBER_3_MEMBER_13_FILL"/>
</g>

<g transform="matrix( 8, 0, 0, 8, -1267.3,-2045.95) ">
<use xlink:href="#Layer0_0_MEMBER_1_MEMBER_3_MEMBER_14_FILL"/>
</g>

<g transform="matrix( 8, 0, 0, 8, -1267.3,-2045.95) ">
<use xlink:href="#Layer0_0_MEMBER_1_MEMBER_3_MEMBER_15_FILL"/>
</g>

<g transform="matrix( 8, 0, 0, 8, -1267.3,-2045.95) ">
<use xlink:href="#Layer0_0_MEMBER_1_MEMBER_4_MEMBER_0_FILL"/>
</g>

<g transform="matrix( 8, 0, 0, 8, -1267.3,-2045.95) ">
<use xlink:href="#Layer0_0_MEMBER_1_MEMBER_4_MEMBER_1_MEMBER_0_FILL"/>
</g>

<g transform="matrix( 8, 0, 0, 8, -1267.3,-2045.95) ">
<use xlink:href="#Layer0_0_MEMBER_1_MEMBER_4_MEMBER_1_MEMBER_1_FILL"/>
</g>

<g transform="matrix( 8, 0, 0, 8, -1267.3,-2045.95) ">
<use xlink:href="#Layer0_0_MEMBER_1_MEMBER_4_MEMBER_2_FILL"/>
</g>

<g transform="matrix( 8, 0, 0, 8, -1267.3,-2045.95) ">
<use xlink:href="#Layer0_0_MEMBER_1_MEMBER_4_MEMBER_3_FILL"/>
</g>

<g transform="matrix( 8, 0, 0, 8, -1267.3,-2045.95) ">
<use xlink:href="#Layer0_0_MEMBER_1_MEMBER_4_MEMBER_4_FILL"/>
</g>

<g transform="matrix( 8, 0, 0, 8, -1267.3,-2045.95) ">
<use xlink:href="#Layer0_0_MEMBER_1_MEMBER_4_MEMBER_5_FILL"/>
</g>

<g transform="matrix( 8, 0, 0, 8, -1267.3,-2045.95) ">
<use xlink:href="#Layer0_0_MEMBER_1_MEMBER_4_MEMBER_6_FILL"/>
</g>

<g transform="matrix( 8, 0, 0, 8, -1267.3,-2045.95) ">
<use xlink:href="#Layer0_0_MEMBER_1_MEMBER_4_MEMBER_7_FILL"/>
</g>

<g transform="matrix( 8, 0, 0, 8, -1267.3,-2045.95) ">
<use xlink:href="#Layer0_0_MEMBER_1_MEMBER_5_FILL"/>
</g>

<g transform="matrix( 8, 0, 0, 8, -1267.3,-2045.95) ">
<use xlink:href="#Layer0_0_MEMBER_1_MEMBER_6_MEMBER_0_FILL"/>
</g>

<g transform="matrix( 8, 0, 0, 8, -1267.3,-2045.95) ">
<use xlink:href="#Layer0_0_MEMBER_1_MEMBER_6_MEMBER_1_FILL"/>
</g>

<g transform="matrix( 8, 0, 0, 8, -1267.3,-2045.95) ">
<use xlink:href="#Layer0_0_MEMBER_1_MEMBER_6_MEMBER_2_FILL"/>
</g>

<g transform="matrix( 8, 0, 0, 8, -1267.3,-2045.95) ">
<use xlink:href="#Layer0_0_MEMBER_1_MEMBER_6_MEMBER_3_FILL"/>
</g>

<g transform="matrix( 8, 0, 0, 8, -1267.3,-2045.95) ">
<use xlink:href="#Layer0_0_MEMBER_1_MEMBER_6_MEMBER_4_FILL"/>
</g>

<g transform="matrix( 8, 0, 0, 8, -1267.3,-2045.95) ">
<use xlink:href="#Layer0_0_MEMBER_1_MEMBER_6_MEMBER_5_FILL"/>
</g>

<g transform="matrix( 8, 0, 0, 8, -1267.3,-2045.95) ">
<use xlink:href="#Layer0_0_MEMBER_1_MEMBER_6_MEMBER_6_FILL"/>
</g>

<g transform="matrix( 8, 0, 0, 8, -1267.3,-2045.95) ">
<use xlink:href="#Layer0_0_MEMBER_1_MEMBER_6_MEMBER_7_FILL"/>
</g>

<g transform="matrix( 8, 0, 0, 8, -1267.3,-2045.95) ">
<use xlink:href="#Layer0_0_MEMBER_2_MEMBER_0_MEMBER_0_FILL"/>
</g>

<g transform="matrix( 8, 0, 0, 8, -1267.3,-2045.95) ">
<use xlink:href="#Layer0_0_MEMBER_2_MEMBER_0_MEMBER_1_FILL"/>
</g>

<g transform="matrix( 8, 0, 0, 8, -1267.3,-2045.95) ">
<use xlink:href="#Layer0_0_MEMBER_2_MEMBER_0_MEMBER_2_FILL"/>
</g>

<g transform="matrix( 8, 0, 0, 8, -1267.3,-2045.95) ">
<use xlink:href="#Layer0_0_MEMBER_2_MEMBER_1_MEMBER_0_FILL"/>
</g>

<g transform="matrix( 8, 0, 0, 8, -1267.3,-2045.95) ">
<use xlink:href="#Layer0_0_MEMBER_2_MEMBER_1_MEMBER_1_FILL"/>
</g>

<g transform="matrix( 8, 0, 0, 8, -1267.3,-2045.95) ">
<use xlink:href="#Layer0_0_MEMBER_2_MEMBER_1_MEMBER_2_MEMBER_0_FILL"/>
</g>

<g transform="matrix( 8, 0, 0, 8, -1267.3,-2045.95) ">
<use xlink:href="#Layer0_0_MEMBER_2_MEMBER_1_MEMBER_2_MEMBER_1_FILL"/>
</g>

<g transform="matrix( 8, 0, 0, 8, -1267.3,-2045.95) ">
<use xlink:href="#Layer0_0_MEMBER_2_MEMBER_1_MEMBER_2_MEMBER_2_FILL"/>
</g>

<g transform="matrix( 8, 0, 0, 8, -1267.3,-2045.95) ">
<use xlink:href="#Layer0_0_MEMBER_2_MEMBER_1_MEMBER_2_MEMBER_3_FILL"/>
</g>

<g transform="matrix( 8, 0, 0, 8, -1267.3,-2045.95) ">
<use xlink:href="#Layer0_0_MEMBER_2_MEMBER_1_MEMBER_2_MEMBER_4_FILL"/>
</g>

<g transform="matrix( 8, 0, 0, 8, -1267.3,-2045.95) ">
<use xlink:href="#Layer0_0_MEMBER_2_MEMBER_1_MEMBER_2_MEMBER_5_FILL"/>
</g>

<g transform="matrix( 8, 0, 0, 8, -1267.3,-2045.95) ">
<use xlink:href="#Layer0_0_MEMBER_2_MEMBER_1_MEMBER_2_MEMBER_6_FILL"/>
</g>

<g transform="matrix( 8, 0, 0, 8, -1267.3,-2045.95) ">
<use xlink:href="#Layer0_0_MEMBER_2_MEMBER_1_MEMBER_2_MEMBER_7_FILL"/>
</g>

<g transform="matrix( 8, 0, 0, 8, -1267.3,-2045.95) ">
<use xlink:href="#Layer0_0_MEMBER_2_MEMBER_1_MEMBER_2_MEMBER_8_FILL"/>
</g>

<g transform="matrix( 8, 0, 0, 8, -1267.3,-2045.95) ">
<use xlink:href="#Layer0_0_MEMBER_2_MEMBER_1_MEMBER_2_MEMBER_9_FILL"/>
</g>

<g transform="matrix( 8, 0, 0, 8, -1267.3,-2045.95) ">
<use xlink:href="#Layer0_0_MEMBER_2_MEMBER_1_MEMBER_2_MEMBER_10_FILL"/>
</g>

<g transform="matrix( 8, 0, 0, 8, -1267.3,-2045.95) ">
<use xlink:href="#Layer0_0_MEMBER_2_MEMBER_1_MEMBER_2_MEMBER_11_FILL"/>
</g>

<g transform="matrix( 8, 0, 0, 8, -1267.3,-2045.95) ">
<use xlink:href="#Layer0_0_MEMBER_2_MEMBER_1_MEMBER_2_MEMBER_12_FILL"/>
</g>

<g transform="matrix( 8, 0, 0, 8, -1267.3,-2045.95) ">
<use xlink:href="#Layer0_0_MEMBER_2_MEMBER_1_MEMBER_2_MEMBER_13_FILL"/>
</g>

<g transform="matrix( 8, 0, 0, 8, -1267.3,-2045.95) ">
<use xlink:href="#Layer0_0_MEMBER_2_MEMBER_1_MEMBER_2_MEMBER_14_FILL"/>
</g>

<g transform="matrix( 8, 0, 0, 8, -1267.3,-2045.95) ">
<use xlink:href="#Layer0_0_MEMBER_2_MEMBER_1_MEMBER_2_MEMBER_15_FILL"/>
</g>

<g transform="matrix( 8, 0, 0, 8, -1267.3,-2045.95) ">
<use xlink:href="#Layer0_0_MEMBER_2_MEMBER_1_MEMBER_2_MEMBER_16_FILL"/>
</g>

<g transform="matrix( 8, 0, 0, 8, -1267.3,-2045.95) ">
<use xlink:href="#Layer0_0_MEMBER_2_MEMBER_1_MEMBER_2_MEMBER_17_FILL"/>
</g>

<g transform="matrix( 8, 0, 0, 8, -1267.3,-2045.95) ">
<use xlink:href="#Layer0_0_MEMBER_2_MEMBER_1_MEMBER_2_MEMBER_18_FILL"/>
</g>

<g transform="matrix( 8, 0, 0, 8, -1267.3,-2045.95) ">
<use xlink:href="#Layer0_0_MEMBER_2_MEMBER_1_MEMBER_2_MEMBER_19_FILL"/>
</g>

<g transform="matrix( 8, 0, 0, 8, -1267.3,-2045.95) ">
<use xlink:href="#Layer0_0_MEMBER_2_MEMBER_1_MEMBER_2_MEMBER_20_FILL"/>
</g>

<g transform="matrix( 8, 0, 0, 8, -1267.3,-2045.95) ">
<use xlink:href="#Layer0_0_MEMBER_2_MEMBER_1_MEMBER_2_MEMBER_21_FILL"/>
</g>

<g transform="matrix( 8, 0, 0, 8, -1267.3,-2045.95) ">
<use xlink:href="#Layer0_0_MEMBER_2_MEMBER_1_MEMBER_2_MEMBER_22_FILL"/>
</g>

<g transform="matrix( 8, 0, 0, 8, -1267.3,-2045.95) ">
<use xlink:href="#Layer0_0_MEMBER_2_MEMBER_1_MEMBER_2_MEMBER_23_FILL"/>
</g>

<g transform="matrix( 8, 0, 0, 8, -1267.3,-2045.95) ">
<use xlink:href="#Layer0_0_MEMBER_2_MEMBER_1_MEMBER_2_MEMBER_24_FILL"/>
</g>

<g transform="matrix( 8, 0, 0, 8, -1267.3,-2045.95) ">
<use xlink:href="#Layer0_0_MEMBER_2_MEMBER_1_MEMBER_2_MEMBER_25_FILL"/>
</g>

<g transform="matrix( 8, 0, 0, 8, -1267.3,-2045.95) ">
<use xlink:href="#Layer0_0_MEMBER_2_MEMBER_1_MEMBER_2_MEMBER_26_FILL"/>
</g>

<g transform="matrix( 8, 0, 0, 8, -1267.3,-2045.95) ">
<use xlink:href="#Layer0_0_MEMBER_2_MEMBER_1_MEMBER_2_MEMBER_27_FILL"/>
</g>

<g transform="matrix( 8, 0, 0, 8, -1267.3,-2045.95) ">
<use xlink:href="#Layer0_0_MEMBER_2_MEMBER_1_MEMBER_2_MEMBER_28_FILL"/>
</g>

<g transform="matrix( 8, 0, 0, 8, -1267.3,-2045.95) ">
<use xlink:href="#Layer0_0_MEMBER_2_MEMBER_1_MEMBER_2_MEMBER_29_FILL"/>
</g>

<g transform="matrix( 8, 0, 0, 8, -1267.3,-2045.95) ">
<use xlink:href="#Layer0_0_MEMBER_2_MEMBER_1_MEMBER_2_MEMBER_30_FILL"/>
</g>

<g transform="matrix( 8, 0, 0, 8, -1267.3,-2045.95) ">
<use xlink:href="#Layer0_0_MEMBER_2_MEMBER_1_MEMBER_2_MEMBER_31_FILL"/>
</g>

<g transform="matrix( 8, 0, 0, 8, -1267.3,-2045.95) ">
<use xlink:href="#Layer0_0_MEMBER_2_MEMBER_1_MEMBER_2_MEMBER_32_FILL"/>
</g>

<g transform="matrix( 8, 0, 0, 8, -1267.3,-2045.95) ">
<use xlink:href="#Layer0_0_MEMBER_2_MEMBER_1_MEMBER_2_MEMBER_33_FILL"/>
</g>

<g transform="matrix( 8, 0, 0, 8, -1267.3,-2045.95) ">
<use xlink:href="#Layer0_0_MEMBER_2_MEMBER_1_MEMBER_2_MEMBER_34_FILL"/>
</g>

<g transform="matrix( 8, 0, 0, 8, -1267.3,-2045.95) ">
<use xlink:href="#Layer0_0_MEMBER_3_MEMBER_0_FILL"/>
</g>

<g transform="matrix( 8, 0, 0, 8, -1267.3,-2045.95) ">
<use xlink:href="#Layer0_0_MEMBER_3_MEMBER_1_MEMBER_0_FILL"/>
</g>

<g transform="matrix( 8, 0, 0, 8, -1267.3,-2045.95) ">
<use xlink:href="#Layer0_0_MEMBER_3_MEMBER_1_MEMBER_1_FILL"/>
</g>

<g transform="matrix( 8, 0, 0, 8, -1267.3,-2045.95) ">
<use xlink:href="#Layer0_0_MEMBER_3_MEMBER_1_MEMBER_2_FILL"/>
</g>

<g transform="matrix( 8, 0, 0, 8, -1267.3,-2045.95) ">
<use xlink:href="#Layer0_0_MEMBER_3_MEMBER_2_MEMBER_0_FILL"/>
</g>

<g transform="matrix( 8, 0, 0, 8, -1267.3,-2045.95) ">
<use xlink:href="#Layer0_0_MEMBER_3_MEMBER_2_MEMBER_1_FILL"/>
</g>

<g transform="matrix( 8, 0, 0, 8, -1267.3,-2045.95) ">
<use xlink:href="#Layer0_0_MEMBER_3_MEMBER_2_MEMBER_2_MEMBER_0_FILL"/>
</g>

<g transform="matrix( 8, 0, 0, 8, -1267.3,-2045.95) ">
<use xlink:href="#Layer0_0_MEMBER_3_MEMBER_2_MEMBER_2_MEMBER_1_FILL"/>
</g>

<g transform="matrix( 8, 0, 0, 8, -1267.3,-2045.95) ">
<use xlink:href="#Layer0_0_MEMBER_3_MEMBER_2_MEMBER_2_MEMBER_2_FILL"/>
</g>

<g transform="matrix( 8, 0, 0, 8, -1267.3,-2045.95) ">
<use xlink:href="#Layer0_0_MEMBER_3_MEMBER_2_MEMBER_2_MEMBER_3_FILL"/>
</g>

<g transform="matrix( 8, 0, 0, 8, -1267.3,-2045.95) ">
<use xlink:href="#Layer0_0_MEMBER_3_MEMBER_2_MEMBER_2_MEMBER_4_FILL"/>
</g>

<g transform="matrix( 8, 0, 0, 8, -1267.3,-2045.95) ">
<use xlink:href="#Layer0_0_MEMBER_3_MEMBER_2_MEMBER_2_MEMBER_5_FILL"/>
</g>

<g transform="matrix( 8, 0, 0, 8, -1267.3,-2045.95) ">
<use xlink:href="#Layer0_0_MEMBER_3_MEMBER_2_MEMBER_2_MEMBER_6_FILL"/>
</g>

<g transform="matrix( 8, 0, 0, 8, -1267.3,-2045.95) ">
<use xlink:href="#Layer0_0_MEMBER_3_MEMBER_2_MEMBER_2_MEMBER_7_FILL"/>
</g>

<g transform="matrix( 8, 0, 0, 8, -1267.3,-2045.95) ">
<use xlink:href="#Layer0_0_MEMBER_3_MEMBER_3_MEMBER_0_FILL"/>
</g>

<g transform="matrix( 8, 0, 0, 8, -1267.3,-2045.95) ">
<use xlink:href="#Layer0_0_MEMBER_3_MEMBER_3_MEMBER_1_FILL"/>
</g>

<g transform="matrix( 8, 0, 0, 8, -1267.3,-2045.95) ">
<use xlink:href="#Layer0_0_MEMBER_3_MEMBER_3_MEMBER_2_FILL"/>
</g>

<g transform="matrix( 8, 0, 0, 8, -1267.3,-2045.95) ">
<use xlink:href="#Layer0_0_MEMBER_3_MEMBER_3_MEMBER_3_FILL"/>
</g>

<g transform="matrix( 8, 0, 0, 8, -1267.3,-2045.95) ">
<use xlink:href="#Layer0_0_MEMBER_3_MEMBER_3_MEMBER_4_FILL"/>
</g>

<g transform="matrix( 8, 0, 0, 8, -1267.3,-2045.95) ">
<use xlink:href="#Layer0_0_MEMBER_3_MEMBER_3_MEMBER_5_FILL"/>
</g>

<g transform="matrix( 8, 0, 0, 8, -1267.3,-2045.95) ">
<use xlink:href="#Layer0_0_MEMBER_3_MEMBER_3_MEMBER_6_FILL"/>
</g>

<g transform="matrix( 8, 0, 0, 8, -1267.3,-2045.95) ">
<use xlink:href="#Layer0_0_MEMBER_3_MEMBER_3_MEMBER_7_FILL"/>
</g>

<g transform="matrix( 8, 0, 0, 8, -1267.3,-2045.95) ">
<use xlink:href="#Layer0_0_MEMBER_3_MEMBER_3_MEMBER_8_FILL"/>
</g>

<g transform="matrix( 8, 0, 0, 8, -1267.3,-2045.95) ">
<use xlink:href="#Layer0_0_MEMBER_3_MEMBER_3_MEMBER_9_FILL"/>
</g>

<g transform="matrix( 8, 0, 0, 8, -1267.3,-2045.95) ">
<use xlink:href="#Layer0_0_MEMBER_3_MEMBER_3_MEMBER_10_FILL"/>
</g>

<g transform="matrix( 8, 0, 0, 8, -1267.3,-2045.95) ">
<use xlink:href="#Layer0_0_MEMBER_3_MEMBER_3_MEMBER_11_FILL"/>
</g>

<g transform="matrix( 8, 0, 0, 8, -1267.3,-2045.95) ">
<use xlink:href="#Layer0_0_MEMBER_3_MEMBER_3_MEMBER_12_FILL"/>
</g>

<g transform="matrix( 8, 0, 0, 8, -1267.3,-2045.95) ">
<use xlink:href="#Layer0_0_MEMBER_3_MEMBER_3_MEMBER_13_FILL"/>
</g>

<g transform="matrix( 8, 0, 0, 8, -1267.3,-2045.95) ">
<use xlink:href="#Layer0_0_MEMBER_3_MEMBER_3_MEMBER_14_FILL"/>
</g>

<g transform="matrix( 8, 0, 0, 8, -1267.3,-2045.95) ">
<use xlink:href="#Layer0_0_MEMBER_3_MEMBER_3_MEMBER_15_FILL"/>
</g>

<g transform="matrix( 8, 0, 0, 8, -1267.3,-2045.95) ">
<use xlink:href="#Layer0_0_MEMBER_3_MEMBER_4_MEMBER_0_FILL"/>
</g>

<g transform="matrix( 8, 0, 0, 8, -1267.3,-2045.95) ">
<use xlink:href="#Layer0_0_MEMBER_3_MEMBER_4_MEMBER_1_MEMBER_0_FILL"/>
</g>

<g transform="matrix( 8, 0, 0, 8, -1267.3,-2045.95) ">
<use xlink:href="#Layer0_0_MEMBER_3_MEMBER_4_MEMBER_1_MEMBER_1_FILL"/>
</g>

<g transform="matrix( 8, 0, 0, 8, -1267.3,-2045.95) ">
<use xlink:href="#Layer0_0_MEMBER_3_MEMBER_4_MEMBER_2_FILL"/>
</g>

<g transform="matrix( 8, 0, 0, 8, -1267.3,-2045.95) ">
<use xlink:href="#Layer0_0_MEMBER_3_MEMBER_4_MEMBER_3_FILL"/>
</g>

<g transform="matrix( 8, 0, 0, 8, -1267.3,-2045.95) ">
<use xlink:href="#Layer0_0_MEMBER_3_MEMBER_4_MEMBER_4_FILL"/>
</g>

<g transform="matrix( 8, 0, 0, 8, -1267.3,-2045.95) ">
<use xlink:href="#Layer0_0_MEMBER_3_MEMBER_4_MEMBER_5_FILL"/>
</g>

<g transform="matrix( 8, 0, 0, 8, -1267.3,-2045.95) ">
<use xlink:href="#Layer0_0_MEMBER_3_MEMBER_4_MEMBER_6_FILL"/>
</g>

<g transform="matrix( 8, 0, 0, 8, -1267.3,-2045.95) ">
<use xlink:href="#Layer0_0_MEMBER_3_MEMBER_4_MEMBER_7_FILL"/>
</g>

<g transform="matrix( 8, 0, 0, 8, -1267.3,-2045.95) ">
<use xlink:href="#Layer0_0_MEMBER_3_MEMBER_5_FILL"/>
</g>

<g transform="matrix( 8, 0, 0, 8, -1267.3,-2045.95) ">
<use xlink:href="#Layer0_0_MEMBER_3_MEMBER_6_MEMBER_0_FILL"/>
</g>

<g transform="matrix( 8, 0, 0, 8, -1267.3,-2045.95) ">
<use xlink:href="#Layer0_0_MEMBER_3_MEMBER_6_MEMBER_1_FILL"/>
</g>

<g transform="matrix( 8, 0, 0, 8, -1267.3,-2045.95) ">
<use xlink:href="#Layer0_0_MEMBER_3_MEMBER_6_MEMBER_2_FILL"/>
</g>

<g transform="matrix( 8, 0, 0, 8, -1267.3,-2045.95) ">
<use xlink:href="#Layer0_0_MEMBER_3_MEMBER_6_MEMBER_3_FILL"/>
</g>

<g transform="matrix( 8, 0, 0, 8, -1267.3,-2045.95) ">
<use xlink:href="#Layer0_0_MEMBER_3_MEMBER_6_MEMBER_4_FILL"/>
</g>

<g transform="matrix( 8, 0, 0, 8, -1267.3,-2045.95) ">
<use xlink:href="#Layer0_0_MEMBER_3_MEMBER_6_MEMBER_5_FILL"/>
</g>

<g transform="matrix( 8, 0, 0, 8, -1267.3,-2045.95) ">
<use xlink:href="#Layer0_0_MEMBER_3_MEMBER_6_MEMBER_6_FILL"/>
</g>

<g transform="matrix( 8, 0, 0, 8, -1267.3,-2045.95) ">
<use xlink:href="#Layer0_0_MEMBER_3_MEMBER_6_MEMBER_7_FILL"/>
</g>
</svg>
