
<svg xmlns="http://www.w3.org/2000/svg" version="1.1" xmlns:xlink="http://www.w3.org/1999/xlink" preserveAspectRatio="none" x="0px" y="0px" width="1024px" height="1024px" viewBox="0 0 1024 1024">
<defs>
<g id="Layer0_0_MEMBER_0_MEMBER_0_FILL">
<path fill="#F2B03D" stroke="none" d="
M 356.65 207.3
Q 343.85 200.45 325.65 200.45 307.5 200.45 294.65 207.3 281.8 214.15 281.8 223.8 281.8 233.45 294.65 240.25 307.5 247.1 325.65 247.1 343.85 247.1 356.65 240.25 369.5 233.45 369.5 223.8 369.5 214.1 356.65 207.3 Z"/>
</g>

<g id="Layer0_0_MEMBER_0_MEMBER_1_FILL">
<path fill="#F2B03D" stroke="none" d="
M 285.15 224.35
L 285.15 221.05 281.8 221.05 281.8 224.35 285.15 224.35 Z"/>
</g>

<g id="Layer0_0_MEMBER_0_MEMBER_2_FILL">
<path fill="#F2B03D" stroke="none" d="
M 369.5 224.1
L 369.5 220.8 366.2 220.8 366.2 224.1 369.5 224.1 Z"/>
</g>

<g id="Layer0_0_MEMBER_0_MEMBER_3_FILL">
<path fill="#FED683" stroke="none" d="
M 356.65 204.85
Q 343.85 198 325.65 198 307.5 198 294.65 204.85 281.8 211.7 281.8 221.35 281.8 231 294.65 237.8 307.5 244.65 325.65 244.65 343.85 244.65 356.65 237.8 369.5 231 369.5 221.35 369.5 211.65 356.65 204.85 Z"/>
</g>

<g id="Layer0_0_MEMBER_1_MEMBER_0_MEMBER_0_FILL">
<path fill="#A14945" stroke="none" d="
M 363.05 220.65
Q 363.05 212.4 352.1 206.6 341.15 200.75 325.65 200.75 310.15 200.75 299.2 206.6 288.25 212.4 288.25 220.65 288.25 228.9 299.2 234.75 310.15 240.55 325.65 240.55 341.15 240.55 352.1 234.75 363.05 228.9 363.05 220.65 Z"/>
</g>

<g id="Layer0_0_MEMBER_1_MEMBER_0_MEMBER_1_FILL">
<path fill="#A14945" stroke="none" d="
M 363.05 220.65
L 363.05 201.2 288.25 201.2 288.25 220.65 363.05 220.65 Z"/>
</g>

<g id="Layer0_0_MEMBER_1_MEMBER_0_MEMBER_2_FILL">
<path fill="#BF6061" stroke="none" d="
M 352.1 187.15
Q 341.15 181.3 325.65 181.3 310.15 181.3 299.2 187.15 288.25 192.95 288.25 201.2 288.25 209.45 299.2 215.3 310.15 221.1 325.65 221.1 341.15 221.1 352.1 215.3 363.05 209.45 363.05 201.2 363.05 192.95 352.1 187.15 Z"/>
</g>

<g id="Layer0_0_MEMBER_1_MEMBER_0_MEMBER_3_FILL">
<path fill="#FED683" stroke="none" d="
M 349.15 188.25
Q 339.4 183.1 325.65 183.1 311.9 183.1 302.15 188.25 292.45 193.45 292.45 200.75 292.45 208.05 302.15 213.25 311.9 218.4 325.65 218.4 339.4 218.4 349.15 213.25 358.85 208.05 358.85 200.75 358.85 193.45 349.15 188.25 Z"/>
</g>

<g id="Layer0_0_MEMBER_1_MEMBER_1_MEMBER_0_FILL">
<path fill="#833431" stroke="none" d="
M 363.55 208
L 364.05 207
Q 363.55 207.2 362.9 207.65 361.7 208.5 361.25 209.75 360.8 211.05 361.65 211.75 362.35 212.3 363.05 212.05 363.75 211.8 364.05 210.95 363.05 210.95 363.05 209.55 363.05 209.1 363.55 208 Z"/>
</g>

<g id="Layer0_0_MEMBER_1_MEMBER_1_MEMBER_1_FILL">
<path fill="#833431" stroke="none" d="
M 345.7 223.3
Q 346.25 223.8 347 225.7 347.8 223.65 346.75 221.85 346.05 220.6 345 220.8 344.1 220.95 343.85 221.65 343.65 222.1 343.85 222.65 343.95 222.9 344.05 223.1
L 344.5 222.85
Q 345.05 222.75 345.7 223.3 Z"/>
</g>

<g id="Layer0_0_MEMBER_1_MEMBER_1_MEMBER_2_FILL">
<path fill="#833431" stroke="none" d="
M 327.4 225.75
Q 326.95 226.1 326.55 226.7 325.65 227.95 325.65 229.25 325.65 230.65 326.65 231.05 327.55 231.35 328.1 230.85 328.7 230.4 328.65 229.5 328.45 229.6 328.15 229.5 327.6 229.3 327.3 228.5 327.15 228.05 327.25 226.85
L 327.4 225.75 Z"/>
</g>

<g id="Layer0_0_MEMBER_1_MEMBER_1_MEMBER_3_FILL">
<path fill="#833431" stroke="none" d="
M 356.8 220.6
L 356.45 219.55 356.05 220.8
Q 355.8 222.25 356.35 223.45 356.9 224.75 358 224.65 358.9 224.55 359.25 223.9 359.55 223.25 359.15 222.45 358.45 223.1 357.5 222.1 357.2 221.75 356.8 220.6 Z"/>
</g>

<g id="Layer0_0_MEMBER_1_MEMBER_1_MEMBER_4_FILL">
<path fill="#833431" stroke="none" d="
M 358.95 214.35
L 357.55 214.15 358.15 215
Q 358.8 216 358.9 216.85 359.05 218.25 358.85 219.55
L 361.1 219.35
Q 361.1 216.65 360.75 215.65 360.4 214.7 358.95 214.35 Z"/>
</g>

<g id="Layer0_0_MEMBER_1_MEMBER_1_MEMBER_5_FILL">
<path fill="#833431" stroke="none" d="
M 364.25 214.95
L 363.7 212.85
Q 361.75 213.45 360.9 214.4 360.2 215.2 360.05 216.75 359.95 217.55 360 218.2
L 360.45 217.45
Q 361.05 216.55 361.75 216 362.95 214.95 364.25 214.95 Z"/>
</g>

<g id="Layer0_0_MEMBER_1_MEMBER_1_MEMBER_6_FILL">
<path fill="#833431" stroke="none" d="
M 353.55 214.8
L 352.05 214.8 351.8 216.85 353.1 216.75
Q 354.45 216.75 355 217.25 355.9 218 356.2 219 356.45 218.45 356.55 217.75 356.75 216.35 356 215.65 355.2 214.95 353.55 214.8 Z"/>
</g>

<g id="Layer0_0_MEMBER_1_MEMBER_1_MEMBER_7_FILL">
<path fill="#833431" stroke="none" d="
M 363.05 221.1
Q 364.6 220 363.1 219 362.75 219.05 362.35 219.25 361.45 219.75 360.95 220.8 360.45 221.85 360.85 223.05 361 223.7 361.3 224.1 361.4 223.6 361.65 223 362.2 221.75 363.05 221.1 Z"/>
</g>

<g id="Layer0_0_MEMBER_1_MEMBER_1_MEMBER_8_FILL">
<path fill="#833431" stroke="none" d="
M 330.6 233.8
Q 332.15 232.7 330.65 231.65 330.3 231.7 329.9 231.95 329 232.4 328.5 233.45 327.95 234.5 328.35 235.7 328.55 236.35 328.85 236.75 328.95 236.25 329.2 235.65 329.75 234.45 330.6 233.8 Z"/>
</g>

<g id="Layer0_0_MEMBER_1_MEMBER_1_MEMBER_9_FILL">
<path fill="#833431" stroke="none" d="
M 348.6 218.1
Q 348.7 216.25 347 216.75
L 346.75 217.55
Q 346.55 218.5 347.05 219.55 347.6 220.6 348.8 221.05 349.4 221.3 349.9 221.3 348.6 219.8 348.6 218.1 Z"/>
</g>

<g id="Layer0_0_MEMBER_1_MEMBER_1_MEMBER_10_FILL">
<path fill="#833431" stroke="none" d="
M 352.7 225.1
L 353.6 225.45
Q 354.6 225.85 355.05 226.2 355.8 226.75 355.5 228.05 356.95 227.2 356.5 225.95 355.95 224.5 354.3 224.65
L 352.7 225.1 Z"/>
</g>

<g id="Layer0_0_MEMBER_1_MEMBER_1_MEMBER_11_FILL">
<path fill="#833431" stroke="none" d="
M 338.9 222.4
L 339.8 222.75
Q 340.8 223.15 341.25 223.5 342 224.05 341.7 225.35 343.15 224.5 342.7 223.25 342.15 221.8 340.5 221.95
L 338.9 222.4 Z"/>
</g>

<g id="Layer0_0_MEMBER_1_MEMBER_1_MEMBER_12_FILL">
<path fill="#833431" stroke="none" d="
M 319.15 227.9
L 320.05 228.25
Q 321.1 228.65 321.55 229 322.3 229.55 321.95 230.85 323.4 230 322.95 228.75 322.45 227.3 320.75 227.45
L 319.15 227.9 Z"/>
</g>

<g id="Layer0_0_MEMBER_1_MEMBER_1_MEMBER_13_FILL">
<path fill="#833431" stroke="none" d="
M 352.95 222.1
L 351.6 220.4
Q 351.25 220.8 350.9 221.45 350.2 222.75 350.2 224.1 350.2 225.8 351.2 226.6 351.2 226.15 351.25 225.55 351.35 224.3 351.8 223.5 352.25 222.65 352.65 222.3 352.85 222.1 352.95 222.1 Z"/>
</g>

<g id="Layer0_0_MEMBER_1_MEMBER_1_MEMBER_14_FILL">
<path fill="#833431" stroke="none" d="
M 319.9 223.8
L 318.55 222.1
Q 318.2 222.45 317.85 223.1 317.15 224.4 317.15 225.75 317.15 227.5 318.15 228.3 318.15 227.85 318.2 227.25 318.3 226 318.75 225.15 319.45 223.85 319.9 223.8 Z"/>
</g>

<g id="Layer0_0_MEMBER_1_MEMBER_2_MEMBER_0_FILL">
<path fill="#833431" stroke="none" d="
M 349.25 228.65
Q 349.75 228.15 351.75 227.6 351.25 227.35 350.5 227.25 349.05 226.95 347.85 227.5 346.6 228.05 346.65 229.15 346.75 230.05 347.4 230.4 348.05 230.75 348.9 230.3 348.75 230.15 348.7 229.85 348.6 229.25 349.25 228.65 Z"/>
</g>

<g id="Layer0_0_MEMBER_1_MEMBER_2_MEMBER_1_FILL">
<path fill="#833431" stroke="none" d="
M 336.35 221.3
Q 336.4 222.05 335.5 223.9 337.55 223.05 338.15 221.05 338.55 219.7 337.7 219.1 336.95 218.55 336.25 218.8 335.8 219 335.55 219.5
L 335.35 219.95 335.85 220.1
Q 336.3 220.45 336.35 221.3 Z"/>
</g>

<g id="Layer0_0_MEMBER_1_MEMBER_2_MEMBER_2_FILL">
<path fill="#833431" stroke="none" d="
M 337.15 232.7
L 337.7 231.7
Q 337.2 231.85 336.55 232.25 335.3 233.1 334.8 234.3 334.25 235.6 335.05 236.3 335.75 236.9 336.5 236.7 337.2 236.5 337.5 235.65 336.55 235.6 336.6 234.2 336.65 233.75 337.15 232.7 Z"/>
</g>

<g id="Layer0_0_MEMBER_1_MEMBER_2_MEMBER_3_FILL">
<path fill="#833431" stroke="none" d="
M 342.9 229
L 342.1 227.85
Q 341.95 229.6 341.05 230.7 340.5 231.35 339.7 232
L 339.05 232.5 340.8 234
Q 342.75 232.15 343.2 231.2 343.65 230.3 342.9 229 Z"/>
</g>

<g id="Layer0_0_MEMBER_1_MEMBER_2_MEMBER_4_FILL">
<path fill="#833431" stroke="none" d="
M 346.1 233.25
L 347.3 231.4
Q 345.5 230.4 344.2 230.45 343.15 230.5 341.9 231.45
L 340.85 232.45 341.75 232.25
Q 342.8 232.05 343.65 232.15 345.2 232.3 346.1 233.25 Z"/>
</g>

<g id="Layer0_0_MEMBER_1_MEMBER_2_MEMBER_5_FILL">
<path fill="#833431" stroke="none" d="
M 338.9 225.4
L 337.85 224.3 336.15 225.55 337.15 226.4
Q 338.1 227.4 338.1 228.15 338.15 229.3 337.65 230.2
L 338.8 229.6
Q 339.9 228.8 339.9 227.75 339.9 226.7 338.9 225.4 Z"/>
</g>

<g id="Layer0_0_MEMBER_1_MEMBER_2_MEMBER_6_FILL">
<path fill="#833431" stroke="none" d="
M 348.8 236.05
Q 350.45 236.1 352.35 234.1
L 351.15 232.4
Q 349.65 234.25 348.5 234.25 347.75 234.2 347.05 233.95
L 346.45 233.7 347 234.85
Q 347.75 236 348.8 236.05 Z"/>
</g>

<g id="Layer0_0_MEMBER_1_MEMBER_2_MEMBER_7_FILL">
<path fill="#833431" stroke="none" d="
M 341.15 237.75
Q 342.95 238.1 342.7 236.35 341.7 235.45 339.9 236 338.8 236.35 338.2 237.5
L 337.8 238.55 338.85 238.05
Q 340.1 237.55 341.15 237.75 Z"/>
</g>

<g id="Layer0_0_MEMBER_1_MEMBER_2_MEMBER_8_FILL">
<path fill="#833431" stroke="none" d="
M 333.1 224.1
Q 334.45 222.85 332.9 222 332.6 222.05 332.15 222.3 331.35 222.85 330.95 223.95 330.55 225.05 331.05 226.25 331.3 226.85 331.65 227.2 331.7 226.7 331.9 226.05 332.3 224.8 333.1 224.1 Z"/>
</g>

<g id="Layer0_0_MEMBER_1_MEMBER_2_MEMBER_9_FILL">
<path fill="#833431" stroke="none" d="
M 351.85 228.35
Q 351 226.7 349.8 227.95
L 349.9 228.75
Q 350.2 229.65 351.15 230.35 352.65 231.45 354.45 230.6 352.6 229.85 351.85 228.35 Z"/>
</g>

<g id="Layer0_0_MEMBER_1_MEMBER_2_MEMBER_10_FILL">
<path fill="#833431" stroke="none" d="
M 332.05 231.2
L 332.4 232.05
Q 332.8 233.05 332.9 233.65 333 234.55 331.8 235.2 333.45 235.7 334.05 234.5 334.75 233.15 333.45 232.05
L 332.05 231.2 Z"/>
</g>

<g id="Layer0_0_MEMBER_1_MEMBER_2_MEMBER_11_FILL">
<path fill="#833431" stroke="none" d="
M 359.8 226.45
Q 359.45 228.1 358.95 228.9 358.5 229.7 357.15 229.5
L 357.8 230.1
Q 358.55 230.65 359.35 230.3 360.75 229.65 360.4 228
L 359.8 226.45 Z"/>
</g>

<g id="Layer0_0_MEMBER_1_MEMBER_2_MEMBER_12_FILL">
<path fill="#833431" stroke="none" d="
M 334.9 229.55
L 335.2 227.35
Q 333.15 227.4 331.55 228.9 330.75 229.65 330.5 230.6 330.4 231.1 330.4 231.4
L 331.2 230.7
Q 332.2 229.9 333.1 229.65 334.55 229.25 334.9 229.55 Z"/>
</g>

<g id="Layer0_0_MEMBER_1_MEMBER_2_MEMBER_13_FILL">
<path fill="#833431" stroke="none" d="
M 327.75 223.45
L 328.05 221.25
Q 326 221.25 324.45 222.8 323.65 223.55 323.4 224.5 323.25 224.95 323.25 225.25
L 324.05 224.55
Q 325.05 223.8 325.95 223.5 327.4 223.1 327.75 223.45 Z"/>
</g>

<g id="Layer0_0_MEMBER_1_MEMBER_3_MEMBER_0_FILL">
<path fill="#833431" stroke="none" d="
M 325.7 234.15
Q 325.35 233.7 324.75 233.3 323.55 232.4 322.25 232.4 320.85 232.35 320.45 233.4 320.15 234.25 320.6 234.8 321.05 235.4 321.95 235.4 321.9 235.15 321.95 234.9 322.15 234.3 323 234.05 323.65 233.8 325.7 234.15 Z"/>
</g>

<g id="Layer0_0_MEMBER_1_MEMBER_3_MEMBER_1_FILL">
<path fill="#833431" stroke="none" d="
M 314.5 221.9
Q 314.25 222.55 312.6 223.85
L 313.9 223.7
Q 315.4 223.35 316.25 222.4 317.2 221.35 316.7 220.4 316.25 219.6 315.5 219.55 315.05 219.55 314.55 219.9
L 314.15 220.25
Q 315.05 220.6 314.5 221.9 Z"/>
</g>

<g id="Layer0_0_MEMBER_1_MEMBER_3_MEMBER_2_FILL">
<path fill="#833431" stroke="none" d="
M 310.4 232.5
Q 310.85 232.15 311.3 231.85 309.1 231.55 307.55 232.95 306.5 233.9 306.95 234.85 307.3 235.7 308.05 235.85 308.75 235.95 309.4 235.3 309.2 235.2 309.05 234.95 308.8 234.4 309.2 233.65 309.4 233.25 310.4 232.5 Z"/>
</g>

<g id="Layer0_0_MEMBER_1_MEMBER_3_MEMBER_3_FILL">
<path fill="#833431" stroke="none" d="
M 317.15 231.65
L 316.9 230.25
Q 316 231.75 314.75 232.35 313.95 232.75 313 233
L 312.15 233.15 313.1 235.25 314.5 234.75
Q 315.95 234.15 316.45 233.75 317.25 233.15 317.15 231.65 Z"/>
</g>

<g id="Layer0_0_MEMBER_1_MEMBER_3_MEMBER_4_FILL">
<path fill="#833431" stroke="none" d="
M 318.2 236.85
L 320.05 235.7
Q 318.9 234 317.7 233.5 316.75 233.1 315.15 233.45
L 313.8 233.85 314.7 234.05
Q 315.7 234.35 316.45 234.8 317.8 235.6 318.2 236.85 Z"/>
</g>

<g id="Layer0_0_MEMBER_1_MEMBER_3_MEMBER_5_FILL">
<path fill="#833431" stroke="none" d="
M 314.95 229.2
Q 315.65 227.7 314.6 225.2
L 312.5 225.6
Q 313.65 227.75 313.2 228.8 312.7 229.85 311.85 230.45 314.25 230.7 314.95 229.2 Z"/>
</g>

<g id="Layer0_0_MEMBER_1_MEMBER_3_MEMBER_6_FILL">
<path fill="#833431" stroke="none" d="
M 319.45 240.5
Q 320.9 241.3 323.45 240.3
L 323.15 238.2
Q 320.95 239.25 319.95 238.75 319.3 238.45 318.75 237.85
L 318.35 237.35 318.35 238.65
Q 318.5 240.05 319.45 240.5 Z"/>
</g>

<g id="Layer0_0_MEMBER_1_MEMBER_3_MEMBER_7_FILL">
<path fill="#833431" stroke="none" d="
M 311.8 238.8
Q 313.3 239.8 313.8 238.15 313.3 236.95 311.45 236.65 310.3 236.5 309.25 237.25
L 308.4 238.05 309.6 238.05
Q 310.95 238.2 311.8 238.8 Z"/>
</g>

<g id="Layer0_0_MEMBER_1_MEMBER_3_MEMBER_8_FILL">
<path fill="#833431" stroke="none" d="
M 310.35 222.95
Q 312.15 222.45 311.1 221 310.8 220.9 310.3 221 309.3 221.15 308.5 221.95 307.65 222.75 307.6 224.05 307.55 224.7 307.7 225.2
L 308.45 224.25
Q 309.35 223.25 310.35 222.95 Z"/>
</g>

<g id="Layer0_0_MEMBER_1_MEMBER_3_MEMBER_9_FILL">
<path fill="#833431" stroke="none" d="
M 326.9 238
Q 325.5 236.55 325.5 234.85 325.5 233 323.8 233.6
L 323.55 234.4
Q 323.45 235.35 324 236.4 324.55 237.45 325.75 237.8 326.4 238 326.9 238 Z"/>
</g>

<g id="Layer0_0_MEMBER_1_MEMBER_3_MEMBER_10_FILL">
<path fill="#833431" stroke="none" d="
M 306.35 228.95
L 306.35 229.9
Q 306.3 230.95 306.1 231.5 305.8 232.4 304.45 232.5
L 305.2 232.95
Q 306.1 233.3 306.75 232.8 307.95 231.85 307.3 230.3
L 306.35 228.95 Z"/>
</g>

<g id="Layer0_0_MEMBER_1_MEMBER_3_MEMBER_11_FILL">
<path fill="#833431" stroke="none" d="
M 333.5 236.55
Q 332.45 237.9 331.7 238.45 331.2 238.75 330.45 238.5
L 329.8 238.15 330.1 239
Q 330.6 239.85 331.45 239.85 333 239.85 333.4 238.2
L 333.5 236.55 Z"/>
</g>

<g id="Layer0_0_MEMBER_1_MEMBER_3_MEMBER_12_FILL">
<path fill="#833431" stroke="none" d="
M 309.65 228.7
L 310.85 226.85
Q 309 226 306.9 226.7 305.85 227.05 305.25 227.75
L 304.8 228.4 305.85 228.1
Q 307.05 227.85 308 228 309.45 228.25 309.65 228.7 Z"/>
</g>

<g id="Layer0_0_MEMBER_1_MEMBER_4_MEMBER_0_FILL">
<path fill="#833431" stroke="none" d="
M 303.1 225
Q 303.8 225.15 305.35 226.5 305.05 224.3 303.3 223.2 302.1 222.45 301.25 223.15 300.55 223.7 300.65 224.45 300.7 225.2 301.5 225.6
L 301.8 225.2
Q 302.25 224.8 303.1 225 Z"/>
</g>

<g id="Layer0_0_MEMBER_1_MEMBER_4_MEMBER_1_FILL">
<path fill="#833431" stroke="none" d="
M 306.05 221.8
Q 307.4 221.4 307.45 220.35 307.45 219.45 306.85 219 306.5 218.75 305.9 218.8
L 305.4 218.9
Q 305.95 219.65 304.8 220.5 304.45 220.75 303.3 221
L 302.2 221.2 303.4 221.75
Q 304.8 222.2 306.05 221.8 Z"/>
</g>

<g id="Layer0_0_MEMBER_1_MEMBER_4_MEMBER_2_FILL">
<path fill="#833431" stroke="none" d="
M 290.95 220.4
Q 291.55 220 293.65 219.9 293.2 219.55 292.5 219.25 291.15 218.65 289.85 218.95 288.5 219.2 288.35 220.3 288.25 221.2 288.8 221.65 289.35 222.15 290.25 221.9 290.15 221.7 290.15 221.4 290.2 220.85 290.95 220.4 Z"/>
</g>

<g id="Layer0_0_MEMBER_1_MEMBER_4_MEMBER_3_FILL">
<path fill="#833431" stroke="none" d="
M 298.8 222.75
Q 299.1 222.05 299.25 221.4 297.7 222.25 296.35 222.15 295.5 222.05 294.5 221.75
L 293.7 221.45 293.45 223.75 294.9 224.05
Q 296.45 224.3 297.1 224.2 298.1 224.1 298.8 222.75 Z"/>
</g>

<g id="Layer0_0_MEMBER_1_MEMBER_4_MEMBER_4_FILL">
<path fill="#833431" stroke="none" d="
M 297 227.75
L 299.2 227.7
Q 299.05 225.65 298.3 224.6 297.7 223.75 296.15 223.25
L 294.75 222.9 295.4 223.55
Q 296.15 224.3 296.55 225.1 297.3 226.5 297 227.75 Z"/>
</g>

<g id="Layer0_0_MEMBER_1_MEMBER_4_MEMBER_5_FILL">
<path fill="#833431" stroke="none" d="
M 298.9 220.25
Q 300.3 219.3 300.65 216.6
L 298.65 215.9
Q 298.5 218.3 297.6 218.95 297 219.4 296.25 219.6
L 295.6 219.7 296.75 220.3
Q 298.05 220.8 298.9 220.25 Z"/>
</g>

<g id="Layer0_0_MEMBER_1_MEMBER_4_MEMBER_6_FILL">
<path fill="#833431" stroke="none" d="
M 297.85 234.1
Q 298.7 235.55 301.4 236
L 302.2 234.05
Q 299.8 233.8 299.15 232.85 298.75 232.25 298.6 231.5
L 298.5 230.85 297.85 231.95
Q 297.3 233.25 297.85 234.1 Z"/>
</g>

<g id="Layer0_0_MEMBER_1_MEMBER_4_MEMBER_7_FILL">
<path fill="#833431" stroke="none" d="
M 290.5 226.15
Q 291.25 227.85 292.55 226.65 292.75 225.3 291.3 224.15 290.4 223.45 289.1 223.55
L 288 223.8 289 224.4
Q 290.05 225.2 290.5 226.15 Z"/>
</g>

<g id="Layer0_0_MEMBER_1_MEMBER_4_MEMBER_8_FILL">
<path fill="#833431" stroke="none" d="
M 295.7 216.35
Q 297.55 216.85 297.35 215.05 296.45 214.1 294.6 214.5 293.5 214.8 292.8 215.85
L 292.3 216.9 293.4 216.5
Q 294.7 216.1 295.7 216.35 Z"/>
</g>

<g id="Layer0_0_MEMBER_1_MEMBER_4_MEMBER_9_FILL">
<path fill="#833431" stroke="none" d="
M 303.35 229.75
Q 304.3 228.15 302.55 227.75 302.25 227.9 301.95 228.3 301.3 229.1 301.25 230.25 301.2 231.4 302.1 232.4 302.5 232.9 302.95 233.15 302.85 232.65 302.85 232 302.8 230.65 303.35 229.75 Z"/>
</g>

<g id="Layer0_0_MEMBER_1_MEMBER_4_MEMBER_10_FILL">
<path fill="#833431" stroke="none" d="
M 290.9 214.9
Q 290.05 216.35 289.35 217 288.9 217.4 288.15 217.2
L 287.45 216.95 287.85 217.75
Q 288.45 218.55 289.25 218.4 290.8 218.25 291 216.55
L 290.9 214.9 Z"/>
</g>

<g id="Layer0_0_MEMBER_1_MEMBER_4_MEMBER_11_FILL">
<path fill="#833431" stroke="none" d="
M 296.05 229.4
Q 294.5 230.05 293.55 230.1 293 230.15 292.45 229.5
L 292.05 228.9 291.9 229.75
Q 291.9 230.7 292.6 231.15 293.9 231.95 295.1 230.75 295.7 230.15 296.05 229.4 Z"/>
</g>

<g id="Layer0_0_MEMBER_1_MEMBER_4_MEMBER_12_FILL">
<path fill="#833431" stroke="none" d="
M 291.65 214.45
L 293.65 213.5
Q 292.5 211.8 290.35 211.35 289.3 211.1 288.35 211.4
L 287.65 211.75 288.7 212
Q 289.9 212.4 290.6 213 291.75 214 291.65 214.45 Z"/>
</g>

<g id="Layer0_0_MEMBER_1_MEMBER_5_FILL">
<path fill="#F2B03D" stroke="none" d="
M 306.4 197.65
Q 302.8 196.1 298.65 196.8 294.2 197.6 291.9 200.6 289.95 203.05 291.35 205.5 292.75 207.85 296.05 208.1 296.45 208.15 296.75 207.8 297.05 207.45 296.95 207.05 296.1 202.9 299.65 200.2 301.6 198.7 306.4 197.65 Z"/>
</g>

<g id="Layer0_0_MEMBER_1_MEMBER_6_FILL">
<path fill="#F2B03D" stroke="none" d="
M 305.45 206.95
Q 306 205.55 308.25 204.05 309.4 203.3 310.85 202.35 307.45 201.8 304.1 202.65 299.35 203.9 298.75 207.6 298.45 209.35 298.7 210.45 299.05 211.8 300.25 212.85 303.35 215.55 306.75 214.45 306.55 213.25 305.5 210.2 304.9 208.4 305.45 206.95 Z"/>
</g>

<g id="Layer0_0_MEMBER_1_MEMBER_7_FILL">
<path fill="#F2B03D" stroke="none" d="
M 315.15 207.3
L 315.2 205
Q 313.9 205.85 312.7 207.2 310.25 209.9 310.55 212.35 311.05 216.05 313.6 217.65 315.35 218.8 317.6 218.75 319.7 218.7 321.85 217 319.25 215.65 317 212.35 315.45 210.05 315.15 207.3 Z"/>
</g>

<g id="Layer0_0_MEMBER_1_MEMBER_8_FILL">
<path fill="#F2B03D" stroke="none" d="
M 329.6 211.9
Q 327.25 210.3 324.6 208.05
L 322.4 206.1 321.85 208.9
Q 321.75 212.2 323.95 214.55 327.6 218.45 333.05 218.65 334.75 218.75 336.25 217.75 336.95 217.25 337.35 216.7 333.35 214.4 329.6 211.9 Z"/>
</g>

<g id="Layer0_0_MEMBER_1_MEMBER_9_FILL">
<path fill="#F2B03D" stroke="none" d="
M 298.25 188.2
Q 293.7 189.65 293.45 194.75 295.7 193.4 297.8 192.95 299.8 192.5 302.65 192.7 306.2 192.9 308.65 193.85 309.9 194.35 310.4 194.75 310.7 193.4 310.35 191.85 309.65 188.85 306.5 188.15 301.7 187.1 298.25 188.2 Z"/>
</g>

<g id="Layer0_0_MEMBER_1_MEMBER_10_FILL">
<path fill="#F2B03D" stroke="none" d="
M 309.15 186.1
Q 310.85 186.65 312.65 188 315.3 190 316.45 192.55
L 318.6 190.45
Q 320.35 187.85 318.45 185.4 316.25 182.65 312.1 182.8 308.2 182.9 305.85 185.4 308.2 185.8 309.15 186.1 Z"/>
</g>

<g id="Layer0_0_MEMBER_1_MEMBER_11_FILL">
<path fill="#F2B03D" stroke="none" d="
M 328.75 190.1
Q 331.4 187.35 329.3 183.8 327.2 180.25 323.35 181.15
L 319.9 182.75
Q 319.9 182.8 321.05 183.5 322.45 184.4 323.55 185.6 324.7 186.85 325.3 189.65 325.6 191 325.7 192.15
L 328.75 190.1 Z"/>
</g>

<g id="Layer0_0_MEMBER_1_MEMBER_12_FILL">
<path fill="#F2B03D" stroke="none" d="
M 339.4 183.15
Q 337.3 181.4 334.15 183.3
L 334.4 184.5
Q 334.45 186 333.4 187.6 332.3 189.2 330.95 190.9
L 329.85 192.3 333.6 192.9
Q 337.75 192.8 339.55 189.15 341.6 185.05 339.4 183.15 Z"/>
</g>

<g id="Layer0_0_MEMBER_1_MEMBER_13_FILL">
<path fill="#F2B03D" stroke="none" d="
M 334.75 206.65
L 330.7 206.1 332.65 209.3
Q 335.6 212.75 340.45 214.05 345.3 215.35 349 213.55 350.85 212.7 351.7 211.55 348.15 209.6 342.8 208.2 339.5 207.35 334.75 206.65 Z"/>
</g>

<g id="Layer0_0_MEMBER_1_MEMBER_14_FILL">
<path fill="#F2B03D" stroke="none" d="
M 340.85 191.3
L 336.8 194.75 340.6 195.3
Q 345.05 195.55 348.3 194.15 351.2 192.9 350.6 189.95
L 349.4 187.25
Q 348.7 187.1 347.3 187.35 345.3 187.75 340.85 191.3 Z"/>
</g>

<g id="Layer0_0_MEMBER_1_MEMBER_15_FILL">
<path fill="#F2B03D" stroke="none" d="
M 344.5 202.6
L 339.35 203.45 341.95 205
Q 345.3 206.65 348.85 207.2 354.65 208.1 357.4 206.15 358.8 205.15 359.05 204 358.05 203.35 353.25 202.4 350.25 201.85 344.5 202.6 Z"/>
</g>

<g id="Layer0_0_MEMBER_1_MEMBER_16_FILL">
<path fill="#F2B03D" stroke="none" d="
M 357.25 194.7
Q 355.15 194 352.35 194.3 349.5 194.65 344.9 196.85
L 340.85 198.95 344.7 199.75
Q 349.5 200.45 354.2 199.9 357 199.55 358.15 197.5 358.75 196.45 358.8 195.5 358.3 195.1 357.25 194.7 Z"/>
</g>

<g id="Layer0_0_MEMBER_1_MEMBER_17_FILL">
<path fill="#FEC554" stroke="none" d="
M 293.45 194.75
Q 298.25 191.9 304.8 193.05 308.1 193.6 310.4 194.75 309.75 193.5 308.4 192.15 305.8 189.5 302.5 189.3 299.2 189.05 296 191.9
L 293.45 194.75 Z"/>
</g>

<g id="Layer0_0_MEMBER_1_MEMBER_18_FILL">
<path fill="#FEC554" stroke="none" d="
M 296.95 205.05
Q 297.25 202.4 298.6 201.2 300.7 199.3 306.4 197.65 304.6 197.75 302.55 198.15 298.4 198.9 297 200.45 295.6 202 296.15 204.9 296.4 206.35 296.95 207.45 296.85 206.35 296.95 205.05 Z"/>
</g>

<g id="Layer0_0_MEMBER_1_MEMBER_19_FILL">
<path fill="#FEC554" stroke="none" d="
M 307.15 205.5
Q 309.05 204.05 310.85 202.35 309.7 202.7 307.85 203.7 305.1 205.2 304.45 206.55 303.85 207.9 305 210.3 305.55 211.5 306.25 212.4 306.1 211 306.1 209.4 306.2 206.25 307.15 205.5 Z"/>
</g>

<g id="Layer0_0_MEMBER_1_MEMBER_20_FILL">
<path fill="#FEC554" stroke="none" d="
M 315.35 206.1
L 315.2 205 314.55 206.65
Q 314.15 208.6 315.2 210.35 317.3 213.8 319.8 215.75 321.05 216.75 321.85 217 320.7 215.9 319.4 214.4 316.85 211.45 316.2 209.55 315.6 207.6 315.35 206.1 Z"/>
</g>

<g id="Layer0_0_MEMBER_1_MEMBER_21_FILL">
<path fill="#FEC554" stroke="none" d="
M 305.85 185.4
L 307.9 185.75
Q 310.35 186.35 312.15 187.65 315.1 189.8 316.45 192.55 316.5 191.2 316.1 189.55 315.3 186.3 313.1 185 310.9 183.7 308.15 184.45
L 305.85 185.4 Z"/>
</g>

<g id="Layer0_0_MEMBER_1_MEMBER_22_FILL">
<path fill="#FEC554" stroke="none" d="
M 326.45 189.25
Q 326.9 185.95 325.2 184.2 323.55 182.45 321.55 182.45
L 319.9 182.75 321.15 183.35
Q 322.6 184.3 323.55 186.05 325.1 188.85 325.7 192.15 326.25 190.85 326.45 189.25 Z"/>
</g>

<g id="Layer0_0_MEMBER_1_MEMBER_23_FILL">
<path fill="#FEC554" stroke="none" d="
M 336.1 183.8
L 334.15 183.3 334.3 184.7
Q 334.3 186.4 333.4 187.6
L 329.85 192.3 333.25 190.55
Q 336.8 188.45 337.35 186.55 337.9 184.7 336.1 183.8 Z"/>
</g>

<g id="Layer0_0_MEMBER_1_MEMBER_24_FILL">
<path fill="#FEC554" stroke="none" d="
M 342.75 189.8
L 336.8 194.75 340.5 193.3
Q 344.45 191.7 346 190.8 348.5 189.3 349.4 187.25 348.7 187.15 347.5 187.4 345.15 187.9 342.75 189.8 Z"/>
</g>

<g id="Layer0_0_MEMBER_1_MEMBER_25_FILL">
<path fill="#FEC554" stroke="none" d="
M 328.95 210.35
Q 326.65 208.65 324.3 207.2
L 322.4 206.1 323.45 207.4
Q 325.05 209.1 328.05 211.25 332.85 214.65 337.35 216.7 332.65 213.05 328.95 210.35 Z"/>
</g>

<g id="Layer0_0_MEMBER_1_MEMBER_26_FILL">
<path fill="#833431" stroke="none" d="
M 336.25 194.35
Q 337.15 194.75 336.6 196.05 336.3 196.7 334.7 198
L 336 197.85
Q 337.45 197.5 338.3 196.55 339.25 195.5 338.75 194.55 338.3 193.75 337.55 193.7 337.1 193.65 336.65 194
L 336.25 194.35 Z"/>
</g>

<g id="Layer0_0_MEMBER_1_MEMBER_27_FILL">
<path fill="#833431" stroke="none" d="
M 331.9 192
L 330.85 190.9 329.15 192.15 330.15 193
Q 331.1 194.05 331.1 194.75 331.15 195.9 330.65 196.8
L 331.8 196.2
Q 332.9 195.4 332.9 194.35 332.9 193.3 331.9 192 Z"/>
</g>

<g id="Layer0_0_MEMBER_1_MEMBER_28_FILL">
<path fill="#833431" stroke="none" d="
M 324.3 192.05
Q 325.65 190.8 324.1 189.95 323.8 190 323.35 190.3 322.55 190.85 322.15 191.95 321.75 193 322.25 194.2 322.5 194.8 322.85 195.2 322.9 194.7 323.1 194.05 323.5 192.75 324.3 192.05 Z"/>
</g>

<g id="Layer0_0_MEMBER_1_MEMBER_29_FILL">
<path fill="#833431" stroke="none" d="
M 327.05 196.05
L 327.35 193.85
Q 325.3 193.9 323.7 195.4 322.9 196.15 322.65 197.1 322.55 197.55 322.55 197.85
L 323.35 197.15
Q 324.35 196.4 325.25 196.15 326.7 195.7 327.05 196.05 Z"/>
</g>

<g id="Layer0_0_MEMBER_1_MEMBER_30_FILL">
<path fill="#833431" stroke="none" d="
M 319.9 197
L 320.2 194.8
Q 318.15 194.8 316.6 196.35 315.8 197.1 315.55 198.05 315.4 198.5 315.4 198.8
L 316.25 198.1
Q 317.25 197.35 318.1 197.1 319.55 196.65 319.9 197 Z"/>
</g>

<g id="Layer0_0_MEMBER_1_MEMBER_31_FILL">
<path fill="#833431" stroke="none" d="
M 310.6 200.45
Q 311.3 200.6 312.9 201.95 312.6 199.75 310.8 198.65 309.65 197.9 308.8 198.6 308.05 199.15 308.15 199.9 308.25 200.65 309.05 201.1
L 309.3 200.65
Q 309.75 200.25 310.6 200.45 Z"/>
</g>

<g id="Layer0_0_MEMBER_1_MEMBER_32_FILL">
<path fill="#833431" stroke="none" d="
M 315.75 193.8
Q 315.4 194.1 314.2 194.35
L 313.1 194.55 314.3 195.1
Q 315.7 195.55 316.95 195.15 318.3 194.75 318.35 193.7 318.4 192.75 317.75 192.35 317.4 192.05 316.8 192.1
L 316.3 192.2
Q 316.85 193 315.75 193.8 Z"/>
</g>

<g id="Layer0_0_MEMBER_1_MEMBER_33_FILL">
<path fill="#833431" stroke="none" d="
M 329.8 200.45
Q 329.8 199.5 329.2 199.1 328.85 198.8 328.25 198.85
L 327.75 198.95
Q 328.3 199.75 327.2 200.55 326.85 200.85 325.65 201.1
L 324.55 201.3 325.75 201.85
Q 327.15 202.3 328.4 201.9 329.75 201.5 329.8 200.45 Z"/>
</g>

<g id="Layer0_0_MEMBER_1_MEMBER_34_FILL">
<path fill="#833431" stroke="none" d="
M 334.2 203.35
L 335.4 203.9
Q 336.8 204.4 338.05 204 339.4 203.55 339.45 202.5 339.45 201.6 338.85 201.15 338.5 200.9 337.9 200.95
L 337.4 201.05
Q 337.95 201.8 336.8 202.65 336.45 202.9 335.3 203.15
L 334.2 203.35 Z"/>
</g>

<g id="Layer0_0_MEMBER_1_MEMBER_35_FILL">
<path fill="#833431" stroke="none" d="
M 319.25 201.5
L 320.35 199.65
Q 318.55 198.65 317.25 198.75 316.2 198.8 315 199.8
L 313.95 200.8 314.8 200.6
Q 315.85 200.4 316.75 200.45 318.3 200.6 319.25 201.5 Z"/>
</g>

<g id="Layer0_0_MEMBER_1_MEMBER_36_FILL">
<path fill="#833431" stroke="none" d="
M 318.1 203.15
L 316.15 204.1 316.8 205.1
Q 317.6 206.15 318.3 206.55 319.7 207.35 322.2 206.65 320.75 206.25 319.65 205.4 318.85 204.8 318.4 203.9
L 318.1 203.15 Z"/>
</g>

<g id="Layer0_0_MEMBER_1_MEMBER_37_FILL">
<path fill="#833431" stroke="none" d="
M 310.95 197.3
Q 312.35 196.35 312.65 193.65
L 310.7 192.95
Q 310.55 195.35 309.6 196.05 309.05 196.45 308.3 196.65
L 307.65 196.8 308.8 197.4
Q 310.1 197.9 310.95 197.3 Z"/>
</g>

<g id="Layer0_0_MEMBER_1_MEMBER_38_FILL">
<path fill="#833431" stroke="none" d="
M 329.95 206.15
Q 331.3 205.25 331.65 202.55
L 329.7 201.85
Q 329.55 204.25 328.6 204.9 328 205.3 327.25 205.5
L 326.65 205.65 327.8 206.25
Q 329.1 206.75 329.95 206.15 Z"/>
</g>

<g id="Layer0_0_MEMBER_1_MEMBER_39_FILL">
<path fill="#833431" stroke="none" d="
M 321.95 199.05
L 321.1 198.8 321.25 200.15
Q 321.55 201.7 322.4 202.55 323.75 203.9 325.55 204.15
L 323.45 200.5
Q 322.9 199.45 321.95 199.05 Z"/>
</g>

<g id="Layer0_0_MEMBER_1_MEMBER_40_FILL">
<path fill="#833431" stroke="none" d="
M 330.1 197.5
L 328.65 197.85 329.8 198.55
Q 331.05 199.4 331.4 200.1 331.9 201.3 332.8 202.55 333.55 199.8 332.8 198.8 331.75 197.45 330.1 197.5 Z"/>
</g>
</defs>

<g transform="matrix( 8, 0, 0, 8, -2093.2,-1200.25) ">
<use xlink:href="#Layer0_0_MEMBER_0_MEMBER_0_FILL"/>
</g>

<g transform="matrix( 8, 0, 0, 8, -2093.2,-1200.25) ">
<use xlink:href="#Layer0_0_MEMBER_0_MEMBER_1_FILL"/>
</g>

<g transform="matrix( 8, 0, 0, 8, -2093.2,-1200.25) ">
<use xlink:href="#Layer0_0_MEMBER_0_MEMBER_2_FILL"/>
</g>

<g transform="matrix( 8, 0, 0, 8, -2093.2,-1200.25) ">
<use xlink:href="#Layer0_0_MEMBER_0_MEMBER_3_FILL"/>
</g>

<g transform="matrix( 8, 0, 0, 8, -2093.2,-1200.25) ">
<use xlink:href="#Layer0_0_MEMBER_1_MEMBER_0_MEMBER_0_FILL"/>
</g>

<g transform="matrix( 8, 0, 0, 8, -2093.2,-1200.25) ">
<use xlink:href="#Layer0_0_MEMBER_1_MEMBER_0_MEMBER_1_FILL"/>
</g>

<g transform="matrix( 8, 0, 0, 8, -2093.2,-1200.25) ">
<use xlink:href="#Layer0_0_MEMBER_1_MEMBER_0_MEMBER_2_FILL"/>
</g>

<g transform="matrix( 8, 0, 0, 8, -2093.2,-1200.25) ">
<use xlink:href="#Layer0_0_MEMBER_1_MEMBER_0_MEMBER_3_FILL"/>
</g>

<g transform="matrix( 8, 0, 0, 8, -2093.2,-1200.25) ">
<use xlink:href="#Layer0_0_MEMBER_1_MEMBER_1_MEMBER_0_FILL"/>
</g>

<g transform="matrix( 8, 0, 0, 8, -2093.2,-1200.25) ">
<use xlink:href="#Layer0_0_MEMBER_1_MEMBER_1_MEMBER_1_FILL"/>
</g>

<g transform="matrix( 8, 0, 0, 8, -2093.2,-1200.25) ">
<use xlink:href="#Layer0_0_MEMBER_1_MEMBER_1_MEMBER_2_FILL"/>
</g>

<g transform="matrix( 8, 0, 0, 8, -2093.2,-1200.25) ">
<use xlink:href="#Layer0_0_MEMBER_1_MEMBER_1_MEMBER_3_FILL"/>
</g>

<g transform="matrix( 8, 0, 0, 8, -2093.2,-1200.25) ">
<use xlink:href="#Layer0_0_MEMBER_1_MEMBER_1_MEMBER_4_FILL"/>
</g>

<g transform="matrix( 8, 0, 0, 8, -2093.2,-1200.25) ">
<use xlink:href="#Layer0_0_MEMBER_1_MEMBER_1_MEMBER_5_FILL"/>
</g>

<g transform="matrix( 8, 0, 0, 8, -2093.2,-1200.25) ">
<use xlink:href="#Layer0_0_MEMBER_1_MEMBER_1_MEMBER_6_FILL"/>
</g>

<g transform="matrix( 8, 0, 0, 8, -2093.2,-1200.25) ">
<use xlink:href="#Layer0_0_MEMBER_1_MEMBER_1_MEMBER_7_FILL"/>
</g>

<g transform="matrix( 8, 0, 0, 8, -2093.2,-1200.25) ">
<use xlink:href="#Layer0_0_MEMBER_1_MEMBER_1_MEMBER_8_FILL"/>
</g>

<g transform="matrix( 8, 0, 0, 8, -2093.2,-1200.25) ">
<use xlink:href="#Layer0_0_MEMBER_1_MEMBER_1_MEMBER_9_FILL"/>
</g>

<g transform="matrix( 8, 0, 0, 8, -2093.2,-1200.25) ">
<use xlink:href="#Layer0_0_MEMBER_1_MEMBER_1_MEMBER_10_FILL"/>
</g>

<g transform="matrix( 8, 0, 0, 8, -2093.2,-1200.25) ">
<use xlink:href="#Layer0_0_MEMBER_1_MEMBER_1_MEMBER_11_FILL"/>
</g>

<g transform="matrix( 8, 0, 0, 8, -2093.2,-1200.25) ">
<use xlink:href="#Layer0_0_MEMBER_1_MEMBER_1_MEMBER_12_FILL"/>
</g>

<g transform="matrix( 8, 0, 0, 8, -2093.2,-1200.25) ">
<use xlink:href="#Layer0_0_MEMBER_1_MEMBER_1_MEMBER_13_FILL"/>
</g>

<g transform="matrix( 8, 0, 0, 8, -2093.2,-1200.25) ">
<use xlink:href="#Layer0_0_MEMBER_1_MEMBER_1_MEMBER_14_FILL"/>
</g>

<g transform="matrix( 8, 0, 0, 8, -2093.2,-1200.25) ">
<use xlink:href="#Layer0_0_MEMBER_1_MEMBER_2_MEMBER_0_FILL"/>
</g>

<g transform="matrix( 8, 0, 0, 8, -2093.2,-1200.25) ">
<use xlink:href="#Layer0_0_MEMBER_1_MEMBER_2_MEMBER_1_FILL"/>
</g>

<g transform="matrix( 8, 0, 0, 8, -2093.2,-1200.25) ">
<use xlink:href="#Layer0_0_MEMBER_1_MEMBER_2_MEMBER_2_FILL"/>
</g>

<g transform="matrix( 8, 0, 0, 8, -2093.2,-1200.25) ">
<use xlink:href="#Layer0_0_MEMBER_1_MEMBER_2_MEMBER_3_FILL"/>
</g>

<g transform="matrix( 8, 0, 0, 8, -2093.2,-1200.25) ">
<use xlink:href="#Layer0_0_MEMBER_1_MEMBER_2_MEMBER_4_FILL"/>
</g>

<g transform="matrix( 8, 0, 0, 8, -2093.2,-1200.25) ">
<use xlink:href="#Layer0_0_MEMBER_1_MEMBER_2_MEMBER_5_FILL"/>
</g>

<g transform="matrix( 8, 0, 0, 8, -2093.2,-1200.25) ">
<use xlink:href="#Layer0_0_MEMBER_1_MEMBER_2_MEMBER_6_FILL"/>
</g>

<g transform="matrix( 8, 0, 0, 8, -2093.2,-1200.25) ">
<use xlink:href="#Layer0_0_MEMBER_1_MEMBER_2_MEMBER_7_FILL"/>
</g>

<g transform="matrix( 8, 0, 0, 8, -2093.2,-1200.25) ">
<use xlink:href="#Layer0_0_MEMBER_1_MEMBER_2_MEMBER_8_FILL"/>
</g>

<g transform="matrix( 8, 0, 0, 8, -2093.2,-1200.25) ">
<use xlink:href="#Layer0_0_MEMBER_1_MEMBER_2_MEMBER_9_FILL"/>
</g>

<g transform="matrix( 8, 0, 0, 8, -2093.2,-1200.25) ">
<use xlink:href="#Layer0_0_MEMBER_1_MEMBER_2_MEMBER_10_FILL"/>
</g>

<g transform="matrix( 8, 0, 0, 8, -2093.2,-1200.25) ">
<use xlink:href="#Layer0_0_MEMBER_1_MEMBER_2_MEMBER_11_FILL"/>
</g>

<g transform="matrix( 8, 0, 0, 8, -2093.2,-1200.25) ">
<use xlink:href="#Layer0_0_MEMBER_1_MEMBER_2_MEMBER_12_FILL"/>
</g>

<g transform="matrix( 8, 0, 0, 8, -2093.2,-1200.25) ">
<use xlink:href="#Layer0_0_MEMBER_1_MEMBER_2_MEMBER_13_FILL"/>
</g>

<g transform="matrix( 8, 0, 0, 8, -2093.2,-1200.25) ">
<use xlink:href="#Layer0_0_MEMBER_1_MEMBER_3_MEMBER_0_FILL"/>
</g>

<g transform="matrix( 8, 0, 0, 8, -2093.2,-1200.25) ">
<use xlink:href="#Layer0_0_MEMBER_1_MEMBER_3_MEMBER_1_FILL"/>
</g>

<g transform="matrix( 8, 0, 0, 8, -2093.2,-1200.25) ">
<use xlink:href="#Layer0_0_MEMBER_1_MEMBER_3_MEMBER_2_FILL"/>
</g>

<g transform="matrix( 8, 0, 0, 8, -2093.2,-1200.25) ">
<use xlink:href="#Layer0_0_MEMBER_1_MEMBER_3_MEMBER_3_FILL"/>
</g>

<g transform="matrix( 8, 0, 0, 8, -2093.2,-1200.25) ">
<use xlink:href="#Layer0_0_MEMBER_1_MEMBER_3_MEMBER_4_FILL"/>
</g>

<g transform="matrix( 8, 0, 0, 8, -2093.2,-1200.25) ">
<use xlink:href="#Layer0_0_MEMBER_1_MEMBER_3_MEMBER_5_FILL"/>
</g>

<g transform="matrix( 8, 0, 0, 8, -2093.2,-1200.25) ">
<use xlink:href="#Layer0_0_MEMBER_1_MEMBER_3_MEMBER_6_FILL"/>
</g>

<g transform="matrix( 8, 0, 0, 8, -2093.2,-1200.25) ">
<use xlink:href="#Layer0_0_MEMBER_1_MEMBER_3_MEMBER_7_FILL"/>
</g>

<g transform="matrix( 8, 0, 0, 8, -2093.2,-1200.25) ">
<use xlink:href="#Layer0_0_MEMBER_1_MEMBER_3_MEMBER_8_FILL"/>
</g>

<g transform="matrix( 8, 0, 0, 8, -2093.2,-1200.25) ">
<use xlink:href="#Layer0_0_MEMBER_1_MEMBER_3_MEMBER_9_FILL"/>
</g>

<g transform="matrix( 8, 0, 0, 8, -2093.2,-1200.25) ">
<use xlink:href="#Layer0_0_MEMBER_1_MEMBER_3_MEMBER_10_FILL"/>
</g>

<g transform="matrix( 8, 0, 0, 8, -2093.2,-1200.25) ">
<use xlink:href="#Layer0_0_MEMBER_1_MEMBER_3_MEMBER_11_FILL"/>
</g>

<g transform="matrix( 8, 0, 0, 8, -2093.2,-1200.25) ">
<use xlink:href="#Layer0_0_MEMBER_1_MEMBER_3_MEMBER_12_FILL"/>
</g>

<g transform="matrix( 8, 0, 0, 8, -2093.2,-1200.25) ">
<use xlink:href="#Layer0_0_MEMBER_1_MEMBER_4_MEMBER_0_FILL"/>
</g>

<g transform="matrix( 8, 0, 0, 8, -2093.2,-1200.25) ">
<use xlink:href="#Layer0_0_MEMBER_1_MEMBER_4_MEMBER_1_FILL"/>
</g>

<g transform="matrix( 8, 0, 0, 8, -2093.2,-1200.25) ">
<use xlink:href="#Layer0_0_MEMBER_1_MEMBER_4_MEMBER_2_FILL"/>
</g>

<g transform="matrix( 8, 0, 0, 8, -2093.2,-1200.25) ">
<use xlink:href="#Layer0_0_MEMBER_1_MEMBER_4_MEMBER_3_FILL"/>
</g>

<g transform="matrix( 8, 0, 0, 8, -2093.2,-1200.25) ">
<use xlink:href="#Layer0_0_MEMBER_1_MEMBER_4_MEMBER_4_FILL"/>
</g>

<g transform="matrix( 8, 0, 0, 8, -2093.2,-1200.25) ">
<use xlink:href="#Layer0_0_MEMBER_1_MEMBER_4_MEMBER_5_FILL"/>
</g>

<g transform="matrix( 8, 0, 0, 8, -2093.2,-1200.25) ">
<use xlink:href="#Layer0_0_MEMBER_1_MEMBER_4_MEMBER_6_FILL"/>
</g>

<g transform="matrix( 8, 0, 0, 8, -2093.2,-1200.25) ">
<use xlink:href="#Layer0_0_MEMBER_1_MEMBER_4_MEMBER_7_FILL"/>
</g>

<g transform="matrix( 8, 0, 0, 8, -2093.2,-1200.25) ">
<use xlink:href="#Layer0_0_MEMBER_1_MEMBER_4_MEMBER_8_FILL"/>
</g>

<g transform="matrix( 8, 0, 0, 8, -2093.2,-1200.25) ">
<use xlink:href="#Layer0_0_MEMBER_1_MEMBER_4_MEMBER_9_FILL"/>
</g>

<g transform="matrix( 8, 0, 0, 8, -2093.2,-1200.25) ">
<use xlink:href="#Layer0_0_MEMBER_1_MEMBER_4_MEMBER_10_FILL"/>
</g>

<g transform="matrix( 8, 0, 0, 8, -2093.2,-1200.25) ">
<use xlink:href="#Layer0_0_MEMBER_1_MEMBER_4_MEMBER_11_FILL"/>
</g>

<g transform="matrix( 8, 0, 0, 8, -2093.2,-1200.25) ">
<use xlink:href="#Layer0_0_MEMBER_1_MEMBER_4_MEMBER_12_FILL"/>
</g>

<g transform="matrix( 8, 0, 0, 8, -2093.2,-1200.25) ">
<use xlink:href="#Layer0_0_MEMBER_1_MEMBER_5_FILL"/>
</g>

<g transform="matrix( 8, 0, 0, 8, -2093.2,-1200.25) ">
<use xlink:href="#Layer0_0_MEMBER_1_MEMBER_6_FILL"/>
</g>

<g transform="matrix( 8, 0, 0, 8, -2093.2,-1200.25) ">
<use xlink:href="#Layer0_0_MEMBER_1_MEMBER_7_FILL"/>
</g>

<g transform="matrix( 8, 0, 0, 8, -2093.2,-1200.25) ">
<use xlink:href="#Layer0_0_MEMBER_1_MEMBER_8_FILL"/>
</g>

<g transform="matrix( 8, 0, 0, 8, -2093.2,-1200.25) ">
<use xlink:href="#Layer0_0_MEMBER_1_MEMBER_9_FILL"/>
</g>

<g transform="matrix( 8, 0, 0, 8, -2093.2,-1200.25) ">
<use xlink:href="#Layer0_0_MEMBER_1_MEMBER_10_FILL"/>
</g>

<g transform="matrix( 8, 0, 0, 8, -2093.2,-1200.25) ">
<use xlink:href="#Layer0_0_MEMBER_1_MEMBER_11_FILL"/>
</g>

<g transform="matrix( 8, 0, 0, 8, -2093.2,-1200.25) ">
<use xlink:href="#Layer0_0_MEMBER_1_MEMBER_12_FILL"/>
</g>

<g transform="matrix( 8, 0, 0, 8, -2093.2,-1200.25) ">
<use xlink:href="#Layer0_0_MEMBER_1_MEMBER_13_FILL"/>
</g>

<g transform="matrix( 8, 0, 0, 8, -2093.2,-1200.25) ">
<use xlink:href="#Layer0_0_MEMBER_1_MEMBER_14_FILL"/>
</g>

<g transform="matrix( 8, 0, 0, 8, -2093.2,-1200.25) ">
<use xlink:href="#Layer0_0_MEMBER_1_MEMBER_15_FILL"/>
</g>

<g transform="matrix( 8, 0, 0, 8, -2093.2,-1200.25) ">
<use xlink:href="#Layer0_0_MEMBER_1_MEMBER_16_FILL"/>
</g>

<g transform="matrix( 8, 0, 0, 8, -2093.2,-1200.25) ">
<use xlink:href="#Layer0_0_MEMBER_1_MEMBER_17_FILL"/>
</g>

<g transform="matrix( 8, 0, 0, 8, -2093.2,-1200.25) ">
<use xlink:href="#Layer0_0_MEMBER_1_MEMBER_18_FILL"/>
</g>

<g transform="matrix( 8, 0, 0, 8, -2093.2,-1200.25) ">
<use xlink:href="#Layer0_0_MEMBER_1_MEMBER_19_FILL"/>
</g>

<g transform="matrix( 8, 0, 0, 8, -2093.2,-1200.25) ">
<use xlink:href="#Layer0_0_MEMBER_1_MEMBER_20_FILL"/>
</g>

<g transform="matrix( 8, 0, 0, 8, -2093.2,-1200.25) ">
<use xlink:href="#Layer0_0_MEMBER_1_MEMBER_21_FILL"/>
</g>

<g transform="matrix( 8, 0, 0, 8, -2093.2,-1200.25) ">
<use xlink:href="#Layer0_0_MEMBER_1_MEMBER_22_FILL"/>
</g>

<g transform="matrix( 8, 0, 0, 8, -2093.2,-1200.25) ">
<use xlink:href="#Layer0_0_MEMBER_1_MEMBER_23_FILL"/>
</g>

<g transform="matrix( 8, 0, 0, 8, -2093.2,-1200.25) ">
<use xlink:href="#Layer0_0_MEMBER_1_MEMBER_24_FILL"/>
</g>

<g transform="matrix( 8, 0, 0, 8, -2093.2,-1200.25) ">
<use xlink:href="#Layer0_0_MEMBER_1_MEMBER_25_FILL"/>
</g>

<g transform="matrix( 8, 0, 0, 8, -2093.2,-1200.25) ">
<use xlink:href="#Layer0_0_MEMBER_1_MEMBER_26_FILL"/>
</g>

<g transform="matrix( 8, 0, 0, 8, -2093.2,-1200.25) ">
<use xlink:href="#Layer0_0_MEMBER_1_MEMBER_27_FILL"/>
</g>

<g transform="matrix( 8, 0, 0, 8, -2093.2,-1200.25) ">
<use xlink:href="#Layer0_0_MEMBER_1_MEMBER_28_FILL"/>
</g>

<g transform="matrix( 8, 0, 0, 8, -2093.2,-1200.25) ">
<use xlink:href="#Layer0_0_MEMBER_1_MEMBER_29_FILL"/>
</g>

<g transform="matrix( 8, 0, 0, 8, -2093.2,-1200.25) ">
<use xlink:href="#Layer0_0_MEMBER_1_MEMBER_30_FILL"/>
</g>

<g transform="matrix( 8, 0, 0, 8, -2093.2,-1200.25) ">
<use xlink:href="#Layer0_0_MEMBER_1_MEMBER_31_FILL"/>
</g>

<g transform="matrix( 8, 0, 0, 8, -2093.2,-1200.25) ">
<use xlink:href="#Layer0_0_MEMBER_1_MEMBER_32_FILL"/>
</g>

<g transform="matrix( 8, 0, 0, 8, -2093.2,-1200.25) ">
<use xlink:href="#Layer0_0_MEMBER_1_MEMBER_33_FILL"/>
</g>

<g transform="matrix( 8, 0, 0, 8, -2093.2,-1200.25) ">
<use xlink:href="#Layer0_0_MEMBER_1_MEMBER_34_FILL"/>
</g>

<g transform="matrix( 8, 0, 0, 8, -2093.2,-1200.25) ">
<use xlink:href="#Layer0_0_MEMBER_1_MEMBER_35_FILL"/>
</g>

<g transform="matrix( 8, 0, 0, 8, -2093.2,-1200.25) ">
<use xlink:href="#Layer0_0_MEMBER_1_MEMBER_36_FILL"/>
</g>

<g transform="matrix( 8, 0, 0, 8, -2093.2,-1200.25) ">
<use xlink:href="#Layer0_0_MEMBER_1_MEMBER_37_FILL"/>
</g>

<g transform="matrix( 8, 0, 0, 8, -2093.2,-1200.25) ">
<use xlink:href="#Layer0_0_MEMBER_1_MEMBER_38_FILL"/>
</g>

<g transform="matrix( 8, 0, 0, 8, -2093.2,-1200.25) ">
<use xlink:href="#Layer0_0_MEMBER_1_MEMBER_39_FILL"/>
</g>

<g transform="matrix( 8, 0, 0, 8, -2093.2,-1200.25) ">
<use xlink:href="#Layer0_0_MEMBER_1_MEMBER_40_FILL"/>
</g>
</svg>
