<?xml version="1.0" encoding="utf-8"?>
<!-- Generator: Adobe Illustrator 19.0.0, SVG Export Plug-In . SVG Version: 6.00 Build 0)  -->
<svg version="1.1" xmlns="http://www.w3.org/2000/svg" xmlns:xlink="http://www.w3.org/1999/xlink" x="0px" y="0px"
	 viewBox="0 0 341.9 339.5" style="enable-background:new 0 0 341.9 339.5;" xml:space="preserve">
<style type="text/css">
	.st0{display:none;}
	.st1{display:inline;fill:#EDF6F9;}
	.st2{display:inline;opacity:0.4;}
	.st3{fill:#DCEDF4;}
	.st4{clip-path:url(#SVGID_2_);fill:#EEEFF1;}
	.st5{clip-path:url(#SVGID_2_);fill:#FF8A37;}
	.st6{clip-path:url(#SVGID_2_);}
	.st7{opacity:0.24;fill:#29ADFF;}
	.st8{fill:#EDF7FA;}
	.st9{fill:#FF7F16;}
	.st10{opacity:0.69;fill:#BFE6FF;}
	.st11{opacity:0.9;fill:#DCEDF4;}
	.st12{fill:#1B193F;}
	.st13{fill:url(#SVGID_3_);}
	.st14{opacity:0.56;fill:#A7DDFF;}
	.st15{fill:#DFEFF5;}
	.st16{fill:#A7DDFF;}
	.st17{fill:#C3E8FF;}
	.st18{fill:#DBF1FF;}
	.st19{fill:#323052;}
	.st20{opacity:0.3;fill:#FF7F16;}
	.st21{opacity:0.35;fill:#FF7F16;}
	.st22{fill:#FF9E4E;}
	.st23{fill:#E8F3F8;}
	.st24{opacity:0.23;fill:#FF9E4E;}
	.st25{opacity:0.8;fill:#FFCEA6;}
	.st26{opacity:0.52;fill:#FF7F16;}
	.st27{opacity:0.55;fill:#FFCEA6;}
	.st28{fill:#242048;}
	.st29{fill:#201B44;}
	.st30{fill:#A59BCD;}
	.st31{fill:#19143E;}
	.st32{fill:#FABE8C;}
	.st33{opacity:0.32;fill:#FABE8C;}
	.st34{opacity:0.14;fill:#FF7F16;}
	.st35{opacity:0.67;fill:#FFE5D0;}
	.st36{fill:#FFE33C;}
	.st37{opacity:0.62;fill:#FFE33C;}
	.st38{opacity:0.85;fill:#FFF9D8;}
	.st39{opacity:0.85;fill:#FCD4B3;}
	.st40{opacity:0.28;fill:#FABE8C;}
	.st41{opacity:0.37;fill:#242048;}
	.st42{fill:#FFE442;}
	.st43{fill:#FFE54C;}
	.st44{fill:#E5F2F7;}
</style>
<g id="BACKGROUND" class="st0">
	<rect x="-284.8" y="-15.2" class="st1" width="750" height="500"/>
	<g class="st2">
		<path class="st3" d="M-244.7,288.4c70.5-8.3,141.8-7.2,212.5-2.9c74.3,4.5,148.3,12.4,222.6,16.9c69.8,4.3,141.1,4.1,208.8-15.4
			c22.7-6.5,45.1-14.6,66-25.6V135.8c-67.9-13.2-137-5.1-203.5,11.6c-70,17.5-137.2,43.9-206.2,64.5
			c-68.4,20.5-138.7,36.2-210.3,39.3c-33,1.4-66.4,1.9-99.2-2.4c-10.4-1.4-20.6-3.3-30.7-5.8v51.8C-271.4,292-258,290-244.7,288.4z"
			/>
		<path class="st3" d="M271,363.1c-41.5-0.4-82.4,3.5-123.3,10.5c-40.7,6.9-80.9,16-121.4,23.8c-40.9,7.8-82,14-123.5,18.2
			c-20.7,2.1-41.4,3.8-62.2,5.2c-19.3,1.3-38.5,3.2-57.8,4.2c-22.3,1.1-45.4,0.9-67.7-3v62.8h750v-79.5
			C407.1,372.4,336.8,363.7,271,363.1z"/>
		<path class="st3" d="M-284.8,102.7c9.5,7,20.5,12.4,31.6,16.5c29.7,11,61.7,14.2,93.2,15.1c30.4,0.8,60.9-0.9,91.2-2.4
			c84.8-4.4,169-15.2,253-27.1c23.5-3.3,44.3-6,67-10c15.1-2.7,30.3-5.5,45.4-8.2c39-6.9,78.2-12.9,117.7-15.7
			c16.7-1.2,33.8-1.9,50.9-1.5v-84.5h-750V102.7z"/>
	</g>
</g>
<g id="OBJECTS">
	<g>
		<defs>
			<rect id="SVGID_1_" width="576" height="360"/>
		</defs>
		<clipPath id="SVGID_2_">
			<use xlink:href="#SVGID_1_"  style="overflow:visible;"/>
		</clipPath>
		<rect x="433.1" y="-81.9" class="st4" width="191.5" height="18.9"/>
		<polygon class="st5" points="471.6,-63 451.1,-63 467.1,-81.9 487.6,-81.9 		"/>
		<polygon class="st5" points="517.2,-63 496.8,-63 512.8,-81.9 533.2,-81.9 		"/>
		<polygon class="st5" points="562.9,-63 542.4,-63 558.4,-81.9 578.9,-81.9 		"/>
		<g class="st6">
			<ellipse class="st7" cx="186.3" cy="302.2" rx="155.6" ry="34.5"/>
			<g>
				
					<rect x="-28.2" y="182.5" transform="matrix(0.8963 -0.4435 0.4435 0.8963 -79.8411 35.5972)" class="st8" width="128.7" height="12"/>
				<polygon class="st9" points="3,211.6 -8.6,217.3 -4.8,202.1 6.8,196.3 				"/>
				<polygon class="st9" points="28.9,198.7 17.3,204.5 21.1,189.3 32.7,183.5 				"/>
				<polygon class="st9" points="54.8,185.9 43.2,191.7 47,176.4 58.6,170.7 				"/>
				<polygon class="st9" points="80.8,173.1 69.1,178.8 72.9,163.6 84.5,157.9 				"/>
				
					<rect x="-26.8" y="188.2" transform="matrix(0.8963 -0.4435 0.4435 0.8963 -80.8914 36.4629)" class="st10" width="128.7" height="6"/>
			</g>
			<g>
				<path class="st3" d="M212.2,244.1h-45.8c-0.6,0-1.2,0.5-1.3,1.1l-6.9,36.5c-0.2,0.8,0.5,1.6,1.3,1.6h58.8c0.8,0,1.5-0.7,1.3-1.6
					l-6.1-36.5C213.4,244.5,212.8,244.1,212.2,244.1z"/>
				<path class="st11" d="M216.6,264.9l-3.3-19.7c-0.1-0.6-0.7-1.1-1.3-1.1h-45.8c-0.6,0-1.2,0.5-1.3,1.1l-3.8,19.9
					C179.6,265,198.1,264.9,216.6,264.9z"/>
				<path class="st12" d="M297.5,255.6H80.2c-4.3,0-7.7-3.5-7.7-7.7v-153c0-4.3,3.5-7.7,7.7-7.7h217.3c4.3,0,7.7,3.5,7.7,7.7v153
					C305.2,252.2,301.8,255.6,297.5,255.6z"/>
				<path class="st3" d="M72.5,231.2v17.2c0,4,3.2,7.2,7.2,7.2H298c4,0,7.2-3.2,7.2-7.2v-17.2H72.5z"/>
				<linearGradient id="SVGID_3_" gradientUnits="userSpaceOnUse" x1="26.8746" y1="283.4063" x2="287.5778" y2="83.5048">
					<stop  offset="6.607500e-004" style="stop-color:#5A43ED"/>
					<stop  offset="1" style="stop-color:#11A4FF"/>
				</linearGradient>
				<rect x="80" y="96.5" class="st13" width="217.7" height="125.5"/>
				<rect x="200" y="126.7" class="st14" width="70.4" height="41.2"/>
				<path class="st15" d="M175.4,166.2c0-2.1-0.5-4-1.3-5.8l3.7-1.8c-1.1-2.3-2.8-4.4-4.8-6l-2.6,3.2c-1.5-1.2-3.3-2.1-5.3-2.5
					l0.9-4c-2.5-0.6-5.2-0.6-7.7,0l0.9,4c-2,0.5-3.8,1.3-5.3,2.6l-2.6-3.2c-2,1.6-3.7,3.7-4.8,6l3.7,1.8c-0.8,1.7-1.3,3.7-1.3,5.7
					c0,0,0,0,0,0l-4.1,0c0,2.6,0.6,5.2,1.7,7.5l3.7-1.8c0.9,1.8,2.1,3.4,3.7,4.6l-2.6,3.2c2,1.6,4.4,2.8,7,3.3l0.9-4
					c0.9,0.2,1.9,0.3,2.9,0.3c1,0,2-0.1,3-0.3l0.9,4c2.5-0.6,4.9-1.7,7-3.4l-2.6-3.2c1.5-1.2,2.8-2.8,3.7-4.6l3.7,1.8
					c1.1-2.4,1.7-4.9,1.7-7.5v-0.1L175.4,166.2z M162.1,173.3c-3.9,0-7.1-3.2-7.1-7.1c0-3.9,3.2-7.1,7.1-7.1c3.9,0,7.1,3.2,7.1,7.1
					C169.2,170.1,166,173.3,162.1,173.3z"/>
				<path class="st15" d="M194.1,204.4c1.1-1.1,1.9-2.4,2.3-3.8l2.9,1c0.6-1.8,0.8-3.8,0.6-5.8l-3.1,0.4c-0.2-1.5-0.7-2.9-1.5-4.2
					l2.6-1.7c-1-1.6-2.5-3.1-4.1-4.1l-1.6,2.6c-1.3-0.8-2.7-1.3-4.2-1.4l0.3-3.1c-1.9-0.2-3.9,0-5.8,0.7l1,2.9
					c-1.4,0.5-2.6,1.3-3.7,2.3c0,0,0,0,0,0l-2.2-2.2c-1.4,1.4-2.4,3.1-3.1,4.9l2.9,1c-0.5,1.4-0.7,2.9-0.5,4.4l-3.1,0.3
					c0.2,1.9,0.9,3.8,1.9,5.5l2.6-1.7c0.4,0.6,0.8,1.2,1.4,1.7c0.5,0.5,1.1,1,1.8,1.4l-1.6,2.6c1.6,1,3.5,1.7,5.5,1.9l0.3-3.1
					c1.5,0.2,3,0,4.4-0.5l1,2.9c1.9-0.6,3.5-1.7,4.9-3.1l0,0L194.1,204.4z M183.3,201.1c-2.1-2.1-2.1-5.4,0-7.5
					c2.1-2.1,5.4-2.1,7.5,0c2.1,2.1,2.1,5.4,0,7.5C188.7,203.2,185.4,203.2,183.3,201.1z"/>
				<g>
					<rect x="99.4" y="125.9" class="st14" width="39.1" height="28.8"/>
					<rect x="93.4" y="120.5" class="st16" width="39.1" height="28.8"/>
					<path class="st17" d="M132.5,149.8H93.4c-0.3,0-0.5-0.2-0.5-0.5v-28.8c0-0.3,0.2-0.5,0.5-0.5h39.1c0.3,0,0.5,0.2,0.5,0.5v28.8
						C133,149.6,132.7,149.8,132.5,149.8z M93.9,148.9H132V121H93.9V148.9z"/>
					<path class="st18" d="M102.7,134.3c-1.8,0-3.3-1.5-3.3-3.3c0-1.8,1.5-3.3,3.3-3.3s3.3,1.5,3.3,3.3
						C106,132.9,104.5,134.3,102.7,134.3z M102.7,129.1c-1.1,0-1.9,0.9-1.9,1.9c0,1.1,0.9,1.9,1.9,1.9c1.1,0,1.9-0.9,1.9-1.9
						C104.6,130,103.7,129.1,102.7,129.1z"/>
					<path class="st18" d="M100.1,144.8c-0.2,0-0.4-0.1-0.5-0.2c-0.3-0.3-0.3-0.7,0-1l10.7-10.4c0.2-0.2,0.6-0.3,0.9-0.1l10.4,7.3
						l5.8-7.3c0.2-0.3,0.7-0.4,1-0.1c0.3,0.2,0.4,0.7,0.1,1l-6.2,7.8c-0.2,0.3-0.6,0.3-0.9,0.1l-10.4-7.3l-10.3,10
						C100.4,144.8,100.2,144.8,100.1,144.8z"/>
				</g>
				<polygon class="st14" points="237.4,87.1 209.8,87.1 99.7,255.6 129.1,255.6 				"/>
				<path class="st14" d="M305.2,108.6V94.3c0-4-3.2-7.2-7.2-7.2h-15.4L163.9,255.6h39.9L305.2,108.6z"/>
				<g>
					<rect x="191.5" y="135.3" class="st16" width="70.7" height="41.3"/>
					<path class="st17" d="M262.1,177.1h-70.7c-0.3,0-0.5-0.2-0.5-0.5v-41.3c0-0.3,0.2-0.5,0.5-0.5h70.7c0.3,0,0.5,0.2,0.5,0.5v41.3
						C262.6,176.9,262.4,177.1,262.1,177.1z M191.9,176.2h69.7v-40.4h-69.7V176.2z"/>
					<path class="st18" d="M232.7,147.3h-33.6c-0.4,0-0.7-0.3-0.7-0.7s0.3-0.7,0.7-0.7h33.6c0.4,0,0.7,0.3,0.7,0.7
						S233.1,147.3,232.7,147.3z"/>
					<path class="st18" d="M222.6,155.9h-23.5c-0.4,0-0.7-0.3-0.7-0.7s0.3-0.7,0.7-0.7h23.5c0.4,0,0.7,0.3,0.7,0.7
						S222.9,155.9,222.6,155.9z"/>
					<path class="st18" d="M217,164.4h-17.9c-0.4,0-0.7-0.3-0.7-0.7c0-0.4,0.3-0.7,0.7-0.7H217c0.4,0,0.7,0.3,0.7,0.7
						C217.7,164.1,217.3,164.4,217,164.4z"/>
				</g>
			</g>
			<path class="st19" d="M145.2,192.6c-0.8-0.1-1.5,0.4-1.6,1.2l-2.8,21.3h-23.2l2.8-20.9c0.1-0.8-0.4-1.5-1.2-1.6
				c-0.8-0.1-1.5,0.4-1.6,1.2l-17.2,130.4c-0.1,0.8,0.4,1.5,1.2,1.6c0.1,0,0.1,0,0.2,0c0.7,0,1.3-0.5,1.4-1.2l2.3-17.4h23.2l-2.2,17
				c-0.1,0.8,0.4,1.5,1.2,1.6c0.1,0,0.1,0,0.2,0c0.7,0,1.3-0.5,1.4-1.2l17.2-130.4C146.5,193.4,146,192.7,145.2,192.6z M140.5,217.9
				l-2.6,19.5h-23.2l2.6-19.5H140.5z M134.9,259.7h-23.2l2.6-19.5h23.2L134.9,259.7z M132,282h-23.2l2.6-19.5h23.2L132,282z
				 M105.8,304.3l2.6-19.5h23.2l-2.6,19.5H105.8z"/>
			<g>
				<rect x="191.2" y="0" class="st3" width="1.4" height="111.4"/>
				<path class="st3" d="M191.8,140.4c-2.4,0-4.5-1-5.9-2.7c-1.5-1.9-2-4.4-1.1-6.8c1.1-3.3,3.1-5.1,4.6-6.5
					c0.8-0.8,1.6-1.4,1.6-1.9v-7.8h1.9v7.8c0,1.3-1,2.2-2.2,3.3c-1.4,1.3-3.2,2.8-4.1,5.7c-0.6,1.8-0.3,3.7,0.8,5.1
					c1.2,1.5,3.1,2.2,5.3,2c1.9-0.2,3.3-1.3,3.9-2.9c0.6-1.7,0-3.4-0.9-4.6c-0.2-0.3-0.6-1,0.2-1.3c0.8-0.4,1.5,0.9,1.5,0.9
					c1.2,1.6,1.9,3.4,1,5.7c-0.8,2.3-2.8,3.8-5.5,4.1C192.5,140.4,192.1,140.4,191.8,140.4z"/>
				<path class="st9" d="M193.2,116.9h-2.6c-1.3,0-2.3-1-2.3-2.3v-4.5c0-1.3,1-2.3,2.3-2.3h2.6c1.3,0,2.3,1,2.3,2.3v4.5
					C195.5,115.9,194.5,116.9,193.2,116.9z"/>
				<path class="st20" d="M194.8,108.3c-2.2,2-4.3,3.9-6.5,5.8v0.6c0,1.2,1,2.2,2.2,2.2h2.9c1.2,0,2.2-1,2.2-2.2V110
					C195.5,109.3,195.2,108.7,194.8,108.3z"/>
			</g>
			<g>
				<path class="st9" d="M286.5,277.2h-36.2c-0.7,0-1.3,0.3-1.7,0.9l-8.9,13.1c-0.9,1.4,0.1,3.2,1.7,3.2h53.9c1.6,0,2.6-1.8,1.7-3.2
					l-8.9-13.1C287.9,277.5,287.2,277.2,286.5,277.2z"/>
				<path class="st21" d="M286.5,277.2h-36.2c-0.7,0-1.3,0.3-1.7,0.9l-8.9,13.1c-0.9,1.4,0.1,3.2,1.7,3.2h53.9
					c1.6,0,2.6-1.8,1.7-3.2l-8.9-13.1C287.9,277.5,287.2,277.2,286.5,277.2z"/>
				<path class="st22" d="M273.4,245.7h-9.9l-11.7,39.6c0,0,6.2,3.7,16.6,3.7c10.5,0,16.6-3.7,16.6-3.7L273.4,245.7z"/>
				<path class="st23" d="M257.3,267l-2.1,7.2c7.7,2.8,18.8,2.8,26.4-1l-2.1-7.2C272.2,268.5,264.6,269,257.3,267z"/>
				<path class="st24" d="M268.6,245.7h-5.1l-11.7,39.6c0,0,6.2,3.7,16.6,3.7c1.6,0,3.1-0.1,4.5-0.2
					C271.3,274.5,269.4,260.1,268.6,245.7z"/>
				<path class="st25" d="M274.2,260c0.8,3.3,1.6,6.5,2.5,9.8c0.3,1,1.8,0.5,1.5-0.4c-0.9-3.2-1.8-6.5-2.5-9.8
					C275.4,258.6,273.9,259,274.2,260L274.2,260z"/>
				<path class="st25" d="M275,257.1c-0.2-0.8-0.3-1.6-0.5-2.4c-0.2-1-1.7-0.6-1.5,0.4c0.2,0.8,0.3,1.6,0.5,2.4
					C273.7,258.5,275.2,258.1,275,257.1L275,257.1z"/>
				<ellipse class="st9" cx="268.5" cy="245.7" rx="4.9" ry="1.2"/>
				<ellipse class="st26" cx="268.5" cy="245.7" rx="2.4" ry="0.6"/>
				<path class="st27" d="M281.9,292.5c2,0,4,0,6.1-0.1c1-0.1,1-1.6,0-1.5c-2,0.1-4,0.2-6.1,0.1
					C280.9,290.9,280.9,292.5,281.9,292.5L281.9,292.5z"/>
				<path class="st27" d="M290.9,292.5c0.6,0,1.2,0,1.9,0c1,0,1-1.5,0-1.5c-0.6,0-1.2,0-1.9,0C289.9,291,289.9,292.5,290.9,292.5
					L290.9,292.5z"/>
			</g>
			<g>
				<path class="st9" d="M197.6,306.8h-36.2c-0.7,0-1.3,0.3-1.7,0.9l-8.9,13.1c-0.9,1.4,0.1,3.2,1.7,3.2h53.9c1.6,0,2.6-1.8,1.7-3.2
					l-8.9-13.1C198.9,307.1,198.2,306.8,197.6,306.8z"/>
				<path class="st21" d="M197.6,306.8h-36.2c-0.7,0-1.3,0.3-1.7,0.9l-8.9,13.1c-0.9,1.4,0.1,3.2,1.7,3.2h53.9
					c1.6,0,2.6-1.8,1.7-3.2l-8.9-13.1C198.9,307.1,198.2,306.8,197.6,306.8z"/>
				<path class="st22" d="M184.4,275.3h-9.9l-11.7,39.6c0,0,6.2,3.7,16.6,3.7c10.5,0,16.6-3.7,16.6-3.7L184.4,275.3z"/>
				<path class="st23" d="M168.3,296.6l-2.1,7.2c7.7,2.8,18.8,2.8,26.4-1l-2.1-7.2C183.2,298.1,175.6,298.5,168.3,296.6z"/>
				<path class="st24" d="M179.6,275.3h-5.1l-11.7,39.6c0,0,6.2,3.7,16.6,3.7c1.6,0,3.1-0.1,4.5-0.2
					C182.3,304,180.4,289.7,179.6,275.3z"/>
				<path class="st25" d="M185.2,289.6c0.8,3.3,1.6,6.5,2.5,9.8c0.3,1,1.8,0.5,1.5-0.4c-0.9-3.2-1.8-6.5-2.5-9.8
					C186.5,288.2,185,288.6,185.2,289.6L185.2,289.6z"/>
				<path class="st25" d="M186,286.7c-0.2-0.8-0.3-1.6-0.5-2.4c-0.2-1-1.7-0.6-1.5,0.4c0.2,0.8,0.3,1.6,0.5,2.4
					C184.7,288,186.2,287.6,186,286.7L186,286.7z"/>
				<ellipse class="st9" cx="179.5" cy="275.3" rx="4.9" ry="1.2"/>
				<ellipse class="st26" cx="179.5" cy="275.2" rx="2.4" ry="0.6"/>
				<path class="st27" d="M192.9,322.1c2,0,4,0,6.1-0.1c1-0.1,1-1.6,0-1.5c-2,0.1-4,0.2-6.1,0.1
					C191.9,320.5,191.9,322.1,192.9,322.1L192.9,322.1z"/>
				<path class="st27" d="M201.9,322.1c0.6,0,1.2,0,1.9,0c1,0,1-1.5,0-1.5c-0.6,0-1.2,0-1.9,0C200.9,320.6,200.9,322.1,201.9,322.1
					L201.9,322.1z"/>
			</g>
			<g>
				<path class="st12" d="M85.9,307.1c0.7,1,6,0.4,6.4,1.7c0.5,1.3-7.3,2-8.3,0.7c-0.6-0.7-0.4-1.7-1.1-3
					C82.5,305.5,84.6,305,85.9,307.1z"/>
				<path class="st12" d="M59.9,309c-0.3,1.1-5.6,2.1-5.7,3.5c-0.1,1.4,7.5-0.2,8.1-1.7c0.3-0.8-0.1-1.7,0.2-3.2
					C62.8,306.5,60.6,306.7,59.9,309z"/>
				<path class="st28" d="M56.6,267c-0.6,2.2-2.4,22.6,2.8,40.9c0.3,1.2,3.7,0.7,3.7,0c0-0.7,1.6-26.6,5.5-27.9
					c3.9-1.3,13.5,27,14.3,27.7c0.8,0.8,3.5-0.5,3.5-1.3c0-0.8-1.4-22.4-8.6-42.1C77.3,263,57.2,264.9,56.6,267z"/>
				<path class="st29" d="M63.2,264.9c-3.5,0.6-6.3,1.3-6.5,2.1c-0.6,2.2-2.4,22.6,2.8,40.9c0.1,0.3,0.3,0.4,0.6,0.5
					C58.7,294.7,60.6,278.3,63.2,264.9z"/>
				<path class="st30" d="M78,277.6c0.9,3.3,1.8,6.6,2.6,9.9c0.2,0.9,1.6,0.5,1.3-0.4c-0.9-3.3-1.8-6.6-2.6-9.9
					C79.1,276.3,77.7,276.7,78,277.6L78,277.6z"/>
				<path class="st30" d="M81.3,289.3c0.1,0.9,0.3,1.8,0.7,2.7c0.2,0.3,0.7,0.4,1,0.3c0.4-0.2,0.4-0.6,0.3-1c-0.3-0.6-0.4-1.3-0.5-2
					C82.6,288.4,81.2,288.4,81.3,289.3L81.3,289.3z"/>
				<path class="st31" d="M47.5,223.5c0.1,5,5.5,11.2,9.9,11.5c6,0.5,9.1-13.1,5.4-18.8C59.2,210.6,47.5,218.1,47.5,223.5z"/>
				<path class="st32" d="M53.5,227.8c0,0-1.6,0.9-1,2.6c0.7,1.7,2.9,0.9,2.9,0.9s4.2,3.4,3.4,8.2c-0.9,4.8,9,1.8,8.2,0.2
					c-0.8-1.7-1.9-4.1-1.6-4.9c0.3-1,3.1-3.1,3.1-5.7c0.1-2.6-2.7-10.3-4.1-11.1c-0.9-0.6-5-0.9-7.4,0.2S52,223.2,53.5,227.8z"/>
				<path class="st33" d="M65.8,236.7c-2.4,0-4.9-0.3-7.3-0.9c0.4,1.1,0.6,2.4,0.3,3.8c-0.9,4.8,9,1.8,8.2,0.2
					C66.6,238.8,66.1,237.7,65.8,236.7z"/>
				<path class="st9" d="M47.5,226.8c-1.8-2.8-2.2-10.2,2.6-13.4c7.6-5,13.9,1.3,14.5,2.5C65.1,216.8,48,227.5,47.5,226.8z"/>
				<path class="st21" d="M47.5,226.8c-1.8-2.8-2.2-10.2,2.6-13.4c7.6-5,13.9,1.3,14.5,2.5C65.1,216.8,48,227.5,47.5,226.8z"/>
				<path class="st21" d="M62.1,213.5c-4.8,2.4-9.9,3.8-15.2,4c-1.3,3.4-0.7,7.4,0.6,9.3c0.5,0.8,17.6-10,17.1-10.9
					C64.4,215.5,63.5,214.4,62.1,213.5z"/>
				<path class="st9" d="M46.6,225.9c-0.3,0.7,1.1,3.2,1.8,3.2c0.8,0,17.5-10.2,17.9-11c0.4-0.8-1.2-4.2-2.4-3.8
					C62.8,214.6,46.9,225.1,46.6,225.9z"/>
				<path class="st34" d="M46.6,226.5c0.2,1,1.2,2.5,1.8,2.5c0.8,0,17.5-10.2,17.9-11c0.2-0.4,0-1.2-0.4-2
					C60.3,220.7,53.5,224.2,46.6,226.5z"/>
				<path class="st35" d="M48.4,216.5c0.6,0.9,1.4,1.6,2.3,2.1c0.7,0.5,1.4-0.7,0.7-1.1c-0.7-0.4-1.3-1-1.8-1.7
					C49.1,215.1,47.9,215.8,48.4,216.5L48.4,216.5z"/>
				<path class="st35" d="M51.4,214.7c0.6,0.4,1,1,1.3,1.6c0.1,0.3,0.6,0.4,0.9,0.2c0.3-0.2,0.4-0.6,0.2-0.9c-0.4-0.9-1-1.5-1.7-2.1
					c-0.3-0.2-0.7,0-0.9,0.2C51,214.2,51.1,214.5,51.4,214.7L51.4,214.7z"/>
				<path class="st35" d="M54.4,213.2c0.5,0.5,0.6,1.3,0.7,2c0.1,0.8,1.4,0.8,1.3,0c-0.1-1.1-0.3-2.1-1-2.9
					C54.7,211.7,53.8,212.6,54.4,213.2L54.4,213.2z"/>
				<path class="st32" d="M34.5,221c-1.1-1.4-0.5-5.2,1.2-5.5c1.7-0.3,2.3,2.6,2.3,4.4C38,221.7,35.2,221.8,34.5,221z"/>
				<path class="st36" d="M66.4,238c1.9,0,15.4,5.3,16.5,8.6c1.1,3.3-5.1,15.6-6.5,17c-1.4,1.4-2.5-1.8-2.5-3
					c0-1.2,1.9-7.8,1.5-10.2c-0.4-2.4-5.5-1.7-5.5-1.7L66.4,238z"/>
				<path class="st36" d="M59.1,239.4c1,0.7,5.6,1.6,7.3-1.4c0.3-0.5,5,3.9,6.7,9.1c1.7,5.3,5.7,16.7,5.2,18.2
					c-0.5,1.5-4.7,3.2-10,3.9c-5.3,0.7-12.3-0.5-12.3-1.3c0-0.9,0.4-15.2-0.6-17.1c-1-1.9-9.7-4.7-15.4-13.4
					c-5.8-8.7-6.3-15.5-6.3-16.3c0-0.7,5.3-2.2,5.3-1c0,1.3,1,7.9,7,14.3C52.3,241.2,58.4,238.9,59.1,239.4z"/>
				<path class="st37" d="M59.8,247.1c-4.5-5.6-11.4-8.5-16.3-13.7c-3.7-3.8-6.3-8.3-8-13.2c-1,0.3-1.9,0.7-1.9,1
					c0,0.7,0.6,7.6,6.3,16.3c5.7,8.7,14.4,11.5,15.4,13.4c1,1.9,0.6,16.2,0.6,17.1c0,0.8,5.9,1.9,11,1.5
					C66.5,261.3,64.9,253.3,59.8,247.1z"/>
				<path class="st38" d="M71.8,252.7c0.5,1.8,1,3.6,1.7,5.4c0.3,0.8,1.6,0.4,1.3-0.3c-0.7-1.8-1.2-3.6-1.7-5.4
					C72.9,251.5,71.6,251.9,71.8,252.7L71.8,252.7z"/>
				<path class="st38" d="M74.1,260.2c0.1,0.4,0.3,0.7,0.4,1.1c0.3,0.8,1.6,0.4,1.3-0.3c-0.1-0.4-0.3-0.7-0.4-1.1
					C75.1,259.1,73.9,259.4,74.1,260.2L74.1,260.2z"/>
				<path class="st38" d="M74.4,244.5c1.1,0.4,2.1,1,3.1,1.6c0.7,0.5,1.4-0.7,0.7-1.1c-1.1-0.7-2.2-1.3-3.4-1.7
					C74,242.9,73.7,244.1,74.4,244.5L74.4,244.5z"/>
				<path class="st38" d="M78.9,246.7c0.3,0.5,0.6,0.9,0.9,1.4c0.5,0.7,1.6,0,1.1-0.7c-0.3-0.5-0.6-0.9-0.9-1.4
					C79.5,245.3,78.4,246,78.9,246.7L78.9,246.7z"/>
				<path class="st39" d="M64.3,221.7c0.6,1.3,1.1,2.5,1.5,3.9c0.1,0.4,0.8,0.2,0.7-0.2c-0.4-1.4-1-2.7-1.6-4
					C64.7,220.9,64.1,221.3,64.3,221.7L64.3,221.7z"/>
				<path class="st39" d="M66.3,226.7c0.1,0.3,0.2,0.5,0.2,0.8c0.1,0.4,0.8,0.3,0.7-0.2c-0.1-0.4-0.2-0.7-0.3-1
					C66.7,226,66.1,226.3,66.3,226.7L66.3,226.7z"/>
			</g>
			<g>
				<path class="st31" d="M261.5,55.1c3.5-0.4,5.4-6,4.8-10.4c-0.5-4.3-3-8.5-9.4-7.3c-6.4,1.2-6.5,2.2-7.1,5.4
					C249.4,46.1,259.5,55.4,261.5,55.1z"/>
				<path class="st32" d="M249.6,43.4c-0.6,1.5-0.3,8,1.6,10.2c1.9,2.2,4.2,0.5,3.9,2.9c-0.5,5.4-0.9,5.2,3.4,4.6
					c4.3-0.5,4.5-2.7,4.4-3.6c-0.1-0.9-1.2-5.4-0.8-5.9c0.4-0.5,2-0.9,1.8-2.7c-0.3-1.8-2.2-0.9-2.2-1.5c-0.1-0.5-0.6-5.9-4.6-6.2
					C253.1,40.9,250.4,41.5,249.6,43.4z"/>
				<path class="st40" d="M262.4,54.2c-2.3,1.4-4.7,2.5-7.3,3.2c-0.5,4.5-0.5,4.2,3.5,3.7c4.3-0.5,4.5-2.7,4.4-3.6
					C262.9,57.1,262.6,55.6,262.4,54.2z"/>
				<g>
					<path class="st9" d="M267.7,43.7c0.2-3.1-2.8-9.4-8.3-9.8c-8.5-0.6-10.8,7.4-10.8,8.7C248.7,43.6,267.6,44.5,267.7,43.7z"/>
					<path class="st21" d="M267.7,43.7c0.2-3.1-2.8-9.4-8.3-9.8c-8.5-0.6-10.8,7.4-10.8,8.7C248.7,43.6,267.6,44.5,267.7,43.7z"/>
					<path class="st21" d="M249.6,39.5c5-0.3,9.8-1.4,14.3-3.7c2.6,2.2,3.9,5.7,3.8,7.8c-0.1,0.8-19-0.1-19-1.1
						C248.6,42.2,248.9,40.9,249.6,39.5z"/>
					<path class="st9" d="M268,42.5c0.6,0.4,0.6,3.1-0.1,3.4c-0.6,0.4-19.1-0.3-19.8-0.8s-0.9-4,0.2-4.2
						C249.5,40.7,267.4,42,268,42.5z"/>
					<path class="st34" d="M268.3,43c0.3,0.9,0.2,2.6-0.4,2.9c-0.6,0.4-19.1-0.3-19.8-0.8c-0.3-0.2-0.5-1-0.6-1.8
						C254.4,44.6,261.6,44.4,268.3,43z"/>
					<path class="st35" d="M261,35.6c-0.1,0.8-0.3,1.5-0.7,2.2c-0.4,0.7,0.7,1.3,1.1,0.6c0.5-0.9,0.8-1.8,0.9-2.8
						C262.3,34.9,261.1,34.9,261,35.6L261,35.6z"/>
					<path class="st35" d="M257.9,35c-0.4,0.8-0.5,1.6-0.5,2.5c0.1,0.8,1.3,0.8,1.2,0c-0.1-0.7,0-1.3,0.3-1.9
						C259.2,34.9,258.2,34.3,257.9,35L257.9,35z"/>
					<path class="st35" d="M254.6,35.4c-0.3,1,0.1,1.9,0.5,2.8c0.3,0.7,1.4,0.1,1.1-0.6c-0.3-0.6-0.5-1.2-0.4-1.9
						C256,35,254.8,34.6,254.6,35.4L254.6,35.4z"/>
				</g>
				<path class="st31" d="M254.6,117.7c0.1,1.3-4.9,4.3-4.4,5.8c0.5,1.5,7.6-3.1,7.7-4.9c0-1-0.8-1.7-1.1-3.3
					C256.5,114.1,254.4,115.1,254.6,117.7z"/>
				<path class="st31" d="M260.6,106.7c1,0.6,0.7,5.7,2,6.1c1.3,0.4,1.5-7.1,0.2-8c-0.7-0.5-1.6-0.3-3-0.9
					C258.9,103.4,258.5,105.5,260.6,106.7z"/>
				<path class="st28" d="M244.2,77.8c-1.7,1-8.9,11.2-6.8,18.6c2.9,10.4,16.9,11.9,22.5,11.3c0.8-0.1,1-3.4,0.5-4.4
					c-0.5-1-12.7-0.8-11.9-8.3c0.9-7.6,7.5-11.8,6.6-13.1C254.2,80.5,245.4,77.1,244.2,77.8z"/>
				<path class="st41" d="M244.2,77.8c-1.7,1-8.9,11.2-6.8,18.6c2.9,10.4,16.9,11.9,22.5,11.3c0.8-0.1,1-3.4,0.5-4.4
					c-0.5-1-12.7-0.8-11.9-8.3c0.9-7.6,7.5-11.8,6.6-13.1C254.2,80.5,245.4,77.1,244.2,77.8z"/>
				<path class="st28" d="M252,80c-1.6,1.3-7.1,8.6-8.4,18.9c-1.3,10.4,9.4,18.6,10.1,19.3c0.7,0.7,3.6-1.5,4.1-2
					c0.5-0.5-6.4-10.6-4.7-15.8c2.2-6.6,9.9-5.9,12.6-8.9c2.7-2.9,1.9-8.6,1.3-9.6C266.2,80.4,253.7,78.7,252,80z"/>
				<path class="st42" d="M254.6,58.1c-0.7,0.2-4.5,2.6-5.8,7.4c-1.1,3.9-2.8,10-4.5,13.2c-1.4,2.6,21.9,6.8,23.2,4.6
					c1-1.7,0.6-11.7,0.1-16.5c-0.4-4.8-1.8-8.8-4.4-9.4c-0.7-0.1-2.7,2.1-5.2,2.1C256.1,59.5,255,58,254.6,58.1z"/>
				<path class="st37" d="M267.1,64c-3.4,1.6-4.9,3.9-6.8,7.4c-1.3,2.5-2.8,4.8-4.5,7c-1.1,1.3-2.3,2.6-3.5,3.8
					c6.4,1.4,14.5,2.3,15.2,1.1c1-1.7,0.6-11.7,0.1-16.5C267.5,65.9,267.4,64.9,267.1,64z"/>
				<path class="st3" d="M248.3,76.1l-9.1,5.2l15.8,9.3l8.3-4.8c0.4-0.2,0.4-0.7,0-1L248.3,76.1z"/>
				<path class="st3" d="M248.3,76.1l-9.1,5.2l15.8,9.3l8.3-4.8c0.4-0.2,0.4-0.7,0-1L248.3,76.1z"/>
				<path class="st43" d="M265.9,58.8c-1.7-1.1-3.4,1.4-3.4,2.9c0,3.3,1.1,10.9-1.5,14.7c-2.5,3.7-6.3,7.5-7.2,8.3
					c-1,1-0.7,4.1,0.7,4.1c1.5,0,11-6,13.7-12.2C270.9,70.6,267.8,60,265.9,58.8z"/>
				<path class="st44" d="M238.3,80.9V65.3c0-0.4,0.4-0.6,0.7-0.4l15.6,9.2c0.1,0.1,0.2,0.2,0.2,0.4v16.1L238.3,80.9z"/>
				<path class="st38" d="M251.2,67.9c0.4-1.3,0.6-2.6,0.9-3.9c0.1-0.8-1.1-1.2-1.3-0.3c-0.2,1.3-0.5,2.6-0.9,3.9
					C249.7,68.4,250.9,68.7,251.2,67.9L251.2,67.9z"/>
				<path class="st38" d="M266.3,68c0.2,1.8,0.4,3.6-0.4,5.3c-0.3,0.8,0.8,1.4,1.1,0.7c0.9-1.9,0.8-3.9,0.6-5.9
					C267.5,67.2,266.2,67.2,266.3,68L266.3,68z"/>
				<path class="st38" d="M265.1,75.6c-0.3,0.5-0.5,1.1-0.8,1.6c-0.4,0.8,0.7,1.4,1.1,0.7c0.3-0.5,0.5-1.1,0.8-1.6
					C266.7,75.5,265.5,74.9,265.1,75.6L265.1,75.6z"/>
				<path class="st39" d="M250.4,48.9c0.1,0.8,0.3,1.5,0.7,2.3c0.2,0.4,0.8,0.1,0.6-0.4c-0.3-0.6-0.5-1.2-0.6-1.9
					C251,48.5,250.3,48.5,250.4,48.9L250.4,48.9z"/>
				<path class="st39" d="M250.9,47.4c-0.1-0.1-0.1-0.3,0-0.4c0.1-0.4-0.6-0.6-0.7-0.2c-0.1,0.3-0.1,0.6,0.1,1
					C250.4,48.2,251,47.9,250.9,47.4L250.9,47.4z"/>
			</g>
		</g>
	</g>
</g>
<g id="DESIGNED_BY_FREEPIK" class="st0">
</g>
</svg>
